G04 #@! TF.GenerationSoftware,KiCad,Pcbnew,(5.1.9)-1*
G04 #@! TF.CreationDate,2021-01-07T21:38:47-08:00*
G04 #@! TF.ProjectId,Hermes,4865726d-6573-42e6-9b69-6361645f7063,rev?*
G04 #@! TF.SameCoordinates,Original*
G04 #@! TF.FileFunction,Copper,L4,Bot*
G04 #@! TF.FilePolarity,Positive*
%FSLAX46Y46*%
G04 Gerber Fmt 4.6, Leading zero omitted, Abs format (unit mm)*
G04 Created by KiCad (PCBNEW (5.1.9)-1) date 2021-01-07 21:38:47*
%MOMM*%
%LPD*%
G01*
G04 APERTURE LIST*
G04 #@! TA.AperFunction,SMDPad,CuDef*
%ADD10R,1.550000X1.000000*%
G04 #@! TD*
G04 #@! TA.AperFunction,SMDPad,CuDef*
%ADD11R,1.400000X0.800000*%
G04 #@! TD*
G04 #@! TA.AperFunction,SMDPad,CuDef*
%ADD12R,1.000000X1.450000*%
G04 #@! TD*
G04 #@! TA.AperFunction,SMDPad,CuDef*
%ADD13R,1.500000X0.800000*%
G04 #@! TD*
G04 #@! TA.AperFunction,SMDPad,CuDef*
%ADD14R,1.750000X0.800000*%
G04 #@! TD*
G04 #@! TA.AperFunction,SMDPad,CuDef*
%ADD15R,1.500000X1.500000*%
G04 #@! TD*
G04 #@! TA.AperFunction,SMDPad,CuDef*
%ADD16R,1.500000X1.300000*%
G04 #@! TD*
G04 #@! TA.AperFunction,SMDPad,CuDef*
%ADD17R,1.650000X2.300000*%
G04 #@! TD*
G04 #@! TA.AperFunction,SMDPad,CuDef*
%ADD18R,1.900000X1.100000*%
G04 #@! TD*
G04 #@! TA.AperFunction,SMDPad,CuDef*
%ADD19R,2.000000X1.500000*%
G04 #@! TD*
G04 #@! TA.AperFunction,SMDPad,CuDef*
%ADD20R,2.000000X3.800000*%
G04 #@! TD*
G04 #@! TA.AperFunction,SMDPad,CuDef*
%ADD21R,8.510000X7.870000*%
G04 #@! TD*
G04 #@! TA.AperFunction,SMDPad,CuDef*
%ADD22R,3.810000X1.620000*%
G04 #@! TD*
G04 #@! TA.AperFunction,SMDPad,CuDef*
%ADD23R,1.300000X0.600000*%
G04 #@! TD*
G04 #@! TA.AperFunction,ComponentPad*
%ADD24C,2.600000*%
G04 #@! TD*
G04 #@! TA.AperFunction,ComponentPad*
%ADD25R,2.600000X2.600000*%
G04 #@! TD*
G04 #@! TA.AperFunction,SMDPad,CuDef*
%ADD26R,2.400000X0.740000*%
G04 #@! TD*
G04 #@! TA.AperFunction,ComponentPad*
%ADD27O,1.550000X0.775000*%
G04 #@! TD*
G04 #@! TA.AperFunction,ComponentPad*
%ADD28O,0.650000X1.300000*%
G04 #@! TD*
G04 #@! TA.AperFunction,SMDPad,CuDef*
%ADD29R,1.785000X0.650000*%
G04 #@! TD*
G04 #@! TA.AperFunction,SMDPad,CuDef*
%ADD30R,1.220000X0.650000*%
G04 #@! TD*
G04 #@! TA.AperFunction,SMDPad,CuDef*
%ADD31R,0.600000X0.450000*%
G04 #@! TD*
G04 #@! TA.AperFunction,ComponentPad*
%ADD32R,1.700000X1.700000*%
G04 #@! TD*
G04 #@! TA.AperFunction,ComponentPad*
%ADD33O,1.700000X1.700000*%
G04 #@! TD*
G04 #@! TA.AperFunction,ViaPad*
%ADD34C,0.800000*%
G04 #@! TD*
G04 #@! TA.AperFunction,ViaPad*
%ADD35C,1.000000*%
G04 #@! TD*
G04 #@! TA.AperFunction,Conductor*
%ADD36C,0.250000*%
G04 #@! TD*
G04 #@! TA.AperFunction,Conductor*
%ADD37C,0.500000*%
G04 #@! TD*
G04 #@! TA.AperFunction,Conductor*
%ADD38C,1.000000*%
G04 #@! TD*
G04 APERTURE END LIST*
G04 #@! TO.P,R11,2*
G04 #@! TO.N,VDDIO*
G04 #@! TA.AperFunction,SMDPad,CuDef*
G36*
G01*
X34900000Y-63775000D02*
X34900000Y-63225000D01*
G75*
G02*
X35100000Y-63025000I200000J0D01*
G01*
X35500000Y-63025000D01*
G75*
G02*
X35700000Y-63225000I0J-200000D01*
G01*
X35700000Y-63775000D01*
G75*
G02*
X35500000Y-63975000I-200000J0D01*
G01*
X35100000Y-63975000D01*
G75*
G02*
X34900000Y-63775000I0J200000D01*
G01*
G37*
G04 #@! TD.AperFunction*
G04 #@! TO.P,R11,1*
G04 #@! TO.N,RX*
G04 #@! TA.AperFunction,SMDPad,CuDef*
G36*
G01*
X33250000Y-63775000D02*
X33250000Y-63225000D01*
G75*
G02*
X33450000Y-63025000I200000J0D01*
G01*
X33850000Y-63025000D01*
G75*
G02*
X34050000Y-63225000I0J-200000D01*
G01*
X34050000Y-63775000D01*
G75*
G02*
X33850000Y-63975000I-200000J0D01*
G01*
X33450000Y-63975000D01*
G75*
G02*
X33250000Y-63775000I0J200000D01*
G01*
G37*
G04 #@! TD.AperFunction*
G04 #@! TD*
G04 #@! TO.P,C5,2*
G04 #@! TO.N,VDDIO*
G04 #@! TA.AperFunction,SMDPad,CuDef*
G36*
G01*
X40225000Y-46650000D02*
X40225000Y-46150000D01*
G75*
G02*
X40450000Y-45925000I225000J0D01*
G01*
X40900000Y-45925000D01*
G75*
G02*
X41125000Y-46150000I0J-225000D01*
G01*
X41125000Y-46650000D01*
G75*
G02*
X40900000Y-46875000I-225000J0D01*
G01*
X40450000Y-46875000D01*
G75*
G02*
X40225000Y-46650000I0J225000D01*
G01*
G37*
G04 #@! TD.AperFunction*
G04 #@! TO.P,C5,1*
G04 #@! TO.N,GND*
G04 #@! TA.AperFunction,SMDPad,CuDef*
G36*
G01*
X38675000Y-46650000D02*
X38675000Y-46150000D01*
G75*
G02*
X38900000Y-45925000I225000J0D01*
G01*
X39350000Y-45925000D01*
G75*
G02*
X39575000Y-46150000I0J-225000D01*
G01*
X39575000Y-46650000D01*
G75*
G02*
X39350000Y-46875000I-225000J0D01*
G01*
X38900000Y-46875000D01*
G75*
G02*
X38675000Y-46650000I0J225000D01*
G01*
G37*
G04 #@! TD.AperFunction*
G04 #@! TD*
G04 #@! TO.P,R14,2*
G04 #@! TO.N,PY3*
G04 #@! TA.AperFunction,SMDPad,CuDef*
G36*
G01*
X55675000Y-89275000D02*
X55675000Y-88725000D01*
G75*
G02*
X55875000Y-88525000I200000J0D01*
G01*
X56275000Y-88525000D01*
G75*
G02*
X56475000Y-88725000I0J-200000D01*
G01*
X56475000Y-89275000D01*
G75*
G02*
X56275000Y-89475000I-200000J0D01*
G01*
X55875000Y-89475000D01*
G75*
G02*
X55675000Y-89275000I0J200000D01*
G01*
G37*
G04 #@! TD.AperFunction*
G04 #@! TO.P,R14,1*
G04 #@! TO.N,GND*
G04 #@! TA.AperFunction,SMDPad,CuDef*
G36*
G01*
X54025000Y-89275000D02*
X54025000Y-88725000D01*
G75*
G02*
X54225000Y-88525000I200000J0D01*
G01*
X54625000Y-88525000D01*
G75*
G02*
X54825000Y-88725000I0J-200000D01*
G01*
X54825000Y-89275000D01*
G75*
G02*
X54625000Y-89475000I-200000J0D01*
G01*
X54225000Y-89475000D01*
G75*
G02*
X54025000Y-89275000I0J200000D01*
G01*
G37*
G04 #@! TD.AperFunction*
G04 #@! TD*
G04 #@! TO.P,R13,2*
G04 #@! TO.N,PY2*
G04 #@! TA.AperFunction,SMDPad,CuDef*
G36*
G01*
X55675000Y-82275000D02*
X55675000Y-81725000D01*
G75*
G02*
X55875000Y-81525000I200000J0D01*
G01*
X56275000Y-81525000D01*
G75*
G02*
X56475000Y-81725000I0J-200000D01*
G01*
X56475000Y-82275000D01*
G75*
G02*
X56275000Y-82475000I-200000J0D01*
G01*
X55875000Y-82475000D01*
G75*
G02*
X55675000Y-82275000I0J200000D01*
G01*
G37*
G04 #@! TD.AperFunction*
G04 #@! TO.P,R13,1*
G04 #@! TO.N,GND*
G04 #@! TA.AperFunction,SMDPad,CuDef*
G36*
G01*
X54025000Y-82275000D02*
X54025000Y-81725000D01*
G75*
G02*
X54225000Y-81525000I200000J0D01*
G01*
X54625000Y-81525000D01*
G75*
G02*
X54825000Y-81725000I0J-200000D01*
G01*
X54825000Y-82275000D01*
G75*
G02*
X54625000Y-82475000I-200000J0D01*
G01*
X54225000Y-82475000D01*
G75*
G02*
X54025000Y-82275000I0J200000D01*
G01*
G37*
G04 #@! TD.AperFunction*
G04 #@! TD*
G04 #@! TO.P,R12,2*
G04 #@! TO.N,PY1*
G04 #@! TA.AperFunction,SMDPad,CuDef*
G36*
G01*
X55675000Y-77525000D02*
X55675000Y-76975000D01*
G75*
G02*
X55875000Y-76775000I200000J0D01*
G01*
X56275000Y-76775000D01*
G75*
G02*
X56475000Y-76975000I0J-200000D01*
G01*
X56475000Y-77525000D01*
G75*
G02*
X56275000Y-77725000I-200000J0D01*
G01*
X55875000Y-77725000D01*
G75*
G02*
X55675000Y-77525000I0J200000D01*
G01*
G37*
G04 #@! TD.AperFunction*
G04 #@! TO.P,R12,1*
G04 #@! TO.N,GND*
G04 #@! TA.AperFunction,SMDPad,CuDef*
G36*
G01*
X54025000Y-77525000D02*
X54025000Y-76975000D01*
G75*
G02*
X54225000Y-76775000I200000J0D01*
G01*
X54625000Y-76775000D01*
G75*
G02*
X54825000Y-76975000I0J-200000D01*
G01*
X54825000Y-77525000D01*
G75*
G02*
X54625000Y-77725000I-200000J0D01*
G01*
X54225000Y-77725000D01*
G75*
G02*
X54025000Y-77525000I0J200000D01*
G01*
G37*
G04 #@! TD.AperFunction*
G04 #@! TD*
D10*
G04 #@! TO.P,J14,SWA*
G04 #@! TO.N,Net-(J14-PadSWA)*
X21000000Y-67000000D03*
D11*
G04 #@! TO.P,J14,S4*
G04 #@! TO.N,GND*
X23425000Y-67400000D03*
D12*
G04 #@! TO.P,J14,SWB*
G04 #@! TO.N,Net-(J14-PadSWB)*
X22575000Y-55775000D03*
D13*
G04 #@! TO.P,J14,S3*
G04 #@! TO.N,GND*
X24075000Y-55450000D03*
D14*
G04 #@! TO.P,J14,1*
G04 #@! TO.N,Net-(J14-Pad1)*
X31800000Y-64600000D03*
G04 #@! TO.P,J14,2*
G04 #@! TO.N,RX*
X31800000Y-63500000D03*
G04 #@! TO.P,J14,3*
G04 #@! TO.N,MOSI*
X31800000Y-62400000D03*
G04 #@! TO.P,J14,4*
G04 #@! TO.N,Net-(C18-Pad1)*
X31800000Y-61300000D03*
G04 #@! TO.P,J14,5*
G04 #@! TO.N,SCK*
X31800000Y-60200000D03*
G04 #@! TO.P,J14,6*
G04 #@! TO.N,GND*
X31800000Y-59100000D03*
G04 #@! TO.P,J14,7*
G04 #@! TO.N,MISO*
X31800000Y-58000000D03*
D15*
G04 #@! TO.P,J14,S2*
G04 #@! TO.N,GND*
X31675000Y-67050000D03*
D16*
G04 #@! TO.P,J14,S1*
X31675000Y-55700000D03*
D14*
G04 #@! TO.P,J14,8*
G04 #@! TO.N,Net-(J14-Pad8)*
X31800000Y-56900000D03*
G04 #@! TD*
D17*
G04 #@! TO.P,L1,2*
G04 #@! TO.N,+5V*
X52100000Y-59250000D03*
G04 #@! TO.P,L1,1*
G04 #@! TO.N,Net-(C6-Pad1)*
X55400000Y-59250000D03*
G04 #@! TD*
G04 #@! TO.P,C9,2*
G04 #@! TO.N,GND*
G04 #@! TA.AperFunction,SMDPad,CuDef*
G36*
G01*
X51075000Y-54000000D02*
X51075000Y-53500000D01*
G75*
G02*
X51300000Y-53275000I225000J0D01*
G01*
X51750000Y-53275000D01*
G75*
G02*
X51975000Y-53500000I0J-225000D01*
G01*
X51975000Y-54000000D01*
G75*
G02*
X51750000Y-54225000I-225000J0D01*
G01*
X51300000Y-54225000D01*
G75*
G02*
X51075000Y-54000000I0J225000D01*
G01*
G37*
G04 #@! TD.AperFunction*
G04 #@! TO.P,C9,1*
G04 #@! TO.N,VDDIO*
G04 #@! TA.AperFunction,SMDPad,CuDef*
G36*
G01*
X49525000Y-54000000D02*
X49525000Y-53500000D01*
G75*
G02*
X49750000Y-53275000I225000J0D01*
G01*
X50200000Y-53275000D01*
G75*
G02*
X50425000Y-53500000I0J-225000D01*
G01*
X50425000Y-54000000D01*
G75*
G02*
X50200000Y-54225000I-225000J0D01*
G01*
X49750000Y-54225000D01*
G75*
G02*
X49525000Y-54000000I0J225000D01*
G01*
G37*
G04 #@! TD.AperFunction*
G04 #@! TD*
D18*
G04 #@! TO.P,Y1,2*
G04 #@! TO.N,Net-(C4-Pad2)*
X51600000Y-49250000D03*
G04 #@! TO.P,Y1,1*
G04 #@! TO.N,Net-(C3-Pad2)*
X51600000Y-46750000D03*
G04 #@! TD*
D19*
G04 #@! TO.P,U1,1*
G04 #@! TO.N,GND*
X61850000Y-36300000D03*
G04 #@! TO.P,U1,3*
G04 #@! TO.N,+5V*
X61850000Y-31700000D03*
G04 #@! TO.P,U1,2*
G04 #@! TO.N,PWR_SW*
X61850000Y-34000000D03*
D20*
G04 #@! TO.P,U1,4*
G04 #@! TO.N,N/C*
X68150000Y-34000000D03*
G04 #@! TD*
G04 #@! TO.P,R15,2*
G04 #@! TO.N,Net-(C19-Pad1)*
G04 #@! TA.AperFunction,SMDPad,CuDef*
G36*
G01*
X40825000Y-31475000D02*
X40825000Y-30925000D01*
G75*
G02*
X41025000Y-30725000I200000J0D01*
G01*
X41425000Y-30725000D01*
G75*
G02*
X41625000Y-30925000I0J-200000D01*
G01*
X41625000Y-31475000D01*
G75*
G02*
X41425000Y-31675000I-200000J0D01*
G01*
X41025000Y-31675000D01*
G75*
G02*
X40825000Y-31475000I0J200000D01*
G01*
G37*
G04 #@! TD.AperFunction*
G04 #@! TO.P,R15,1*
G04 #@! TO.N,Net-(IC3-Pad7)*
G04 #@! TA.AperFunction,SMDPad,CuDef*
G36*
G01*
X39175000Y-31475000D02*
X39175000Y-30925000D01*
G75*
G02*
X39375000Y-30725000I200000J0D01*
G01*
X39775000Y-30725000D01*
G75*
G02*
X39975000Y-30925000I0J-200000D01*
G01*
X39975000Y-31475000D01*
G75*
G02*
X39775000Y-31675000I-200000J0D01*
G01*
X39375000Y-31675000D01*
G75*
G02*
X39175000Y-31475000I0J200000D01*
G01*
G37*
G04 #@! TD.AperFunction*
G04 #@! TD*
D21*
G04 #@! TO.P,R10,3*
G04 #@! TO.N,N/C*
X50030000Y-69000000D03*
D22*
G04 #@! TO.P,R10,2*
G04 #@! TO.N,R_OUT*
X57970000Y-71540000D03*
G04 #@! TO.P,R10,1*
G04 #@! TO.N,R_IN*
X57970000Y-66460000D03*
G04 #@! TD*
G04 #@! TO.P,R9,2*
G04 #@! TO.N,LEDB*
G04 #@! TA.AperFunction,SMDPad,CuDef*
G36*
G01*
X50425000Y-36775000D02*
X50425000Y-36225000D01*
G75*
G02*
X50625000Y-36025000I200000J0D01*
G01*
X51025000Y-36025000D01*
G75*
G02*
X51225000Y-36225000I0J-200000D01*
G01*
X51225000Y-36775000D01*
G75*
G02*
X51025000Y-36975000I-200000J0D01*
G01*
X50625000Y-36975000D01*
G75*
G02*
X50425000Y-36775000I0J200000D01*
G01*
G37*
G04 #@! TD.AperFunction*
G04 #@! TO.P,R9,1*
G04 #@! TO.N,Net-(D4-Pad4)*
G04 #@! TA.AperFunction,SMDPad,CuDef*
G36*
G01*
X48775000Y-36775000D02*
X48775000Y-36225000D01*
G75*
G02*
X48975000Y-36025000I200000J0D01*
G01*
X49375000Y-36025000D01*
G75*
G02*
X49575000Y-36225000I0J-200000D01*
G01*
X49575000Y-36775000D01*
G75*
G02*
X49375000Y-36975000I-200000J0D01*
G01*
X48975000Y-36975000D01*
G75*
G02*
X48775000Y-36775000I0J200000D01*
G01*
G37*
G04 #@! TD.AperFunction*
G04 #@! TD*
G04 #@! TO.P,R8,2*
G04 #@! TO.N,LEDG*
G04 #@! TA.AperFunction,SMDPad,CuDef*
G36*
G01*
X50425000Y-39775000D02*
X50425000Y-39225000D01*
G75*
G02*
X50625000Y-39025000I200000J0D01*
G01*
X51025000Y-39025000D01*
G75*
G02*
X51225000Y-39225000I0J-200000D01*
G01*
X51225000Y-39775000D01*
G75*
G02*
X51025000Y-39975000I-200000J0D01*
G01*
X50625000Y-39975000D01*
G75*
G02*
X50425000Y-39775000I0J200000D01*
G01*
G37*
G04 #@! TD.AperFunction*
G04 #@! TO.P,R8,1*
G04 #@! TO.N,Net-(D4-Pad5)*
G04 #@! TA.AperFunction,SMDPad,CuDef*
G36*
G01*
X48775000Y-39775000D02*
X48775000Y-39225000D01*
G75*
G02*
X48975000Y-39025000I200000J0D01*
G01*
X49375000Y-39025000D01*
G75*
G02*
X49575000Y-39225000I0J-200000D01*
G01*
X49575000Y-39775000D01*
G75*
G02*
X49375000Y-39975000I-200000J0D01*
G01*
X48975000Y-39975000D01*
G75*
G02*
X48775000Y-39775000I0J200000D01*
G01*
G37*
G04 #@! TD.AperFunction*
G04 #@! TD*
G04 #@! TO.P,R7,2*
G04 #@! TO.N,VDDIO*
G04 #@! TA.AperFunction,SMDPad,CuDef*
G36*
G01*
X44075000Y-58275000D02*
X44075000Y-57725000D01*
G75*
G02*
X44275000Y-57525000I200000J0D01*
G01*
X44675000Y-57525000D01*
G75*
G02*
X44875000Y-57725000I0J-200000D01*
G01*
X44875000Y-58275000D01*
G75*
G02*
X44675000Y-58475000I-200000J0D01*
G01*
X44275000Y-58475000D01*
G75*
G02*
X44075000Y-58275000I0J200000D01*
G01*
G37*
G04 #@! TD.AperFunction*
G04 #@! TO.P,R7,1*
G04 #@! TO.N,SCL*
G04 #@! TA.AperFunction,SMDPad,CuDef*
G36*
G01*
X42425000Y-58275000D02*
X42425000Y-57725000D01*
G75*
G02*
X42625000Y-57525000I200000J0D01*
G01*
X43025000Y-57525000D01*
G75*
G02*
X43225000Y-57725000I0J-200000D01*
G01*
X43225000Y-58275000D01*
G75*
G02*
X43025000Y-58475000I-200000J0D01*
G01*
X42625000Y-58475000D01*
G75*
G02*
X42425000Y-58275000I0J200000D01*
G01*
G37*
G04 #@! TD.AperFunction*
G04 #@! TD*
G04 #@! TO.P,R6,2*
G04 #@! TO.N,LEDR*
G04 #@! TA.AperFunction,SMDPad,CuDef*
G36*
G01*
X50425000Y-38275000D02*
X50425000Y-37725000D01*
G75*
G02*
X50625000Y-37525000I200000J0D01*
G01*
X51025000Y-37525000D01*
G75*
G02*
X51225000Y-37725000I0J-200000D01*
G01*
X51225000Y-38275000D01*
G75*
G02*
X51025000Y-38475000I-200000J0D01*
G01*
X50625000Y-38475000D01*
G75*
G02*
X50425000Y-38275000I0J200000D01*
G01*
G37*
G04 #@! TD.AperFunction*
G04 #@! TO.P,R6,1*
G04 #@! TO.N,Net-(D4-Pad6)*
G04 #@! TA.AperFunction,SMDPad,CuDef*
G36*
G01*
X48775000Y-38275000D02*
X48775000Y-37725000D01*
G75*
G02*
X48975000Y-37525000I200000J0D01*
G01*
X49375000Y-37525000D01*
G75*
G02*
X49575000Y-37725000I0J-200000D01*
G01*
X49575000Y-38275000D01*
G75*
G02*
X49375000Y-38475000I-200000J0D01*
G01*
X48975000Y-38475000D01*
G75*
G02*
X48775000Y-38275000I0J200000D01*
G01*
G37*
G04 #@! TD.AperFunction*
G04 #@! TD*
G04 #@! TO.P,R5,2*
G04 #@! TO.N,VDDIO*
G04 #@! TA.AperFunction,SMDPad,CuDef*
G36*
G01*
X44075000Y-59825000D02*
X44075000Y-59275000D01*
G75*
G02*
X44275000Y-59075000I200000J0D01*
G01*
X44675000Y-59075000D01*
G75*
G02*
X44875000Y-59275000I0J-200000D01*
G01*
X44875000Y-59825000D01*
G75*
G02*
X44675000Y-60025000I-200000J0D01*
G01*
X44275000Y-60025000D01*
G75*
G02*
X44075000Y-59825000I0J200000D01*
G01*
G37*
G04 #@! TD.AperFunction*
G04 #@! TO.P,R5,1*
G04 #@! TO.N,SDA*
G04 #@! TA.AperFunction,SMDPad,CuDef*
G36*
G01*
X42425000Y-59825000D02*
X42425000Y-59275000D01*
G75*
G02*
X42625000Y-59075000I200000J0D01*
G01*
X43025000Y-59075000D01*
G75*
G02*
X43225000Y-59275000I0J-200000D01*
G01*
X43225000Y-59825000D01*
G75*
G02*
X43025000Y-60025000I-200000J0D01*
G01*
X42625000Y-60025000D01*
G75*
G02*
X42425000Y-59825000I0J200000D01*
G01*
G37*
G04 #@! TD.AperFunction*
G04 #@! TD*
G04 #@! TO.P,R4,2*
G04 #@! TO.N,VOLTAGE*
G04 #@! TA.AperFunction,SMDPad,CuDef*
G36*
G01*
X58585000Y-41675000D02*
X58585000Y-41125000D01*
G75*
G02*
X58785000Y-40925000I200000J0D01*
G01*
X59185000Y-40925000D01*
G75*
G02*
X59385000Y-41125000I0J-200000D01*
G01*
X59385000Y-41675000D01*
G75*
G02*
X59185000Y-41875000I-200000J0D01*
G01*
X58785000Y-41875000D01*
G75*
G02*
X58585000Y-41675000I0J200000D01*
G01*
G37*
G04 #@! TD.AperFunction*
G04 #@! TO.P,R4,1*
G04 #@! TO.N,GND*
G04 #@! TA.AperFunction,SMDPad,CuDef*
G36*
G01*
X56935000Y-41675000D02*
X56935000Y-41125000D01*
G75*
G02*
X57135000Y-40925000I200000J0D01*
G01*
X57535000Y-40925000D01*
G75*
G02*
X57735000Y-41125000I0J-200000D01*
G01*
X57735000Y-41675000D01*
G75*
G02*
X57535000Y-41875000I-200000J0D01*
G01*
X57135000Y-41875000D01*
G75*
G02*
X56935000Y-41675000I0J200000D01*
G01*
G37*
G04 #@! TD.AperFunction*
G04 #@! TD*
G04 #@! TO.P,R3,2*
G04 #@! TO.N,R_IN*
G04 #@! TA.AperFunction,SMDPad,CuDef*
G36*
G01*
X58585000Y-43280000D02*
X58585000Y-42730000D01*
G75*
G02*
X58785000Y-42530000I200000J0D01*
G01*
X59185000Y-42530000D01*
G75*
G02*
X59385000Y-42730000I0J-200000D01*
G01*
X59385000Y-43280000D01*
G75*
G02*
X59185000Y-43480000I-200000J0D01*
G01*
X58785000Y-43480000D01*
G75*
G02*
X58585000Y-43280000I0J200000D01*
G01*
G37*
G04 #@! TD.AperFunction*
G04 #@! TO.P,R3,1*
G04 #@! TO.N,VOLTAGE*
G04 #@! TA.AperFunction,SMDPad,CuDef*
G36*
G01*
X56935000Y-43280000D02*
X56935000Y-42730000D01*
G75*
G02*
X57135000Y-42530000I200000J0D01*
G01*
X57535000Y-42530000D01*
G75*
G02*
X57735000Y-42730000I0J-200000D01*
G01*
X57735000Y-43280000D01*
G75*
G02*
X57535000Y-43480000I-200000J0D01*
G01*
X57135000Y-43480000D01*
G75*
G02*
X56935000Y-43280000I0J200000D01*
G01*
G37*
G04 #@! TD.AperFunction*
G04 #@! TD*
G04 #@! TO.P,R2,2*
G04 #@! TO.N,TG_RESET*
G04 #@! TA.AperFunction,SMDPad,CuDef*
G36*
G01*
X52375000Y-21225000D02*
X52375000Y-21775000D01*
G75*
G02*
X52175000Y-21975000I-200000J0D01*
G01*
X51775000Y-21975000D01*
G75*
G02*
X51575000Y-21775000I0J200000D01*
G01*
X51575000Y-21225000D01*
G75*
G02*
X51775000Y-21025000I200000J0D01*
G01*
X52175000Y-21025000D01*
G75*
G02*
X52375000Y-21225000I0J-200000D01*
G01*
G37*
G04 #@! TD.AperFunction*
G04 #@! TO.P,R2,1*
G04 #@! TO.N,RESET*
G04 #@! TA.AperFunction,SMDPad,CuDef*
G36*
G01*
X54025000Y-21225000D02*
X54025000Y-21775000D01*
G75*
G02*
X53825000Y-21975000I-200000J0D01*
G01*
X53425000Y-21975000D01*
G75*
G02*
X53225000Y-21775000I0J200000D01*
G01*
X53225000Y-21225000D01*
G75*
G02*
X53425000Y-21025000I200000J0D01*
G01*
X53825000Y-21025000D01*
G75*
G02*
X54025000Y-21225000I0J-200000D01*
G01*
G37*
G04 #@! TD.AperFunction*
G04 #@! TD*
G04 #@! TO.P,R1,2*
G04 #@! TO.N,Net-(D3-Pad1)*
G04 #@! TA.AperFunction,SMDPad,CuDef*
G36*
G01*
X66125000Y-42425000D02*
X66125000Y-42975000D01*
G75*
G02*
X65925000Y-43175000I-200000J0D01*
G01*
X65525000Y-43175000D01*
G75*
G02*
X65325000Y-42975000I0J200000D01*
G01*
X65325000Y-42425000D01*
G75*
G02*
X65525000Y-42225000I200000J0D01*
G01*
X65925000Y-42225000D01*
G75*
G02*
X66125000Y-42425000I0J-200000D01*
G01*
G37*
G04 #@! TD.AperFunction*
G04 #@! TO.P,R1,1*
G04 #@! TO.N,GND*
G04 #@! TA.AperFunction,SMDPad,CuDef*
G36*
G01*
X67775000Y-42425000D02*
X67775000Y-42975000D01*
G75*
G02*
X67575000Y-43175000I-200000J0D01*
G01*
X67175000Y-43175000D01*
G75*
G02*
X66975000Y-42975000I0J200000D01*
G01*
X66975000Y-42425000D01*
G75*
G02*
X67175000Y-42225000I200000J0D01*
G01*
X67575000Y-42225000D01*
G75*
G02*
X67775000Y-42425000I0J-200000D01*
G01*
G37*
G04 #@! TD.AperFunction*
G04 #@! TD*
D23*
G04 #@! TO.P,Q3,1*
G04 #@! TO.N,PY3*
X57950000Y-88950000D03*
G04 #@! TO.P,Q3,2*
G04 #@! TO.N,GND*
X57950000Y-87050000D03*
G04 #@! TO.P,Q3,3*
G04 #@! TO.N,Net-(J17-Pad1)*
X60050000Y-88000000D03*
G04 #@! TD*
G04 #@! TO.P,Q2,1*
G04 #@! TO.N,PY2*
X57950000Y-81900000D03*
G04 #@! TO.P,Q2,2*
G04 #@! TO.N,GND*
X57950000Y-80000000D03*
G04 #@! TO.P,Q2,3*
G04 #@! TO.N,Net-(J16-Pad1)*
X60050000Y-80950000D03*
G04 #@! TD*
G04 #@! TO.P,Q1,1*
G04 #@! TO.N,PY1*
X57950000Y-77150000D03*
G04 #@! TO.P,Q1,2*
G04 #@! TO.N,GND*
X57950000Y-75250000D03*
G04 #@! TO.P,Q1,3*
G04 #@! TO.N,Net-(J15-Pad1)*
X60050000Y-76200000D03*
G04 #@! TD*
D24*
G04 #@! TO.P,J17,2*
G04 #@! TO.N,R_OUT*
X66000000Y-91750000D03*
D25*
G04 #@! TO.P,J17,1*
G04 #@! TO.N,Net-(J17-Pad1)*
X66000000Y-88250000D03*
G04 #@! TD*
D24*
G04 #@! TO.P,J16,2*
G04 #@! TO.N,R_OUT*
X66000000Y-82750000D03*
D25*
G04 #@! TO.P,J16,1*
G04 #@! TO.N,Net-(J16-Pad1)*
X66000000Y-79250000D03*
G04 #@! TD*
D24*
G04 #@! TO.P,J15,2*
G04 #@! TO.N,R_OUT*
X66000000Y-73750000D03*
D25*
G04 #@! TO.P,J15,1*
G04 #@! TO.N,Net-(J15-Pad1)*
X66000000Y-70250000D03*
G04 #@! TD*
D24*
G04 #@! TO.P,J12,2*
G04 #@! TO.N,VDDIO*
X24000000Y-79250000D03*
D25*
G04 #@! TO.P,J12,1*
G04 #@! TO.N,PWR_SW*
X24000000Y-82750000D03*
G04 #@! TD*
D24*
G04 #@! TO.P,J11,2*
G04 #@! TO.N,R_IN*
X66000000Y-64750000D03*
D25*
G04 #@! TO.P,J11,1*
G04 #@! TO.N,GND*
X66000000Y-61250000D03*
G04 #@! TD*
D26*
G04 #@! TO.P,J10,10*
G04 #@! TO.N,RESET*
X60950000Y-21460000D03*
G04 #@! TO.P,J10,9*
G04 #@! TO.N,GND*
X57050000Y-21460000D03*
G04 #@! TO.P,J10,8*
G04 #@! TO.N,Net-(J10-Pad8)*
X60950000Y-22730000D03*
G04 #@! TO.P,J10,7*
G04 #@! TO.N,Net-(J10-Pad7)*
X57050000Y-22730000D03*
G04 #@! TO.P,J10,6*
G04 #@! TO.N,SWO*
X60950000Y-24000000D03*
G04 #@! TO.P,J10,5*
G04 #@! TO.N,GND*
X57050000Y-24000000D03*
G04 #@! TO.P,J10,4*
G04 #@! TO.N,SWCLK*
X60950000Y-25270000D03*
G04 #@! TO.P,J10,3*
G04 #@! TO.N,GND*
X57050000Y-25270000D03*
G04 #@! TO.P,J10,2*
G04 #@! TO.N,SWDIO*
X60950000Y-26540000D03*
G04 #@! TO.P,J10,1*
G04 #@! TO.N,VDDIO*
X57050000Y-26540000D03*
G04 #@! TD*
D24*
G04 #@! TO.P,J9,2*
G04 #@! TO.N,VDDIO*
X24000000Y-88250000D03*
D25*
G04 #@! TO.P,J9,1*
G04 #@! TO.N,GND*
X24000000Y-91750000D03*
G04 #@! TD*
D24*
G04 #@! TO.P,J8,2*
G04 #@! TO.N,+5V*
X24000000Y-70250000D03*
D25*
G04 #@! TO.P,J8,1*
G04 #@! TO.N,GND*
X24000000Y-73750000D03*
G04 #@! TD*
D27*
G04 #@! TO.P,J5,S6*
G04 #@! TO.N,N/C*
X67000000Y-46500000D03*
G04 #@! TO.P,J5,S3*
X67000000Y-53500000D03*
D28*
G04 #@! TO.P,J5,S2*
X64300000Y-47500000D03*
G04 #@! TO.P,J5,S1*
X64300000Y-52500000D03*
G04 #@! TD*
D29*
G04 #@! TO.P,IC3,8*
G04 #@! TO.N,Net-(C19-Pad1)*
X37532000Y-32905000D03*
G04 #@! TO.P,IC3,7*
G04 #@! TO.N,Net-(IC3-Pad7)*
X37532000Y-31635000D03*
G04 #@! TO.P,IC3,6*
G04 #@! TO.N,SCK*
X37532000Y-30365000D03*
G04 #@! TO.P,IC3,5*
G04 #@! TO.N,MOSI*
X37532000Y-29095000D03*
G04 #@! TO.P,IC3,4*
G04 #@! TO.N,GND*
X30468000Y-29095000D03*
G04 #@! TO.P,IC3,3*
G04 #@! TO.N,Net-(IC3-Pad3)*
X30468000Y-30365000D03*
G04 #@! TO.P,IC3,2*
G04 #@! TO.N,MISO*
X30468000Y-31635000D03*
G04 #@! TO.P,IC3,1*
G04 #@! TO.N,FLASH_CS*
X30468000Y-32905000D03*
G04 #@! TD*
D30*
G04 #@! TO.P,IC2,6*
G04 #@! TO.N,Net-(C6-Pad2)*
X57440000Y-58300000D03*
G04 #@! TO.P,IC2,5*
G04 #@! TO.N,Net-(C6-Pad1)*
X57440000Y-59250000D03*
G04 #@! TO.P,IC2,4*
G04 #@! TO.N,GND*
X57440000Y-60200000D03*
G04 #@! TO.P,IC2,3*
G04 #@! TO.N,Net-(C8-Pad2)*
X60060000Y-60200000D03*
G04 #@! TO.P,IC2,2*
G04 #@! TO.N,R_IN*
X60060000Y-59250000D03*
G04 #@! TO.P,IC2,1*
G04 #@! TO.N,+5V*
X60060000Y-58300000D03*
G04 #@! TD*
D31*
G04 #@! TO.P,D2,2*
G04 #@! TO.N,VBUS*
X57650000Y-29600000D03*
G04 #@! TO.P,D2,1*
G04 #@! TO.N,+5V*
X59750000Y-29600000D03*
G04 #@! TD*
G04 #@! TO.P,C19,2*
G04 #@! TO.N,GND*
G04 #@! TA.AperFunction,SMDPad,CuDef*
G36*
G01*
X40850000Y-33475000D02*
X40850000Y-32525000D01*
G75*
G02*
X41100000Y-32275000I250000J0D01*
G01*
X41600000Y-32275000D01*
G75*
G02*
X41850000Y-32525000I0J-250000D01*
G01*
X41850000Y-33475000D01*
G75*
G02*
X41600000Y-33725000I-250000J0D01*
G01*
X41100000Y-33725000D01*
G75*
G02*
X40850000Y-33475000I0J250000D01*
G01*
G37*
G04 #@! TD.AperFunction*
G04 #@! TO.P,C19,1*
G04 #@! TO.N,Net-(C19-Pad1)*
G04 #@! TA.AperFunction,SMDPad,CuDef*
G36*
G01*
X38950000Y-33475000D02*
X38950000Y-32525000D01*
G75*
G02*
X39200000Y-32275000I250000J0D01*
G01*
X39700000Y-32275000D01*
G75*
G02*
X39950000Y-32525000I0J-250000D01*
G01*
X39950000Y-33475000D01*
G75*
G02*
X39700000Y-33725000I-250000J0D01*
G01*
X39200000Y-33725000D01*
G75*
G02*
X38950000Y-33475000I0J250000D01*
G01*
G37*
G04 #@! TD.AperFunction*
G04 #@! TD*
G04 #@! TO.P,C18,2*
G04 #@! TO.N,GND*
G04 #@! TA.AperFunction,SMDPad,CuDef*
G36*
G01*
X34785000Y-61550000D02*
X34785000Y-61050000D01*
G75*
G02*
X35010000Y-60825000I225000J0D01*
G01*
X35460000Y-60825000D01*
G75*
G02*
X35685000Y-61050000I0J-225000D01*
G01*
X35685000Y-61550000D01*
G75*
G02*
X35460000Y-61775000I-225000J0D01*
G01*
X35010000Y-61775000D01*
G75*
G02*
X34785000Y-61550000I0J225000D01*
G01*
G37*
G04 #@! TD.AperFunction*
G04 #@! TO.P,C18,1*
G04 #@! TO.N,Net-(C18-Pad1)*
G04 #@! TA.AperFunction,SMDPad,CuDef*
G36*
G01*
X33235000Y-61550000D02*
X33235000Y-61050000D01*
G75*
G02*
X33460000Y-60825000I225000J0D01*
G01*
X33910000Y-60825000D01*
G75*
G02*
X34135000Y-61050000I0J-225000D01*
G01*
X34135000Y-61550000D01*
G75*
G02*
X33910000Y-61775000I-225000J0D01*
G01*
X33460000Y-61775000D01*
G75*
G02*
X33235000Y-61550000I0J225000D01*
G01*
G37*
G04 #@! TD.AperFunction*
G04 #@! TD*
G04 #@! TO.P,C17,2*
G04 #@! TO.N,GND*
G04 #@! TA.AperFunction,SMDPad,CuDef*
G36*
G01*
X39775000Y-77450000D02*
X39775000Y-76950000D01*
G75*
G02*
X40000000Y-76725000I225000J0D01*
G01*
X40450000Y-76725000D01*
G75*
G02*
X40675000Y-76950000I0J-225000D01*
G01*
X40675000Y-77450000D01*
G75*
G02*
X40450000Y-77675000I-225000J0D01*
G01*
X40000000Y-77675000D01*
G75*
G02*
X39775000Y-77450000I0J225000D01*
G01*
G37*
G04 #@! TD.AperFunction*
G04 #@! TO.P,C17,1*
G04 #@! TO.N,VDDIO*
G04 #@! TA.AperFunction,SMDPad,CuDef*
G36*
G01*
X38225000Y-77450000D02*
X38225000Y-76950000D01*
G75*
G02*
X38450000Y-76725000I225000J0D01*
G01*
X38900000Y-76725000D01*
G75*
G02*
X39125000Y-76950000I0J-225000D01*
G01*
X39125000Y-77450000D01*
G75*
G02*
X38900000Y-77675000I-225000J0D01*
G01*
X38450000Y-77675000D01*
G75*
G02*
X38225000Y-77450000I0J225000D01*
G01*
G37*
G04 #@! TD.AperFunction*
G04 #@! TD*
G04 #@! TO.P,C16,2*
G04 #@! TO.N,GND*
G04 #@! TA.AperFunction,SMDPad,CuDef*
G36*
G01*
X40425000Y-83050000D02*
X40425000Y-82550000D01*
G75*
G02*
X40650000Y-82325000I225000J0D01*
G01*
X41100000Y-82325000D01*
G75*
G02*
X41325000Y-82550000I0J-225000D01*
G01*
X41325000Y-83050000D01*
G75*
G02*
X41100000Y-83275000I-225000J0D01*
G01*
X40650000Y-83275000D01*
G75*
G02*
X40425000Y-83050000I0J225000D01*
G01*
G37*
G04 #@! TD.AperFunction*
G04 #@! TO.P,C16,1*
G04 #@! TO.N,VDDIO*
G04 #@! TA.AperFunction,SMDPad,CuDef*
G36*
G01*
X38875000Y-83050000D02*
X38875000Y-82550000D01*
G75*
G02*
X39100000Y-82325000I225000J0D01*
G01*
X39550000Y-82325000D01*
G75*
G02*
X39775000Y-82550000I0J-225000D01*
G01*
X39775000Y-83050000D01*
G75*
G02*
X39550000Y-83275000I-225000J0D01*
G01*
X39100000Y-83275000D01*
G75*
G02*
X38875000Y-83050000I0J225000D01*
G01*
G37*
G04 #@! TD.AperFunction*
G04 #@! TD*
G04 #@! TO.P,C15,2*
G04 #@! TO.N,GND*
G04 #@! TA.AperFunction,SMDPad,CuDef*
G36*
G01*
X45100000Y-83550000D02*
X45100000Y-83050000D01*
G75*
G02*
X45325000Y-82825000I225000J0D01*
G01*
X45775000Y-82825000D01*
G75*
G02*
X46000000Y-83050000I0J-225000D01*
G01*
X46000000Y-83550000D01*
G75*
G02*
X45775000Y-83775000I-225000J0D01*
G01*
X45325000Y-83775000D01*
G75*
G02*
X45100000Y-83550000I0J225000D01*
G01*
G37*
G04 #@! TD.AperFunction*
G04 #@! TO.P,C15,1*
G04 #@! TO.N,VDDIO*
G04 #@! TA.AperFunction,SMDPad,CuDef*
G36*
G01*
X43550000Y-83550000D02*
X43550000Y-83050000D01*
G75*
G02*
X43775000Y-82825000I225000J0D01*
G01*
X44225000Y-82825000D01*
G75*
G02*
X44450000Y-83050000I0J-225000D01*
G01*
X44450000Y-83550000D01*
G75*
G02*
X44225000Y-83775000I-225000J0D01*
G01*
X43775000Y-83775000D01*
G75*
G02*
X43550000Y-83550000I0J225000D01*
G01*
G37*
G04 #@! TD.AperFunction*
G04 #@! TD*
G04 #@! TO.P,C14,2*
G04 #@! TO.N,GND*
G04 #@! TA.AperFunction,SMDPad,CuDef*
G36*
G01*
X45600000Y-76950000D02*
X45600000Y-76450000D01*
G75*
G02*
X45825000Y-76225000I225000J0D01*
G01*
X46275000Y-76225000D01*
G75*
G02*
X46500000Y-76450000I0J-225000D01*
G01*
X46500000Y-76950000D01*
G75*
G02*
X46275000Y-77175000I-225000J0D01*
G01*
X45825000Y-77175000D01*
G75*
G02*
X45600000Y-76950000I0J225000D01*
G01*
G37*
G04 #@! TD.AperFunction*
G04 #@! TO.P,C14,1*
G04 #@! TO.N,VDDIO*
G04 #@! TA.AperFunction,SMDPad,CuDef*
G36*
G01*
X44050000Y-76950000D02*
X44050000Y-76450000D01*
G75*
G02*
X44275000Y-76225000I225000J0D01*
G01*
X44725000Y-76225000D01*
G75*
G02*
X44950000Y-76450000I0J-225000D01*
G01*
X44950000Y-76950000D01*
G75*
G02*
X44725000Y-77175000I-225000J0D01*
G01*
X44275000Y-77175000D01*
G75*
G02*
X44050000Y-76950000I0J225000D01*
G01*
G37*
G04 #@! TD.AperFunction*
G04 #@! TD*
G04 #@! TO.P,C13,2*
G04 #@! TO.N,GND*
G04 #@! TA.AperFunction,SMDPad,CuDef*
G36*
G01*
X58350000Y-33525000D02*
X58350000Y-34475000D01*
G75*
G02*
X58100000Y-34725000I-250000J0D01*
G01*
X57600000Y-34725000D01*
G75*
G02*
X57350000Y-34475000I0J250000D01*
G01*
X57350000Y-33525000D01*
G75*
G02*
X57600000Y-33275000I250000J0D01*
G01*
X58100000Y-33275000D01*
G75*
G02*
X58350000Y-33525000I0J-250000D01*
G01*
G37*
G04 #@! TD.AperFunction*
G04 #@! TO.P,C13,1*
G04 #@! TO.N,PWR_SW*
G04 #@! TA.AperFunction,SMDPad,CuDef*
G36*
G01*
X60250000Y-33525000D02*
X60250000Y-34475000D01*
G75*
G02*
X60000000Y-34725000I-250000J0D01*
G01*
X59500000Y-34725000D01*
G75*
G02*
X59250000Y-34475000I0J250000D01*
G01*
X59250000Y-33525000D01*
G75*
G02*
X59500000Y-33275000I250000J0D01*
G01*
X60000000Y-33275000D01*
G75*
G02*
X60250000Y-33525000I0J-250000D01*
G01*
G37*
G04 #@! TD.AperFunction*
G04 #@! TD*
G04 #@! TO.P,C12,2*
G04 #@! TO.N,GND*
G04 #@! TA.AperFunction,SMDPad,CuDef*
G36*
G01*
X58350000Y-31125000D02*
X58350000Y-32075000D01*
G75*
G02*
X58100000Y-32325000I-250000J0D01*
G01*
X57600000Y-32325000D01*
G75*
G02*
X57350000Y-32075000I0J250000D01*
G01*
X57350000Y-31125000D01*
G75*
G02*
X57600000Y-30875000I250000J0D01*
G01*
X58100000Y-30875000D01*
G75*
G02*
X58350000Y-31125000I0J-250000D01*
G01*
G37*
G04 #@! TD.AperFunction*
G04 #@! TO.P,C12,1*
G04 #@! TO.N,+5V*
G04 #@! TA.AperFunction,SMDPad,CuDef*
G36*
G01*
X60250000Y-31125000D02*
X60250000Y-32075000D01*
G75*
G02*
X60000000Y-32325000I-250000J0D01*
G01*
X59500000Y-32325000D01*
G75*
G02*
X59250000Y-32075000I0J250000D01*
G01*
X59250000Y-31125000D01*
G75*
G02*
X59500000Y-30875000I250000J0D01*
G01*
X60000000Y-30875000D01*
G75*
G02*
X60250000Y-31125000I0J-250000D01*
G01*
G37*
G04 #@! TD.AperFunction*
G04 #@! TD*
G04 #@! TO.P,C11,2*
G04 #@! TO.N,GND*
G04 #@! TA.AperFunction,SMDPad,CuDef*
G36*
G01*
X46350000Y-57750000D02*
X46350000Y-58250000D01*
G75*
G02*
X46125000Y-58475000I-225000J0D01*
G01*
X45675000Y-58475000D01*
G75*
G02*
X45450000Y-58250000I0J225000D01*
G01*
X45450000Y-57750000D01*
G75*
G02*
X45675000Y-57525000I225000J0D01*
G01*
X46125000Y-57525000D01*
G75*
G02*
X46350000Y-57750000I0J-225000D01*
G01*
G37*
G04 #@! TD.AperFunction*
G04 #@! TO.P,C11,1*
G04 #@! TO.N,TG_RESET*
G04 #@! TA.AperFunction,SMDPad,CuDef*
G36*
G01*
X47900000Y-57750000D02*
X47900000Y-58250000D01*
G75*
G02*
X47675000Y-58475000I-225000J0D01*
G01*
X47225000Y-58475000D01*
G75*
G02*
X47000000Y-58250000I0J225000D01*
G01*
X47000000Y-57750000D01*
G75*
G02*
X47225000Y-57525000I225000J0D01*
G01*
X47675000Y-57525000D01*
G75*
G02*
X47900000Y-57750000I0J-225000D01*
G01*
G37*
G04 #@! TD.AperFunction*
G04 #@! TD*
G04 #@! TO.P,C10,2*
G04 #@! TO.N,GND*
G04 #@! TA.AperFunction,SMDPad,CuDef*
G36*
G01*
X51075000Y-55500000D02*
X51075000Y-55000000D01*
G75*
G02*
X51300000Y-54775000I225000J0D01*
G01*
X51750000Y-54775000D01*
G75*
G02*
X51975000Y-55000000I0J-225000D01*
G01*
X51975000Y-55500000D01*
G75*
G02*
X51750000Y-55725000I-225000J0D01*
G01*
X51300000Y-55725000D01*
G75*
G02*
X51075000Y-55500000I0J225000D01*
G01*
G37*
G04 #@! TD.AperFunction*
G04 #@! TO.P,C10,1*
G04 #@! TO.N,Net-(C10-Pad1)*
G04 #@! TA.AperFunction,SMDPad,CuDef*
G36*
G01*
X49525000Y-55500000D02*
X49525000Y-55000000D01*
G75*
G02*
X49750000Y-54775000I225000J0D01*
G01*
X50200000Y-54775000D01*
G75*
G02*
X50425000Y-55000000I0J-225000D01*
G01*
X50425000Y-55500000D01*
G75*
G02*
X50200000Y-55725000I-225000J0D01*
G01*
X49750000Y-55725000D01*
G75*
G02*
X49525000Y-55500000I0J225000D01*
G01*
G37*
G04 #@! TD.AperFunction*
G04 #@! TD*
G04 #@! TO.P,C8,2*
G04 #@! TO.N,Net-(C8-Pad2)*
G04 #@! TA.AperFunction,SMDPad,CuDef*
G36*
G01*
X59200000Y-62725000D02*
X59200000Y-61775000D01*
G75*
G02*
X59450000Y-61525000I250000J0D01*
G01*
X59950000Y-61525000D01*
G75*
G02*
X60200000Y-61775000I0J-250000D01*
G01*
X60200000Y-62725000D01*
G75*
G02*
X59950000Y-62975000I-250000J0D01*
G01*
X59450000Y-62975000D01*
G75*
G02*
X59200000Y-62725000I0J250000D01*
G01*
G37*
G04 #@! TD.AperFunction*
G04 #@! TO.P,C8,1*
G04 #@! TO.N,GND*
G04 #@! TA.AperFunction,SMDPad,CuDef*
G36*
G01*
X57300000Y-62725000D02*
X57300000Y-61775000D01*
G75*
G02*
X57550000Y-61525000I250000J0D01*
G01*
X58050000Y-61525000D01*
G75*
G02*
X58300000Y-61775000I0J-250000D01*
G01*
X58300000Y-62725000D01*
G75*
G02*
X58050000Y-62975000I-250000J0D01*
G01*
X57550000Y-62975000D01*
G75*
G02*
X57300000Y-62725000I0J250000D01*
G01*
G37*
G04 #@! TD.AperFunction*
G04 #@! TD*
G04 #@! TO.P,C7,2*
G04 #@! TO.N,+5V*
G04 #@! TA.AperFunction,SMDPad,CuDef*
G36*
G01*
X52825000Y-61949999D02*
X52825000Y-63250001D01*
G75*
G02*
X52575001Y-63500000I-249999J0D01*
G01*
X51924999Y-63500000D01*
G75*
G02*
X51675000Y-63250001I0J249999D01*
G01*
X51675000Y-61949999D01*
G75*
G02*
X51924999Y-61700000I249999J0D01*
G01*
X52575001Y-61700000D01*
G75*
G02*
X52825000Y-61949999I0J-249999D01*
G01*
G37*
G04 #@! TD.AperFunction*
G04 #@! TO.P,C7,1*
G04 #@! TO.N,GND*
G04 #@! TA.AperFunction,SMDPad,CuDef*
G36*
G01*
X55775000Y-61949999D02*
X55775000Y-63250001D01*
G75*
G02*
X55525001Y-63500000I-249999J0D01*
G01*
X54874999Y-63500000D01*
G75*
G02*
X54625000Y-63250001I0J249999D01*
G01*
X54625000Y-61949999D01*
G75*
G02*
X54874999Y-61700000I249999J0D01*
G01*
X55525001Y-61700000D01*
G75*
G02*
X55775000Y-61949999I0J-249999D01*
G01*
G37*
G04 #@! TD.AperFunction*
G04 #@! TD*
G04 #@! TO.P,C6,2*
G04 #@! TO.N,Net-(C6-Pad2)*
G04 #@! TA.AperFunction,SMDPad,CuDef*
G36*
G01*
X56950000Y-56475000D02*
X56950000Y-55525000D01*
G75*
G02*
X57200000Y-55275000I250000J0D01*
G01*
X57700000Y-55275000D01*
G75*
G02*
X57950000Y-55525000I0J-250000D01*
G01*
X57950000Y-56475000D01*
G75*
G02*
X57700000Y-56725000I-250000J0D01*
G01*
X57200000Y-56725000D01*
G75*
G02*
X56950000Y-56475000I0J250000D01*
G01*
G37*
G04 #@! TD.AperFunction*
G04 #@! TO.P,C6,1*
G04 #@! TO.N,Net-(C6-Pad1)*
G04 #@! TA.AperFunction,SMDPad,CuDef*
G36*
G01*
X55050000Y-56475000D02*
X55050000Y-55525000D01*
G75*
G02*
X55300000Y-55275000I250000J0D01*
G01*
X55800000Y-55275000D01*
G75*
G02*
X56050000Y-55525000I0J-250000D01*
G01*
X56050000Y-56475000D01*
G75*
G02*
X55800000Y-56725000I-250000J0D01*
G01*
X55300000Y-56725000D01*
G75*
G02*
X55050000Y-56475000I0J250000D01*
G01*
G37*
G04 #@! TD.AperFunction*
G04 #@! TD*
G04 #@! TO.P,C4,2*
G04 #@! TO.N,Net-(C4-Pad2)*
G04 #@! TA.AperFunction,SMDPad,CuDef*
G36*
G01*
X51350000Y-50600000D02*
X51350000Y-51100000D01*
G75*
G02*
X51125000Y-51325000I-225000J0D01*
G01*
X50675000Y-51325000D01*
G75*
G02*
X50450000Y-51100000I0J225000D01*
G01*
X50450000Y-50600000D01*
G75*
G02*
X50675000Y-50375000I225000J0D01*
G01*
X51125000Y-50375000D01*
G75*
G02*
X51350000Y-50600000I0J-225000D01*
G01*
G37*
G04 #@! TD.AperFunction*
G04 #@! TO.P,C4,1*
G04 #@! TO.N,GND*
G04 #@! TA.AperFunction,SMDPad,CuDef*
G36*
G01*
X52900000Y-50600000D02*
X52900000Y-51100000D01*
G75*
G02*
X52675000Y-51325000I-225000J0D01*
G01*
X52225000Y-51325000D01*
G75*
G02*
X52000000Y-51100000I0J225000D01*
G01*
X52000000Y-50600000D01*
G75*
G02*
X52225000Y-50375000I225000J0D01*
G01*
X52675000Y-50375000D01*
G75*
G02*
X52900000Y-50600000I0J-225000D01*
G01*
G37*
G04 #@! TD.AperFunction*
G04 #@! TD*
G04 #@! TO.P,C3,2*
G04 #@! TO.N,Net-(C3-Pad2)*
G04 #@! TA.AperFunction,SMDPad,CuDef*
G36*
G01*
X51975000Y-45400000D02*
X51975000Y-44900000D01*
G75*
G02*
X52200000Y-44675000I225000J0D01*
G01*
X52650000Y-44675000D01*
G75*
G02*
X52875000Y-44900000I0J-225000D01*
G01*
X52875000Y-45400000D01*
G75*
G02*
X52650000Y-45625000I-225000J0D01*
G01*
X52200000Y-45625000D01*
G75*
G02*
X51975000Y-45400000I0J225000D01*
G01*
G37*
G04 #@! TD.AperFunction*
G04 #@! TO.P,C3,1*
G04 #@! TO.N,GND*
G04 #@! TA.AperFunction,SMDPad,CuDef*
G36*
G01*
X50425000Y-45400000D02*
X50425000Y-44900000D01*
G75*
G02*
X50650000Y-44675000I225000J0D01*
G01*
X51100000Y-44675000D01*
G75*
G02*
X51325000Y-44900000I0J-225000D01*
G01*
X51325000Y-45400000D01*
G75*
G02*
X51100000Y-45625000I-225000J0D01*
G01*
X50650000Y-45625000D01*
G75*
G02*
X50425000Y-45400000I0J225000D01*
G01*
G37*
G04 #@! TD.AperFunction*
G04 #@! TD*
G04 #@! TO.P,C2,2*
G04 #@! TO.N,GND*
G04 #@! TA.AperFunction,SMDPad,CuDef*
G36*
G01*
X48925000Y-45400000D02*
X48925000Y-44900000D01*
G75*
G02*
X49150000Y-44675000I225000J0D01*
G01*
X49600000Y-44675000D01*
G75*
G02*
X49825000Y-44900000I0J-225000D01*
G01*
X49825000Y-45400000D01*
G75*
G02*
X49600000Y-45625000I-225000J0D01*
G01*
X49150000Y-45625000D01*
G75*
G02*
X48925000Y-45400000I0J225000D01*
G01*
G37*
G04 #@! TD.AperFunction*
G04 #@! TO.P,C2,1*
G04 #@! TO.N,Net-(C2-Pad1)*
G04 #@! TA.AperFunction,SMDPad,CuDef*
G36*
G01*
X47375000Y-45400000D02*
X47375000Y-44900000D01*
G75*
G02*
X47600000Y-44675000I225000J0D01*
G01*
X48050000Y-44675000D01*
G75*
G02*
X48275000Y-44900000I0J-225000D01*
G01*
X48275000Y-45400000D01*
G75*
G02*
X48050000Y-45625000I-225000J0D01*
G01*
X47600000Y-45625000D01*
G75*
G02*
X47375000Y-45400000I0J225000D01*
G01*
G37*
G04 #@! TD.AperFunction*
G04 #@! TD*
D32*
G04 #@! TO.P,J1,1*
G04 #@! TO.N,GND*
X46750000Y-98050000D03*
D33*
G04 #@! TO.P,J1,2*
G04 #@! TO.N,+5V*
X46750000Y-95510000D03*
G04 #@! TO.P,J1,3*
G04 #@! TO.N,TVCY*
X46750000Y-92970000D03*
G04 #@! TD*
G04 #@! TO.P,J2,3*
G04 #@! TO.N,TVCZ*
X50350000Y-92970000D03*
G04 #@! TO.P,J2,2*
G04 #@! TO.N,+5V*
X50350000Y-95510000D03*
D32*
G04 #@! TO.P,J2,1*
G04 #@! TO.N,GND*
X50350000Y-98050000D03*
G04 #@! TD*
G04 #@! TO.P,J3,1*
G04 #@! TO.N,GND*
X43150000Y-98050000D03*
D33*
G04 #@! TO.P,J3,2*
G04 #@! TO.N,+5V*
X43150000Y-95510000D03*
G04 #@! TO.P,J3,3*
G04 #@! TO.N,PROP_Z*
X43150000Y-92970000D03*
G04 #@! TD*
G04 #@! TO.P,J4,3*
G04 #@! TO.N,PROP_Y*
X39550000Y-92970000D03*
G04 #@! TO.P,J4,2*
G04 #@! TO.N,+5V*
X39550000Y-95510000D03*
D32*
G04 #@! TO.P,J4,1*
G04 #@! TO.N,GND*
X39550000Y-98050000D03*
G04 #@! TD*
D34*
G04 #@! TO.N,GND*
X40100000Y-78300000D03*
X41000000Y-78300000D03*
X41700000Y-81700000D03*
X40500000Y-81699994D03*
X45600000Y-82200002D03*
X46000000Y-77900000D03*
X46900000Y-77900000D03*
X63400000Y-54800000D03*
X56700000Y-31600000D03*
X56700000Y-34000000D03*
X32200000Y-29100000D03*
X56500000Y-62250000D03*
X55250000Y-64250000D03*
X54250000Y-75250000D03*
X55250000Y-75250000D03*
X56250000Y-75250000D03*
X54250000Y-80000000D03*
X55250000Y-80000000D03*
X56250000Y-80000000D03*
X54250000Y-87000000D03*
X55250000Y-87000000D03*
X56250000Y-87000000D03*
X44450000Y-75500000D03*
X28400000Y-38900000D03*
X54800000Y-22700000D03*
X31650000Y-54400000D03*
X67400000Y-43900000D03*
X49421207Y-43871207D03*
X33337340Y-59037340D03*
X47925000Y-55300000D03*
X60500000Y-48150000D03*
X63050000Y-47450000D03*
X59000004Y-24000000D03*
X59000000Y-25299994D03*
X31700000Y-65600072D03*
X38100000Y-46400000D03*
X46600000Y-59600000D03*
X53000000Y-53800000D03*
X35150000Y-60100000D03*
X42250000Y-36750000D03*
X42250002Y-35850000D03*
X56100000Y-41900000D03*
X45450001Y-35899999D03*
X51473843Y-56473841D03*
X24100000Y-56750002D03*
X42550000Y-32200000D03*
X28324990Y-51900000D03*
X24899990Y-57050000D03*
X24899990Y-67450000D03*
X49100000Y-48150000D03*
X50900000Y-43900000D03*
X53275000Y-48200000D03*
X59826048Y-36326048D03*
G04 #@! TO.N,Net-(C2-Pad1)*
X48550000Y-47250000D03*
G04 #@! TO.N,Net-(C3-Pad2)*
X50150000Y-48200000D03*
G04 #@! TO.N,Net-(C4-Pad2)*
X50150000Y-49250000D03*
G04 #@! TO.N,VDDIO*
X38700000Y-78300000D03*
X39391964Y-81705940D03*
X44500000Y-77800000D03*
X44000000Y-82100000D03*
X35300000Y-64600000D03*
X48945452Y-53413301D03*
X68850000Y-40150000D03*
X59000000Y-26500000D03*
X45537340Y-59562660D03*
D35*
X42250000Y-62100000D03*
D34*
X44259108Y-56014082D03*
X41985373Y-46714627D03*
D35*
G04 #@! TO.N,+5V*
X44250000Y-70450000D03*
X42141636Y-72508364D03*
X24950000Y-48150000D03*
X25050000Y-35250000D03*
X33300000Y-72550000D03*
X38275010Y-72508364D03*
D34*
G04 #@! TO.N,Net-(C10-Pad1)*
X48750000Y-54500000D03*
G04 #@! TO.N,TG_RESET*
X46800000Y-55300000D03*
X43900000Y-43150000D03*
X43800000Y-41400000D03*
G04 #@! TO.N,PWR_SW*
X54150000Y-40850000D03*
X41612659Y-58262661D03*
X56050000Y-40800000D03*
G04 #@! TO.N,VBUS*
X55200000Y-50300000D03*
G04 #@! TO.N,Net-(D3-Pad1)*
X65700000Y-41500000D03*
G04 #@! TO.N,Net-(D4-Pad5)*
X44749999Y-37600001D03*
G04 #@! TO.N,Net-(D4-Pad6)*
X47900000Y-37650000D03*
G04 #@! TO.N,Net-(D4-Pad4)*
X47900001Y-36699989D03*
G04 #@! TO.N,VOLTAGE*
X56150000Y-43000000D03*
G04 #@! TO.N,TVCZ*
X54900000Y-52400000D03*
X54125010Y-44000000D03*
G04 #@! TO.N,TVCY*
X52600000Y-43200000D03*
X46049998Y-62050002D03*
G04 #@! TO.N,LEDR*
X52000000Y-38750000D03*
G04 #@! TO.N,LEDG*
X50300000Y-40850000D03*
G04 #@! TO.N,FLASH_CS*
X28400000Y-36400000D03*
G04 #@! TO.N,RX*
X38100010Y-44200000D03*
G04 #@! TO.N,LEDB*
X39988972Y-45346262D03*
X44700012Y-34327386D03*
X43250000Y-34300000D03*
G04 #@! TO.N,PROP_Y*
X39100000Y-49350000D03*
G04 #@! TO.N,MOSI*
X35874979Y-53948247D03*
G04 #@! TO.N,PY1*
X39325000Y-52100000D03*
G04 #@! TO.N,PY2*
X38524990Y-52900000D03*
G04 #@! TO.N,MISO*
X35124990Y-57950000D03*
G04 #@! TO.N,PROP_Z*
X43450000Y-62050000D03*
X40000000Y-54594140D03*
G04 #@! TO.N,PY3*
X37799980Y-57250000D03*
G04 #@! TO.N,SDA*
X29749992Y-57522994D03*
X40525044Y-57050000D03*
X36025000Y-78350000D03*
G04 #@! TO.N,SCL*
X28350000Y-49500000D03*
X28988180Y-59010039D03*
X42423843Y-56926157D03*
X35974840Y-79650160D03*
X28999988Y-53100000D03*
G04 #@! TO.N,SWCLK*
X63600000Y-25400000D03*
G04 #@! TO.N,SWDIO*
X63600000Y-27300000D03*
G04 #@! TO.N,R_IN*
X60500000Y-43000000D03*
X62200000Y-43000000D03*
G04 #@! TO.N,SCK*
X34627001Y-51834833D03*
X34400000Y-59000000D03*
G04 #@! TO.N,RESET*
X27950000Y-63600000D03*
X30600000Y-53000000D03*
X35750000Y-50850000D03*
G04 #@! TO.N,Net-(J15-Pad1)*
X62597182Y-73902818D03*
X62500000Y-70750000D03*
G04 #@! TD*
D36*
G04 #@! TO.N,GND*
X41000000Y-77500000D02*
X41000000Y-78300000D01*
X40700000Y-77200000D02*
X41000000Y-77500000D01*
X40225000Y-77200000D02*
X40700000Y-77200000D01*
X41700000Y-82500000D02*
X41700000Y-81700000D01*
X41400000Y-82800000D02*
X41700000Y-82500000D01*
X40875000Y-82800000D02*
X41400000Y-82800000D01*
X45550000Y-83300000D02*
X45550000Y-82250002D01*
X45550000Y-82250002D02*
X45600000Y-82200002D01*
D37*
X57850000Y-31600000D02*
X56700000Y-31600000D01*
X57850000Y-34000000D02*
X56700000Y-34000000D01*
D36*
X32195000Y-29095000D02*
X32200000Y-29100000D01*
X30468000Y-29095000D02*
X32195000Y-29095000D01*
D37*
X57440000Y-61890000D02*
X57800000Y-62250000D01*
X57440000Y-60200000D02*
X57440000Y-61890000D01*
X57800000Y-62250000D02*
X56500000Y-62250000D01*
X55200000Y-64200000D02*
X55250000Y-64250000D01*
X55200000Y-62600000D02*
X55200000Y-64200000D01*
X54337500Y-75337500D02*
X54250000Y-75250000D01*
X54337500Y-77250000D02*
X54337500Y-75337500D01*
X54250000Y-75250000D02*
X55250000Y-75250000D01*
X55250000Y-75250000D02*
X56250000Y-75250000D01*
X56250000Y-75250000D02*
X57950000Y-75250000D01*
X54337500Y-80087500D02*
X54250000Y-80000000D01*
X54337500Y-82000000D02*
X54337500Y-80087500D01*
X54250000Y-80000000D02*
X55250000Y-80000000D01*
X55250000Y-80000000D02*
X56250000Y-80000000D01*
X56250000Y-80000000D02*
X57950000Y-80000000D01*
X54337500Y-87087500D02*
X54250000Y-87000000D01*
X54337500Y-89000000D02*
X54337500Y-87087500D01*
X54250000Y-87000000D02*
X55250000Y-87000000D01*
X55250000Y-87000000D02*
X56250000Y-87000000D01*
X57900000Y-87000000D02*
X57950000Y-87050000D01*
X56250000Y-87000000D02*
X57900000Y-87000000D01*
D36*
X45400000Y-75500000D02*
X44450000Y-75500000D01*
X46050000Y-76150000D02*
X45400000Y-75500000D01*
X46050000Y-76700000D02*
X46050000Y-76150000D01*
X54800000Y-22100000D02*
X54800000Y-22700000D01*
X55440000Y-21460000D02*
X54800000Y-22100000D01*
X57050000Y-21460000D02*
X55440000Y-21460000D01*
X31675000Y-54425000D02*
X31650000Y-54400000D01*
X31675000Y-55700000D02*
X31675000Y-54425000D01*
X67375000Y-43875000D02*
X67400000Y-43900000D01*
X67375000Y-42700000D02*
X67375000Y-43875000D01*
X49375000Y-43917414D02*
X49421207Y-43871207D01*
X49375000Y-45150000D02*
X49375000Y-43917414D01*
X33274680Y-59100000D02*
X33337340Y-59037340D01*
X31800000Y-59100000D02*
X33274680Y-59100000D01*
X57050000Y-24000000D02*
X59000004Y-24000000D01*
X57050000Y-25270000D02*
X58970006Y-25270000D01*
X58970006Y-25270000D02*
X59000000Y-25299994D01*
X31675000Y-67050000D02*
X31675000Y-65625072D01*
X31675000Y-65625072D02*
X31700000Y-65600072D01*
X39125000Y-46400000D02*
X38100000Y-46400000D01*
X45900000Y-58000000D02*
X45900000Y-58900000D01*
X45900000Y-58900000D02*
X46600000Y-59600000D01*
X52950000Y-53750000D02*
X53000000Y-53800000D01*
X51525000Y-53750000D02*
X52950000Y-53750000D01*
X35175000Y-61300000D02*
X35175000Y-60125000D01*
X35175000Y-60125000D02*
X35150000Y-60100000D01*
X56600000Y-41400000D02*
X56100000Y-41900000D01*
X57335000Y-41400000D02*
X56600000Y-41400000D01*
X51525000Y-56422684D02*
X51473843Y-56473841D01*
X51525000Y-55250000D02*
X51525000Y-56422684D01*
X24075000Y-55450000D02*
X24075000Y-56725002D01*
X24075000Y-56725002D02*
X24100000Y-56750002D01*
X42550000Y-32600000D02*
X42550000Y-32200000D01*
X42150000Y-33000000D02*
X42550000Y-32600000D01*
X41350000Y-33000000D02*
X42150000Y-33000000D01*
X23425000Y-67400000D02*
X24849990Y-67400000D01*
X24849990Y-67400000D02*
X24899990Y-67450000D01*
X50875000Y-43925000D02*
X50900000Y-43900000D01*
X50875000Y-45150000D02*
X50875000Y-43925000D01*
X53275000Y-50025000D02*
X53275000Y-48200000D01*
X52450000Y-50850000D02*
X53275000Y-50025000D01*
D37*
X59852096Y-36300000D02*
X59826048Y-36326048D01*
X61850000Y-36300000D02*
X59852096Y-36300000D01*
D36*
G04 #@! TO.N,Net-(C2-Pad1)*
X48600000Y-46550000D02*
X48600000Y-47200000D01*
X47825000Y-45150000D02*
X47825000Y-45775000D01*
X47825000Y-45775000D02*
X48600000Y-46550000D01*
X48600000Y-47200000D02*
X48550000Y-47250000D01*
G04 #@! TO.N,Net-(C3-Pad2)*
X52425000Y-45150000D02*
X52425000Y-45925000D01*
X52425000Y-45925000D02*
X51600000Y-46750000D01*
X50150000Y-47200000D02*
X50150000Y-48200000D01*
X51600000Y-46750000D02*
X50600000Y-46750000D01*
X50600000Y-46750000D02*
X50150000Y-47200000D01*
G04 #@! TO.N,Net-(C4-Pad2)*
X51300000Y-50850000D02*
X50900000Y-50850000D01*
X51600000Y-50550000D02*
X51300000Y-50850000D01*
X51600000Y-49250000D02*
X51600000Y-50550000D01*
X51600000Y-49250000D02*
X50150000Y-49250000D01*
G04 #@! TO.N,VDDIO*
X38700000Y-77225000D02*
X38675000Y-77200000D01*
X38700000Y-78300000D02*
X38700000Y-77225000D01*
X39325000Y-82800000D02*
X39325000Y-81772904D01*
X39325000Y-81772904D02*
X39391964Y-81705940D01*
X44500000Y-77800000D02*
X44500000Y-76700000D01*
X44000000Y-83300000D02*
X44000000Y-82100000D01*
X35300000Y-63500000D02*
X35300000Y-64600000D01*
X49282151Y-53750000D02*
X48945452Y-53413301D01*
X49975000Y-53750000D02*
X49282151Y-53750000D01*
X44475000Y-59550000D02*
X44475000Y-58000000D01*
X58960000Y-26540000D02*
X59000000Y-26500000D01*
X57050000Y-26540000D02*
X58960000Y-26540000D01*
X44475000Y-59550000D02*
X45524680Y-59550000D01*
X45524680Y-59550000D02*
X45537340Y-59562660D01*
X41670746Y-46400000D02*
X41985373Y-46714627D01*
X40675000Y-46400000D02*
X41670746Y-46400000D01*
D37*
G04 #@! TO.N,Net-(C6-Pad1)*
X55550000Y-59100000D02*
X55400000Y-59250000D01*
X55550000Y-56000000D02*
X55550000Y-59100000D01*
X57440000Y-59250000D02*
X55400000Y-59250000D01*
G04 #@! TO.N,Net-(C6-Pad2)*
X57450000Y-58290000D02*
X57440000Y-58300000D01*
X57450000Y-56000000D02*
X57450000Y-58290000D01*
G04 #@! TO.N,+5V*
X59750000Y-29600000D02*
X59750000Y-31600000D01*
X61750000Y-31600000D02*
X61850000Y-31700000D01*
X59750000Y-31600000D02*
X61750000Y-31600000D01*
D38*
X24000000Y-70250000D02*
X25838477Y-70250000D01*
X39550000Y-95510000D02*
X43150000Y-95510000D01*
X43150000Y-95510000D02*
X46750000Y-95510000D01*
X46750000Y-95510000D02*
X50350000Y-95510000D01*
D37*
X52100000Y-62450000D02*
X52250000Y-62600000D01*
X52100000Y-59250000D02*
X52100000Y-62450000D01*
D38*
X24950000Y-35350000D02*
X25050000Y-35250000D01*
X24950000Y-48150000D02*
X24950000Y-35350000D01*
D37*
X60050000Y-58290000D02*
X60060000Y-58300000D01*
D38*
X42141636Y-72508364D02*
X38275010Y-72508364D01*
D37*
X64000000Y-39750000D02*
X64000000Y-32375000D01*
X64000000Y-32375000D02*
X63325000Y-31700000D01*
X63325000Y-31700000D02*
X61850000Y-31700000D01*
X61350000Y-42400000D02*
X64000000Y-39750000D01*
D36*
X61350000Y-42500000D02*
X61350000Y-42400000D01*
D38*
X52250000Y-62600000D02*
X47078002Y-62600000D01*
X47078002Y-62600000D02*
X44250000Y-65428002D01*
X44250000Y-65428002D02*
X44250000Y-70450000D01*
D37*
X53150000Y-59250000D02*
X52100000Y-59250000D01*
X57989956Y-54824990D02*
X54988198Y-54824990D01*
X54988198Y-54824990D02*
X53950000Y-55863188D01*
X60060000Y-56895034D02*
X57989956Y-54824990D01*
X53950000Y-58450000D02*
X53150000Y-59250000D01*
X53950000Y-55863188D02*
X53950000Y-58450000D01*
X60060000Y-58300000D02*
X60060000Y-56895034D01*
D38*
X25838477Y-70250000D02*
X30000000Y-74411523D01*
X31169239Y-75580762D02*
X30000000Y-74411523D01*
X33300000Y-73450000D02*
X31169239Y-75580762D01*
X33300000Y-72550000D02*
X33300000Y-73450000D01*
X26000000Y-70088477D02*
X26000000Y-53571998D01*
X25838477Y-70250000D02*
X26000000Y-70088477D01*
X26000000Y-53571998D02*
X24950000Y-52521998D01*
X24950000Y-52521998D02*
X24950000Y-48150000D01*
D37*
X61350000Y-57975000D02*
X61350000Y-42500000D01*
X61025000Y-58300000D02*
X61350000Y-57975000D01*
X60060000Y-58300000D02*
X61025000Y-58300000D01*
D38*
X34590000Y-95540000D02*
X39700000Y-95540000D01*
X31500000Y-92450000D02*
X34590000Y-95540000D01*
X31500000Y-75911523D02*
X31500000Y-92450000D01*
D37*
G04 #@! TO.N,Net-(C8-Pad2)*
X60060000Y-61890000D02*
X59700000Y-62250000D01*
X60060000Y-60200000D02*
X60060000Y-61890000D01*
D36*
G04 #@! TO.N,Net-(C10-Pad1)*
X49500000Y-55250000D02*
X48750000Y-54500000D01*
X49975000Y-55250000D02*
X49500000Y-55250000D01*
G04 #@! TO.N,TG_RESET*
X47013426Y-55300000D02*
X46800000Y-55300000D01*
X46800000Y-56400000D02*
X46800000Y-55300000D01*
X47450000Y-57050000D02*
X46800000Y-56400000D01*
X47450000Y-58000000D02*
X47450000Y-57050000D01*
X46800000Y-55300000D02*
X43900000Y-52400000D01*
X43900000Y-52400000D02*
X43900000Y-43150000D01*
X46900000Y-21500000D02*
X51975000Y-21500000D01*
X43975002Y-24424998D02*
X46900000Y-21500000D01*
X43975002Y-40659313D02*
X43975002Y-24424998D01*
X43800000Y-40834315D02*
X43975002Y-40659313D01*
X43800000Y-41400000D02*
X43800000Y-40834315D01*
D37*
G04 #@! TO.N,PWR_SW*
X59750000Y-34000000D02*
X61850000Y-34000000D01*
X41550000Y-58200002D02*
X41612659Y-58262661D01*
X43049999Y-46908003D02*
X41550000Y-48408002D01*
X43049999Y-42750001D02*
X43049999Y-46908003D01*
X41550000Y-48408002D02*
X41550000Y-58200002D01*
X54150000Y-40850000D02*
X53450000Y-40850000D01*
X43500000Y-42300000D02*
X43049999Y-42750001D01*
X53450000Y-40850000D02*
X52000000Y-42300000D01*
X52000000Y-42300000D02*
X43500000Y-42300000D01*
X59750000Y-35200000D02*
X56050000Y-38900000D01*
X56050000Y-38900000D02*
X56050000Y-40800000D01*
X59750000Y-34000000D02*
X59750000Y-35200000D01*
D36*
G04 #@! TO.N,Net-(C18-Pad1)*
X33685000Y-61300000D02*
X31800000Y-61300000D01*
G04 #@! TO.N,Net-(C19-Pad1)*
X39355000Y-32905000D02*
X39450000Y-33000000D01*
X37532000Y-32905000D02*
X39355000Y-32905000D01*
X41225000Y-31200000D02*
X40600000Y-31200000D01*
X40600000Y-31200000D02*
X40400000Y-31400000D01*
X40400000Y-31400000D02*
X40400000Y-32800000D01*
X40200000Y-33000000D02*
X39450000Y-33000000D01*
X40400000Y-32800000D02*
X40200000Y-33000000D01*
D37*
G04 #@! TO.N,VBUS*
X55200000Y-50300000D02*
X55200000Y-31250000D01*
X55200000Y-31250000D02*
X56850000Y-29600000D01*
X56850000Y-29600000D02*
X57650000Y-29600000D01*
D36*
G04 #@! TO.N,Net-(D3-Pad1)*
X65725000Y-41525000D02*
X65700000Y-41500000D01*
X65725000Y-42700000D02*
X65725000Y-41525000D01*
G04 #@! TO.N,Net-(D4-Pad5)*
X49175000Y-39500000D02*
X46649998Y-39500000D01*
X46649998Y-39500000D02*
X44749999Y-37600001D01*
G04 #@! TO.N,Net-(D4-Pad6)*
X48400000Y-37700000D02*
X47900000Y-37700000D01*
X48700000Y-38000000D02*
X48400000Y-37700000D01*
X49175000Y-38000000D02*
X48700000Y-38000000D01*
G04 #@! TO.N,Net-(D4-Pad4)*
X49175000Y-36500000D02*
X48975000Y-36700000D01*
X48975000Y-36700000D02*
X48000002Y-36700000D01*
X48000002Y-36700000D02*
X47900001Y-36599999D01*
G04 #@! TO.N,VOLTAGE*
X57330000Y-43000000D02*
X57335000Y-43005000D01*
X56150000Y-43000000D02*
X57330000Y-43000000D01*
X58150000Y-41650000D02*
X58400000Y-41400000D01*
X58150000Y-42750000D02*
X58150000Y-41650000D01*
X57895000Y-43005000D02*
X58150000Y-42750000D01*
X58400000Y-41400000D02*
X58985000Y-41400000D01*
X57335000Y-43005000D02*
X57895000Y-43005000D01*
G04 #@! TO.N,TVCZ*
X54125010Y-44000000D02*
X54450000Y-44324990D01*
X54450000Y-44324990D02*
X54450000Y-51950000D01*
X54450000Y-51950000D02*
X54900000Y-52400000D01*
G04 #@! TO.N,TVCY*
X54000000Y-54973004D02*
X51748002Y-57225002D01*
X50874998Y-57225002D02*
X46049998Y-62050002D01*
X51748002Y-57225002D02*
X50874998Y-57225002D01*
X54000000Y-45165685D02*
X54000000Y-54973004D01*
X52600000Y-43200000D02*
X52600000Y-43765685D01*
X52600000Y-43765685D02*
X54000000Y-45165685D01*
G04 #@! TO.N,LEDR*
X52000000Y-38750000D02*
X52000000Y-38250000D01*
X51750000Y-38000000D02*
X50825000Y-38000000D01*
X52000000Y-38250000D02*
X51750000Y-38000000D01*
G04 #@! TO.N,LEDG*
X50825000Y-39500000D02*
X50825000Y-40325000D01*
X50825000Y-40325000D02*
X50300000Y-40850000D01*
G04 #@! TO.N,FLASH_CS*
X28400000Y-36400000D02*
X29000000Y-35800000D01*
X29000000Y-35800000D02*
X29000000Y-33100000D01*
X29195000Y-32905000D02*
X30468000Y-32905000D01*
X29000000Y-33100000D02*
X29195000Y-32905000D01*
G04 #@! TO.N,RX*
X31800000Y-63500000D02*
X33650000Y-63500000D01*
X33650000Y-64750000D02*
X34225001Y-65325001D01*
X33650000Y-63500000D02*
X33650000Y-64750000D01*
X36599989Y-57349887D02*
X36599989Y-45700021D01*
X36599989Y-45700021D02*
X37700011Y-44599999D01*
X34225001Y-65325001D02*
X36074999Y-65325001D01*
X36600011Y-64799989D02*
X36600011Y-57349909D01*
X37700011Y-44599999D02*
X38100010Y-44200000D01*
X36074999Y-65325001D02*
X36600011Y-64799989D01*
X36600011Y-57349909D02*
X36599989Y-57349887D01*
G04 #@! TO.N,LEDB*
X49100000Y-34300000D02*
X44727398Y-34300000D01*
X50825000Y-36025000D02*
X49100000Y-34300000D01*
X44727398Y-34300000D02*
X44700012Y-34327386D01*
X50825000Y-36500000D02*
X50825000Y-36025000D01*
X43200000Y-34350000D02*
X43250000Y-34300000D01*
X42434315Y-34350000D02*
X43200000Y-34350000D01*
X39988972Y-36795343D02*
X42434315Y-34350000D01*
X39988972Y-45346262D02*
X39988972Y-36795343D01*
G04 #@! TO.N,PROP_Y*
X38700001Y-49749999D02*
X39100000Y-49350000D01*
X37050022Y-51399978D02*
X38700001Y-49749999D01*
X37050022Y-90470022D02*
X37050022Y-51399978D01*
X39550000Y-92970000D02*
X37050022Y-90470022D01*
G04 #@! TO.N,MOSI*
X36389500Y-29095000D02*
X37532000Y-29095000D01*
X33900000Y-55286309D02*
X33900000Y-31584500D01*
X33900000Y-31584500D02*
X36389500Y-29095000D01*
X36100000Y-54173268D02*
X35874979Y-53948247D01*
X36100000Y-57486310D02*
X36100000Y-54173268D01*
X33900000Y-55286309D02*
X36100000Y-57486310D01*
X36100000Y-57486309D02*
X33900000Y-55286309D01*
X36100000Y-62050000D02*
X36100000Y-57486309D01*
X35750000Y-62400000D02*
X36100000Y-62050000D01*
X31800000Y-62400000D02*
X35750000Y-62400000D01*
D37*
G04 #@! TO.N,PY1*
X57850000Y-77250000D02*
X57950000Y-77150000D01*
X56162500Y-77250000D02*
X57850000Y-77250000D01*
D36*
X39274999Y-52125001D02*
X39400000Y-52000000D01*
X39274999Y-66915584D02*
X39274999Y-52125001D01*
X50634425Y-78275010D02*
X39274999Y-66915584D01*
X55137490Y-78275010D02*
X50634425Y-78275010D01*
X56162500Y-77250000D02*
X55137490Y-78275010D01*
D37*
G04 #@! TO.N,PY2*
X57850000Y-82000000D02*
X57950000Y-81900000D01*
X56162500Y-82000000D02*
X57850000Y-82000000D01*
D36*
X51550000Y-83250000D02*
X50500000Y-82200000D01*
X54912500Y-83250000D02*
X51550000Y-83250000D01*
X56162500Y-82000000D02*
X54912500Y-83250000D01*
X50500000Y-82200000D02*
X50500000Y-78926996D01*
X50500000Y-78926996D02*
X38524990Y-66951986D01*
X38524990Y-66951986D02*
X38524990Y-54828543D01*
X38524990Y-54828543D02*
X38524990Y-52900000D01*
G04 #@! TO.N,MISO*
X31610500Y-31635000D02*
X33449999Y-33474499D01*
X30468000Y-31635000D02*
X31610500Y-31635000D01*
X33449999Y-33474499D02*
X33449999Y-57949999D01*
X31800000Y-58000000D02*
X35074990Y-58000000D01*
X35074990Y-58000000D02*
X35124990Y-57950000D01*
G04 #@! TO.N,PROP_Z*
X39800034Y-54938236D02*
X40144130Y-54594140D01*
X43450000Y-62050000D02*
X39800034Y-58400034D01*
X39800034Y-58400034D02*
X39800034Y-54938236D01*
D37*
G04 #@! TO.N,PY3*
X57900000Y-89000000D02*
X57950000Y-88950000D01*
X56162500Y-89000000D02*
X57900000Y-89000000D01*
D36*
X49893597Y-88493597D02*
X49893597Y-79093597D01*
X51425010Y-90025010D02*
X49893597Y-88493597D01*
X55137490Y-90025010D02*
X51425010Y-90025010D01*
X37799980Y-66999980D02*
X37799980Y-57250000D01*
X56162500Y-89000000D02*
X55137490Y-90025010D01*
X49893597Y-79093597D02*
X37799980Y-66999980D01*
G04 #@! TO.N,SDA*
X40525044Y-58248048D02*
X40525044Y-57050000D01*
X41826996Y-59550000D02*
X40525044Y-58248048D01*
X42825000Y-59550000D02*
X41826996Y-59550000D01*
X29749992Y-67113581D02*
X29749992Y-57522994D01*
X36025000Y-73388589D02*
X29749992Y-67113581D01*
X36025000Y-78350000D02*
X36025000Y-73388589D01*
G04 #@! TO.N,SCL*
X42825000Y-57327314D02*
X42423843Y-56926157D01*
X42825000Y-58000000D02*
X42825000Y-57327314D01*
X35174991Y-73174991D02*
X28988180Y-66988180D01*
X36025000Y-79425000D02*
X36025000Y-79600000D01*
X35174991Y-78850311D02*
X35174991Y-73174991D01*
X28988180Y-66988180D02*
X28988180Y-59010039D01*
X36025000Y-79600000D02*
X35974840Y-79650160D01*
X35974840Y-79650160D02*
X35174991Y-78850311D01*
X29050000Y-53049988D02*
X28999988Y-53100000D01*
X29050000Y-49800000D02*
X29050000Y-53049988D01*
X28750000Y-49500000D02*
X29050000Y-49800000D01*
X28350000Y-49500000D02*
X28750000Y-49500000D01*
G04 #@! TO.N,SWCLK*
X61080000Y-25400000D02*
X60950000Y-25270000D01*
X63600000Y-25400000D02*
X61080000Y-25400000D01*
G04 #@! TO.N,SWDIO*
X62840000Y-26540000D02*
X63600000Y-27300000D01*
X60950000Y-26540000D02*
X62840000Y-26540000D01*
D38*
G04 #@! TO.N,R_IN*
X62750000Y-64750000D02*
X66000000Y-64750000D01*
X61040000Y-66460000D02*
X62750000Y-64750000D01*
X57970000Y-66460000D02*
X61040000Y-66460000D01*
D37*
X60060000Y-59250000D02*
X61677501Y-59250000D01*
X58990000Y-43000000D02*
X58985000Y-43005000D01*
X60500000Y-43000000D02*
X58990000Y-43000000D01*
X61677501Y-59250000D02*
X62200000Y-58727501D01*
X62200000Y-58727501D02*
X62200000Y-43000000D01*
X63000000Y-64750000D02*
X66000000Y-64750000D01*
X62250000Y-59822499D02*
X62250000Y-64000000D01*
X62250000Y-64000000D02*
X63000000Y-64750000D01*
X61677501Y-59250000D02*
X62250000Y-59822499D01*
D36*
G04 #@! TO.N,SCK*
X37532000Y-30365000D02*
X36135000Y-30365000D01*
X36135000Y-30365000D02*
X34627001Y-31872999D01*
X34627001Y-31872999D02*
X34627001Y-51834833D01*
X31800000Y-60200000D02*
X33200000Y-60200000D01*
X33200000Y-60200000D02*
X34400000Y-59000000D01*
G04 #@! TO.N,Net-(IC3-Pad7)*
X39140000Y-31635000D02*
X39575000Y-31200000D01*
X37532000Y-31635000D02*
X39140000Y-31635000D01*
G04 #@! TO.N,RESET*
X60254999Y-20764999D02*
X60950000Y-21460000D01*
X54360001Y-20764999D02*
X60254999Y-20764999D01*
X53625000Y-21500000D02*
X54360001Y-20764999D01*
X27950000Y-63600000D02*
X27950000Y-55650000D01*
X27950000Y-55650000D02*
X30600000Y-53000000D01*
X35750000Y-40397905D02*
X35750000Y-50850000D01*
X43350000Y-24413590D02*
X43350000Y-32797905D01*
X43350000Y-32797905D02*
X35750000Y-40397905D01*
X52824990Y-20699990D02*
X47063600Y-20699990D01*
X53625000Y-21500000D02*
X52824990Y-20699990D01*
X47063600Y-20699990D02*
X43350000Y-24413590D01*
D38*
G04 #@! TO.N,R_OUT*
X64000000Y-73750000D02*
X66000000Y-73750000D01*
X62000000Y-71750000D02*
X64000000Y-73750000D01*
X58180000Y-71750000D02*
X62000000Y-71750000D01*
X57970000Y-71540000D02*
X58180000Y-71750000D01*
X66000000Y-73750000D02*
X67750000Y-73750000D01*
X67750000Y-73750000D02*
X68750000Y-74750000D01*
X68750000Y-74750000D02*
X68750000Y-82000000D01*
X68000000Y-82750000D02*
X66000000Y-82750000D01*
X68750000Y-82000000D02*
X68000000Y-82750000D01*
X68000000Y-91750000D02*
X66000000Y-91750000D01*
X68750000Y-91000000D02*
X68000000Y-91750000D01*
X68750000Y-83500000D02*
X68750000Y-91000000D01*
X68000000Y-82750000D02*
X68750000Y-83500000D01*
D37*
G04 #@! TO.N,Net-(J15-Pad1)*
X60050000Y-76200000D02*
X61800000Y-76200000D01*
X62597182Y-75402818D02*
X62597182Y-73902818D01*
X61800000Y-76200000D02*
X62597182Y-75402818D01*
X62500000Y-70750000D02*
X63500000Y-69750000D01*
X65500000Y-69750000D02*
X66000000Y-70250000D01*
X63500000Y-69750000D02*
X65500000Y-69750000D01*
G04 #@! TO.N,Net-(J16-Pad1)*
X60050000Y-80950000D02*
X61800000Y-80950000D01*
X63500000Y-79250000D02*
X66000000Y-79250000D01*
X61800000Y-80950000D02*
X63500000Y-79250000D01*
G04 #@! TO.N,Net-(J17-Pad1)*
X65750000Y-88000000D02*
X66000000Y-88250000D01*
X60050000Y-88000000D02*
X65750000Y-88000000D01*
G04 #@! TD*
M02*
