G04 #@! TF.GenerationSoftware,KiCad,Pcbnew,(5.1.9)-1*
G04 #@! TF.CreationDate,2021-01-07T21:38:48-08:00*
G04 #@! TF.ProjectId,Hermes,4865726d-6573-42e6-9b69-6361645f7063,rev?*
G04 #@! TF.SameCoordinates,Original*
G04 #@! TF.FileFunction,Soldermask,Top*
G04 #@! TF.FilePolarity,Negative*
%FSLAX46Y46*%
G04 Gerber Fmt 4.6, Leading zero omitted, Abs format (unit mm)*
G04 Created by KiCad (PCBNEW (5.1.9)-1) date 2021-01-07 21:38:48*
%MOMM*%
%LPD*%
G01*
G04 APERTURE LIST*
%ADD10C,0.000100*%
%ADD11C,0.100000*%
%ADD12R,2.500000X1.200000*%
%ADD13R,0.675000X0.250000*%
%ADD14R,0.250000X0.675000*%
%ADD15R,0.350000X0.500000*%
%ADD16R,1.000000X1.550000*%
%ADD17C,2.600000*%
%ADD18R,2.600000X2.600000*%
%ADD19R,3.000000X2.100000*%
%ADD20R,1.600000X0.800000*%
%ADD21O,1.550000X0.775000*%
%ADD22R,1.550000X1.500000*%
%ADD23O,0.650000X1.300000*%
%ADD24R,1.350000X0.400000*%
%ADD25C,3.200000*%
%ADD26R,1.117600X0.508000*%
%ADD27R,1.200000X0.600000*%
%ADD28R,1.700000X1.700000*%
%ADD29O,1.700000X1.700000*%
G04 APERTURE END LIST*
D10*
G04 #@! TO.C,J5*
G36*
X67875000Y-46400000D02*
G01*
X67875000Y-47800000D01*
X66125000Y-47800000D01*
X66125000Y-46400000D01*
X66125685Y-46373832D01*
X66127739Y-46347736D01*
X66131156Y-46321783D01*
X66135926Y-46296044D01*
X66142037Y-46270590D01*
X66149472Y-46245492D01*
X66158210Y-46220816D01*
X66168227Y-46196632D01*
X66179497Y-46173005D01*
X66191987Y-46150000D01*
X66205665Y-46127680D01*
X66220492Y-46106107D01*
X66236427Y-46085340D01*
X66253428Y-46065435D01*
X66271447Y-46046447D01*
X66290435Y-46028428D01*
X66310340Y-46011427D01*
X66331107Y-45995492D01*
X66352680Y-45980665D01*
X66375000Y-45966987D01*
X66398005Y-45954497D01*
X66421632Y-45943227D01*
X66445816Y-45933210D01*
X66470492Y-45924472D01*
X66495590Y-45917037D01*
X66521044Y-45910926D01*
X66546783Y-45906156D01*
X66572736Y-45902739D01*
X66598832Y-45900685D01*
X66625000Y-45900000D01*
X67375000Y-45900000D01*
X67401168Y-45900685D01*
X67427264Y-45902739D01*
X67453217Y-45906156D01*
X67478956Y-45910926D01*
X67504410Y-45917037D01*
X67529508Y-45924472D01*
X67554184Y-45933210D01*
X67578368Y-45943227D01*
X67601995Y-45954497D01*
X67625000Y-45966987D01*
X67647320Y-45980665D01*
X67668893Y-45995492D01*
X67689660Y-46011427D01*
X67709565Y-46028428D01*
X67728553Y-46046447D01*
X67746572Y-46065435D01*
X67763573Y-46085340D01*
X67779508Y-46106107D01*
X67794335Y-46127680D01*
X67808013Y-46150000D01*
X67820503Y-46173005D01*
X67831773Y-46196632D01*
X67841790Y-46220816D01*
X67850528Y-46245492D01*
X67857963Y-46270590D01*
X67864074Y-46296044D01*
X67868844Y-46321783D01*
X67872261Y-46347736D01*
X67874315Y-46373832D01*
X67875000Y-46400000D01*
G37*
X67875000Y-46400000D02*
X67875000Y-47800000D01*
X66125000Y-47800000D01*
X66125000Y-46400000D01*
X66125685Y-46373832D01*
X66127739Y-46347736D01*
X66131156Y-46321783D01*
X66135926Y-46296044D01*
X66142037Y-46270590D01*
X66149472Y-46245492D01*
X66158210Y-46220816D01*
X66168227Y-46196632D01*
X66179497Y-46173005D01*
X66191987Y-46150000D01*
X66205665Y-46127680D01*
X66220492Y-46106107D01*
X66236427Y-46085340D01*
X66253428Y-46065435D01*
X66271447Y-46046447D01*
X66290435Y-46028428D01*
X66310340Y-46011427D01*
X66331107Y-45995492D01*
X66352680Y-45980665D01*
X66375000Y-45966987D01*
X66398005Y-45954497D01*
X66421632Y-45943227D01*
X66445816Y-45933210D01*
X66470492Y-45924472D01*
X66495590Y-45917037D01*
X66521044Y-45910926D01*
X66546783Y-45906156D01*
X66572736Y-45902739D01*
X66598832Y-45900685D01*
X66625000Y-45900000D01*
X67375000Y-45900000D01*
X67401168Y-45900685D01*
X67427264Y-45902739D01*
X67453217Y-45906156D01*
X67478956Y-45910926D01*
X67504410Y-45917037D01*
X67529508Y-45924472D01*
X67554184Y-45933210D01*
X67578368Y-45943227D01*
X67601995Y-45954497D01*
X67625000Y-45966987D01*
X67647320Y-45980665D01*
X67668893Y-45995492D01*
X67689660Y-46011427D01*
X67709565Y-46028428D01*
X67728553Y-46046447D01*
X67746572Y-46065435D01*
X67763573Y-46085340D01*
X67779508Y-46106107D01*
X67794335Y-46127680D01*
X67808013Y-46150000D01*
X67820503Y-46173005D01*
X67831773Y-46196632D01*
X67841790Y-46220816D01*
X67850528Y-46245492D01*
X67857963Y-46270590D01*
X67864074Y-46296044D01*
X67868844Y-46321783D01*
X67872261Y-46347736D01*
X67874315Y-46373832D01*
X67875000Y-46400000D01*
G36*
X66125000Y-53600000D02*
G01*
X66125000Y-52200000D01*
X67875000Y-52200000D01*
X67875000Y-53600000D01*
X67874315Y-53626168D01*
X67872261Y-53652264D01*
X67868844Y-53678217D01*
X67864074Y-53703956D01*
X67857963Y-53729410D01*
X67850528Y-53754508D01*
X67841790Y-53779184D01*
X67831773Y-53803368D01*
X67820503Y-53826995D01*
X67808013Y-53850000D01*
X67794335Y-53872320D01*
X67779508Y-53893893D01*
X67763573Y-53914660D01*
X67746572Y-53934565D01*
X67728553Y-53953553D01*
X67709565Y-53971572D01*
X67689660Y-53988573D01*
X67668893Y-54004508D01*
X67647320Y-54019335D01*
X67625000Y-54033013D01*
X67601995Y-54045503D01*
X67578368Y-54056773D01*
X67554184Y-54066790D01*
X67529508Y-54075528D01*
X67504410Y-54082963D01*
X67478956Y-54089074D01*
X67453217Y-54093844D01*
X67427264Y-54097261D01*
X67401168Y-54099315D01*
X67375000Y-54100000D01*
X66625000Y-54100000D01*
X66598832Y-54099315D01*
X66572736Y-54097261D01*
X66546783Y-54093844D01*
X66521044Y-54089074D01*
X66495590Y-54082963D01*
X66470492Y-54075528D01*
X66445816Y-54066790D01*
X66421632Y-54056773D01*
X66398005Y-54045503D01*
X66375000Y-54033013D01*
X66352680Y-54019335D01*
X66331107Y-54004508D01*
X66310340Y-53988573D01*
X66290435Y-53971572D01*
X66271447Y-53953553D01*
X66253428Y-53934565D01*
X66236427Y-53914660D01*
X66220492Y-53893893D01*
X66205665Y-53872320D01*
X66191987Y-53850000D01*
X66179497Y-53826995D01*
X66168227Y-53803368D01*
X66158210Y-53779184D01*
X66149472Y-53754508D01*
X66142037Y-53729410D01*
X66135926Y-53703956D01*
X66131156Y-53678217D01*
X66127739Y-53652264D01*
X66125685Y-53626168D01*
X66125000Y-53600000D01*
G37*
X66125000Y-53600000D02*
X66125000Y-52200000D01*
X67875000Y-52200000D01*
X67875000Y-53600000D01*
X67874315Y-53626168D01*
X67872261Y-53652264D01*
X67868844Y-53678217D01*
X67864074Y-53703956D01*
X67857963Y-53729410D01*
X67850528Y-53754508D01*
X67841790Y-53779184D01*
X67831773Y-53803368D01*
X67820503Y-53826995D01*
X67808013Y-53850000D01*
X67794335Y-53872320D01*
X67779508Y-53893893D01*
X67763573Y-53914660D01*
X67746572Y-53934565D01*
X67728553Y-53953553D01*
X67709565Y-53971572D01*
X67689660Y-53988573D01*
X67668893Y-54004508D01*
X67647320Y-54019335D01*
X67625000Y-54033013D01*
X67601995Y-54045503D01*
X67578368Y-54056773D01*
X67554184Y-54066790D01*
X67529508Y-54075528D01*
X67504410Y-54082963D01*
X67478956Y-54089074D01*
X67453217Y-54093844D01*
X67427264Y-54097261D01*
X67401168Y-54099315D01*
X67375000Y-54100000D01*
X66625000Y-54100000D01*
X66598832Y-54099315D01*
X66572736Y-54097261D01*
X66546783Y-54093844D01*
X66521044Y-54089074D01*
X66495590Y-54082963D01*
X66470492Y-54075528D01*
X66445816Y-54066790D01*
X66421632Y-54056773D01*
X66398005Y-54045503D01*
X66375000Y-54033013D01*
X66352680Y-54019335D01*
X66331107Y-54004508D01*
X66310340Y-53988573D01*
X66290435Y-53971572D01*
X66271447Y-53953553D01*
X66253428Y-53934565D01*
X66236427Y-53914660D01*
X66220492Y-53893893D01*
X66205665Y-53872320D01*
X66191987Y-53850000D01*
X66179497Y-53826995D01*
X66168227Y-53803368D01*
X66158210Y-53779184D01*
X66149472Y-53754508D01*
X66142037Y-53729410D01*
X66135926Y-53703956D01*
X66131156Y-53678217D01*
X66127739Y-53652264D01*
X66125685Y-53626168D01*
X66125000Y-53600000D01*
G04 #@! TD*
D11*
G04 #@! TO.C,IC1*
G36*
X45000000Y-47536515D02*
G01*
X47963485Y-50500000D01*
X45000000Y-53463485D01*
X42036515Y-50500000D01*
X45000000Y-47536515D01*
G37*
G36*
X49238681Y-50607763D02*
G01*
X49813418Y-51182500D01*
X49633813Y-51362105D01*
X49059076Y-50787368D01*
X49238681Y-50607763D01*
G37*
G36*
X48879470Y-50966973D02*
G01*
X49454207Y-51541710D01*
X49274602Y-51721315D01*
X48699865Y-51146578D01*
X48879470Y-50966973D01*
G37*
G36*
X48520260Y-51326183D02*
G01*
X49094997Y-51900920D01*
X48915392Y-52080525D01*
X48340655Y-51505788D01*
X48520260Y-51326183D01*
G37*
G36*
X48161050Y-51685394D02*
G01*
X48735787Y-52260131D01*
X48556182Y-52439736D01*
X47981445Y-51864999D01*
X48161050Y-51685394D01*
G37*
G36*
X47801840Y-52044604D02*
G01*
X48376577Y-52619341D01*
X48196972Y-52798946D01*
X47622235Y-52224209D01*
X47801840Y-52044604D01*
G37*
G36*
X47442629Y-52403814D02*
G01*
X48017366Y-52978551D01*
X47837761Y-53158156D01*
X47263024Y-52583419D01*
X47442629Y-52403814D01*
G37*
G36*
X47083419Y-52763024D02*
G01*
X47658156Y-53337761D01*
X47478551Y-53517366D01*
X46903814Y-52942629D01*
X47083419Y-52763024D01*
G37*
G36*
X46724209Y-53122235D02*
G01*
X47298946Y-53696972D01*
X47119341Y-53876577D01*
X46544604Y-53301840D01*
X46724209Y-53122235D01*
G37*
G36*
X46364999Y-53481445D02*
G01*
X46939736Y-54056182D01*
X46760131Y-54235787D01*
X46185394Y-53661050D01*
X46364999Y-53481445D01*
G37*
G36*
X46005788Y-53840655D02*
G01*
X46580525Y-54415392D01*
X46400920Y-54594997D01*
X45826183Y-54020260D01*
X46005788Y-53840655D01*
G37*
G36*
X45646578Y-54199865D02*
G01*
X46221315Y-54774602D01*
X46041710Y-54954207D01*
X45466973Y-54379470D01*
X45646578Y-54199865D01*
G37*
G36*
X45287368Y-54559076D02*
G01*
X45862105Y-55133813D01*
X45682500Y-55313418D01*
X45107763Y-54738681D01*
X45287368Y-54559076D01*
G37*
G36*
X44137895Y-55133813D02*
G01*
X44712632Y-54559076D01*
X44892237Y-54738681D01*
X44317500Y-55313418D01*
X44137895Y-55133813D01*
G37*
G36*
X43778685Y-54774602D02*
G01*
X44353422Y-54199865D01*
X44533027Y-54379470D01*
X43958290Y-54954207D01*
X43778685Y-54774602D01*
G37*
G36*
X43419475Y-54415392D02*
G01*
X43994212Y-53840655D01*
X44173817Y-54020260D01*
X43599080Y-54594997D01*
X43419475Y-54415392D01*
G37*
G36*
X43060264Y-54056182D02*
G01*
X43635001Y-53481445D01*
X43814606Y-53661050D01*
X43239869Y-54235787D01*
X43060264Y-54056182D01*
G37*
G36*
X42701054Y-53696972D02*
G01*
X43275791Y-53122235D01*
X43455396Y-53301840D01*
X42880659Y-53876577D01*
X42701054Y-53696972D01*
G37*
G36*
X42341844Y-53337761D02*
G01*
X42916581Y-52763024D01*
X43096186Y-52942629D01*
X42521449Y-53517366D01*
X42341844Y-53337761D01*
G37*
G36*
X41982634Y-52978551D02*
G01*
X42557371Y-52403814D01*
X42736976Y-52583419D01*
X42162239Y-53158156D01*
X41982634Y-52978551D01*
G37*
G36*
X41623423Y-52619341D02*
G01*
X42198160Y-52044604D01*
X42377765Y-52224209D01*
X41803028Y-52798946D01*
X41623423Y-52619341D01*
G37*
G36*
X41264213Y-52260131D02*
G01*
X41838950Y-51685394D01*
X42018555Y-51864999D01*
X41443818Y-52439736D01*
X41264213Y-52260131D01*
G37*
G36*
X40905003Y-51900920D02*
G01*
X41479740Y-51326183D01*
X41659345Y-51505788D01*
X41084608Y-52080525D01*
X40905003Y-51900920D01*
G37*
G36*
X40545793Y-51541710D02*
G01*
X41120530Y-50966973D01*
X41300135Y-51146578D01*
X40725398Y-51721315D01*
X40545793Y-51541710D01*
G37*
G36*
X40186582Y-51182500D02*
G01*
X40761319Y-50607763D01*
X40940924Y-50787368D01*
X40366187Y-51362105D01*
X40186582Y-51182500D01*
G37*
G36*
X40366187Y-49637895D02*
G01*
X40940924Y-50212632D01*
X40761319Y-50392237D01*
X40186582Y-49817500D01*
X40366187Y-49637895D01*
G37*
G36*
X40725398Y-49278685D02*
G01*
X41300135Y-49853422D01*
X41120530Y-50033027D01*
X40545793Y-49458290D01*
X40725398Y-49278685D01*
G37*
G36*
X41084608Y-48919475D02*
G01*
X41659345Y-49494212D01*
X41479740Y-49673817D01*
X40905003Y-49099080D01*
X41084608Y-48919475D01*
G37*
G36*
X41443818Y-48560264D02*
G01*
X42018555Y-49135001D01*
X41838950Y-49314606D01*
X41264213Y-48739869D01*
X41443818Y-48560264D01*
G37*
G36*
X41803028Y-48201054D02*
G01*
X42377765Y-48775791D01*
X42198160Y-48955396D01*
X41623423Y-48380659D01*
X41803028Y-48201054D01*
G37*
G36*
X42162239Y-47841844D02*
G01*
X42736976Y-48416581D01*
X42557371Y-48596186D01*
X41982634Y-48021449D01*
X42162239Y-47841844D01*
G37*
G36*
X42521449Y-47482634D02*
G01*
X43096186Y-48057371D01*
X42916581Y-48236976D01*
X42341844Y-47662239D01*
X42521449Y-47482634D01*
G37*
G36*
X42880659Y-47123423D02*
G01*
X43455396Y-47698160D01*
X43275791Y-47877765D01*
X42701054Y-47303028D01*
X42880659Y-47123423D01*
G37*
G36*
X43239869Y-46764213D02*
G01*
X43814606Y-47338950D01*
X43635001Y-47518555D01*
X43060264Y-46943818D01*
X43239869Y-46764213D01*
G37*
G36*
X43599080Y-46405003D02*
G01*
X44173817Y-46979740D01*
X43994212Y-47159345D01*
X43419475Y-46584608D01*
X43599080Y-46405003D01*
G37*
G36*
X43958290Y-46045793D02*
G01*
X44533027Y-46620530D01*
X44353422Y-46800135D01*
X43778685Y-46225398D01*
X43958290Y-46045793D01*
G37*
G36*
X44317500Y-45686582D02*
G01*
X44892237Y-46261319D01*
X44712632Y-46440924D01*
X44137895Y-45866187D01*
X44317500Y-45686582D01*
G37*
G36*
X45107763Y-46261319D02*
G01*
X45682500Y-45686582D01*
X45862105Y-45866187D01*
X45287368Y-46440924D01*
X45107763Y-46261319D01*
G37*
G36*
X45466973Y-46620530D02*
G01*
X46041710Y-46045793D01*
X46221315Y-46225398D01*
X45646578Y-46800135D01*
X45466973Y-46620530D01*
G37*
G36*
X45826183Y-46979740D02*
G01*
X46400920Y-46405003D01*
X46580525Y-46584608D01*
X46005788Y-47159345D01*
X45826183Y-46979740D01*
G37*
G36*
X46185394Y-47338950D02*
G01*
X46760131Y-46764213D01*
X46939736Y-46943818D01*
X46364999Y-47518555D01*
X46185394Y-47338950D01*
G37*
G36*
X46544604Y-47698160D02*
G01*
X47119341Y-47123423D01*
X47298946Y-47303028D01*
X46724209Y-47877765D01*
X46544604Y-47698160D01*
G37*
G36*
X46903814Y-48057371D02*
G01*
X47478551Y-47482634D01*
X47658156Y-47662239D01*
X47083419Y-48236976D01*
X46903814Y-48057371D01*
G37*
G36*
X47263024Y-48416581D02*
G01*
X47837761Y-47841844D01*
X48017366Y-48021449D01*
X47442629Y-48596186D01*
X47263024Y-48416581D01*
G37*
G36*
X47622235Y-48775791D02*
G01*
X48196972Y-48201054D01*
X48376577Y-48380659D01*
X47801840Y-48955396D01*
X47622235Y-48775791D01*
G37*
G36*
X47981445Y-49135001D02*
G01*
X48556182Y-48560264D01*
X48735787Y-48739869D01*
X48161050Y-49314606D01*
X47981445Y-49135001D01*
G37*
G36*
X48340655Y-49494212D02*
G01*
X48915392Y-48919475D01*
X49094997Y-49099080D01*
X48520260Y-49673817D01*
X48340655Y-49494212D01*
G37*
G36*
X48699865Y-49853422D02*
G01*
X49274602Y-49278685D01*
X49454207Y-49458290D01*
X48879470Y-50033027D01*
X48699865Y-49853422D01*
G37*
G36*
X49059076Y-50212632D02*
G01*
X49633813Y-49637895D01*
X49813418Y-49817500D01*
X49238681Y-50392237D01*
X49059076Y-50212632D01*
G37*
G04 #@! TD*
D12*
G04 #@! TO.C,S2*
X47750000Y-63500000D03*
X47750000Y-66000000D03*
X47750000Y-68500000D03*
X42250000Y-68500000D03*
X42250000Y-66000000D03*
X42250000Y-63500000D03*
G04 #@! TD*
D13*
G04 #@! TO.C,U2*
X43085000Y-80000000D03*
D14*
X43500000Y-81165000D03*
X44000000Y-81165000D03*
X44500000Y-81165000D03*
X45000000Y-81165000D03*
X45500000Y-81165000D03*
X46000000Y-81165000D03*
X46500000Y-81165000D03*
D13*
X46915000Y-80000000D03*
D14*
X46500000Y-78835000D03*
X46000000Y-78835000D03*
X45500000Y-78835000D03*
X45000000Y-78835000D03*
X44500000Y-78835000D03*
X44000000Y-78835000D03*
X43500000Y-78835000D03*
G04 #@! TD*
D15*
G04 #@! TO.C,U3*
X39975000Y-79200000D03*
X39325000Y-79200000D03*
X38675000Y-79200000D03*
X38025000Y-79200000D03*
X38025000Y-80800000D03*
X38675000Y-80800000D03*
X39325000Y-80800000D03*
X39975000Y-80800000D03*
G04 #@! TD*
D16*
G04 #@! TO.C,S1*
X25550000Y-58575000D03*
X25550000Y-63825000D03*
X22350000Y-58575000D03*
X22350000Y-63825000D03*
G04 #@! TD*
D17*
G04 #@! TO.C,J17*
X66000000Y-91750000D03*
D18*
X66000000Y-88250000D03*
G04 #@! TD*
D17*
G04 #@! TO.C,J16*
X66000000Y-82750000D03*
D18*
X66000000Y-79250000D03*
G04 #@! TD*
D17*
G04 #@! TO.C,J15*
X66000000Y-73750000D03*
D18*
X66000000Y-70250000D03*
G04 #@! TD*
D17*
G04 #@! TO.C,J12*
X24000000Y-79250000D03*
D18*
X24000000Y-82750000D03*
G04 #@! TD*
D17*
G04 #@! TO.C,J11*
X66000000Y-64750000D03*
D18*
X66000000Y-61250000D03*
G04 #@! TD*
D17*
G04 #@! TO.C,J9*
X24000000Y-88250000D03*
D18*
X24000000Y-91750000D03*
G04 #@! TD*
D17*
G04 #@! TO.C,J8*
X24000000Y-70250000D03*
D18*
X24000000Y-73750000D03*
G04 #@! TD*
D19*
G04 #@! TO.C,J6*
X24000000Y-54425000D03*
X24000000Y-45575000D03*
D20*
X26900000Y-51875000D03*
X26900000Y-50625000D03*
X26900000Y-49375000D03*
X26900000Y-48125000D03*
G04 #@! TD*
D21*
G04 #@! TO.C,J5*
X67000000Y-46500000D03*
D22*
X67000000Y-49000000D03*
X67000000Y-51000000D03*
D21*
X67000000Y-53500000D03*
D23*
X64300000Y-47500000D03*
X64300000Y-52500000D03*
D24*
X64300000Y-48700000D03*
X64300000Y-49350000D03*
X64300000Y-50000000D03*
X64300000Y-50650000D03*
X64300000Y-51300000D03*
G04 #@! TD*
D25*
G04 #@! TO.C,H4*
X67000000Y-97000000D03*
G04 #@! TD*
G04 #@! TO.C,H3*
X23000000Y-97000000D03*
G04 #@! TD*
G04 #@! TO.C,H2*
X67000000Y-23000000D03*
G04 #@! TD*
G04 #@! TO.C,H1*
X23000000Y-23000000D03*
G04 #@! TD*
G04 #@! TO.C,FB1*
G36*
G01*
X61350000Y-53256250D02*
X61350000Y-52743750D01*
G75*
G02*
X61568750Y-52525000I218750J0D01*
G01*
X62006250Y-52525000D01*
G75*
G02*
X62225000Y-52743750I0J-218750D01*
G01*
X62225000Y-53256250D01*
G75*
G02*
X62006250Y-53475000I-218750J0D01*
G01*
X61568750Y-53475000D01*
G75*
G02*
X61350000Y-53256250I0J218750D01*
G01*
G37*
G36*
G01*
X59775000Y-53256250D02*
X59775000Y-52743750D01*
G75*
G02*
X59993750Y-52525000I218750J0D01*
G01*
X60431250Y-52525000D01*
G75*
G02*
X60650000Y-52743750I0J-218750D01*
G01*
X60650000Y-53256250D01*
G75*
G02*
X60431250Y-53475000I-218750J0D01*
G01*
X59993750Y-53475000D01*
G75*
G02*
X59775000Y-53256250I0J218750D01*
G01*
G37*
G04 #@! TD*
G04 #@! TO.C,F1*
G36*
G01*
X56750000Y-49943750D02*
X56750000Y-50856250D01*
G75*
G02*
X56506250Y-51100000I-243750J0D01*
G01*
X56018750Y-51100000D01*
G75*
G02*
X55775000Y-50856250I0J243750D01*
G01*
X55775000Y-49943750D01*
G75*
G02*
X56018750Y-49700000I243750J0D01*
G01*
X56506250Y-49700000D01*
G75*
G02*
X56750000Y-49943750I0J-243750D01*
G01*
G37*
G36*
G01*
X58625000Y-49943750D02*
X58625000Y-50856250D01*
G75*
G02*
X58381250Y-51100000I-243750J0D01*
G01*
X57893750Y-51100000D01*
G75*
G02*
X57650000Y-50856250I0J243750D01*
G01*
X57650000Y-49943750D01*
G75*
G02*
X57893750Y-49700000I243750J0D01*
G01*
X58381250Y-49700000D01*
G75*
G02*
X58625000Y-49943750I0J-243750D01*
G01*
G37*
G04 #@! TD*
D26*
G04 #@! TO.C,D4*
X46624000Y-35899999D03*
X46624000Y-36750000D03*
X46624000Y-37600001D03*
X43576000Y-37600001D03*
X43576000Y-36750000D03*
X43576000Y-35899999D03*
G04 #@! TD*
G04 #@! TO.C,D3*
G36*
G01*
X66950000Y-40600001D02*
X66950000Y-39699999D01*
G75*
G02*
X67199999Y-39450000I249999J0D01*
G01*
X67850001Y-39450000D01*
G75*
G02*
X68100000Y-39699999I0J-249999D01*
G01*
X68100000Y-40600001D01*
G75*
G02*
X67850001Y-40850000I-249999J0D01*
G01*
X67199999Y-40850000D01*
G75*
G02*
X66950000Y-40600001I0J249999D01*
G01*
G37*
G36*
G01*
X64900000Y-40600001D02*
X64900000Y-39699999D01*
G75*
G02*
X65149999Y-39450000I249999J0D01*
G01*
X65800001Y-39450000D01*
G75*
G02*
X66050000Y-39699999I0J-249999D01*
G01*
X66050000Y-40600001D01*
G75*
G02*
X65800001Y-40850000I-249999J0D01*
G01*
X65149999Y-40850000D01*
G75*
G02*
X64900000Y-40600001I0J249999D01*
G01*
G37*
G04 #@! TD*
D27*
G04 #@! TO.C,D1*
X59850000Y-51350000D03*
X59850000Y-50400000D03*
X59850000Y-49450000D03*
X62150000Y-49450000D03*
X62150000Y-50400000D03*
X62150000Y-51350000D03*
G04 #@! TD*
G04 #@! TO.C,C1*
G36*
G01*
X60550000Y-54325000D02*
X60550000Y-55275000D01*
G75*
G02*
X60300000Y-55525000I-250000J0D01*
G01*
X59800000Y-55525000D01*
G75*
G02*
X59550000Y-55275000I0J250000D01*
G01*
X59550000Y-54325000D01*
G75*
G02*
X59800000Y-54075000I250000J0D01*
G01*
X60300000Y-54075000D01*
G75*
G02*
X60550000Y-54325000I0J-250000D01*
G01*
G37*
G36*
G01*
X62450000Y-54325000D02*
X62450000Y-55275000D01*
G75*
G02*
X62200000Y-55525000I-250000J0D01*
G01*
X61700000Y-55525000D01*
G75*
G02*
X61450000Y-55275000I0J250000D01*
G01*
X61450000Y-54325000D01*
G75*
G02*
X61700000Y-54075000I250000J0D01*
G01*
X62200000Y-54075000D01*
G75*
G02*
X62450000Y-54325000I0J-250000D01*
G01*
G37*
G04 #@! TD*
D28*
G04 #@! TO.C,J1*
X46750000Y-98050000D03*
D29*
X46750000Y-95510000D03*
X46750000Y-92970000D03*
G04 #@! TD*
G04 #@! TO.C,J2*
X50350000Y-92970000D03*
X50350000Y-95510000D03*
D28*
X50350000Y-98050000D03*
G04 #@! TD*
G04 #@! TO.C,J3*
X43150000Y-98050000D03*
D29*
X43150000Y-95510000D03*
X43150000Y-92970000D03*
G04 #@! TD*
G04 #@! TO.C,J4*
X39550000Y-92970000D03*
X39550000Y-95510000D03*
D28*
X39550000Y-98050000D03*
G04 #@! TD*
D20*
G04 #@! TO.C,J7*
X26900000Y-35125000D03*
X26900000Y-36375000D03*
X26900000Y-37625000D03*
X26900000Y-38875000D03*
D19*
X24000000Y-32575000D03*
X24000000Y-41425000D03*
G04 #@! TD*
M02*
