G04 #@! TF.GenerationSoftware,KiCad,Pcbnew,(5.1.9)-1*
G04 #@! TF.CreationDate,2021-01-07T21:38:47-08:00*
G04 #@! TF.ProjectId,Hermes,4865726d-6573-42e6-9b69-6361645f7063,rev?*
G04 #@! TF.SameCoordinates,Original*
G04 #@! TF.FileFunction,Copper,L2,Inr*
G04 #@! TF.FilePolarity,Positive*
%FSLAX46Y46*%
G04 Gerber Fmt 4.6, Leading zero omitted, Abs format (unit mm)*
G04 Created by KiCad (PCBNEW (5.1.9)-1) date 2021-01-07 21:38:47*
%MOMM*%
%LPD*%
G01*
G04 APERTURE LIST*
G04 #@! TA.AperFunction,ComponentPad*
%ADD10C,2.600000*%
G04 #@! TD*
G04 #@! TA.AperFunction,ComponentPad*
%ADD11R,2.600000X2.600000*%
G04 #@! TD*
G04 #@! TA.AperFunction,ComponentPad*
%ADD12O,1.550000X0.775000*%
G04 #@! TD*
G04 #@! TA.AperFunction,ComponentPad*
%ADD13O,0.650000X1.300000*%
G04 #@! TD*
G04 #@! TA.AperFunction,ComponentPad*
%ADD14R,1.700000X1.700000*%
G04 #@! TD*
G04 #@! TA.AperFunction,ComponentPad*
%ADD15O,1.700000X1.700000*%
G04 #@! TD*
G04 #@! TA.AperFunction,ViaPad*
%ADD16C,0.800000*%
G04 #@! TD*
G04 #@! TA.AperFunction,ViaPad*
%ADD17C,1.000000*%
G04 #@! TD*
G04 #@! TA.AperFunction,Conductor*
%ADD18C,0.254000*%
G04 #@! TD*
G04 #@! TA.AperFunction,Conductor*
%ADD19C,0.100000*%
G04 #@! TD*
G04 APERTURE END LIST*
D10*
G04 #@! TO.N,R_OUT*
G04 #@! TO.C,J17*
X66000000Y-91750000D03*
D11*
G04 #@! TO.N,Net-(J17-Pad1)*
X66000000Y-88250000D03*
G04 #@! TD*
D10*
G04 #@! TO.N,R_OUT*
G04 #@! TO.C,J16*
X66000000Y-82750000D03*
D11*
G04 #@! TO.N,Net-(J16-Pad1)*
X66000000Y-79250000D03*
G04 #@! TD*
D10*
G04 #@! TO.N,R_OUT*
G04 #@! TO.C,J15*
X66000000Y-73750000D03*
D11*
G04 #@! TO.N,Net-(J15-Pad1)*
X66000000Y-70250000D03*
G04 #@! TD*
D10*
G04 #@! TO.N,VDDIO*
G04 #@! TO.C,J12*
X24000000Y-79250000D03*
D11*
G04 #@! TO.N,PWR_SW*
X24000000Y-82750000D03*
G04 #@! TD*
D10*
G04 #@! TO.N,R_IN*
G04 #@! TO.C,J11*
X66000000Y-64750000D03*
D11*
G04 #@! TO.N,GND*
X66000000Y-61250000D03*
G04 #@! TD*
D10*
G04 #@! TO.N,VDDIO*
G04 #@! TO.C,J9*
X24000000Y-88250000D03*
D11*
G04 #@! TO.N,GND*
X24000000Y-91750000D03*
G04 #@! TD*
D10*
G04 #@! TO.N,+5V*
G04 #@! TO.C,J8*
X24000000Y-70250000D03*
D11*
G04 #@! TO.N,GND*
X24000000Y-73750000D03*
G04 #@! TD*
D12*
G04 #@! TO.N,N/C*
G04 #@! TO.C,J5*
X67000000Y-46500000D03*
X67000000Y-53500000D03*
D13*
X64300000Y-47500000D03*
X64300000Y-52500000D03*
G04 #@! TD*
D14*
G04 #@! TO.N,GND*
G04 #@! TO.C,J1*
X46750000Y-98050000D03*
D15*
G04 #@! TO.N,+5V*
X46750000Y-95510000D03*
G04 #@! TO.N,TVCY*
X46750000Y-92970000D03*
G04 #@! TD*
G04 #@! TO.N,TVCZ*
G04 #@! TO.C,J2*
X50350000Y-92970000D03*
G04 #@! TO.N,+5V*
X50350000Y-95510000D03*
D14*
G04 #@! TO.N,GND*
X50350000Y-98050000D03*
G04 #@! TD*
G04 #@! TO.N,GND*
G04 #@! TO.C,J3*
X43150000Y-98050000D03*
D15*
G04 #@! TO.N,+5V*
X43150000Y-95510000D03*
G04 #@! TO.N,PROP_Z*
X43150000Y-92970000D03*
G04 #@! TD*
G04 #@! TO.N,PROP_Y*
G04 #@! TO.C,J4*
X39550000Y-92970000D03*
G04 #@! TO.N,+5V*
X39550000Y-95510000D03*
D14*
G04 #@! TO.N,GND*
X39550000Y-98050000D03*
G04 #@! TD*
D16*
G04 #@! TO.N,GND*
X40100000Y-78300000D03*
X41000000Y-78300000D03*
X41700000Y-81700000D03*
X40500000Y-81699994D03*
X45600000Y-82200002D03*
X46000000Y-77900000D03*
X46900000Y-77900000D03*
X63400000Y-54800000D03*
X56700000Y-31600000D03*
X56700000Y-34000000D03*
X32200000Y-29100000D03*
X56500000Y-62250000D03*
X55250000Y-64250000D03*
X54250000Y-75250000D03*
X55250000Y-75250000D03*
X56250000Y-75250000D03*
X54250000Y-80000000D03*
X55250000Y-80000000D03*
X56250000Y-80000000D03*
X54250000Y-87000000D03*
X55250000Y-87000000D03*
X56250000Y-87000000D03*
X44450000Y-75500000D03*
X28400000Y-38900000D03*
X54800000Y-22700000D03*
X31650000Y-54400000D03*
X67400000Y-43900000D03*
X49421207Y-43871207D03*
X33337340Y-59037340D03*
X47925000Y-55300000D03*
X60500000Y-48150000D03*
X63050000Y-47450000D03*
X59000004Y-24000000D03*
X59000000Y-25299994D03*
X31700000Y-65600072D03*
X38100000Y-46400000D03*
X46600000Y-59600000D03*
X53000000Y-53800000D03*
X35150000Y-60100000D03*
X42250000Y-36750000D03*
X42250002Y-35850000D03*
X56100000Y-41900000D03*
X45450001Y-35899999D03*
X51473843Y-56473841D03*
X24100000Y-56750002D03*
X42550000Y-32200000D03*
X28324990Y-51900000D03*
X24899990Y-57050000D03*
X24899990Y-67450000D03*
X49100000Y-48150000D03*
X50900000Y-43900000D03*
X53275000Y-48200000D03*
X59826048Y-36326048D03*
G04 #@! TO.N,Net-(C2-Pad1)*
X48550000Y-47250000D03*
G04 #@! TO.N,Net-(C3-Pad2)*
X50150000Y-48200000D03*
G04 #@! TO.N,Net-(C4-Pad2)*
X50150000Y-49250000D03*
G04 #@! TO.N,VDDIO*
X38700000Y-78300000D03*
X39391964Y-81705940D03*
X44500000Y-77800000D03*
X44000000Y-82100000D03*
X35300000Y-64600000D03*
X48945452Y-53413301D03*
X68850000Y-40150000D03*
X59000000Y-26500000D03*
X45537340Y-59562660D03*
D17*
X42250000Y-62100000D03*
D16*
X44259108Y-56014082D03*
X41985373Y-46714627D03*
D17*
G04 #@! TO.N,+5V*
X44250000Y-70450000D03*
X42141636Y-72508364D03*
X24950000Y-48150000D03*
X25050000Y-35250000D03*
X33300000Y-72550000D03*
X38275010Y-72508364D03*
D16*
G04 #@! TO.N,Net-(C10-Pad1)*
X48750000Y-54500000D03*
G04 #@! TO.N,TG_RESET*
X46800000Y-55300000D03*
X43900000Y-43150000D03*
X43800000Y-41400000D03*
G04 #@! TO.N,PWR_SW*
X54150000Y-40850000D03*
X41612659Y-58262661D03*
X56050000Y-40800000D03*
G04 #@! TO.N,VBUS*
X55200000Y-50300000D03*
G04 #@! TO.N,Net-(D3-Pad1)*
X65700000Y-41500000D03*
G04 #@! TO.N,Net-(D4-Pad5)*
X44749999Y-37600001D03*
G04 #@! TO.N,Net-(D4-Pad6)*
X47900000Y-37650000D03*
G04 #@! TO.N,Net-(D4-Pad4)*
X47900001Y-36699989D03*
G04 #@! TO.N,VOLTAGE*
X56150000Y-43000000D03*
G04 #@! TO.N,TVCZ*
X54900000Y-52400000D03*
X54125010Y-44000000D03*
G04 #@! TO.N,TVCY*
X52600000Y-43200000D03*
X46049998Y-62050002D03*
G04 #@! TO.N,LEDR*
X52000000Y-38750000D03*
G04 #@! TO.N,LEDG*
X50300000Y-40850000D03*
G04 #@! TO.N,FLASH_CS*
X28400000Y-36400000D03*
G04 #@! TO.N,RX*
X38100010Y-44200000D03*
G04 #@! TO.N,LEDB*
X39988972Y-45346262D03*
X44700012Y-34327386D03*
X43250000Y-34300000D03*
G04 #@! TO.N,PROP_Y*
X39100000Y-49350000D03*
G04 #@! TO.N,MOSI*
X35874979Y-53948247D03*
G04 #@! TO.N,PY1*
X39325000Y-52100000D03*
G04 #@! TO.N,PY2*
X38524990Y-52900000D03*
G04 #@! TO.N,MISO*
X35124990Y-57950000D03*
G04 #@! TO.N,PROP_Z*
X43450000Y-62050000D03*
X40000000Y-54594140D03*
G04 #@! TO.N,PY3*
X37799980Y-57250000D03*
G04 #@! TO.N,SDA*
X29749992Y-57522994D03*
X40525044Y-57050000D03*
X36025000Y-78350000D03*
G04 #@! TO.N,SCL*
X28350000Y-49500000D03*
X28988180Y-59010039D03*
X42423843Y-56926157D03*
X35974840Y-79650160D03*
X28999988Y-53100000D03*
G04 #@! TO.N,SWCLK*
X63600000Y-25400000D03*
G04 #@! TO.N,SWDIO*
X63600000Y-27300000D03*
G04 #@! TO.N,R_IN*
X60500000Y-43000000D03*
X62200000Y-43000000D03*
G04 #@! TO.N,SCK*
X34627001Y-51834833D03*
X34400000Y-59000000D03*
G04 #@! TO.N,RESET*
X27950000Y-63600000D03*
X30600000Y-53000000D03*
X35750000Y-50850000D03*
G04 #@! TO.N,Net-(J15-Pad1)*
X62597182Y-73902818D03*
X62500000Y-70750000D03*
G04 #@! TD*
D18*
G04 #@! TO.N,GND*
X69340000Y-39232689D02*
X69151898Y-39154774D01*
X68951939Y-39115000D01*
X68748061Y-39115000D01*
X68548102Y-39154774D01*
X68359744Y-39232795D01*
X68190226Y-39346063D01*
X68046063Y-39490226D01*
X67932795Y-39659744D01*
X67854774Y-39848102D01*
X67815000Y-40048061D01*
X67815000Y-40251939D01*
X67854774Y-40451898D01*
X67932795Y-40640256D01*
X68046063Y-40809774D01*
X68190226Y-40953937D01*
X68359744Y-41067205D01*
X68548102Y-41145226D01*
X68748061Y-41185000D01*
X68951939Y-41185000D01*
X69151898Y-41145226D01*
X69340000Y-41067311D01*
X69340001Y-99340000D01*
X51660364Y-99340000D01*
X51730537Y-99254494D01*
X51789502Y-99144180D01*
X51825812Y-99024482D01*
X51838072Y-98900000D01*
X51835000Y-98335750D01*
X51676250Y-98177000D01*
X50477000Y-98177000D01*
X50477000Y-98197000D01*
X50223000Y-98197000D01*
X50223000Y-98177000D01*
X49023750Y-98177000D01*
X48865000Y-98335750D01*
X48861928Y-98900000D01*
X48874188Y-99024482D01*
X48910498Y-99144180D01*
X48969463Y-99254494D01*
X49039636Y-99340000D01*
X48060364Y-99340000D01*
X48130537Y-99254494D01*
X48189502Y-99144180D01*
X48225812Y-99024482D01*
X48238072Y-98900000D01*
X48235000Y-98335750D01*
X48076250Y-98177000D01*
X46877000Y-98177000D01*
X46877000Y-98197000D01*
X46623000Y-98197000D01*
X46623000Y-98177000D01*
X45423750Y-98177000D01*
X45265000Y-98335750D01*
X45261928Y-98900000D01*
X45274188Y-99024482D01*
X45310498Y-99144180D01*
X45369463Y-99254494D01*
X45439636Y-99340000D01*
X44460364Y-99340000D01*
X44530537Y-99254494D01*
X44589502Y-99144180D01*
X44625812Y-99024482D01*
X44638072Y-98900000D01*
X44635000Y-98335750D01*
X44476250Y-98177000D01*
X43277000Y-98177000D01*
X43277000Y-98197000D01*
X43023000Y-98197000D01*
X43023000Y-98177000D01*
X41823750Y-98177000D01*
X41665000Y-98335750D01*
X41661928Y-98900000D01*
X41674188Y-99024482D01*
X41710498Y-99144180D01*
X41769463Y-99254494D01*
X41839636Y-99340000D01*
X40860364Y-99340000D01*
X40930537Y-99254494D01*
X40989502Y-99144180D01*
X41025812Y-99024482D01*
X41038072Y-98900000D01*
X41035000Y-98335750D01*
X40876250Y-98177000D01*
X39677000Y-98177000D01*
X39677000Y-98197000D01*
X39423000Y-98197000D01*
X39423000Y-98177000D01*
X38223750Y-98177000D01*
X38065000Y-98335750D01*
X38061928Y-98900000D01*
X38074188Y-99024482D01*
X38110498Y-99144180D01*
X38169463Y-99254494D01*
X38239636Y-99340000D01*
X20660000Y-99340000D01*
X20660000Y-96779872D01*
X20765000Y-96779872D01*
X20765000Y-97220128D01*
X20850890Y-97651925D01*
X21019369Y-98058669D01*
X21263962Y-98424729D01*
X21575271Y-98736038D01*
X21941331Y-98980631D01*
X22348075Y-99149110D01*
X22779872Y-99235000D01*
X23220128Y-99235000D01*
X23651925Y-99149110D01*
X24058669Y-98980631D01*
X24424729Y-98736038D01*
X24736038Y-98424729D01*
X24980631Y-98058669D01*
X25149110Y-97651925D01*
X25235000Y-97220128D01*
X25235000Y-97200000D01*
X38061928Y-97200000D01*
X38065000Y-97764250D01*
X38223750Y-97923000D01*
X39423000Y-97923000D01*
X39423000Y-97903000D01*
X39677000Y-97903000D01*
X39677000Y-97923000D01*
X40876250Y-97923000D01*
X41035000Y-97764250D01*
X41038072Y-97200000D01*
X41661928Y-97200000D01*
X41665000Y-97764250D01*
X41823750Y-97923000D01*
X43023000Y-97923000D01*
X43023000Y-97903000D01*
X43277000Y-97903000D01*
X43277000Y-97923000D01*
X44476250Y-97923000D01*
X44635000Y-97764250D01*
X44638072Y-97200000D01*
X45261928Y-97200000D01*
X45265000Y-97764250D01*
X45423750Y-97923000D01*
X46623000Y-97923000D01*
X46623000Y-97903000D01*
X46877000Y-97903000D01*
X46877000Y-97923000D01*
X48076250Y-97923000D01*
X48235000Y-97764250D01*
X48238072Y-97200000D01*
X48861928Y-97200000D01*
X48865000Y-97764250D01*
X49023750Y-97923000D01*
X50223000Y-97923000D01*
X50223000Y-97903000D01*
X50477000Y-97903000D01*
X50477000Y-97923000D01*
X51676250Y-97923000D01*
X51835000Y-97764250D01*
X51838072Y-97200000D01*
X51825812Y-97075518D01*
X51789502Y-96955820D01*
X51730537Y-96845506D01*
X51676673Y-96779872D01*
X64765000Y-96779872D01*
X64765000Y-97220128D01*
X64850890Y-97651925D01*
X65019369Y-98058669D01*
X65263962Y-98424729D01*
X65575271Y-98736038D01*
X65941331Y-98980631D01*
X66348075Y-99149110D01*
X66779872Y-99235000D01*
X67220128Y-99235000D01*
X67651925Y-99149110D01*
X68058669Y-98980631D01*
X68424729Y-98736038D01*
X68736038Y-98424729D01*
X68980631Y-98058669D01*
X69149110Y-97651925D01*
X69235000Y-97220128D01*
X69235000Y-96779872D01*
X69149110Y-96348075D01*
X68980631Y-95941331D01*
X68736038Y-95575271D01*
X68424729Y-95263962D01*
X68058669Y-95019369D01*
X67651925Y-94850890D01*
X67220128Y-94765000D01*
X66779872Y-94765000D01*
X66348075Y-94850890D01*
X65941331Y-95019369D01*
X65575271Y-95263962D01*
X65263962Y-95575271D01*
X65019369Y-95941331D01*
X64850890Y-96348075D01*
X64765000Y-96779872D01*
X51676673Y-96779872D01*
X51651185Y-96748815D01*
X51554494Y-96669463D01*
X51444180Y-96610498D01*
X51371620Y-96588487D01*
X51503475Y-96456632D01*
X51665990Y-96213411D01*
X51777932Y-95943158D01*
X51835000Y-95656260D01*
X51835000Y-95363740D01*
X51777932Y-95076842D01*
X51665990Y-94806589D01*
X51503475Y-94563368D01*
X51296632Y-94356525D01*
X51122240Y-94240000D01*
X51296632Y-94123475D01*
X51503475Y-93916632D01*
X51665990Y-93673411D01*
X51777932Y-93403158D01*
X51835000Y-93116260D01*
X51835000Y-92823740D01*
X51777932Y-92536842D01*
X51665990Y-92266589D01*
X51503475Y-92023368D01*
X51296632Y-91816525D01*
X51053411Y-91654010D01*
X50783158Y-91542068D01*
X50496260Y-91485000D01*
X50203740Y-91485000D01*
X49916842Y-91542068D01*
X49646589Y-91654010D01*
X49403368Y-91816525D01*
X49196525Y-92023368D01*
X49034010Y-92266589D01*
X48922068Y-92536842D01*
X48865000Y-92823740D01*
X48865000Y-93116260D01*
X48922068Y-93403158D01*
X49034010Y-93673411D01*
X49196525Y-93916632D01*
X49403368Y-94123475D01*
X49577760Y-94240000D01*
X49403368Y-94356525D01*
X49196525Y-94563368D01*
X49034010Y-94806589D01*
X48922068Y-95076842D01*
X48865000Y-95363740D01*
X48865000Y-95656260D01*
X48922068Y-95943158D01*
X49034010Y-96213411D01*
X49196525Y-96456632D01*
X49328380Y-96588487D01*
X49255820Y-96610498D01*
X49145506Y-96669463D01*
X49048815Y-96748815D01*
X48969463Y-96845506D01*
X48910498Y-96955820D01*
X48874188Y-97075518D01*
X48861928Y-97200000D01*
X48238072Y-97200000D01*
X48225812Y-97075518D01*
X48189502Y-96955820D01*
X48130537Y-96845506D01*
X48051185Y-96748815D01*
X47954494Y-96669463D01*
X47844180Y-96610498D01*
X47771620Y-96588487D01*
X47903475Y-96456632D01*
X48065990Y-96213411D01*
X48177932Y-95943158D01*
X48235000Y-95656260D01*
X48235000Y-95363740D01*
X48177932Y-95076842D01*
X48065990Y-94806589D01*
X47903475Y-94563368D01*
X47696632Y-94356525D01*
X47522240Y-94240000D01*
X47696632Y-94123475D01*
X47903475Y-93916632D01*
X48065990Y-93673411D01*
X48177932Y-93403158D01*
X48235000Y-93116260D01*
X48235000Y-92823740D01*
X48177932Y-92536842D01*
X48065990Y-92266589D01*
X47903475Y-92023368D01*
X47696632Y-91816525D01*
X47453411Y-91654010D01*
X47183158Y-91542068D01*
X46896260Y-91485000D01*
X46603740Y-91485000D01*
X46316842Y-91542068D01*
X46046589Y-91654010D01*
X45803368Y-91816525D01*
X45596525Y-92023368D01*
X45434010Y-92266589D01*
X45322068Y-92536842D01*
X45265000Y-92823740D01*
X45265000Y-93116260D01*
X45322068Y-93403158D01*
X45434010Y-93673411D01*
X45596525Y-93916632D01*
X45803368Y-94123475D01*
X45977760Y-94240000D01*
X45803368Y-94356525D01*
X45596525Y-94563368D01*
X45434010Y-94806589D01*
X45322068Y-95076842D01*
X45265000Y-95363740D01*
X45265000Y-95656260D01*
X45322068Y-95943158D01*
X45434010Y-96213411D01*
X45596525Y-96456632D01*
X45728380Y-96588487D01*
X45655820Y-96610498D01*
X45545506Y-96669463D01*
X45448815Y-96748815D01*
X45369463Y-96845506D01*
X45310498Y-96955820D01*
X45274188Y-97075518D01*
X45261928Y-97200000D01*
X44638072Y-97200000D01*
X44625812Y-97075518D01*
X44589502Y-96955820D01*
X44530537Y-96845506D01*
X44451185Y-96748815D01*
X44354494Y-96669463D01*
X44244180Y-96610498D01*
X44171620Y-96588487D01*
X44303475Y-96456632D01*
X44465990Y-96213411D01*
X44577932Y-95943158D01*
X44635000Y-95656260D01*
X44635000Y-95363740D01*
X44577932Y-95076842D01*
X44465990Y-94806589D01*
X44303475Y-94563368D01*
X44096632Y-94356525D01*
X43922240Y-94240000D01*
X44096632Y-94123475D01*
X44303475Y-93916632D01*
X44465990Y-93673411D01*
X44577932Y-93403158D01*
X44635000Y-93116260D01*
X44635000Y-92823740D01*
X44577932Y-92536842D01*
X44465990Y-92266589D01*
X44303475Y-92023368D01*
X44096632Y-91816525D01*
X43853411Y-91654010D01*
X43583158Y-91542068D01*
X43296260Y-91485000D01*
X43003740Y-91485000D01*
X42716842Y-91542068D01*
X42446589Y-91654010D01*
X42203368Y-91816525D01*
X41996525Y-92023368D01*
X41834010Y-92266589D01*
X41722068Y-92536842D01*
X41665000Y-92823740D01*
X41665000Y-93116260D01*
X41722068Y-93403158D01*
X41834010Y-93673411D01*
X41996525Y-93916632D01*
X42203368Y-94123475D01*
X42377760Y-94240000D01*
X42203368Y-94356525D01*
X41996525Y-94563368D01*
X41834010Y-94806589D01*
X41722068Y-95076842D01*
X41665000Y-95363740D01*
X41665000Y-95656260D01*
X41722068Y-95943158D01*
X41834010Y-96213411D01*
X41996525Y-96456632D01*
X42128380Y-96588487D01*
X42055820Y-96610498D01*
X41945506Y-96669463D01*
X41848815Y-96748815D01*
X41769463Y-96845506D01*
X41710498Y-96955820D01*
X41674188Y-97075518D01*
X41661928Y-97200000D01*
X41038072Y-97200000D01*
X41025812Y-97075518D01*
X40989502Y-96955820D01*
X40930537Y-96845506D01*
X40851185Y-96748815D01*
X40754494Y-96669463D01*
X40644180Y-96610498D01*
X40571620Y-96588487D01*
X40703475Y-96456632D01*
X40865990Y-96213411D01*
X40977932Y-95943158D01*
X41035000Y-95656260D01*
X41035000Y-95363740D01*
X40977932Y-95076842D01*
X40865990Y-94806589D01*
X40703475Y-94563368D01*
X40496632Y-94356525D01*
X40322240Y-94240000D01*
X40496632Y-94123475D01*
X40703475Y-93916632D01*
X40865990Y-93673411D01*
X40977932Y-93403158D01*
X41035000Y-93116260D01*
X41035000Y-92823740D01*
X40977932Y-92536842D01*
X40865990Y-92266589D01*
X40703475Y-92023368D01*
X40496632Y-91816525D01*
X40253411Y-91654010D01*
X39983158Y-91542068D01*
X39696260Y-91485000D01*
X39403740Y-91485000D01*
X39116842Y-91542068D01*
X38846589Y-91654010D01*
X38603368Y-91816525D01*
X38396525Y-92023368D01*
X38234010Y-92266589D01*
X38122068Y-92536842D01*
X38065000Y-92823740D01*
X38065000Y-93116260D01*
X38122068Y-93403158D01*
X38234010Y-93673411D01*
X38396525Y-93916632D01*
X38603368Y-94123475D01*
X38777760Y-94240000D01*
X38603368Y-94356525D01*
X38396525Y-94563368D01*
X38234010Y-94806589D01*
X38122068Y-95076842D01*
X38065000Y-95363740D01*
X38065000Y-95656260D01*
X38122068Y-95943158D01*
X38234010Y-96213411D01*
X38396525Y-96456632D01*
X38528380Y-96588487D01*
X38455820Y-96610498D01*
X38345506Y-96669463D01*
X38248815Y-96748815D01*
X38169463Y-96845506D01*
X38110498Y-96955820D01*
X38074188Y-97075518D01*
X38061928Y-97200000D01*
X25235000Y-97200000D01*
X25235000Y-96779872D01*
X25149110Y-96348075D01*
X24980631Y-95941331D01*
X24736038Y-95575271D01*
X24424729Y-95263962D01*
X24058669Y-95019369D01*
X23651925Y-94850890D01*
X23220128Y-94765000D01*
X22779872Y-94765000D01*
X22348075Y-94850890D01*
X21941331Y-95019369D01*
X21575271Y-95263962D01*
X21263962Y-95575271D01*
X21019369Y-95941331D01*
X20850890Y-96348075D01*
X20765000Y-96779872D01*
X20660000Y-96779872D01*
X20660000Y-93050000D01*
X22061928Y-93050000D01*
X22074188Y-93174482D01*
X22110498Y-93294180D01*
X22169463Y-93404494D01*
X22248815Y-93501185D01*
X22345506Y-93580537D01*
X22455820Y-93639502D01*
X22575518Y-93675812D01*
X22700000Y-93688072D01*
X23714250Y-93685000D01*
X23873000Y-93526250D01*
X23873000Y-91877000D01*
X24127000Y-91877000D01*
X24127000Y-93526250D01*
X24285750Y-93685000D01*
X25300000Y-93688072D01*
X25424482Y-93675812D01*
X25544180Y-93639502D01*
X25654494Y-93580537D01*
X25751185Y-93501185D01*
X25830537Y-93404494D01*
X25889502Y-93294180D01*
X25925812Y-93174482D01*
X25938072Y-93050000D01*
X25935000Y-92035750D01*
X25776250Y-91877000D01*
X24127000Y-91877000D01*
X23873000Y-91877000D01*
X22223750Y-91877000D01*
X22065000Y-92035750D01*
X22061928Y-93050000D01*
X20660000Y-93050000D01*
X20660000Y-90450000D01*
X22061928Y-90450000D01*
X22065000Y-91464250D01*
X22223750Y-91623000D01*
X23873000Y-91623000D01*
X23873000Y-91603000D01*
X24127000Y-91603000D01*
X24127000Y-91623000D01*
X25776250Y-91623000D01*
X25935000Y-91464250D01*
X25938072Y-90450000D01*
X25925812Y-90325518D01*
X25889502Y-90205820D01*
X25830537Y-90095506D01*
X25751185Y-89998815D01*
X25654494Y-89919463D01*
X25544180Y-89860498D01*
X25424482Y-89824188D01*
X25300000Y-89811928D01*
X25144614Y-89812399D01*
X25233491Y-89753013D01*
X25503013Y-89483491D01*
X25714775Y-89166566D01*
X25860639Y-88814419D01*
X25935000Y-88440581D01*
X25935000Y-88059419D01*
X25860639Y-87685581D01*
X25714775Y-87333434D01*
X25503013Y-87016509D01*
X25436504Y-86950000D01*
X64061928Y-86950000D01*
X64061928Y-89550000D01*
X64074188Y-89674482D01*
X64110498Y-89794180D01*
X64169463Y-89904494D01*
X64248815Y-90001185D01*
X64345506Y-90080537D01*
X64455820Y-90139502D01*
X64575518Y-90175812D01*
X64700000Y-90188072D01*
X64854682Y-90188072D01*
X64766509Y-90246987D01*
X64496987Y-90516509D01*
X64285225Y-90833434D01*
X64139361Y-91185581D01*
X64065000Y-91559419D01*
X64065000Y-91940581D01*
X64139361Y-92314419D01*
X64285225Y-92666566D01*
X64496987Y-92983491D01*
X64766509Y-93253013D01*
X65083434Y-93464775D01*
X65435581Y-93610639D01*
X65809419Y-93685000D01*
X66190581Y-93685000D01*
X66564419Y-93610639D01*
X66916566Y-93464775D01*
X67233491Y-93253013D01*
X67503013Y-92983491D01*
X67714775Y-92666566D01*
X67860639Y-92314419D01*
X67935000Y-91940581D01*
X67935000Y-91559419D01*
X67860639Y-91185581D01*
X67714775Y-90833434D01*
X67503013Y-90516509D01*
X67233491Y-90246987D01*
X67145318Y-90188072D01*
X67300000Y-90188072D01*
X67424482Y-90175812D01*
X67544180Y-90139502D01*
X67654494Y-90080537D01*
X67751185Y-90001185D01*
X67830537Y-89904494D01*
X67889502Y-89794180D01*
X67925812Y-89674482D01*
X67938072Y-89550000D01*
X67938072Y-86950000D01*
X67925812Y-86825518D01*
X67889502Y-86705820D01*
X67830537Y-86595506D01*
X67751185Y-86498815D01*
X67654494Y-86419463D01*
X67544180Y-86360498D01*
X67424482Y-86324188D01*
X67300000Y-86311928D01*
X64700000Y-86311928D01*
X64575518Y-86324188D01*
X64455820Y-86360498D01*
X64345506Y-86419463D01*
X64248815Y-86498815D01*
X64169463Y-86595506D01*
X64110498Y-86705820D01*
X64074188Y-86825518D01*
X64061928Y-86950000D01*
X25436504Y-86950000D01*
X25233491Y-86746987D01*
X24916566Y-86535225D01*
X24564419Y-86389361D01*
X24190581Y-86315000D01*
X23809419Y-86315000D01*
X23435581Y-86389361D01*
X23083434Y-86535225D01*
X22766509Y-86746987D01*
X22496987Y-87016509D01*
X22285225Y-87333434D01*
X22139361Y-87685581D01*
X22065000Y-88059419D01*
X22065000Y-88440581D01*
X22139361Y-88814419D01*
X22285225Y-89166566D01*
X22496987Y-89483491D01*
X22766509Y-89753013D01*
X22855386Y-89812399D01*
X22700000Y-89811928D01*
X22575518Y-89824188D01*
X22455820Y-89860498D01*
X22345506Y-89919463D01*
X22248815Y-89998815D01*
X22169463Y-90095506D01*
X22110498Y-90205820D01*
X22074188Y-90325518D01*
X22061928Y-90450000D01*
X20660000Y-90450000D01*
X20660000Y-81450000D01*
X22061928Y-81450000D01*
X22061928Y-84050000D01*
X22074188Y-84174482D01*
X22110498Y-84294180D01*
X22169463Y-84404494D01*
X22248815Y-84501185D01*
X22345506Y-84580537D01*
X22455820Y-84639502D01*
X22575518Y-84675812D01*
X22700000Y-84688072D01*
X25300000Y-84688072D01*
X25424482Y-84675812D01*
X25544180Y-84639502D01*
X25654494Y-84580537D01*
X25751185Y-84501185D01*
X25830537Y-84404494D01*
X25889502Y-84294180D01*
X25925812Y-84174482D01*
X25938072Y-84050000D01*
X25938072Y-81604001D01*
X38356964Y-81604001D01*
X38356964Y-81807879D01*
X38396738Y-82007838D01*
X38474759Y-82196196D01*
X38588027Y-82365714D01*
X38732190Y-82509877D01*
X38901708Y-82623145D01*
X39090066Y-82701166D01*
X39290025Y-82740940D01*
X39493903Y-82740940D01*
X39693862Y-82701166D01*
X39882220Y-82623145D01*
X40051738Y-82509877D01*
X40195901Y-82365714D01*
X40309169Y-82196196D01*
X40387190Y-82007838D01*
X40389134Y-81998061D01*
X42965000Y-81998061D01*
X42965000Y-82201939D01*
X43004774Y-82401898D01*
X43082795Y-82590256D01*
X43196063Y-82759774D01*
X43340226Y-82903937D01*
X43509744Y-83017205D01*
X43698102Y-83095226D01*
X43898061Y-83135000D01*
X44101939Y-83135000D01*
X44301898Y-83095226D01*
X44490256Y-83017205D01*
X44659774Y-82903937D01*
X44803937Y-82759774D01*
X44917205Y-82590256D01*
X44995226Y-82401898D01*
X45035000Y-82201939D01*
X45035000Y-81998061D01*
X44995226Y-81798102D01*
X44917205Y-81609744D01*
X44803937Y-81440226D01*
X44659774Y-81296063D01*
X44490256Y-81182795D01*
X44301898Y-81104774D01*
X44101939Y-81065000D01*
X43898061Y-81065000D01*
X43698102Y-81104774D01*
X43509744Y-81182795D01*
X43340226Y-81296063D01*
X43196063Y-81440226D01*
X43082795Y-81609744D01*
X43004774Y-81798102D01*
X42965000Y-81998061D01*
X40389134Y-81998061D01*
X40426964Y-81807879D01*
X40426964Y-81604001D01*
X40387190Y-81404042D01*
X40309169Y-81215684D01*
X40195901Y-81046166D01*
X40051738Y-80902003D01*
X39882220Y-80788735D01*
X39693862Y-80710714D01*
X39493903Y-80670940D01*
X39290025Y-80670940D01*
X39090066Y-80710714D01*
X38901708Y-80788735D01*
X38732190Y-80902003D01*
X38588027Y-81046166D01*
X38474759Y-81215684D01*
X38396738Y-81404042D01*
X38356964Y-81604001D01*
X25938072Y-81604001D01*
X25938072Y-81450000D01*
X25925812Y-81325518D01*
X25889502Y-81205820D01*
X25830537Y-81095506D01*
X25751185Y-80998815D01*
X25654494Y-80919463D01*
X25544180Y-80860498D01*
X25424482Y-80824188D01*
X25300000Y-80811928D01*
X25145318Y-80811928D01*
X25233491Y-80753013D01*
X25503013Y-80483491D01*
X25714775Y-80166566D01*
X25860639Y-79814419D01*
X25913589Y-79548221D01*
X34939840Y-79548221D01*
X34939840Y-79752099D01*
X34979614Y-79952058D01*
X35057635Y-80140416D01*
X35170903Y-80309934D01*
X35315066Y-80454097D01*
X35484584Y-80567365D01*
X35672942Y-80645386D01*
X35872901Y-80685160D01*
X36076779Y-80685160D01*
X36276738Y-80645386D01*
X36465096Y-80567365D01*
X36634614Y-80454097D01*
X36778777Y-80309934D01*
X36892045Y-80140416D01*
X36970066Y-79952058D01*
X37009840Y-79752099D01*
X37009840Y-79548221D01*
X36970066Y-79348262D01*
X36892045Y-79159904D01*
X36806634Y-79032077D01*
X36828937Y-79009774D01*
X36942205Y-78840256D01*
X37020226Y-78651898D01*
X37060000Y-78451939D01*
X37060000Y-78248061D01*
X37050055Y-78198061D01*
X37665000Y-78198061D01*
X37665000Y-78401939D01*
X37704774Y-78601898D01*
X37782795Y-78790256D01*
X37896063Y-78959774D01*
X38040226Y-79103937D01*
X38209744Y-79217205D01*
X38398102Y-79295226D01*
X38598061Y-79335000D01*
X38801939Y-79335000D01*
X39001898Y-79295226D01*
X39190256Y-79217205D01*
X39359774Y-79103937D01*
X39503937Y-78959774D01*
X39617205Y-78790256D01*
X39695226Y-78601898D01*
X39735000Y-78401939D01*
X39735000Y-78198061D01*
X39695226Y-77998102D01*
X39617205Y-77809744D01*
X39542582Y-77698061D01*
X43465000Y-77698061D01*
X43465000Y-77901939D01*
X43504774Y-78101898D01*
X43582795Y-78290256D01*
X43696063Y-78459774D01*
X43840226Y-78603937D01*
X44009744Y-78717205D01*
X44198102Y-78795226D01*
X44398061Y-78835000D01*
X44601939Y-78835000D01*
X44801898Y-78795226D01*
X44990256Y-78717205D01*
X45159774Y-78603937D01*
X45303937Y-78459774D01*
X45417205Y-78290256D01*
X45495226Y-78101898D01*
X45525440Y-77950000D01*
X64061928Y-77950000D01*
X64061928Y-80550000D01*
X64074188Y-80674482D01*
X64110498Y-80794180D01*
X64169463Y-80904494D01*
X64248815Y-81001185D01*
X64345506Y-81080537D01*
X64455820Y-81139502D01*
X64575518Y-81175812D01*
X64700000Y-81188072D01*
X64854682Y-81188072D01*
X64766509Y-81246987D01*
X64496987Y-81516509D01*
X64285225Y-81833434D01*
X64139361Y-82185581D01*
X64065000Y-82559419D01*
X64065000Y-82940581D01*
X64139361Y-83314419D01*
X64285225Y-83666566D01*
X64496987Y-83983491D01*
X64766509Y-84253013D01*
X65083434Y-84464775D01*
X65435581Y-84610639D01*
X65809419Y-84685000D01*
X66190581Y-84685000D01*
X66564419Y-84610639D01*
X66916566Y-84464775D01*
X67233491Y-84253013D01*
X67503013Y-83983491D01*
X67714775Y-83666566D01*
X67860639Y-83314419D01*
X67935000Y-82940581D01*
X67935000Y-82559419D01*
X67860639Y-82185581D01*
X67714775Y-81833434D01*
X67503013Y-81516509D01*
X67233491Y-81246987D01*
X67145318Y-81188072D01*
X67300000Y-81188072D01*
X67424482Y-81175812D01*
X67544180Y-81139502D01*
X67654494Y-81080537D01*
X67751185Y-81001185D01*
X67830537Y-80904494D01*
X67889502Y-80794180D01*
X67925812Y-80674482D01*
X67938072Y-80550000D01*
X67938072Y-77950000D01*
X67925812Y-77825518D01*
X67889502Y-77705820D01*
X67830537Y-77595506D01*
X67751185Y-77498815D01*
X67654494Y-77419463D01*
X67544180Y-77360498D01*
X67424482Y-77324188D01*
X67300000Y-77311928D01*
X64700000Y-77311928D01*
X64575518Y-77324188D01*
X64455820Y-77360498D01*
X64345506Y-77419463D01*
X64248815Y-77498815D01*
X64169463Y-77595506D01*
X64110498Y-77705820D01*
X64074188Y-77825518D01*
X64061928Y-77950000D01*
X45525440Y-77950000D01*
X45535000Y-77901939D01*
X45535000Y-77698061D01*
X45495226Y-77498102D01*
X45417205Y-77309744D01*
X45303937Y-77140226D01*
X45159774Y-76996063D01*
X44990256Y-76882795D01*
X44801898Y-76804774D01*
X44601939Y-76765000D01*
X44398061Y-76765000D01*
X44198102Y-76804774D01*
X44009744Y-76882795D01*
X43840226Y-76996063D01*
X43696063Y-77140226D01*
X43582795Y-77309744D01*
X43504774Y-77498102D01*
X43465000Y-77698061D01*
X39542582Y-77698061D01*
X39503937Y-77640226D01*
X39359774Y-77496063D01*
X39190256Y-77382795D01*
X39001898Y-77304774D01*
X38801939Y-77265000D01*
X38598061Y-77265000D01*
X38398102Y-77304774D01*
X38209744Y-77382795D01*
X38040226Y-77496063D01*
X37896063Y-77640226D01*
X37782795Y-77809744D01*
X37704774Y-77998102D01*
X37665000Y-78198061D01*
X37050055Y-78198061D01*
X37020226Y-78048102D01*
X36942205Y-77859744D01*
X36828937Y-77690226D01*
X36684774Y-77546063D01*
X36515256Y-77432795D01*
X36326898Y-77354774D01*
X36126939Y-77315000D01*
X35923061Y-77315000D01*
X35723102Y-77354774D01*
X35534744Y-77432795D01*
X35365226Y-77546063D01*
X35221063Y-77690226D01*
X35107795Y-77859744D01*
X35029774Y-78048102D01*
X34990000Y-78248061D01*
X34990000Y-78451939D01*
X35029774Y-78651898D01*
X35107795Y-78840256D01*
X35193206Y-78968083D01*
X35170903Y-78990386D01*
X35057635Y-79159904D01*
X34979614Y-79348262D01*
X34939840Y-79548221D01*
X25913589Y-79548221D01*
X25935000Y-79440581D01*
X25935000Y-79059419D01*
X25860639Y-78685581D01*
X25714775Y-78333434D01*
X25503013Y-78016509D01*
X25233491Y-77746987D01*
X24916566Y-77535225D01*
X24564419Y-77389361D01*
X24190581Y-77315000D01*
X23809419Y-77315000D01*
X23435581Y-77389361D01*
X23083434Y-77535225D01*
X22766509Y-77746987D01*
X22496987Y-78016509D01*
X22285225Y-78333434D01*
X22139361Y-78685581D01*
X22065000Y-79059419D01*
X22065000Y-79440581D01*
X22139361Y-79814419D01*
X22285225Y-80166566D01*
X22496987Y-80483491D01*
X22766509Y-80753013D01*
X22854682Y-80811928D01*
X22700000Y-80811928D01*
X22575518Y-80824188D01*
X22455820Y-80860498D01*
X22345506Y-80919463D01*
X22248815Y-80998815D01*
X22169463Y-81095506D01*
X22110498Y-81205820D01*
X22074188Y-81325518D01*
X22061928Y-81450000D01*
X20660000Y-81450000D01*
X20660000Y-75050000D01*
X22061928Y-75050000D01*
X22074188Y-75174482D01*
X22110498Y-75294180D01*
X22169463Y-75404494D01*
X22248815Y-75501185D01*
X22345506Y-75580537D01*
X22455820Y-75639502D01*
X22575518Y-75675812D01*
X22700000Y-75688072D01*
X23714250Y-75685000D01*
X23873000Y-75526250D01*
X23873000Y-73877000D01*
X24127000Y-73877000D01*
X24127000Y-75526250D01*
X24285750Y-75685000D01*
X25300000Y-75688072D01*
X25424482Y-75675812D01*
X25544180Y-75639502D01*
X25654494Y-75580537D01*
X25751185Y-75501185D01*
X25830537Y-75404494D01*
X25889502Y-75294180D01*
X25925812Y-75174482D01*
X25938072Y-75050000D01*
X25935000Y-74035750D01*
X25776250Y-73877000D01*
X24127000Y-73877000D01*
X23873000Y-73877000D01*
X22223750Y-73877000D01*
X22065000Y-74035750D01*
X22061928Y-75050000D01*
X20660000Y-75050000D01*
X20660000Y-73800879D01*
X61562182Y-73800879D01*
X61562182Y-74004757D01*
X61601956Y-74204716D01*
X61679977Y-74393074D01*
X61793245Y-74562592D01*
X61937408Y-74706755D01*
X62106926Y-74820023D01*
X62295284Y-74898044D01*
X62495243Y-74937818D01*
X62699121Y-74937818D01*
X62899080Y-74898044D01*
X63087438Y-74820023D01*
X63256956Y-74706755D01*
X63401119Y-74562592D01*
X63514387Y-74393074D01*
X63592408Y-74204716D01*
X63632182Y-74004757D01*
X63632182Y-73800879D01*
X63592408Y-73600920D01*
X63514387Y-73412562D01*
X63401119Y-73243044D01*
X63256956Y-73098881D01*
X63087438Y-72985613D01*
X62899080Y-72907592D01*
X62699121Y-72867818D01*
X62495243Y-72867818D01*
X62295284Y-72907592D01*
X62106926Y-72985613D01*
X61937408Y-73098881D01*
X61793245Y-73243044D01*
X61679977Y-73412562D01*
X61601956Y-73600920D01*
X61562182Y-73800879D01*
X20660000Y-73800879D01*
X20660000Y-72450000D01*
X22061928Y-72450000D01*
X22065000Y-73464250D01*
X22223750Y-73623000D01*
X23873000Y-73623000D01*
X23873000Y-73603000D01*
X24127000Y-73603000D01*
X24127000Y-73623000D01*
X25776250Y-73623000D01*
X25935000Y-73464250D01*
X25938072Y-72450000D01*
X25936912Y-72438212D01*
X32165000Y-72438212D01*
X32165000Y-72661788D01*
X32208617Y-72881067D01*
X32294176Y-73087624D01*
X32418388Y-73273520D01*
X32576480Y-73431612D01*
X32762376Y-73555824D01*
X32968933Y-73641383D01*
X33188212Y-73685000D01*
X33411788Y-73685000D01*
X33631067Y-73641383D01*
X33837624Y-73555824D01*
X34023520Y-73431612D01*
X34181612Y-73273520D01*
X34305824Y-73087624D01*
X34391383Y-72881067D01*
X34435000Y-72661788D01*
X34435000Y-72438212D01*
X34426719Y-72396576D01*
X37140010Y-72396576D01*
X37140010Y-72620152D01*
X37183627Y-72839431D01*
X37269186Y-73045988D01*
X37393398Y-73231884D01*
X37551490Y-73389976D01*
X37737386Y-73514188D01*
X37943943Y-73599747D01*
X38163222Y-73643364D01*
X38386798Y-73643364D01*
X38606077Y-73599747D01*
X38812634Y-73514188D01*
X38998530Y-73389976D01*
X39156622Y-73231884D01*
X39280834Y-73045988D01*
X39366393Y-72839431D01*
X39410010Y-72620152D01*
X39410010Y-72396576D01*
X41006636Y-72396576D01*
X41006636Y-72620152D01*
X41050253Y-72839431D01*
X41135812Y-73045988D01*
X41260024Y-73231884D01*
X41418116Y-73389976D01*
X41604012Y-73514188D01*
X41810569Y-73599747D01*
X42029848Y-73643364D01*
X42253424Y-73643364D01*
X42472703Y-73599747D01*
X42679260Y-73514188D01*
X42865156Y-73389976D01*
X43023248Y-73231884D01*
X43147460Y-73045988D01*
X43233019Y-72839431D01*
X43276636Y-72620152D01*
X43276636Y-72396576D01*
X43233019Y-72177297D01*
X43147460Y-71970740D01*
X43023248Y-71784844D01*
X42865156Y-71626752D01*
X42679260Y-71502540D01*
X42472703Y-71416981D01*
X42253424Y-71373364D01*
X42029848Y-71373364D01*
X41810569Y-71416981D01*
X41604012Y-71502540D01*
X41418116Y-71626752D01*
X41260024Y-71784844D01*
X41135812Y-71970740D01*
X41050253Y-72177297D01*
X41006636Y-72396576D01*
X39410010Y-72396576D01*
X39366393Y-72177297D01*
X39280834Y-71970740D01*
X39156622Y-71784844D01*
X38998530Y-71626752D01*
X38812634Y-71502540D01*
X38606077Y-71416981D01*
X38386798Y-71373364D01*
X38163222Y-71373364D01*
X37943943Y-71416981D01*
X37737386Y-71502540D01*
X37551490Y-71626752D01*
X37393398Y-71784844D01*
X37269186Y-71970740D01*
X37183627Y-72177297D01*
X37140010Y-72396576D01*
X34426719Y-72396576D01*
X34391383Y-72218933D01*
X34305824Y-72012376D01*
X34181612Y-71826480D01*
X34023520Y-71668388D01*
X33837624Y-71544176D01*
X33631067Y-71458617D01*
X33411788Y-71415000D01*
X33188212Y-71415000D01*
X32968933Y-71458617D01*
X32762376Y-71544176D01*
X32576480Y-71668388D01*
X32418388Y-71826480D01*
X32294176Y-72012376D01*
X32208617Y-72218933D01*
X32165000Y-72438212D01*
X25936912Y-72438212D01*
X25925812Y-72325518D01*
X25889502Y-72205820D01*
X25830537Y-72095506D01*
X25751185Y-71998815D01*
X25654494Y-71919463D01*
X25544180Y-71860498D01*
X25424482Y-71824188D01*
X25300000Y-71811928D01*
X25144614Y-71812399D01*
X25233491Y-71753013D01*
X25503013Y-71483491D01*
X25714775Y-71166566D01*
X25860639Y-70814419D01*
X25935000Y-70440581D01*
X25935000Y-70338212D01*
X43115000Y-70338212D01*
X43115000Y-70561788D01*
X43158617Y-70781067D01*
X43244176Y-70987624D01*
X43368388Y-71173520D01*
X43526480Y-71331612D01*
X43712376Y-71455824D01*
X43918933Y-71541383D01*
X44138212Y-71585000D01*
X44361788Y-71585000D01*
X44581067Y-71541383D01*
X44787624Y-71455824D01*
X44973520Y-71331612D01*
X45131612Y-71173520D01*
X45255824Y-70987624D01*
X45341383Y-70781067D01*
X45367839Y-70648061D01*
X61465000Y-70648061D01*
X61465000Y-70851939D01*
X61504774Y-71051898D01*
X61582795Y-71240256D01*
X61696063Y-71409774D01*
X61840226Y-71553937D01*
X62009744Y-71667205D01*
X62198102Y-71745226D01*
X62398061Y-71785000D01*
X62601939Y-71785000D01*
X62801898Y-71745226D01*
X62990256Y-71667205D01*
X63159774Y-71553937D01*
X63303937Y-71409774D01*
X63417205Y-71240256D01*
X63495226Y-71051898D01*
X63535000Y-70851939D01*
X63535000Y-70648061D01*
X63495226Y-70448102D01*
X63417205Y-70259744D01*
X63303937Y-70090226D01*
X63159774Y-69946063D01*
X62990256Y-69832795D01*
X62801898Y-69754774D01*
X62601939Y-69715000D01*
X62398061Y-69715000D01*
X62198102Y-69754774D01*
X62009744Y-69832795D01*
X61840226Y-69946063D01*
X61696063Y-70090226D01*
X61582795Y-70259744D01*
X61504774Y-70448102D01*
X61465000Y-70648061D01*
X45367839Y-70648061D01*
X45385000Y-70561788D01*
X45385000Y-70338212D01*
X45341383Y-70118933D01*
X45255824Y-69912376D01*
X45131612Y-69726480D01*
X44973520Y-69568388D01*
X44787624Y-69444176D01*
X44581067Y-69358617D01*
X44361788Y-69315000D01*
X44138212Y-69315000D01*
X43918933Y-69358617D01*
X43712376Y-69444176D01*
X43526480Y-69568388D01*
X43368388Y-69726480D01*
X43244176Y-69912376D01*
X43158617Y-70118933D01*
X43115000Y-70338212D01*
X25935000Y-70338212D01*
X25935000Y-70059419D01*
X25860639Y-69685581D01*
X25714775Y-69333434D01*
X25503013Y-69016509D01*
X25436504Y-68950000D01*
X64061928Y-68950000D01*
X64061928Y-71550000D01*
X64074188Y-71674482D01*
X64110498Y-71794180D01*
X64169463Y-71904494D01*
X64248815Y-72001185D01*
X64345506Y-72080537D01*
X64455820Y-72139502D01*
X64575518Y-72175812D01*
X64700000Y-72188072D01*
X64854682Y-72188072D01*
X64766509Y-72246987D01*
X64496987Y-72516509D01*
X64285225Y-72833434D01*
X64139361Y-73185581D01*
X64065000Y-73559419D01*
X64065000Y-73940581D01*
X64139361Y-74314419D01*
X64285225Y-74666566D01*
X64496987Y-74983491D01*
X64766509Y-75253013D01*
X65083434Y-75464775D01*
X65435581Y-75610639D01*
X65809419Y-75685000D01*
X66190581Y-75685000D01*
X66564419Y-75610639D01*
X66916566Y-75464775D01*
X67233491Y-75253013D01*
X67503013Y-74983491D01*
X67714775Y-74666566D01*
X67860639Y-74314419D01*
X67935000Y-73940581D01*
X67935000Y-73559419D01*
X67860639Y-73185581D01*
X67714775Y-72833434D01*
X67503013Y-72516509D01*
X67233491Y-72246987D01*
X67145318Y-72188072D01*
X67300000Y-72188072D01*
X67424482Y-72175812D01*
X67544180Y-72139502D01*
X67654494Y-72080537D01*
X67751185Y-72001185D01*
X67830537Y-71904494D01*
X67889502Y-71794180D01*
X67925812Y-71674482D01*
X67938072Y-71550000D01*
X67938072Y-68950000D01*
X67925812Y-68825518D01*
X67889502Y-68705820D01*
X67830537Y-68595506D01*
X67751185Y-68498815D01*
X67654494Y-68419463D01*
X67544180Y-68360498D01*
X67424482Y-68324188D01*
X67300000Y-68311928D01*
X64700000Y-68311928D01*
X64575518Y-68324188D01*
X64455820Y-68360498D01*
X64345506Y-68419463D01*
X64248815Y-68498815D01*
X64169463Y-68595506D01*
X64110498Y-68705820D01*
X64074188Y-68825518D01*
X64061928Y-68950000D01*
X25436504Y-68950000D01*
X25233491Y-68746987D01*
X24916566Y-68535225D01*
X24564419Y-68389361D01*
X24190581Y-68315000D01*
X23809419Y-68315000D01*
X23435581Y-68389361D01*
X23083434Y-68535225D01*
X22766509Y-68746987D01*
X22496987Y-69016509D01*
X22285225Y-69333434D01*
X22139361Y-69685581D01*
X22065000Y-70059419D01*
X22065000Y-70440581D01*
X22139361Y-70814419D01*
X22285225Y-71166566D01*
X22496987Y-71483491D01*
X22766509Y-71753013D01*
X22855386Y-71812399D01*
X22700000Y-71811928D01*
X22575518Y-71824188D01*
X22455820Y-71860498D01*
X22345506Y-71919463D01*
X22248815Y-71998815D01*
X22169463Y-72095506D01*
X22110498Y-72205820D01*
X22074188Y-72325518D01*
X22061928Y-72450000D01*
X20660000Y-72450000D01*
X20660000Y-63498061D01*
X26915000Y-63498061D01*
X26915000Y-63701939D01*
X26954774Y-63901898D01*
X27032795Y-64090256D01*
X27146063Y-64259774D01*
X27290226Y-64403937D01*
X27459744Y-64517205D01*
X27648102Y-64595226D01*
X27848061Y-64635000D01*
X28051939Y-64635000D01*
X28251898Y-64595226D01*
X28440256Y-64517205D01*
X28468907Y-64498061D01*
X34265000Y-64498061D01*
X34265000Y-64701939D01*
X34304774Y-64901898D01*
X34382795Y-65090256D01*
X34496063Y-65259774D01*
X34640226Y-65403937D01*
X34809744Y-65517205D01*
X34998102Y-65595226D01*
X35198061Y-65635000D01*
X35401939Y-65635000D01*
X35601898Y-65595226D01*
X35790256Y-65517205D01*
X35959774Y-65403937D01*
X36103937Y-65259774D01*
X36217205Y-65090256D01*
X36295226Y-64901898D01*
X36335000Y-64701939D01*
X36335000Y-64498061D01*
X36295226Y-64298102D01*
X36217205Y-64109744D01*
X36103937Y-63940226D01*
X35959774Y-63796063D01*
X35790256Y-63682795D01*
X35601898Y-63604774D01*
X35401939Y-63565000D01*
X35198061Y-63565000D01*
X34998102Y-63604774D01*
X34809744Y-63682795D01*
X34640226Y-63796063D01*
X34496063Y-63940226D01*
X34382795Y-64109744D01*
X34304774Y-64298102D01*
X34265000Y-64498061D01*
X28468907Y-64498061D01*
X28609774Y-64403937D01*
X28753937Y-64259774D01*
X28867205Y-64090256D01*
X28945226Y-63901898D01*
X28985000Y-63701939D01*
X28985000Y-63498061D01*
X28945226Y-63298102D01*
X28867205Y-63109744D01*
X28753937Y-62940226D01*
X28609774Y-62796063D01*
X28440256Y-62682795D01*
X28251898Y-62604774D01*
X28051939Y-62565000D01*
X27848061Y-62565000D01*
X27648102Y-62604774D01*
X27459744Y-62682795D01*
X27290226Y-62796063D01*
X27146063Y-62940226D01*
X27032795Y-63109744D01*
X26954774Y-63298102D01*
X26915000Y-63498061D01*
X20660000Y-63498061D01*
X20660000Y-61988212D01*
X41115000Y-61988212D01*
X41115000Y-62211788D01*
X41158617Y-62431067D01*
X41244176Y-62637624D01*
X41368388Y-62823520D01*
X41526480Y-62981612D01*
X41712376Y-63105824D01*
X41918933Y-63191383D01*
X42138212Y-63235000D01*
X42361788Y-63235000D01*
X42581067Y-63191383D01*
X42787624Y-63105824D01*
X42973520Y-62981612D01*
X42979672Y-62975460D01*
X43148102Y-63045226D01*
X43348061Y-63085000D01*
X43551939Y-63085000D01*
X43751898Y-63045226D01*
X43940256Y-62967205D01*
X44109774Y-62853937D01*
X44253937Y-62709774D01*
X44367205Y-62540256D01*
X44445226Y-62351898D01*
X44485000Y-62151939D01*
X44485000Y-61948063D01*
X45014998Y-61948063D01*
X45014998Y-62151941D01*
X45054772Y-62351900D01*
X45132793Y-62540258D01*
X45246061Y-62709776D01*
X45390224Y-62853939D01*
X45559742Y-62967207D01*
X45748100Y-63045228D01*
X45948059Y-63085002D01*
X46151937Y-63085002D01*
X46351896Y-63045228D01*
X46540254Y-62967207D01*
X46709772Y-62853939D01*
X46853935Y-62709776D01*
X46960693Y-62550000D01*
X64061928Y-62550000D01*
X64074188Y-62674482D01*
X64110498Y-62794180D01*
X64169463Y-62904494D01*
X64248815Y-63001185D01*
X64345506Y-63080537D01*
X64455820Y-63139502D01*
X64575518Y-63175812D01*
X64700000Y-63188072D01*
X64855386Y-63187601D01*
X64766509Y-63246987D01*
X64496987Y-63516509D01*
X64285225Y-63833434D01*
X64139361Y-64185581D01*
X64065000Y-64559419D01*
X64065000Y-64940581D01*
X64139361Y-65314419D01*
X64285225Y-65666566D01*
X64496987Y-65983491D01*
X64766509Y-66253013D01*
X65083434Y-66464775D01*
X65435581Y-66610639D01*
X65809419Y-66685000D01*
X66190581Y-66685000D01*
X66564419Y-66610639D01*
X66916566Y-66464775D01*
X67233491Y-66253013D01*
X67503013Y-65983491D01*
X67714775Y-65666566D01*
X67860639Y-65314419D01*
X67935000Y-64940581D01*
X67935000Y-64559419D01*
X67860639Y-64185581D01*
X67714775Y-63833434D01*
X67503013Y-63516509D01*
X67233491Y-63246987D01*
X67144614Y-63187601D01*
X67300000Y-63188072D01*
X67424482Y-63175812D01*
X67544180Y-63139502D01*
X67654494Y-63080537D01*
X67751185Y-63001185D01*
X67830537Y-62904494D01*
X67889502Y-62794180D01*
X67925812Y-62674482D01*
X67938072Y-62550000D01*
X67935000Y-61535750D01*
X67776250Y-61377000D01*
X66127000Y-61377000D01*
X66127000Y-61397000D01*
X65873000Y-61397000D01*
X65873000Y-61377000D01*
X64223750Y-61377000D01*
X64065000Y-61535750D01*
X64061928Y-62550000D01*
X46960693Y-62550000D01*
X46967203Y-62540258D01*
X47045224Y-62351900D01*
X47084998Y-62151941D01*
X47084998Y-61948063D01*
X47045224Y-61748104D01*
X46967203Y-61559746D01*
X46853935Y-61390228D01*
X46709772Y-61246065D01*
X46540254Y-61132797D01*
X46351896Y-61054776D01*
X46151937Y-61015002D01*
X45948059Y-61015002D01*
X45748100Y-61054776D01*
X45559742Y-61132797D01*
X45390224Y-61246065D01*
X45246061Y-61390228D01*
X45132793Y-61559746D01*
X45054772Y-61748104D01*
X45014998Y-61948063D01*
X44485000Y-61948063D01*
X44485000Y-61948061D01*
X44445226Y-61748102D01*
X44367205Y-61559744D01*
X44253937Y-61390226D01*
X44109774Y-61246063D01*
X43940256Y-61132795D01*
X43751898Y-61054774D01*
X43551939Y-61015000D01*
X43348061Y-61015000D01*
X43148102Y-61054774D01*
X42959744Y-61132795D01*
X42902583Y-61170989D01*
X42787624Y-61094176D01*
X42581067Y-61008617D01*
X42361788Y-60965000D01*
X42138212Y-60965000D01*
X41918933Y-61008617D01*
X41712376Y-61094176D01*
X41526480Y-61218388D01*
X41368388Y-61376480D01*
X41244176Y-61562376D01*
X41158617Y-61768933D01*
X41115000Y-61988212D01*
X20660000Y-61988212D01*
X20660000Y-58908100D01*
X27953180Y-58908100D01*
X27953180Y-59111978D01*
X27992954Y-59311937D01*
X28070975Y-59500295D01*
X28184243Y-59669813D01*
X28328406Y-59813976D01*
X28497924Y-59927244D01*
X28686282Y-60005265D01*
X28886241Y-60045039D01*
X29090119Y-60045039D01*
X29290078Y-60005265D01*
X29478436Y-59927244D01*
X29647954Y-59813976D01*
X29792117Y-59669813D01*
X29905385Y-59500295D01*
X29983406Y-59311937D01*
X30023180Y-59111978D01*
X30023180Y-58908100D01*
X30021184Y-58898061D01*
X33365000Y-58898061D01*
X33365000Y-59101939D01*
X33404774Y-59301898D01*
X33482795Y-59490256D01*
X33596063Y-59659774D01*
X33740226Y-59803937D01*
X33909744Y-59917205D01*
X34098102Y-59995226D01*
X34298061Y-60035000D01*
X34501939Y-60035000D01*
X34701898Y-59995226D01*
X34890256Y-59917205D01*
X35059774Y-59803937D01*
X35203937Y-59659774D01*
X35317205Y-59490256D01*
X35329438Y-59460721D01*
X44502340Y-59460721D01*
X44502340Y-59664599D01*
X44542114Y-59864558D01*
X44620135Y-60052916D01*
X44733403Y-60222434D01*
X44877566Y-60366597D01*
X45047084Y-60479865D01*
X45235442Y-60557886D01*
X45435401Y-60597660D01*
X45639279Y-60597660D01*
X45839238Y-60557886D01*
X46027596Y-60479865D01*
X46197114Y-60366597D01*
X46341277Y-60222434D01*
X46454545Y-60052916D01*
X46497174Y-59950000D01*
X64061928Y-59950000D01*
X64065000Y-60964250D01*
X64223750Y-61123000D01*
X65873000Y-61123000D01*
X65873000Y-59473750D01*
X66127000Y-59473750D01*
X66127000Y-61123000D01*
X67776250Y-61123000D01*
X67935000Y-60964250D01*
X67938072Y-59950000D01*
X67925812Y-59825518D01*
X67889502Y-59705820D01*
X67830537Y-59595506D01*
X67751185Y-59498815D01*
X67654494Y-59419463D01*
X67544180Y-59360498D01*
X67424482Y-59324188D01*
X67300000Y-59311928D01*
X66285750Y-59315000D01*
X66127000Y-59473750D01*
X65873000Y-59473750D01*
X65714250Y-59315000D01*
X64700000Y-59311928D01*
X64575518Y-59324188D01*
X64455820Y-59360498D01*
X64345506Y-59419463D01*
X64248815Y-59498815D01*
X64169463Y-59595506D01*
X64110498Y-59705820D01*
X64074188Y-59825518D01*
X64061928Y-59950000D01*
X46497174Y-59950000D01*
X46532566Y-59864558D01*
X46572340Y-59664599D01*
X46572340Y-59460721D01*
X46532566Y-59260762D01*
X46454545Y-59072404D01*
X46341277Y-58902886D01*
X46197114Y-58758723D01*
X46027596Y-58645455D01*
X45839238Y-58567434D01*
X45639279Y-58527660D01*
X45435401Y-58527660D01*
X45235442Y-58567434D01*
X45047084Y-58645455D01*
X44877566Y-58758723D01*
X44733403Y-58902886D01*
X44620135Y-59072404D01*
X44542114Y-59260762D01*
X44502340Y-59460721D01*
X35329438Y-59460721D01*
X35395226Y-59301898D01*
X35435000Y-59101939D01*
X35435000Y-58941866D01*
X35615246Y-58867205D01*
X35784764Y-58753937D01*
X35928927Y-58609774D01*
X36042195Y-58440256D01*
X36120216Y-58251898D01*
X36159990Y-58051939D01*
X36159990Y-57848061D01*
X36120216Y-57648102D01*
X36042195Y-57459744D01*
X35928927Y-57290226D01*
X35786762Y-57148061D01*
X36764980Y-57148061D01*
X36764980Y-57351939D01*
X36804754Y-57551898D01*
X36882775Y-57740256D01*
X36996043Y-57909774D01*
X37140206Y-58053937D01*
X37309724Y-58167205D01*
X37498082Y-58245226D01*
X37698041Y-58285000D01*
X37901919Y-58285000D01*
X38101878Y-58245226D01*
X38290236Y-58167205D01*
X38459754Y-58053937D01*
X38603917Y-57909774D01*
X38717185Y-57740256D01*
X38795206Y-57551898D01*
X38834980Y-57351939D01*
X38834980Y-57148061D01*
X38795206Y-56948102D01*
X38795190Y-56948061D01*
X39490044Y-56948061D01*
X39490044Y-57151939D01*
X39529818Y-57351898D01*
X39607839Y-57540256D01*
X39721107Y-57709774D01*
X39865270Y-57853937D01*
X40034788Y-57967205D01*
X40223146Y-58045226D01*
X40423105Y-58085000D01*
X40592721Y-58085000D01*
X40577659Y-58160722D01*
X40577659Y-58364600D01*
X40617433Y-58564559D01*
X40695454Y-58752917D01*
X40808722Y-58922435D01*
X40952885Y-59066598D01*
X41122403Y-59179866D01*
X41310761Y-59257887D01*
X41510720Y-59297661D01*
X41714598Y-59297661D01*
X41914557Y-59257887D01*
X42102915Y-59179866D01*
X42272433Y-59066598D01*
X42416596Y-58922435D01*
X42529864Y-58752917D01*
X42607885Y-58564559D01*
X42647659Y-58364600D01*
X42647659Y-58160722D01*
X42607885Y-57960763D01*
X42601786Y-57946039D01*
X42725741Y-57921383D01*
X42914099Y-57843362D01*
X43083617Y-57730094D01*
X43227780Y-57585931D01*
X43341048Y-57416413D01*
X43419069Y-57228055D01*
X43458843Y-57028096D01*
X43458843Y-56824218D01*
X43419069Y-56624259D01*
X43414237Y-56612594D01*
X43455171Y-56673856D01*
X43599334Y-56818019D01*
X43768852Y-56931287D01*
X43957210Y-57009308D01*
X44157169Y-57049082D01*
X44361047Y-57049082D01*
X44561006Y-57009308D01*
X44749364Y-56931287D01*
X44918882Y-56818019D01*
X45063045Y-56673856D01*
X45176313Y-56504338D01*
X45254334Y-56315980D01*
X45294108Y-56116021D01*
X45294108Y-55912143D01*
X45254334Y-55712184D01*
X45176313Y-55523826D01*
X45063045Y-55354308D01*
X44918882Y-55210145D01*
X44900797Y-55198061D01*
X45765000Y-55198061D01*
X45765000Y-55401939D01*
X45804774Y-55601898D01*
X45882795Y-55790256D01*
X45996063Y-55959774D01*
X46140226Y-56103937D01*
X46309744Y-56217205D01*
X46498102Y-56295226D01*
X46698061Y-56335000D01*
X46901939Y-56335000D01*
X47101898Y-56295226D01*
X47290256Y-56217205D01*
X47459774Y-56103937D01*
X47603937Y-55959774D01*
X47717205Y-55790256D01*
X47795226Y-55601898D01*
X47835000Y-55401939D01*
X47835000Y-55198061D01*
X47795226Y-54998102D01*
X47717205Y-54809744D01*
X47603937Y-54640226D01*
X47459774Y-54496063D01*
X47313104Y-54398061D01*
X47715000Y-54398061D01*
X47715000Y-54601939D01*
X47754774Y-54801898D01*
X47832795Y-54990256D01*
X47946063Y-55159774D01*
X48090226Y-55303937D01*
X48259744Y-55417205D01*
X48448102Y-55495226D01*
X48648061Y-55535000D01*
X48851939Y-55535000D01*
X49051898Y-55495226D01*
X49240256Y-55417205D01*
X49409774Y-55303937D01*
X49553937Y-55159774D01*
X49667205Y-54990256D01*
X49745226Y-54801898D01*
X49785000Y-54601939D01*
X49785000Y-54398061D01*
X49745226Y-54198102D01*
X49709826Y-54112638D01*
X49749389Y-54073075D01*
X49862657Y-53903557D01*
X49940678Y-53715199D01*
X49980452Y-53515240D01*
X49980452Y-53311362D01*
X49940678Y-53111403D01*
X49862657Y-52923045D01*
X49749389Y-52753527D01*
X49605226Y-52609364D01*
X49435708Y-52496096D01*
X49247350Y-52418075D01*
X49047391Y-52378301D01*
X48843513Y-52378301D01*
X48643554Y-52418075D01*
X48455196Y-52496096D01*
X48285678Y-52609364D01*
X48141515Y-52753527D01*
X48028247Y-52923045D01*
X47950226Y-53111403D01*
X47910452Y-53311362D01*
X47910452Y-53515240D01*
X47950226Y-53715199D01*
X47985626Y-53800663D01*
X47946063Y-53840226D01*
X47832795Y-54009744D01*
X47754774Y-54198102D01*
X47715000Y-54398061D01*
X47313104Y-54398061D01*
X47290256Y-54382795D01*
X47101898Y-54304774D01*
X46901939Y-54265000D01*
X46698061Y-54265000D01*
X46498102Y-54304774D01*
X46309744Y-54382795D01*
X46140226Y-54496063D01*
X45996063Y-54640226D01*
X45882795Y-54809744D01*
X45804774Y-54998102D01*
X45765000Y-55198061D01*
X44900797Y-55198061D01*
X44749364Y-55096877D01*
X44561006Y-55018856D01*
X44361047Y-54979082D01*
X44157169Y-54979082D01*
X43957210Y-55018856D01*
X43768852Y-55096877D01*
X43599334Y-55210145D01*
X43455171Y-55354308D01*
X43341903Y-55523826D01*
X43263882Y-55712184D01*
X43224108Y-55912143D01*
X43224108Y-56116021D01*
X43263882Y-56315980D01*
X43268714Y-56327645D01*
X43227780Y-56266383D01*
X43083617Y-56122220D01*
X42914099Y-56008952D01*
X42725741Y-55930931D01*
X42525782Y-55891157D01*
X42321904Y-55891157D01*
X42121945Y-55930931D01*
X41933587Y-56008952D01*
X41764069Y-56122220D01*
X41619906Y-56266383D01*
X41506638Y-56435901D01*
X41448795Y-56575546D01*
X41442249Y-56559744D01*
X41328981Y-56390226D01*
X41184818Y-56246063D01*
X41015300Y-56132795D01*
X40826942Y-56054774D01*
X40626983Y-56015000D01*
X40423105Y-56015000D01*
X40223146Y-56054774D01*
X40034788Y-56132795D01*
X39865270Y-56246063D01*
X39721107Y-56390226D01*
X39607839Y-56559744D01*
X39529818Y-56748102D01*
X39490044Y-56948061D01*
X38795190Y-56948061D01*
X38717185Y-56759744D01*
X38603917Y-56590226D01*
X38459754Y-56446063D01*
X38290236Y-56332795D01*
X38101878Y-56254774D01*
X37901919Y-56215000D01*
X37698041Y-56215000D01*
X37498082Y-56254774D01*
X37309724Y-56332795D01*
X37140206Y-56446063D01*
X36996043Y-56590226D01*
X36882775Y-56759744D01*
X36804754Y-56948102D01*
X36764980Y-57148061D01*
X35786762Y-57148061D01*
X35784764Y-57146063D01*
X35615246Y-57032795D01*
X35426888Y-56954774D01*
X35226929Y-56915000D01*
X35023051Y-56915000D01*
X34823092Y-56954774D01*
X34634734Y-57032795D01*
X34465216Y-57146063D01*
X34321053Y-57290226D01*
X34207785Y-57459744D01*
X34129764Y-57648102D01*
X34089990Y-57848061D01*
X34089990Y-58008134D01*
X33909744Y-58082795D01*
X33740226Y-58196063D01*
X33596063Y-58340226D01*
X33482795Y-58509744D01*
X33404774Y-58698102D01*
X33365000Y-58898061D01*
X30021184Y-58898061D01*
X29983406Y-58708141D01*
X29915939Y-58545262D01*
X30051890Y-58518220D01*
X30240248Y-58440199D01*
X30409766Y-58326931D01*
X30553929Y-58182768D01*
X30667197Y-58013250D01*
X30745218Y-57824892D01*
X30784992Y-57624933D01*
X30784992Y-57421055D01*
X30745218Y-57221096D01*
X30667197Y-57032738D01*
X30553929Y-56863220D01*
X30409766Y-56719057D01*
X30240248Y-56605789D01*
X30051890Y-56527768D01*
X29851931Y-56487994D01*
X29648053Y-56487994D01*
X29448094Y-56527768D01*
X29259736Y-56605789D01*
X29090218Y-56719057D01*
X28946055Y-56863220D01*
X28832787Y-57032738D01*
X28754766Y-57221096D01*
X28714992Y-57421055D01*
X28714992Y-57624933D01*
X28754766Y-57824892D01*
X28822233Y-57987771D01*
X28686282Y-58014813D01*
X28497924Y-58092834D01*
X28328406Y-58206102D01*
X28184243Y-58350265D01*
X28070975Y-58519783D01*
X27992954Y-58708141D01*
X27953180Y-58908100D01*
X20660000Y-58908100D01*
X20660000Y-52998061D01*
X27964988Y-52998061D01*
X27964988Y-53201939D01*
X28004762Y-53401898D01*
X28082783Y-53590256D01*
X28196051Y-53759774D01*
X28340214Y-53903937D01*
X28509732Y-54017205D01*
X28698090Y-54095226D01*
X28898049Y-54135000D01*
X29101927Y-54135000D01*
X29301886Y-54095226D01*
X29490244Y-54017205D01*
X29659762Y-53903937D01*
X29803925Y-53759774D01*
X29840830Y-53704541D01*
X29940226Y-53803937D01*
X30109744Y-53917205D01*
X30298102Y-53995226D01*
X30498061Y-54035000D01*
X30701939Y-54035000D01*
X30901898Y-53995226D01*
X31090256Y-53917205D01*
X31196361Y-53846308D01*
X34839979Y-53846308D01*
X34839979Y-54050186D01*
X34879753Y-54250145D01*
X34957774Y-54438503D01*
X35071042Y-54608021D01*
X35215205Y-54752184D01*
X35384723Y-54865452D01*
X35573081Y-54943473D01*
X35773040Y-54983247D01*
X35976918Y-54983247D01*
X36176877Y-54943473D01*
X36365235Y-54865452D01*
X36534753Y-54752184D01*
X36678916Y-54608021D01*
X36756304Y-54492201D01*
X38965000Y-54492201D01*
X38965000Y-54696079D01*
X39004774Y-54896038D01*
X39082795Y-55084396D01*
X39196063Y-55253914D01*
X39340226Y-55398077D01*
X39509744Y-55511345D01*
X39698102Y-55589366D01*
X39898061Y-55629140D01*
X40101939Y-55629140D01*
X40301898Y-55589366D01*
X40490256Y-55511345D01*
X40659774Y-55398077D01*
X40803937Y-55253914D01*
X40917205Y-55084396D01*
X40995226Y-54896038D01*
X41035000Y-54696079D01*
X41035000Y-54492201D01*
X40995226Y-54292242D01*
X40917205Y-54103884D01*
X40803937Y-53934366D01*
X40659774Y-53790203D01*
X40490256Y-53676935D01*
X40301898Y-53598914D01*
X40101939Y-53559140D01*
X39898061Y-53559140D01*
X39698102Y-53598914D01*
X39509744Y-53676935D01*
X39340226Y-53790203D01*
X39196063Y-53934366D01*
X39082795Y-54103884D01*
X39004774Y-54292242D01*
X38965000Y-54492201D01*
X36756304Y-54492201D01*
X36792184Y-54438503D01*
X36870205Y-54250145D01*
X36909979Y-54050186D01*
X36909979Y-53846308D01*
X36870205Y-53646349D01*
X36792184Y-53457991D01*
X36678916Y-53288473D01*
X36534753Y-53144310D01*
X36365235Y-53031042D01*
X36176877Y-52953021D01*
X35976918Y-52913247D01*
X35773040Y-52913247D01*
X35573081Y-52953021D01*
X35384723Y-53031042D01*
X35215205Y-53144310D01*
X35071042Y-53288473D01*
X34957774Y-53457991D01*
X34879753Y-53646349D01*
X34839979Y-53846308D01*
X31196361Y-53846308D01*
X31259774Y-53803937D01*
X31403937Y-53659774D01*
X31517205Y-53490256D01*
X31595226Y-53301898D01*
X31635000Y-53101939D01*
X31635000Y-52898061D01*
X31595226Y-52698102D01*
X31517205Y-52509744D01*
X31403937Y-52340226D01*
X31259774Y-52196063D01*
X31090256Y-52082795D01*
X30901898Y-52004774D01*
X30701939Y-51965000D01*
X30498061Y-51965000D01*
X30298102Y-52004774D01*
X30109744Y-52082795D01*
X29940226Y-52196063D01*
X29796063Y-52340226D01*
X29759158Y-52395459D01*
X29659762Y-52296063D01*
X29490244Y-52182795D01*
X29301886Y-52104774D01*
X29101927Y-52065000D01*
X28898049Y-52065000D01*
X28698090Y-52104774D01*
X28509732Y-52182795D01*
X28340214Y-52296063D01*
X28196051Y-52440226D01*
X28082783Y-52609744D01*
X28004762Y-52798102D01*
X27964988Y-52998061D01*
X20660000Y-52998061D01*
X20660000Y-51732894D01*
X33592001Y-51732894D01*
X33592001Y-51936772D01*
X33631775Y-52136731D01*
X33709796Y-52325089D01*
X33823064Y-52494607D01*
X33967227Y-52638770D01*
X34136745Y-52752038D01*
X34325103Y-52830059D01*
X34525062Y-52869833D01*
X34728940Y-52869833D01*
X34928899Y-52830059D01*
X35006148Y-52798061D01*
X37489990Y-52798061D01*
X37489990Y-53001939D01*
X37529764Y-53201898D01*
X37607785Y-53390256D01*
X37721053Y-53559774D01*
X37865216Y-53703937D01*
X38034734Y-53817205D01*
X38223092Y-53895226D01*
X38423051Y-53935000D01*
X38626929Y-53935000D01*
X38826888Y-53895226D01*
X39015246Y-53817205D01*
X39184764Y-53703937D01*
X39328927Y-53559774D01*
X39442195Y-53390256D01*
X39520216Y-53201898D01*
X39537913Y-53112926D01*
X39626898Y-53095226D01*
X39815256Y-53017205D01*
X39984774Y-52903937D01*
X40128937Y-52759774D01*
X40242205Y-52590256D01*
X40320226Y-52401898D01*
X40340880Y-52298061D01*
X53865000Y-52298061D01*
X53865000Y-52501939D01*
X53904774Y-52701898D01*
X53982795Y-52890256D01*
X54096063Y-53059774D01*
X54240226Y-53203937D01*
X54409744Y-53317205D01*
X54598102Y-53395226D01*
X54798061Y-53435000D01*
X55001939Y-53435000D01*
X55201898Y-53395226D01*
X55390256Y-53317205D01*
X55559774Y-53203937D01*
X55703937Y-53059774D01*
X55817205Y-52890256D01*
X55895226Y-52701898D01*
X55935000Y-52501939D01*
X55935000Y-52298061D01*
X55901142Y-52127839D01*
X63340000Y-52127839D01*
X63340000Y-52872162D01*
X63353890Y-53013193D01*
X63408785Y-53194154D01*
X63497928Y-53360928D01*
X63617894Y-53507107D01*
X63764073Y-53627073D01*
X63930847Y-53716216D01*
X64111808Y-53771110D01*
X64300000Y-53789645D01*
X64488193Y-53771110D01*
X64669154Y-53716216D01*
X64835928Y-53627073D01*
X64982107Y-53507107D01*
X64987939Y-53500000D01*
X65585053Y-53500000D01*
X65604795Y-53700445D01*
X65663263Y-53893187D01*
X65758209Y-54070819D01*
X65885985Y-54226515D01*
X66041681Y-54354291D01*
X66219313Y-54449237D01*
X66412055Y-54507705D01*
X66562272Y-54522500D01*
X67437728Y-54522500D01*
X67587945Y-54507705D01*
X67780687Y-54449237D01*
X67958319Y-54354291D01*
X68114015Y-54226515D01*
X68241791Y-54070819D01*
X68336737Y-53893187D01*
X68395205Y-53700445D01*
X68414947Y-53500000D01*
X68395205Y-53299555D01*
X68336737Y-53106813D01*
X68241791Y-52929181D01*
X68114015Y-52773485D01*
X67958319Y-52645709D01*
X67780687Y-52550763D01*
X67587945Y-52492295D01*
X67437728Y-52477500D01*
X66562272Y-52477500D01*
X66412055Y-52492295D01*
X66219313Y-52550763D01*
X66041681Y-52645709D01*
X65885985Y-52773485D01*
X65758209Y-52929181D01*
X65663263Y-53106813D01*
X65604795Y-53299555D01*
X65585053Y-53500000D01*
X64987939Y-53500000D01*
X65102073Y-53360928D01*
X65191216Y-53194154D01*
X65246110Y-53013193D01*
X65260000Y-52872161D01*
X65260000Y-52127838D01*
X65246110Y-51986807D01*
X65191216Y-51805846D01*
X65102073Y-51639072D01*
X64982107Y-51492893D01*
X64835928Y-51372927D01*
X64669153Y-51283784D01*
X64488192Y-51228890D01*
X64300000Y-51210355D01*
X64111807Y-51228890D01*
X63930846Y-51283784D01*
X63764072Y-51372927D01*
X63617893Y-51492893D01*
X63497927Y-51639072D01*
X63408784Y-51805847D01*
X63353890Y-51986808D01*
X63340000Y-52127839D01*
X55901142Y-52127839D01*
X55895226Y-52098102D01*
X55817205Y-51909744D01*
X55703937Y-51740226D01*
X55559774Y-51596063D01*
X55390256Y-51482795D01*
X55201898Y-51404774D01*
X55001939Y-51365000D01*
X54798061Y-51365000D01*
X54598102Y-51404774D01*
X54409744Y-51482795D01*
X54240226Y-51596063D01*
X54096063Y-51740226D01*
X53982795Y-51909744D01*
X53904774Y-52098102D01*
X53865000Y-52298061D01*
X40340880Y-52298061D01*
X40360000Y-52201939D01*
X40360000Y-51998061D01*
X40320226Y-51798102D01*
X40242205Y-51609744D01*
X40128937Y-51440226D01*
X39984774Y-51296063D01*
X39815256Y-51182795D01*
X39626898Y-51104774D01*
X39426939Y-51065000D01*
X39223061Y-51065000D01*
X39023102Y-51104774D01*
X38834744Y-51182795D01*
X38665226Y-51296063D01*
X38521063Y-51440226D01*
X38407795Y-51609744D01*
X38329774Y-51798102D01*
X38312077Y-51887074D01*
X38223092Y-51904774D01*
X38034734Y-51982795D01*
X37865216Y-52096063D01*
X37721053Y-52240226D01*
X37607785Y-52409744D01*
X37529764Y-52598102D01*
X37489990Y-52798061D01*
X35006148Y-52798061D01*
X35117257Y-52752038D01*
X35286775Y-52638770D01*
X35430938Y-52494607D01*
X35544206Y-52325089D01*
X35622227Y-52136731D01*
X35662001Y-51936772D01*
X35662001Y-51885000D01*
X35851939Y-51885000D01*
X36051898Y-51845226D01*
X36240256Y-51767205D01*
X36409774Y-51653937D01*
X36553937Y-51509774D01*
X36667205Y-51340256D01*
X36745226Y-51151898D01*
X36785000Y-50951939D01*
X36785000Y-50748061D01*
X36745226Y-50548102D01*
X36667205Y-50359744D01*
X36553937Y-50190226D01*
X36409774Y-50046063D01*
X36240256Y-49932795D01*
X36051898Y-49854774D01*
X35851939Y-49815000D01*
X35648061Y-49815000D01*
X35448102Y-49854774D01*
X35259744Y-49932795D01*
X35090226Y-50046063D01*
X34946063Y-50190226D01*
X34832795Y-50359744D01*
X34754774Y-50548102D01*
X34715000Y-50748061D01*
X34715000Y-50799833D01*
X34525062Y-50799833D01*
X34325103Y-50839607D01*
X34136745Y-50917628D01*
X33967227Y-51030896D01*
X33823064Y-51175059D01*
X33709796Y-51344577D01*
X33631775Y-51532935D01*
X33592001Y-51732894D01*
X20660000Y-51732894D01*
X20660000Y-49398061D01*
X27315000Y-49398061D01*
X27315000Y-49601939D01*
X27354774Y-49801898D01*
X27432795Y-49990256D01*
X27546063Y-50159774D01*
X27690226Y-50303937D01*
X27859744Y-50417205D01*
X28048102Y-50495226D01*
X28248061Y-50535000D01*
X28451939Y-50535000D01*
X28651898Y-50495226D01*
X28840256Y-50417205D01*
X29009774Y-50303937D01*
X29153937Y-50159774D01*
X29267205Y-49990256D01*
X29345226Y-49801898D01*
X29385000Y-49601939D01*
X29385000Y-49398061D01*
X29355164Y-49248061D01*
X38065000Y-49248061D01*
X38065000Y-49451939D01*
X38104774Y-49651898D01*
X38182795Y-49840256D01*
X38296063Y-50009774D01*
X38440226Y-50153937D01*
X38609744Y-50267205D01*
X38798102Y-50345226D01*
X38998061Y-50385000D01*
X39201939Y-50385000D01*
X39401898Y-50345226D01*
X39590256Y-50267205D01*
X39759774Y-50153937D01*
X39903937Y-50009774D01*
X40017205Y-49840256D01*
X40095226Y-49651898D01*
X40135000Y-49451939D01*
X40135000Y-49248061D01*
X40095226Y-49048102D01*
X40017205Y-48859744D01*
X39903937Y-48690226D01*
X39759774Y-48546063D01*
X39590256Y-48432795D01*
X39401898Y-48354774D01*
X39201939Y-48315000D01*
X38998061Y-48315000D01*
X38798102Y-48354774D01*
X38609744Y-48432795D01*
X38440226Y-48546063D01*
X38296063Y-48690226D01*
X38182795Y-48859744D01*
X38104774Y-49048102D01*
X38065000Y-49248061D01*
X29355164Y-49248061D01*
X29345226Y-49198102D01*
X29267205Y-49009744D01*
X29153937Y-48840226D01*
X29009774Y-48696063D01*
X28840256Y-48582795D01*
X28651898Y-48504774D01*
X28451939Y-48465000D01*
X28248061Y-48465000D01*
X28048102Y-48504774D01*
X27859744Y-48582795D01*
X27690226Y-48696063D01*
X27546063Y-48840226D01*
X27432795Y-49009744D01*
X27354774Y-49198102D01*
X27315000Y-49398061D01*
X20660000Y-49398061D01*
X20660000Y-48038212D01*
X23815000Y-48038212D01*
X23815000Y-48261788D01*
X23858617Y-48481067D01*
X23944176Y-48687624D01*
X24068388Y-48873520D01*
X24226480Y-49031612D01*
X24412376Y-49155824D01*
X24618933Y-49241383D01*
X24838212Y-49285000D01*
X25061788Y-49285000D01*
X25281067Y-49241383D01*
X25487624Y-49155824D01*
X25673520Y-49031612D01*
X25831612Y-48873520D01*
X25955824Y-48687624D01*
X26041383Y-48481067D01*
X26085000Y-48261788D01*
X26085000Y-48038212D01*
X26041383Y-47818933D01*
X25955824Y-47612376D01*
X25831612Y-47426480D01*
X25673520Y-47268388D01*
X25487624Y-47144176D01*
X25281067Y-47058617D01*
X25061788Y-47015000D01*
X24838212Y-47015000D01*
X24618933Y-47058617D01*
X24412376Y-47144176D01*
X24226480Y-47268388D01*
X24068388Y-47426480D01*
X23944176Y-47612376D01*
X23858617Y-47818933D01*
X23815000Y-48038212D01*
X20660000Y-48038212D01*
X20660000Y-46612688D01*
X40950373Y-46612688D01*
X40950373Y-46816566D01*
X40990147Y-47016525D01*
X41068168Y-47204883D01*
X41181436Y-47374401D01*
X41325599Y-47518564D01*
X41495117Y-47631832D01*
X41683475Y-47709853D01*
X41883434Y-47749627D01*
X42087312Y-47749627D01*
X42287271Y-47709853D01*
X42475629Y-47631832D01*
X42645147Y-47518564D01*
X42789310Y-47374401D01*
X42902578Y-47204883D01*
X42926114Y-47148061D01*
X47515000Y-47148061D01*
X47515000Y-47351939D01*
X47554774Y-47551898D01*
X47632795Y-47740256D01*
X47746063Y-47909774D01*
X47890226Y-48053937D01*
X48059744Y-48167205D01*
X48248102Y-48245226D01*
X48448061Y-48285000D01*
X48651939Y-48285000D01*
X48851898Y-48245226D01*
X49040256Y-48167205D01*
X49115000Y-48117263D01*
X49115000Y-48301939D01*
X49154774Y-48501898D01*
X49232795Y-48690256D01*
X49256010Y-48725000D01*
X49232795Y-48759744D01*
X49154774Y-48948102D01*
X49115000Y-49148061D01*
X49115000Y-49351939D01*
X49154774Y-49551898D01*
X49232795Y-49740256D01*
X49346063Y-49909774D01*
X49490226Y-50053937D01*
X49659744Y-50167205D01*
X49848102Y-50245226D01*
X50048061Y-50285000D01*
X50251939Y-50285000D01*
X50451898Y-50245226D01*
X50565763Y-50198061D01*
X54165000Y-50198061D01*
X54165000Y-50401939D01*
X54204774Y-50601898D01*
X54282795Y-50790256D01*
X54396063Y-50959774D01*
X54540226Y-51103937D01*
X54709744Y-51217205D01*
X54898102Y-51295226D01*
X55098061Y-51335000D01*
X55301939Y-51335000D01*
X55501898Y-51295226D01*
X55690256Y-51217205D01*
X55859774Y-51103937D01*
X56003937Y-50959774D01*
X56117205Y-50790256D01*
X56195226Y-50601898D01*
X56235000Y-50401939D01*
X56235000Y-50198061D01*
X56195226Y-49998102D01*
X56117205Y-49809744D01*
X56003937Y-49640226D01*
X55859774Y-49496063D01*
X55690256Y-49382795D01*
X55501898Y-49304774D01*
X55301939Y-49265000D01*
X55098061Y-49265000D01*
X54898102Y-49304774D01*
X54709744Y-49382795D01*
X54540226Y-49496063D01*
X54396063Y-49640226D01*
X54282795Y-49809744D01*
X54204774Y-49998102D01*
X54165000Y-50198061D01*
X50565763Y-50198061D01*
X50640256Y-50167205D01*
X50809774Y-50053937D01*
X50953937Y-49909774D01*
X51067205Y-49740256D01*
X51145226Y-49551898D01*
X51185000Y-49351939D01*
X51185000Y-49148061D01*
X51145226Y-48948102D01*
X51067205Y-48759744D01*
X51043990Y-48725000D01*
X51067205Y-48690256D01*
X51145226Y-48501898D01*
X51185000Y-48301939D01*
X51185000Y-48098061D01*
X51145226Y-47898102D01*
X51067205Y-47709744D01*
X50953937Y-47540226D01*
X50809774Y-47396063D01*
X50640256Y-47282795D01*
X50451898Y-47204774D01*
X50251939Y-47165000D01*
X50048061Y-47165000D01*
X49848102Y-47204774D01*
X49659744Y-47282795D01*
X49585000Y-47332737D01*
X49585000Y-47148061D01*
X49580978Y-47127839D01*
X63340000Y-47127839D01*
X63340000Y-47872162D01*
X63353890Y-48013193D01*
X63408785Y-48194154D01*
X63497928Y-48360928D01*
X63617894Y-48507107D01*
X63764073Y-48627073D01*
X63930847Y-48716216D01*
X64111808Y-48771110D01*
X64300000Y-48789645D01*
X64488193Y-48771110D01*
X64669154Y-48716216D01*
X64835928Y-48627073D01*
X64982107Y-48507107D01*
X65102073Y-48360928D01*
X65191216Y-48194154D01*
X65246110Y-48013193D01*
X65260000Y-47872161D01*
X65260000Y-47127838D01*
X65246110Y-46986807D01*
X65191216Y-46805846D01*
X65102073Y-46639072D01*
X64987940Y-46500000D01*
X65585053Y-46500000D01*
X65604795Y-46700445D01*
X65663263Y-46893187D01*
X65758209Y-47070819D01*
X65885985Y-47226515D01*
X66041681Y-47354291D01*
X66219313Y-47449237D01*
X66412055Y-47507705D01*
X66562272Y-47522500D01*
X67437728Y-47522500D01*
X67587945Y-47507705D01*
X67780687Y-47449237D01*
X67958319Y-47354291D01*
X68114015Y-47226515D01*
X68241791Y-47070819D01*
X68336737Y-46893187D01*
X68395205Y-46700445D01*
X68414947Y-46500000D01*
X68395205Y-46299555D01*
X68336737Y-46106813D01*
X68241791Y-45929181D01*
X68114015Y-45773485D01*
X67958319Y-45645709D01*
X67780687Y-45550763D01*
X67587945Y-45492295D01*
X67437728Y-45477500D01*
X66562272Y-45477500D01*
X66412055Y-45492295D01*
X66219313Y-45550763D01*
X66041681Y-45645709D01*
X65885985Y-45773485D01*
X65758209Y-45929181D01*
X65663263Y-46106813D01*
X65604795Y-46299555D01*
X65585053Y-46500000D01*
X64987940Y-46500000D01*
X64982107Y-46492893D01*
X64835928Y-46372927D01*
X64669153Y-46283784D01*
X64488192Y-46228890D01*
X64300000Y-46210355D01*
X64111807Y-46228890D01*
X63930846Y-46283784D01*
X63764072Y-46372927D01*
X63617893Y-46492893D01*
X63497927Y-46639072D01*
X63408784Y-46805847D01*
X63353890Y-46986808D01*
X63340000Y-47127839D01*
X49580978Y-47127839D01*
X49545226Y-46948102D01*
X49467205Y-46759744D01*
X49353937Y-46590226D01*
X49209774Y-46446063D01*
X49040256Y-46332795D01*
X48851898Y-46254774D01*
X48651939Y-46215000D01*
X48448061Y-46215000D01*
X48248102Y-46254774D01*
X48059744Y-46332795D01*
X47890226Y-46446063D01*
X47746063Y-46590226D01*
X47632795Y-46759744D01*
X47554774Y-46948102D01*
X47515000Y-47148061D01*
X42926114Y-47148061D01*
X42980599Y-47016525D01*
X43020373Y-46816566D01*
X43020373Y-46612688D01*
X42980599Y-46412729D01*
X42902578Y-46224371D01*
X42789310Y-46054853D01*
X42645147Y-45910690D01*
X42475629Y-45797422D01*
X42287271Y-45719401D01*
X42087312Y-45679627D01*
X41883434Y-45679627D01*
X41683475Y-45719401D01*
X41495117Y-45797422D01*
X41325599Y-45910690D01*
X41181436Y-46054853D01*
X41068168Y-46224371D01*
X40990147Y-46412729D01*
X40950373Y-46612688D01*
X20660000Y-46612688D01*
X20660000Y-45244323D01*
X38953972Y-45244323D01*
X38953972Y-45448201D01*
X38993746Y-45648160D01*
X39071767Y-45836518D01*
X39185035Y-46006036D01*
X39329198Y-46150199D01*
X39498716Y-46263467D01*
X39687074Y-46341488D01*
X39887033Y-46381262D01*
X40090911Y-46381262D01*
X40290870Y-46341488D01*
X40479228Y-46263467D01*
X40648746Y-46150199D01*
X40792909Y-46006036D01*
X40906177Y-45836518D01*
X40984198Y-45648160D01*
X41023972Y-45448201D01*
X41023972Y-45244323D01*
X40984198Y-45044364D01*
X40906177Y-44856006D01*
X40792909Y-44686488D01*
X40648746Y-44542325D01*
X40479228Y-44429057D01*
X40290870Y-44351036D01*
X40090911Y-44311262D01*
X39887033Y-44311262D01*
X39687074Y-44351036D01*
X39498716Y-44429057D01*
X39329198Y-44542325D01*
X39185035Y-44686488D01*
X39071767Y-44856006D01*
X38993746Y-45044364D01*
X38953972Y-45244323D01*
X20660000Y-45244323D01*
X20660000Y-44098061D01*
X37065010Y-44098061D01*
X37065010Y-44301939D01*
X37104784Y-44501898D01*
X37182805Y-44690256D01*
X37296073Y-44859774D01*
X37440236Y-45003937D01*
X37609754Y-45117205D01*
X37798112Y-45195226D01*
X37998071Y-45235000D01*
X38201949Y-45235000D01*
X38401908Y-45195226D01*
X38590266Y-45117205D01*
X38759784Y-45003937D01*
X38903947Y-44859774D01*
X39017215Y-44690256D01*
X39095236Y-44501898D01*
X39135010Y-44301939D01*
X39135010Y-44098061D01*
X39095236Y-43898102D01*
X39017215Y-43709744D01*
X38903947Y-43540226D01*
X38759784Y-43396063D01*
X38590266Y-43282795D01*
X38401908Y-43204774D01*
X38201949Y-43165000D01*
X37998071Y-43165000D01*
X37798112Y-43204774D01*
X37609754Y-43282795D01*
X37440236Y-43396063D01*
X37296073Y-43540226D01*
X37182805Y-43709744D01*
X37104784Y-43898102D01*
X37065010Y-44098061D01*
X20660000Y-44098061D01*
X20660000Y-41298061D01*
X42765000Y-41298061D01*
X42765000Y-41501939D01*
X42804774Y-41701898D01*
X42882795Y-41890256D01*
X42996063Y-42059774D01*
X43140226Y-42203937D01*
X43296580Y-42308409D01*
X43240226Y-42346063D01*
X43096063Y-42490226D01*
X42982795Y-42659744D01*
X42904774Y-42848102D01*
X42865000Y-43048061D01*
X42865000Y-43251939D01*
X42904774Y-43451898D01*
X42982795Y-43640256D01*
X43096063Y-43809774D01*
X43240226Y-43953937D01*
X43409744Y-44067205D01*
X43598102Y-44145226D01*
X43798061Y-44185000D01*
X44001939Y-44185000D01*
X44201898Y-44145226D01*
X44390256Y-44067205D01*
X44559774Y-43953937D01*
X44703937Y-43809774D01*
X44817205Y-43640256D01*
X44895226Y-43451898D01*
X44935000Y-43251939D01*
X44935000Y-43098061D01*
X51565000Y-43098061D01*
X51565000Y-43301939D01*
X51604774Y-43501898D01*
X51682795Y-43690256D01*
X51796063Y-43859774D01*
X51940226Y-44003937D01*
X52109744Y-44117205D01*
X52298102Y-44195226D01*
X52498061Y-44235000D01*
X52701939Y-44235000D01*
X52901898Y-44195226D01*
X53090256Y-44117205D01*
X53092719Y-44115559D01*
X53129784Y-44301898D01*
X53207805Y-44490256D01*
X53321073Y-44659774D01*
X53465236Y-44803937D01*
X53634754Y-44917205D01*
X53823112Y-44995226D01*
X54023071Y-45035000D01*
X54226949Y-45035000D01*
X54426908Y-44995226D01*
X54615266Y-44917205D01*
X54784784Y-44803937D01*
X54928947Y-44659774D01*
X55042215Y-44490256D01*
X55120236Y-44301898D01*
X55160010Y-44101939D01*
X55160010Y-43898061D01*
X55120236Y-43698102D01*
X55042215Y-43509744D01*
X54928947Y-43340226D01*
X54784784Y-43196063D01*
X54615266Y-43082795D01*
X54426908Y-43004774D01*
X54226949Y-42965000D01*
X54023071Y-42965000D01*
X53823112Y-43004774D01*
X53634754Y-43082795D01*
X53632291Y-43084441D01*
X53595226Y-42898102D01*
X53595210Y-42898061D01*
X55115000Y-42898061D01*
X55115000Y-43101939D01*
X55154774Y-43301898D01*
X55232795Y-43490256D01*
X55346063Y-43659774D01*
X55490226Y-43803937D01*
X55659744Y-43917205D01*
X55848102Y-43995226D01*
X56048061Y-44035000D01*
X56251939Y-44035000D01*
X56451898Y-43995226D01*
X56640256Y-43917205D01*
X56809774Y-43803937D01*
X56953937Y-43659774D01*
X57067205Y-43490256D01*
X57145226Y-43301898D01*
X57185000Y-43101939D01*
X57185000Y-42898061D01*
X59465000Y-42898061D01*
X59465000Y-43101939D01*
X59504774Y-43301898D01*
X59582795Y-43490256D01*
X59696063Y-43659774D01*
X59840226Y-43803937D01*
X60009744Y-43917205D01*
X60198102Y-43995226D01*
X60398061Y-44035000D01*
X60601939Y-44035000D01*
X60801898Y-43995226D01*
X60990256Y-43917205D01*
X61159774Y-43803937D01*
X61303937Y-43659774D01*
X61350000Y-43590836D01*
X61396063Y-43659774D01*
X61540226Y-43803937D01*
X61709744Y-43917205D01*
X61898102Y-43995226D01*
X62098061Y-44035000D01*
X62301939Y-44035000D01*
X62501898Y-43995226D01*
X62690256Y-43917205D01*
X62859774Y-43803937D01*
X63003937Y-43659774D01*
X63117205Y-43490256D01*
X63195226Y-43301898D01*
X63235000Y-43101939D01*
X63235000Y-42898061D01*
X63195226Y-42698102D01*
X63117205Y-42509744D01*
X63003937Y-42340226D01*
X62859774Y-42196063D01*
X62690256Y-42082795D01*
X62501898Y-42004774D01*
X62301939Y-41965000D01*
X62098061Y-41965000D01*
X61898102Y-42004774D01*
X61709744Y-42082795D01*
X61540226Y-42196063D01*
X61396063Y-42340226D01*
X61350000Y-42409164D01*
X61303937Y-42340226D01*
X61159774Y-42196063D01*
X60990256Y-42082795D01*
X60801898Y-42004774D01*
X60601939Y-41965000D01*
X60398061Y-41965000D01*
X60198102Y-42004774D01*
X60009744Y-42082795D01*
X59840226Y-42196063D01*
X59696063Y-42340226D01*
X59582795Y-42509744D01*
X59504774Y-42698102D01*
X59465000Y-42898061D01*
X57185000Y-42898061D01*
X57145226Y-42698102D01*
X57067205Y-42509744D01*
X56953937Y-42340226D01*
X56809774Y-42196063D01*
X56640256Y-42082795D01*
X56451898Y-42004774D01*
X56251939Y-41965000D01*
X56048061Y-41965000D01*
X55848102Y-42004774D01*
X55659744Y-42082795D01*
X55490226Y-42196063D01*
X55346063Y-42340226D01*
X55232795Y-42509744D01*
X55154774Y-42698102D01*
X55115000Y-42898061D01*
X53595210Y-42898061D01*
X53517205Y-42709744D01*
X53403937Y-42540226D01*
X53259774Y-42396063D01*
X53090256Y-42282795D01*
X52901898Y-42204774D01*
X52701939Y-42165000D01*
X52498061Y-42165000D01*
X52298102Y-42204774D01*
X52109744Y-42282795D01*
X51940226Y-42396063D01*
X51796063Y-42540226D01*
X51682795Y-42709744D01*
X51604774Y-42898102D01*
X51565000Y-43098061D01*
X44935000Y-43098061D01*
X44935000Y-43048061D01*
X44895226Y-42848102D01*
X44817205Y-42659744D01*
X44703937Y-42490226D01*
X44559774Y-42346063D01*
X44403420Y-42241591D01*
X44459774Y-42203937D01*
X44603937Y-42059774D01*
X44717205Y-41890256D01*
X44795226Y-41701898D01*
X44835000Y-41501939D01*
X44835000Y-41298061D01*
X44795226Y-41098102D01*
X44717205Y-40909744D01*
X44609173Y-40748061D01*
X49265000Y-40748061D01*
X49265000Y-40951939D01*
X49304774Y-41151898D01*
X49382795Y-41340256D01*
X49496063Y-41509774D01*
X49640226Y-41653937D01*
X49809744Y-41767205D01*
X49998102Y-41845226D01*
X50198061Y-41885000D01*
X50401939Y-41885000D01*
X50601898Y-41845226D01*
X50790256Y-41767205D01*
X50959774Y-41653937D01*
X51103937Y-41509774D01*
X51217205Y-41340256D01*
X51295226Y-41151898D01*
X51335000Y-40951939D01*
X51335000Y-40748061D01*
X53115000Y-40748061D01*
X53115000Y-40951939D01*
X53154774Y-41151898D01*
X53232795Y-41340256D01*
X53346063Y-41509774D01*
X53490226Y-41653937D01*
X53659744Y-41767205D01*
X53848102Y-41845226D01*
X54048061Y-41885000D01*
X54251939Y-41885000D01*
X54451898Y-41845226D01*
X54640256Y-41767205D01*
X54809774Y-41653937D01*
X54953937Y-41509774D01*
X55067205Y-41340256D01*
X55110355Y-41236082D01*
X55132795Y-41290256D01*
X55246063Y-41459774D01*
X55390226Y-41603937D01*
X55559744Y-41717205D01*
X55748102Y-41795226D01*
X55948061Y-41835000D01*
X56151939Y-41835000D01*
X56351898Y-41795226D01*
X56540256Y-41717205D01*
X56709774Y-41603937D01*
X56853937Y-41459774D01*
X56895172Y-41398061D01*
X64665000Y-41398061D01*
X64665000Y-41601939D01*
X64704774Y-41801898D01*
X64782795Y-41990256D01*
X64896063Y-42159774D01*
X65040226Y-42303937D01*
X65209744Y-42417205D01*
X65398102Y-42495226D01*
X65598061Y-42535000D01*
X65801939Y-42535000D01*
X66001898Y-42495226D01*
X66190256Y-42417205D01*
X66359774Y-42303937D01*
X66503937Y-42159774D01*
X66617205Y-41990256D01*
X66695226Y-41801898D01*
X66735000Y-41601939D01*
X66735000Y-41398061D01*
X66695226Y-41198102D01*
X66617205Y-41009744D01*
X66503937Y-40840226D01*
X66359774Y-40696063D01*
X66190256Y-40582795D01*
X66001898Y-40504774D01*
X65801939Y-40465000D01*
X65598061Y-40465000D01*
X65398102Y-40504774D01*
X65209744Y-40582795D01*
X65040226Y-40696063D01*
X64896063Y-40840226D01*
X64782795Y-41009744D01*
X64704774Y-41198102D01*
X64665000Y-41398061D01*
X56895172Y-41398061D01*
X56967205Y-41290256D01*
X57045226Y-41101898D01*
X57085000Y-40901939D01*
X57085000Y-40698061D01*
X57045226Y-40498102D01*
X56967205Y-40309744D01*
X56853937Y-40140226D01*
X56709774Y-39996063D01*
X56540256Y-39882795D01*
X56351898Y-39804774D01*
X56151939Y-39765000D01*
X55948061Y-39765000D01*
X55748102Y-39804774D01*
X55559744Y-39882795D01*
X55390226Y-39996063D01*
X55246063Y-40140226D01*
X55132795Y-40309744D01*
X55089645Y-40413918D01*
X55067205Y-40359744D01*
X54953937Y-40190226D01*
X54809774Y-40046063D01*
X54640256Y-39932795D01*
X54451898Y-39854774D01*
X54251939Y-39815000D01*
X54048061Y-39815000D01*
X53848102Y-39854774D01*
X53659744Y-39932795D01*
X53490226Y-40046063D01*
X53346063Y-40190226D01*
X53232795Y-40359744D01*
X53154774Y-40548102D01*
X53115000Y-40748061D01*
X51335000Y-40748061D01*
X51295226Y-40548102D01*
X51217205Y-40359744D01*
X51103937Y-40190226D01*
X50959774Y-40046063D01*
X50790256Y-39932795D01*
X50601898Y-39854774D01*
X50401939Y-39815000D01*
X50198061Y-39815000D01*
X49998102Y-39854774D01*
X49809744Y-39932795D01*
X49640226Y-40046063D01*
X49496063Y-40190226D01*
X49382795Y-40359744D01*
X49304774Y-40548102D01*
X49265000Y-40748061D01*
X44609173Y-40748061D01*
X44603937Y-40740226D01*
X44459774Y-40596063D01*
X44290256Y-40482795D01*
X44101898Y-40404774D01*
X43901939Y-40365000D01*
X43698061Y-40365000D01*
X43498102Y-40404774D01*
X43309744Y-40482795D01*
X43140226Y-40596063D01*
X42996063Y-40740226D01*
X42882795Y-40909744D01*
X42804774Y-41098102D01*
X42765000Y-41298061D01*
X20660000Y-41298061D01*
X20660000Y-37498062D01*
X43714999Y-37498062D01*
X43714999Y-37701940D01*
X43754773Y-37901899D01*
X43832794Y-38090257D01*
X43946062Y-38259775D01*
X44090225Y-38403938D01*
X44259743Y-38517206D01*
X44448101Y-38595227D01*
X44648060Y-38635001D01*
X44851938Y-38635001D01*
X45051897Y-38595227D01*
X45240255Y-38517206D01*
X45409773Y-38403938D01*
X45553936Y-38259775D01*
X45667204Y-38090257D01*
X45745225Y-37901899D01*
X45784999Y-37701940D01*
X45784999Y-37548061D01*
X46865000Y-37548061D01*
X46865000Y-37751939D01*
X46904774Y-37951898D01*
X46982795Y-38140256D01*
X47096063Y-38309774D01*
X47240226Y-38453937D01*
X47409744Y-38567205D01*
X47598102Y-38645226D01*
X47798061Y-38685000D01*
X48001939Y-38685000D01*
X48187645Y-38648061D01*
X50965000Y-38648061D01*
X50965000Y-38851939D01*
X51004774Y-39051898D01*
X51082795Y-39240256D01*
X51196063Y-39409774D01*
X51340226Y-39553937D01*
X51509744Y-39667205D01*
X51698102Y-39745226D01*
X51898061Y-39785000D01*
X52101939Y-39785000D01*
X52301898Y-39745226D01*
X52490256Y-39667205D01*
X52659774Y-39553937D01*
X52803937Y-39409774D01*
X52917205Y-39240256D01*
X52995226Y-39051898D01*
X53035000Y-38851939D01*
X53035000Y-38648061D01*
X52995226Y-38448102D01*
X52917205Y-38259744D01*
X52803937Y-38090226D01*
X52659774Y-37946063D01*
X52490256Y-37832795D01*
X52301898Y-37754774D01*
X52101939Y-37715000D01*
X51898061Y-37715000D01*
X51698102Y-37754774D01*
X51509744Y-37832795D01*
X51340226Y-37946063D01*
X51196063Y-38090226D01*
X51082795Y-38259744D01*
X51004774Y-38448102D01*
X50965000Y-38648061D01*
X48187645Y-38648061D01*
X48201898Y-38645226D01*
X48390256Y-38567205D01*
X48559774Y-38453937D01*
X48703937Y-38309774D01*
X48817205Y-38140256D01*
X48895226Y-37951898D01*
X48935000Y-37751939D01*
X48935000Y-37548061D01*
X48895226Y-37348102D01*
X48823523Y-37174996D01*
X48895227Y-37001887D01*
X48935001Y-36801928D01*
X48935001Y-36598050D01*
X48895227Y-36398091D01*
X48817206Y-36209733D01*
X48703938Y-36040215D01*
X48559775Y-35896052D01*
X48390257Y-35782784D01*
X48201899Y-35704763D01*
X48001940Y-35664989D01*
X47798062Y-35664989D01*
X47598103Y-35704763D01*
X47409745Y-35782784D01*
X47240227Y-35896052D01*
X47096064Y-36040215D01*
X46982796Y-36209733D01*
X46904775Y-36398091D01*
X46865001Y-36598050D01*
X46865001Y-36801928D01*
X46904775Y-37001887D01*
X46976478Y-37174993D01*
X46904774Y-37348102D01*
X46865000Y-37548061D01*
X45784999Y-37548061D01*
X45784999Y-37498062D01*
X45745225Y-37298103D01*
X45667204Y-37109745D01*
X45553936Y-36940227D01*
X45409773Y-36796064D01*
X45240255Y-36682796D01*
X45051897Y-36604775D01*
X44851938Y-36565001D01*
X44648060Y-36565001D01*
X44448101Y-36604775D01*
X44259743Y-36682796D01*
X44090225Y-36796064D01*
X43946062Y-36940227D01*
X43832794Y-37109745D01*
X43754773Y-37298103D01*
X43714999Y-37498062D01*
X20660000Y-37498062D01*
X20660000Y-35138212D01*
X23915000Y-35138212D01*
X23915000Y-35361788D01*
X23958617Y-35581067D01*
X24044176Y-35787624D01*
X24168388Y-35973520D01*
X24326480Y-36131612D01*
X24512376Y-36255824D01*
X24718933Y-36341383D01*
X24938212Y-36385000D01*
X25161788Y-36385000D01*
X25381067Y-36341383D01*
X25485655Y-36298061D01*
X27365000Y-36298061D01*
X27365000Y-36501939D01*
X27404774Y-36701898D01*
X27482795Y-36890256D01*
X27596063Y-37059774D01*
X27740226Y-37203937D01*
X27909744Y-37317205D01*
X28098102Y-37395226D01*
X28298061Y-37435000D01*
X28501939Y-37435000D01*
X28701898Y-37395226D01*
X28890256Y-37317205D01*
X29059774Y-37203937D01*
X29203937Y-37059774D01*
X29317205Y-36890256D01*
X29395226Y-36701898D01*
X29435000Y-36501939D01*
X29435000Y-36298061D01*
X29395226Y-36098102D01*
X29317205Y-35909744D01*
X29203937Y-35740226D01*
X29059774Y-35596063D01*
X28890256Y-35482795D01*
X28701898Y-35404774D01*
X28501939Y-35365000D01*
X28298061Y-35365000D01*
X28098102Y-35404774D01*
X27909744Y-35482795D01*
X27740226Y-35596063D01*
X27596063Y-35740226D01*
X27482795Y-35909744D01*
X27404774Y-36098102D01*
X27365000Y-36298061D01*
X25485655Y-36298061D01*
X25587624Y-36255824D01*
X25773520Y-36131612D01*
X25931612Y-35973520D01*
X26055824Y-35787624D01*
X26141383Y-35581067D01*
X26185000Y-35361788D01*
X26185000Y-35138212D01*
X26141383Y-34918933D01*
X26055824Y-34712376D01*
X25931612Y-34526480D01*
X25773520Y-34368388D01*
X25587624Y-34244176D01*
X25476293Y-34198061D01*
X42215000Y-34198061D01*
X42215000Y-34401939D01*
X42254774Y-34601898D01*
X42332795Y-34790256D01*
X42446063Y-34959774D01*
X42590226Y-35103937D01*
X42759744Y-35217205D01*
X42948102Y-35295226D01*
X43148061Y-35335000D01*
X43351939Y-35335000D01*
X43551898Y-35295226D01*
X43740256Y-35217205D01*
X43909774Y-35103937D01*
X43961313Y-35052398D01*
X44040238Y-35131323D01*
X44209756Y-35244591D01*
X44398114Y-35322612D01*
X44598073Y-35362386D01*
X44801951Y-35362386D01*
X45001910Y-35322612D01*
X45190268Y-35244591D01*
X45359786Y-35131323D01*
X45503949Y-34987160D01*
X45617217Y-34817642D01*
X45695238Y-34629284D01*
X45735012Y-34429325D01*
X45735012Y-34225447D01*
X45695238Y-34025488D01*
X45617217Y-33837130D01*
X45503949Y-33667612D01*
X45359786Y-33523449D01*
X45190268Y-33410181D01*
X45001910Y-33332160D01*
X44801951Y-33292386D01*
X44598073Y-33292386D01*
X44398114Y-33332160D01*
X44209756Y-33410181D01*
X44040238Y-33523449D01*
X43988699Y-33574988D01*
X43909774Y-33496063D01*
X43740256Y-33382795D01*
X43551898Y-33304774D01*
X43351939Y-33265000D01*
X43148061Y-33265000D01*
X42948102Y-33304774D01*
X42759744Y-33382795D01*
X42590226Y-33496063D01*
X42446063Y-33640226D01*
X42332795Y-33809744D01*
X42254774Y-33998102D01*
X42215000Y-34198061D01*
X25476293Y-34198061D01*
X25381067Y-34158617D01*
X25161788Y-34115000D01*
X24938212Y-34115000D01*
X24718933Y-34158617D01*
X24512376Y-34244176D01*
X24326480Y-34368388D01*
X24168388Y-34526480D01*
X24044176Y-34712376D01*
X23958617Y-34918933D01*
X23915000Y-35138212D01*
X20660000Y-35138212D01*
X20660000Y-26398061D01*
X57965000Y-26398061D01*
X57965000Y-26601939D01*
X58004774Y-26801898D01*
X58082795Y-26990256D01*
X58196063Y-27159774D01*
X58340226Y-27303937D01*
X58509744Y-27417205D01*
X58698102Y-27495226D01*
X58898061Y-27535000D01*
X59101939Y-27535000D01*
X59301898Y-27495226D01*
X59490256Y-27417205D01*
X59659774Y-27303937D01*
X59803937Y-27159774D01*
X59917205Y-26990256D01*
X59995226Y-26801898D01*
X60035000Y-26601939D01*
X60035000Y-26398061D01*
X59995226Y-26198102D01*
X59917205Y-26009744D01*
X59803937Y-25840226D01*
X59659774Y-25696063D01*
X59490256Y-25582795D01*
X59301898Y-25504774D01*
X59101939Y-25465000D01*
X58898061Y-25465000D01*
X58698102Y-25504774D01*
X58509744Y-25582795D01*
X58340226Y-25696063D01*
X58196063Y-25840226D01*
X58082795Y-26009744D01*
X58004774Y-26198102D01*
X57965000Y-26398061D01*
X20660000Y-26398061D01*
X20660000Y-25298061D01*
X62565000Y-25298061D01*
X62565000Y-25501939D01*
X62604774Y-25701898D01*
X62682795Y-25890256D01*
X62796063Y-26059774D01*
X62940226Y-26203937D01*
X63109744Y-26317205D01*
X63188918Y-26350000D01*
X63109744Y-26382795D01*
X62940226Y-26496063D01*
X62796063Y-26640226D01*
X62682795Y-26809744D01*
X62604774Y-26998102D01*
X62565000Y-27198061D01*
X62565000Y-27401939D01*
X62604774Y-27601898D01*
X62682795Y-27790256D01*
X62796063Y-27959774D01*
X62940226Y-28103937D01*
X63109744Y-28217205D01*
X63298102Y-28295226D01*
X63498061Y-28335000D01*
X63701939Y-28335000D01*
X63901898Y-28295226D01*
X64090256Y-28217205D01*
X64259774Y-28103937D01*
X64403937Y-27959774D01*
X64517205Y-27790256D01*
X64595226Y-27601898D01*
X64635000Y-27401939D01*
X64635000Y-27198061D01*
X64595226Y-26998102D01*
X64517205Y-26809744D01*
X64403937Y-26640226D01*
X64259774Y-26496063D01*
X64090256Y-26382795D01*
X64011082Y-26350000D01*
X64090256Y-26317205D01*
X64259774Y-26203937D01*
X64403937Y-26059774D01*
X64517205Y-25890256D01*
X64595226Y-25701898D01*
X64635000Y-25501939D01*
X64635000Y-25298061D01*
X64595226Y-25098102D01*
X64517205Y-24909744D01*
X64403937Y-24740226D01*
X64259774Y-24596063D01*
X64090256Y-24482795D01*
X63901898Y-24404774D01*
X63701939Y-24365000D01*
X63498061Y-24365000D01*
X63298102Y-24404774D01*
X63109744Y-24482795D01*
X62940226Y-24596063D01*
X62796063Y-24740226D01*
X62682795Y-24909744D01*
X62604774Y-25098102D01*
X62565000Y-25298061D01*
X20660000Y-25298061D01*
X20660000Y-22779872D01*
X20765000Y-22779872D01*
X20765000Y-23220128D01*
X20850890Y-23651925D01*
X21019369Y-24058669D01*
X21263962Y-24424729D01*
X21575271Y-24736038D01*
X21941331Y-24980631D01*
X22348075Y-25149110D01*
X22779872Y-25235000D01*
X23220128Y-25235000D01*
X23651925Y-25149110D01*
X24058669Y-24980631D01*
X24424729Y-24736038D01*
X24736038Y-24424729D01*
X24980631Y-24058669D01*
X25149110Y-23651925D01*
X25235000Y-23220128D01*
X25235000Y-22779872D01*
X64765000Y-22779872D01*
X64765000Y-23220128D01*
X64850890Y-23651925D01*
X65019369Y-24058669D01*
X65263962Y-24424729D01*
X65575271Y-24736038D01*
X65941331Y-24980631D01*
X66348075Y-25149110D01*
X66779872Y-25235000D01*
X67220128Y-25235000D01*
X67651925Y-25149110D01*
X68058669Y-24980631D01*
X68424729Y-24736038D01*
X68736038Y-24424729D01*
X68980631Y-24058669D01*
X69149110Y-23651925D01*
X69235000Y-23220128D01*
X69235000Y-22779872D01*
X69149110Y-22348075D01*
X68980631Y-21941331D01*
X68736038Y-21575271D01*
X68424729Y-21263962D01*
X68058669Y-21019369D01*
X67651925Y-20850890D01*
X67220128Y-20765000D01*
X66779872Y-20765000D01*
X66348075Y-20850890D01*
X65941331Y-21019369D01*
X65575271Y-21263962D01*
X65263962Y-21575271D01*
X65019369Y-21941331D01*
X64850890Y-22348075D01*
X64765000Y-22779872D01*
X25235000Y-22779872D01*
X25149110Y-22348075D01*
X24980631Y-21941331D01*
X24736038Y-21575271D01*
X24424729Y-21263962D01*
X24058669Y-21019369D01*
X23651925Y-20850890D01*
X23220128Y-20765000D01*
X22779872Y-20765000D01*
X22348075Y-20850890D01*
X21941331Y-21019369D01*
X21575271Y-21263962D01*
X21263962Y-21575271D01*
X21019369Y-21941331D01*
X20850890Y-22348075D01*
X20765000Y-22779872D01*
X20660000Y-22779872D01*
X20660000Y-20660000D01*
X69340000Y-20660000D01*
X69340000Y-39232689D01*
G04 #@! TA.AperFunction,Conductor*
D19*
G36*
X69340000Y-39232689D02*
G01*
X69151898Y-39154774D01*
X68951939Y-39115000D01*
X68748061Y-39115000D01*
X68548102Y-39154774D01*
X68359744Y-39232795D01*
X68190226Y-39346063D01*
X68046063Y-39490226D01*
X67932795Y-39659744D01*
X67854774Y-39848102D01*
X67815000Y-40048061D01*
X67815000Y-40251939D01*
X67854774Y-40451898D01*
X67932795Y-40640256D01*
X68046063Y-40809774D01*
X68190226Y-40953937D01*
X68359744Y-41067205D01*
X68548102Y-41145226D01*
X68748061Y-41185000D01*
X68951939Y-41185000D01*
X69151898Y-41145226D01*
X69340000Y-41067311D01*
X69340001Y-99340000D01*
X51660364Y-99340000D01*
X51730537Y-99254494D01*
X51789502Y-99144180D01*
X51825812Y-99024482D01*
X51838072Y-98900000D01*
X51835000Y-98335750D01*
X51676250Y-98177000D01*
X50477000Y-98177000D01*
X50477000Y-98197000D01*
X50223000Y-98197000D01*
X50223000Y-98177000D01*
X49023750Y-98177000D01*
X48865000Y-98335750D01*
X48861928Y-98900000D01*
X48874188Y-99024482D01*
X48910498Y-99144180D01*
X48969463Y-99254494D01*
X49039636Y-99340000D01*
X48060364Y-99340000D01*
X48130537Y-99254494D01*
X48189502Y-99144180D01*
X48225812Y-99024482D01*
X48238072Y-98900000D01*
X48235000Y-98335750D01*
X48076250Y-98177000D01*
X46877000Y-98177000D01*
X46877000Y-98197000D01*
X46623000Y-98197000D01*
X46623000Y-98177000D01*
X45423750Y-98177000D01*
X45265000Y-98335750D01*
X45261928Y-98900000D01*
X45274188Y-99024482D01*
X45310498Y-99144180D01*
X45369463Y-99254494D01*
X45439636Y-99340000D01*
X44460364Y-99340000D01*
X44530537Y-99254494D01*
X44589502Y-99144180D01*
X44625812Y-99024482D01*
X44638072Y-98900000D01*
X44635000Y-98335750D01*
X44476250Y-98177000D01*
X43277000Y-98177000D01*
X43277000Y-98197000D01*
X43023000Y-98197000D01*
X43023000Y-98177000D01*
X41823750Y-98177000D01*
X41665000Y-98335750D01*
X41661928Y-98900000D01*
X41674188Y-99024482D01*
X41710498Y-99144180D01*
X41769463Y-99254494D01*
X41839636Y-99340000D01*
X40860364Y-99340000D01*
X40930537Y-99254494D01*
X40989502Y-99144180D01*
X41025812Y-99024482D01*
X41038072Y-98900000D01*
X41035000Y-98335750D01*
X40876250Y-98177000D01*
X39677000Y-98177000D01*
X39677000Y-98197000D01*
X39423000Y-98197000D01*
X39423000Y-98177000D01*
X38223750Y-98177000D01*
X38065000Y-98335750D01*
X38061928Y-98900000D01*
X38074188Y-99024482D01*
X38110498Y-99144180D01*
X38169463Y-99254494D01*
X38239636Y-99340000D01*
X20660000Y-99340000D01*
X20660000Y-96779872D01*
X20765000Y-96779872D01*
X20765000Y-97220128D01*
X20850890Y-97651925D01*
X21019369Y-98058669D01*
X21263962Y-98424729D01*
X21575271Y-98736038D01*
X21941331Y-98980631D01*
X22348075Y-99149110D01*
X22779872Y-99235000D01*
X23220128Y-99235000D01*
X23651925Y-99149110D01*
X24058669Y-98980631D01*
X24424729Y-98736038D01*
X24736038Y-98424729D01*
X24980631Y-98058669D01*
X25149110Y-97651925D01*
X25235000Y-97220128D01*
X25235000Y-97200000D01*
X38061928Y-97200000D01*
X38065000Y-97764250D01*
X38223750Y-97923000D01*
X39423000Y-97923000D01*
X39423000Y-97903000D01*
X39677000Y-97903000D01*
X39677000Y-97923000D01*
X40876250Y-97923000D01*
X41035000Y-97764250D01*
X41038072Y-97200000D01*
X41661928Y-97200000D01*
X41665000Y-97764250D01*
X41823750Y-97923000D01*
X43023000Y-97923000D01*
X43023000Y-97903000D01*
X43277000Y-97903000D01*
X43277000Y-97923000D01*
X44476250Y-97923000D01*
X44635000Y-97764250D01*
X44638072Y-97200000D01*
X45261928Y-97200000D01*
X45265000Y-97764250D01*
X45423750Y-97923000D01*
X46623000Y-97923000D01*
X46623000Y-97903000D01*
X46877000Y-97903000D01*
X46877000Y-97923000D01*
X48076250Y-97923000D01*
X48235000Y-97764250D01*
X48238072Y-97200000D01*
X48861928Y-97200000D01*
X48865000Y-97764250D01*
X49023750Y-97923000D01*
X50223000Y-97923000D01*
X50223000Y-97903000D01*
X50477000Y-97903000D01*
X50477000Y-97923000D01*
X51676250Y-97923000D01*
X51835000Y-97764250D01*
X51838072Y-97200000D01*
X51825812Y-97075518D01*
X51789502Y-96955820D01*
X51730537Y-96845506D01*
X51676673Y-96779872D01*
X64765000Y-96779872D01*
X64765000Y-97220128D01*
X64850890Y-97651925D01*
X65019369Y-98058669D01*
X65263962Y-98424729D01*
X65575271Y-98736038D01*
X65941331Y-98980631D01*
X66348075Y-99149110D01*
X66779872Y-99235000D01*
X67220128Y-99235000D01*
X67651925Y-99149110D01*
X68058669Y-98980631D01*
X68424729Y-98736038D01*
X68736038Y-98424729D01*
X68980631Y-98058669D01*
X69149110Y-97651925D01*
X69235000Y-97220128D01*
X69235000Y-96779872D01*
X69149110Y-96348075D01*
X68980631Y-95941331D01*
X68736038Y-95575271D01*
X68424729Y-95263962D01*
X68058669Y-95019369D01*
X67651925Y-94850890D01*
X67220128Y-94765000D01*
X66779872Y-94765000D01*
X66348075Y-94850890D01*
X65941331Y-95019369D01*
X65575271Y-95263962D01*
X65263962Y-95575271D01*
X65019369Y-95941331D01*
X64850890Y-96348075D01*
X64765000Y-96779872D01*
X51676673Y-96779872D01*
X51651185Y-96748815D01*
X51554494Y-96669463D01*
X51444180Y-96610498D01*
X51371620Y-96588487D01*
X51503475Y-96456632D01*
X51665990Y-96213411D01*
X51777932Y-95943158D01*
X51835000Y-95656260D01*
X51835000Y-95363740D01*
X51777932Y-95076842D01*
X51665990Y-94806589D01*
X51503475Y-94563368D01*
X51296632Y-94356525D01*
X51122240Y-94240000D01*
X51296632Y-94123475D01*
X51503475Y-93916632D01*
X51665990Y-93673411D01*
X51777932Y-93403158D01*
X51835000Y-93116260D01*
X51835000Y-92823740D01*
X51777932Y-92536842D01*
X51665990Y-92266589D01*
X51503475Y-92023368D01*
X51296632Y-91816525D01*
X51053411Y-91654010D01*
X50783158Y-91542068D01*
X50496260Y-91485000D01*
X50203740Y-91485000D01*
X49916842Y-91542068D01*
X49646589Y-91654010D01*
X49403368Y-91816525D01*
X49196525Y-92023368D01*
X49034010Y-92266589D01*
X48922068Y-92536842D01*
X48865000Y-92823740D01*
X48865000Y-93116260D01*
X48922068Y-93403158D01*
X49034010Y-93673411D01*
X49196525Y-93916632D01*
X49403368Y-94123475D01*
X49577760Y-94240000D01*
X49403368Y-94356525D01*
X49196525Y-94563368D01*
X49034010Y-94806589D01*
X48922068Y-95076842D01*
X48865000Y-95363740D01*
X48865000Y-95656260D01*
X48922068Y-95943158D01*
X49034010Y-96213411D01*
X49196525Y-96456632D01*
X49328380Y-96588487D01*
X49255820Y-96610498D01*
X49145506Y-96669463D01*
X49048815Y-96748815D01*
X48969463Y-96845506D01*
X48910498Y-96955820D01*
X48874188Y-97075518D01*
X48861928Y-97200000D01*
X48238072Y-97200000D01*
X48225812Y-97075518D01*
X48189502Y-96955820D01*
X48130537Y-96845506D01*
X48051185Y-96748815D01*
X47954494Y-96669463D01*
X47844180Y-96610498D01*
X47771620Y-96588487D01*
X47903475Y-96456632D01*
X48065990Y-96213411D01*
X48177932Y-95943158D01*
X48235000Y-95656260D01*
X48235000Y-95363740D01*
X48177932Y-95076842D01*
X48065990Y-94806589D01*
X47903475Y-94563368D01*
X47696632Y-94356525D01*
X47522240Y-94240000D01*
X47696632Y-94123475D01*
X47903475Y-93916632D01*
X48065990Y-93673411D01*
X48177932Y-93403158D01*
X48235000Y-93116260D01*
X48235000Y-92823740D01*
X48177932Y-92536842D01*
X48065990Y-92266589D01*
X47903475Y-92023368D01*
X47696632Y-91816525D01*
X47453411Y-91654010D01*
X47183158Y-91542068D01*
X46896260Y-91485000D01*
X46603740Y-91485000D01*
X46316842Y-91542068D01*
X46046589Y-91654010D01*
X45803368Y-91816525D01*
X45596525Y-92023368D01*
X45434010Y-92266589D01*
X45322068Y-92536842D01*
X45265000Y-92823740D01*
X45265000Y-93116260D01*
X45322068Y-93403158D01*
X45434010Y-93673411D01*
X45596525Y-93916632D01*
X45803368Y-94123475D01*
X45977760Y-94240000D01*
X45803368Y-94356525D01*
X45596525Y-94563368D01*
X45434010Y-94806589D01*
X45322068Y-95076842D01*
X45265000Y-95363740D01*
X45265000Y-95656260D01*
X45322068Y-95943158D01*
X45434010Y-96213411D01*
X45596525Y-96456632D01*
X45728380Y-96588487D01*
X45655820Y-96610498D01*
X45545506Y-96669463D01*
X45448815Y-96748815D01*
X45369463Y-96845506D01*
X45310498Y-96955820D01*
X45274188Y-97075518D01*
X45261928Y-97200000D01*
X44638072Y-97200000D01*
X44625812Y-97075518D01*
X44589502Y-96955820D01*
X44530537Y-96845506D01*
X44451185Y-96748815D01*
X44354494Y-96669463D01*
X44244180Y-96610498D01*
X44171620Y-96588487D01*
X44303475Y-96456632D01*
X44465990Y-96213411D01*
X44577932Y-95943158D01*
X44635000Y-95656260D01*
X44635000Y-95363740D01*
X44577932Y-95076842D01*
X44465990Y-94806589D01*
X44303475Y-94563368D01*
X44096632Y-94356525D01*
X43922240Y-94240000D01*
X44096632Y-94123475D01*
X44303475Y-93916632D01*
X44465990Y-93673411D01*
X44577932Y-93403158D01*
X44635000Y-93116260D01*
X44635000Y-92823740D01*
X44577932Y-92536842D01*
X44465990Y-92266589D01*
X44303475Y-92023368D01*
X44096632Y-91816525D01*
X43853411Y-91654010D01*
X43583158Y-91542068D01*
X43296260Y-91485000D01*
X43003740Y-91485000D01*
X42716842Y-91542068D01*
X42446589Y-91654010D01*
X42203368Y-91816525D01*
X41996525Y-92023368D01*
X41834010Y-92266589D01*
X41722068Y-92536842D01*
X41665000Y-92823740D01*
X41665000Y-93116260D01*
X41722068Y-93403158D01*
X41834010Y-93673411D01*
X41996525Y-93916632D01*
X42203368Y-94123475D01*
X42377760Y-94240000D01*
X42203368Y-94356525D01*
X41996525Y-94563368D01*
X41834010Y-94806589D01*
X41722068Y-95076842D01*
X41665000Y-95363740D01*
X41665000Y-95656260D01*
X41722068Y-95943158D01*
X41834010Y-96213411D01*
X41996525Y-96456632D01*
X42128380Y-96588487D01*
X42055820Y-96610498D01*
X41945506Y-96669463D01*
X41848815Y-96748815D01*
X41769463Y-96845506D01*
X41710498Y-96955820D01*
X41674188Y-97075518D01*
X41661928Y-97200000D01*
X41038072Y-97200000D01*
X41025812Y-97075518D01*
X40989502Y-96955820D01*
X40930537Y-96845506D01*
X40851185Y-96748815D01*
X40754494Y-96669463D01*
X40644180Y-96610498D01*
X40571620Y-96588487D01*
X40703475Y-96456632D01*
X40865990Y-96213411D01*
X40977932Y-95943158D01*
X41035000Y-95656260D01*
X41035000Y-95363740D01*
X40977932Y-95076842D01*
X40865990Y-94806589D01*
X40703475Y-94563368D01*
X40496632Y-94356525D01*
X40322240Y-94240000D01*
X40496632Y-94123475D01*
X40703475Y-93916632D01*
X40865990Y-93673411D01*
X40977932Y-93403158D01*
X41035000Y-93116260D01*
X41035000Y-92823740D01*
X40977932Y-92536842D01*
X40865990Y-92266589D01*
X40703475Y-92023368D01*
X40496632Y-91816525D01*
X40253411Y-91654010D01*
X39983158Y-91542068D01*
X39696260Y-91485000D01*
X39403740Y-91485000D01*
X39116842Y-91542068D01*
X38846589Y-91654010D01*
X38603368Y-91816525D01*
X38396525Y-92023368D01*
X38234010Y-92266589D01*
X38122068Y-92536842D01*
X38065000Y-92823740D01*
X38065000Y-93116260D01*
X38122068Y-93403158D01*
X38234010Y-93673411D01*
X38396525Y-93916632D01*
X38603368Y-94123475D01*
X38777760Y-94240000D01*
X38603368Y-94356525D01*
X38396525Y-94563368D01*
X38234010Y-94806589D01*
X38122068Y-95076842D01*
X38065000Y-95363740D01*
X38065000Y-95656260D01*
X38122068Y-95943158D01*
X38234010Y-96213411D01*
X38396525Y-96456632D01*
X38528380Y-96588487D01*
X38455820Y-96610498D01*
X38345506Y-96669463D01*
X38248815Y-96748815D01*
X38169463Y-96845506D01*
X38110498Y-96955820D01*
X38074188Y-97075518D01*
X38061928Y-97200000D01*
X25235000Y-97200000D01*
X25235000Y-96779872D01*
X25149110Y-96348075D01*
X24980631Y-95941331D01*
X24736038Y-95575271D01*
X24424729Y-95263962D01*
X24058669Y-95019369D01*
X23651925Y-94850890D01*
X23220128Y-94765000D01*
X22779872Y-94765000D01*
X22348075Y-94850890D01*
X21941331Y-95019369D01*
X21575271Y-95263962D01*
X21263962Y-95575271D01*
X21019369Y-95941331D01*
X20850890Y-96348075D01*
X20765000Y-96779872D01*
X20660000Y-96779872D01*
X20660000Y-93050000D01*
X22061928Y-93050000D01*
X22074188Y-93174482D01*
X22110498Y-93294180D01*
X22169463Y-93404494D01*
X22248815Y-93501185D01*
X22345506Y-93580537D01*
X22455820Y-93639502D01*
X22575518Y-93675812D01*
X22700000Y-93688072D01*
X23714250Y-93685000D01*
X23873000Y-93526250D01*
X23873000Y-91877000D01*
X24127000Y-91877000D01*
X24127000Y-93526250D01*
X24285750Y-93685000D01*
X25300000Y-93688072D01*
X25424482Y-93675812D01*
X25544180Y-93639502D01*
X25654494Y-93580537D01*
X25751185Y-93501185D01*
X25830537Y-93404494D01*
X25889502Y-93294180D01*
X25925812Y-93174482D01*
X25938072Y-93050000D01*
X25935000Y-92035750D01*
X25776250Y-91877000D01*
X24127000Y-91877000D01*
X23873000Y-91877000D01*
X22223750Y-91877000D01*
X22065000Y-92035750D01*
X22061928Y-93050000D01*
X20660000Y-93050000D01*
X20660000Y-90450000D01*
X22061928Y-90450000D01*
X22065000Y-91464250D01*
X22223750Y-91623000D01*
X23873000Y-91623000D01*
X23873000Y-91603000D01*
X24127000Y-91603000D01*
X24127000Y-91623000D01*
X25776250Y-91623000D01*
X25935000Y-91464250D01*
X25938072Y-90450000D01*
X25925812Y-90325518D01*
X25889502Y-90205820D01*
X25830537Y-90095506D01*
X25751185Y-89998815D01*
X25654494Y-89919463D01*
X25544180Y-89860498D01*
X25424482Y-89824188D01*
X25300000Y-89811928D01*
X25144614Y-89812399D01*
X25233491Y-89753013D01*
X25503013Y-89483491D01*
X25714775Y-89166566D01*
X25860639Y-88814419D01*
X25935000Y-88440581D01*
X25935000Y-88059419D01*
X25860639Y-87685581D01*
X25714775Y-87333434D01*
X25503013Y-87016509D01*
X25436504Y-86950000D01*
X64061928Y-86950000D01*
X64061928Y-89550000D01*
X64074188Y-89674482D01*
X64110498Y-89794180D01*
X64169463Y-89904494D01*
X64248815Y-90001185D01*
X64345506Y-90080537D01*
X64455820Y-90139502D01*
X64575518Y-90175812D01*
X64700000Y-90188072D01*
X64854682Y-90188072D01*
X64766509Y-90246987D01*
X64496987Y-90516509D01*
X64285225Y-90833434D01*
X64139361Y-91185581D01*
X64065000Y-91559419D01*
X64065000Y-91940581D01*
X64139361Y-92314419D01*
X64285225Y-92666566D01*
X64496987Y-92983491D01*
X64766509Y-93253013D01*
X65083434Y-93464775D01*
X65435581Y-93610639D01*
X65809419Y-93685000D01*
X66190581Y-93685000D01*
X66564419Y-93610639D01*
X66916566Y-93464775D01*
X67233491Y-93253013D01*
X67503013Y-92983491D01*
X67714775Y-92666566D01*
X67860639Y-92314419D01*
X67935000Y-91940581D01*
X67935000Y-91559419D01*
X67860639Y-91185581D01*
X67714775Y-90833434D01*
X67503013Y-90516509D01*
X67233491Y-90246987D01*
X67145318Y-90188072D01*
X67300000Y-90188072D01*
X67424482Y-90175812D01*
X67544180Y-90139502D01*
X67654494Y-90080537D01*
X67751185Y-90001185D01*
X67830537Y-89904494D01*
X67889502Y-89794180D01*
X67925812Y-89674482D01*
X67938072Y-89550000D01*
X67938072Y-86950000D01*
X67925812Y-86825518D01*
X67889502Y-86705820D01*
X67830537Y-86595506D01*
X67751185Y-86498815D01*
X67654494Y-86419463D01*
X67544180Y-86360498D01*
X67424482Y-86324188D01*
X67300000Y-86311928D01*
X64700000Y-86311928D01*
X64575518Y-86324188D01*
X64455820Y-86360498D01*
X64345506Y-86419463D01*
X64248815Y-86498815D01*
X64169463Y-86595506D01*
X64110498Y-86705820D01*
X64074188Y-86825518D01*
X64061928Y-86950000D01*
X25436504Y-86950000D01*
X25233491Y-86746987D01*
X24916566Y-86535225D01*
X24564419Y-86389361D01*
X24190581Y-86315000D01*
X23809419Y-86315000D01*
X23435581Y-86389361D01*
X23083434Y-86535225D01*
X22766509Y-86746987D01*
X22496987Y-87016509D01*
X22285225Y-87333434D01*
X22139361Y-87685581D01*
X22065000Y-88059419D01*
X22065000Y-88440581D01*
X22139361Y-88814419D01*
X22285225Y-89166566D01*
X22496987Y-89483491D01*
X22766509Y-89753013D01*
X22855386Y-89812399D01*
X22700000Y-89811928D01*
X22575518Y-89824188D01*
X22455820Y-89860498D01*
X22345506Y-89919463D01*
X22248815Y-89998815D01*
X22169463Y-90095506D01*
X22110498Y-90205820D01*
X22074188Y-90325518D01*
X22061928Y-90450000D01*
X20660000Y-90450000D01*
X20660000Y-81450000D01*
X22061928Y-81450000D01*
X22061928Y-84050000D01*
X22074188Y-84174482D01*
X22110498Y-84294180D01*
X22169463Y-84404494D01*
X22248815Y-84501185D01*
X22345506Y-84580537D01*
X22455820Y-84639502D01*
X22575518Y-84675812D01*
X22700000Y-84688072D01*
X25300000Y-84688072D01*
X25424482Y-84675812D01*
X25544180Y-84639502D01*
X25654494Y-84580537D01*
X25751185Y-84501185D01*
X25830537Y-84404494D01*
X25889502Y-84294180D01*
X25925812Y-84174482D01*
X25938072Y-84050000D01*
X25938072Y-81604001D01*
X38356964Y-81604001D01*
X38356964Y-81807879D01*
X38396738Y-82007838D01*
X38474759Y-82196196D01*
X38588027Y-82365714D01*
X38732190Y-82509877D01*
X38901708Y-82623145D01*
X39090066Y-82701166D01*
X39290025Y-82740940D01*
X39493903Y-82740940D01*
X39693862Y-82701166D01*
X39882220Y-82623145D01*
X40051738Y-82509877D01*
X40195901Y-82365714D01*
X40309169Y-82196196D01*
X40387190Y-82007838D01*
X40389134Y-81998061D01*
X42965000Y-81998061D01*
X42965000Y-82201939D01*
X43004774Y-82401898D01*
X43082795Y-82590256D01*
X43196063Y-82759774D01*
X43340226Y-82903937D01*
X43509744Y-83017205D01*
X43698102Y-83095226D01*
X43898061Y-83135000D01*
X44101939Y-83135000D01*
X44301898Y-83095226D01*
X44490256Y-83017205D01*
X44659774Y-82903937D01*
X44803937Y-82759774D01*
X44917205Y-82590256D01*
X44995226Y-82401898D01*
X45035000Y-82201939D01*
X45035000Y-81998061D01*
X44995226Y-81798102D01*
X44917205Y-81609744D01*
X44803937Y-81440226D01*
X44659774Y-81296063D01*
X44490256Y-81182795D01*
X44301898Y-81104774D01*
X44101939Y-81065000D01*
X43898061Y-81065000D01*
X43698102Y-81104774D01*
X43509744Y-81182795D01*
X43340226Y-81296063D01*
X43196063Y-81440226D01*
X43082795Y-81609744D01*
X43004774Y-81798102D01*
X42965000Y-81998061D01*
X40389134Y-81998061D01*
X40426964Y-81807879D01*
X40426964Y-81604001D01*
X40387190Y-81404042D01*
X40309169Y-81215684D01*
X40195901Y-81046166D01*
X40051738Y-80902003D01*
X39882220Y-80788735D01*
X39693862Y-80710714D01*
X39493903Y-80670940D01*
X39290025Y-80670940D01*
X39090066Y-80710714D01*
X38901708Y-80788735D01*
X38732190Y-80902003D01*
X38588027Y-81046166D01*
X38474759Y-81215684D01*
X38396738Y-81404042D01*
X38356964Y-81604001D01*
X25938072Y-81604001D01*
X25938072Y-81450000D01*
X25925812Y-81325518D01*
X25889502Y-81205820D01*
X25830537Y-81095506D01*
X25751185Y-80998815D01*
X25654494Y-80919463D01*
X25544180Y-80860498D01*
X25424482Y-80824188D01*
X25300000Y-80811928D01*
X25145318Y-80811928D01*
X25233491Y-80753013D01*
X25503013Y-80483491D01*
X25714775Y-80166566D01*
X25860639Y-79814419D01*
X25913589Y-79548221D01*
X34939840Y-79548221D01*
X34939840Y-79752099D01*
X34979614Y-79952058D01*
X35057635Y-80140416D01*
X35170903Y-80309934D01*
X35315066Y-80454097D01*
X35484584Y-80567365D01*
X35672942Y-80645386D01*
X35872901Y-80685160D01*
X36076779Y-80685160D01*
X36276738Y-80645386D01*
X36465096Y-80567365D01*
X36634614Y-80454097D01*
X36778777Y-80309934D01*
X36892045Y-80140416D01*
X36970066Y-79952058D01*
X37009840Y-79752099D01*
X37009840Y-79548221D01*
X36970066Y-79348262D01*
X36892045Y-79159904D01*
X36806634Y-79032077D01*
X36828937Y-79009774D01*
X36942205Y-78840256D01*
X37020226Y-78651898D01*
X37060000Y-78451939D01*
X37060000Y-78248061D01*
X37050055Y-78198061D01*
X37665000Y-78198061D01*
X37665000Y-78401939D01*
X37704774Y-78601898D01*
X37782795Y-78790256D01*
X37896063Y-78959774D01*
X38040226Y-79103937D01*
X38209744Y-79217205D01*
X38398102Y-79295226D01*
X38598061Y-79335000D01*
X38801939Y-79335000D01*
X39001898Y-79295226D01*
X39190256Y-79217205D01*
X39359774Y-79103937D01*
X39503937Y-78959774D01*
X39617205Y-78790256D01*
X39695226Y-78601898D01*
X39735000Y-78401939D01*
X39735000Y-78198061D01*
X39695226Y-77998102D01*
X39617205Y-77809744D01*
X39542582Y-77698061D01*
X43465000Y-77698061D01*
X43465000Y-77901939D01*
X43504774Y-78101898D01*
X43582795Y-78290256D01*
X43696063Y-78459774D01*
X43840226Y-78603937D01*
X44009744Y-78717205D01*
X44198102Y-78795226D01*
X44398061Y-78835000D01*
X44601939Y-78835000D01*
X44801898Y-78795226D01*
X44990256Y-78717205D01*
X45159774Y-78603937D01*
X45303937Y-78459774D01*
X45417205Y-78290256D01*
X45495226Y-78101898D01*
X45525440Y-77950000D01*
X64061928Y-77950000D01*
X64061928Y-80550000D01*
X64074188Y-80674482D01*
X64110498Y-80794180D01*
X64169463Y-80904494D01*
X64248815Y-81001185D01*
X64345506Y-81080537D01*
X64455820Y-81139502D01*
X64575518Y-81175812D01*
X64700000Y-81188072D01*
X64854682Y-81188072D01*
X64766509Y-81246987D01*
X64496987Y-81516509D01*
X64285225Y-81833434D01*
X64139361Y-82185581D01*
X64065000Y-82559419D01*
X64065000Y-82940581D01*
X64139361Y-83314419D01*
X64285225Y-83666566D01*
X64496987Y-83983491D01*
X64766509Y-84253013D01*
X65083434Y-84464775D01*
X65435581Y-84610639D01*
X65809419Y-84685000D01*
X66190581Y-84685000D01*
X66564419Y-84610639D01*
X66916566Y-84464775D01*
X67233491Y-84253013D01*
X67503013Y-83983491D01*
X67714775Y-83666566D01*
X67860639Y-83314419D01*
X67935000Y-82940581D01*
X67935000Y-82559419D01*
X67860639Y-82185581D01*
X67714775Y-81833434D01*
X67503013Y-81516509D01*
X67233491Y-81246987D01*
X67145318Y-81188072D01*
X67300000Y-81188072D01*
X67424482Y-81175812D01*
X67544180Y-81139502D01*
X67654494Y-81080537D01*
X67751185Y-81001185D01*
X67830537Y-80904494D01*
X67889502Y-80794180D01*
X67925812Y-80674482D01*
X67938072Y-80550000D01*
X67938072Y-77950000D01*
X67925812Y-77825518D01*
X67889502Y-77705820D01*
X67830537Y-77595506D01*
X67751185Y-77498815D01*
X67654494Y-77419463D01*
X67544180Y-77360498D01*
X67424482Y-77324188D01*
X67300000Y-77311928D01*
X64700000Y-77311928D01*
X64575518Y-77324188D01*
X64455820Y-77360498D01*
X64345506Y-77419463D01*
X64248815Y-77498815D01*
X64169463Y-77595506D01*
X64110498Y-77705820D01*
X64074188Y-77825518D01*
X64061928Y-77950000D01*
X45525440Y-77950000D01*
X45535000Y-77901939D01*
X45535000Y-77698061D01*
X45495226Y-77498102D01*
X45417205Y-77309744D01*
X45303937Y-77140226D01*
X45159774Y-76996063D01*
X44990256Y-76882795D01*
X44801898Y-76804774D01*
X44601939Y-76765000D01*
X44398061Y-76765000D01*
X44198102Y-76804774D01*
X44009744Y-76882795D01*
X43840226Y-76996063D01*
X43696063Y-77140226D01*
X43582795Y-77309744D01*
X43504774Y-77498102D01*
X43465000Y-77698061D01*
X39542582Y-77698061D01*
X39503937Y-77640226D01*
X39359774Y-77496063D01*
X39190256Y-77382795D01*
X39001898Y-77304774D01*
X38801939Y-77265000D01*
X38598061Y-77265000D01*
X38398102Y-77304774D01*
X38209744Y-77382795D01*
X38040226Y-77496063D01*
X37896063Y-77640226D01*
X37782795Y-77809744D01*
X37704774Y-77998102D01*
X37665000Y-78198061D01*
X37050055Y-78198061D01*
X37020226Y-78048102D01*
X36942205Y-77859744D01*
X36828937Y-77690226D01*
X36684774Y-77546063D01*
X36515256Y-77432795D01*
X36326898Y-77354774D01*
X36126939Y-77315000D01*
X35923061Y-77315000D01*
X35723102Y-77354774D01*
X35534744Y-77432795D01*
X35365226Y-77546063D01*
X35221063Y-77690226D01*
X35107795Y-77859744D01*
X35029774Y-78048102D01*
X34990000Y-78248061D01*
X34990000Y-78451939D01*
X35029774Y-78651898D01*
X35107795Y-78840256D01*
X35193206Y-78968083D01*
X35170903Y-78990386D01*
X35057635Y-79159904D01*
X34979614Y-79348262D01*
X34939840Y-79548221D01*
X25913589Y-79548221D01*
X25935000Y-79440581D01*
X25935000Y-79059419D01*
X25860639Y-78685581D01*
X25714775Y-78333434D01*
X25503013Y-78016509D01*
X25233491Y-77746987D01*
X24916566Y-77535225D01*
X24564419Y-77389361D01*
X24190581Y-77315000D01*
X23809419Y-77315000D01*
X23435581Y-77389361D01*
X23083434Y-77535225D01*
X22766509Y-77746987D01*
X22496987Y-78016509D01*
X22285225Y-78333434D01*
X22139361Y-78685581D01*
X22065000Y-79059419D01*
X22065000Y-79440581D01*
X22139361Y-79814419D01*
X22285225Y-80166566D01*
X22496987Y-80483491D01*
X22766509Y-80753013D01*
X22854682Y-80811928D01*
X22700000Y-80811928D01*
X22575518Y-80824188D01*
X22455820Y-80860498D01*
X22345506Y-80919463D01*
X22248815Y-80998815D01*
X22169463Y-81095506D01*
X22110498Y-81205820D01*
X22074188Y-81325518D01*
X22061928Y-81450000D01*
X20660000Y-81450000D01*
X20660000Y-75050000D01*
X22061928Y-75050000D01*
X22074188Y-75174482D01*
X22110498Y-75294180D01*
X22169463Y-75404494D01*
X22248815Y-75501185D01*
X22345506Y-75580537D01*
X22455820Y-75639502D01*
X22575518Y-75675812D01*
X22700000Y-75688072D01*
X23714250Y-75685000D01*
X23873000Y-75526250D01*
X23873000Y-73877000D01*
X24127000Y-73877000D01*
X24127000Y-75526250D01*
X24285750Y-75685000D01*
X25300000Y-75688072D01*
X25424482Y-75675812D01*
X25544180Y-75639502D01*
X25654494Y-75580537D01*
X25751185Y-75501185D01*
X25830537Y-75404494D01*
X25889502Y-75294180D01*
X25925812Y-75174482D01*
X25938072Y-75050000D01*
X25935000Y-74035750D01*
X25776250Y-73877000D01*
X24127000Y-73877000D01*
X23873000Y-73877000D01*
X22223750Y-73877000D01*
X22065000Y-74035750D01*
X22061928Y-75050000D01*
X20660000Y-75050000D01*
X20660000Y-73800879D01*
X61562182Y-73800879D01*
X61562182Y-74004757D01*
X61601956Y-74204716D01*
X61679977Y-74393074D01*
X61793245Y-74562592D01*
X61937408Y-74706755D01*
X62106926Y-74820023D01*
X62295284Y-74898044D01*
X62495243Y-74937818D01*
X62699121Y-74937818D01*
X62899080Y-74898044D01*
X63087438Y-74820023D01*
X63256956Y-74706755D01*
X63401119Y-74562592D01*
X63514387Y-74393074D01*
X63592408Y-74204716D01*
X63632182Y-74004757D01*
X63632182Y-73800879D01*
X63592408Y-73600920D01*
X63514387Y-73412562D01*
X63401119Y-73243044D01*
X63256956Y-73098881D01*
X63087438Y-72985613D01*
X62899080Y-72907592D01*
X62699121Y-72867818D01*
X62495243Y-72867818D01*
X62295284Y-72907592D01*
X62106926Y-72985613D01*
X61937408Y-73098881D01*
X61793245Y-73243044D01*
X61679977Y-73412562D01*
X61601956Y-73600920D01*
X61562182Y-73800879D01*
X20660000Y-73800879D01*
X20660000Y-72450000D01*
X22061928Y-72450000D01*
X22065000Y-73464250D01*
X22223750Y-73623000D01*
X23873000Y-73623000D01*
X23873000Y-73603000D01*
X24127000Y-73603000D01*
X24127000Y-73623000D01*
X25776250Y-73623000D01*
X25935000Y-73464250D01*
X25938072Y-72450000D01*
X25936912Y-72438212D01*
X32165000Y-72438212D01*
X32165000Y-72661788D01*
X32208617Y-72881067D01*
X32294176Y-73087624D01*
X32418388Y-73273520D01*
X32576480Y-73431612D01*
X32762376Y-73555824D01*
X32968933Y-73641383D01*
X33188212Y-73685000D01*
X33411788Y-73685000D01*
X33631067Y-73641383D01*
X33837624Y-73555824D01*
X34023520Y-73431612D01*
X34181612Y-73273520D01*
X34305824Y-73087624D01*
X34391383Y-72881067D01*
X34435000Y-72661788D01*
X34435000Y-72438212D01*
X34426719Y-72396576D01*
X37140010Y-72396576D01*
X37140010Y-72620152D01*
X37183627Y-72839431D01*
X37269186Y-73045988D01*
X37393398Y-73231884D01*
X37551490Y-73389976D01*
X37737386Y-73514188D01*
X37943943Y-73599747D01*
X38163222Y-73643364D01*
X38386798Y-73643364D01*
X38606077Y-73599747D01*
X38812634Y-73514188D01*
X38998530Y-73389976D01*
X39156622Y-73231884D01*
X39280834Y-73045988D01*
X39366393Y-72839431D01*
X39410010Y-72620152D01*
X39410010Y-72396576D01*
X41006636Y-72396576D01*
X41006636Y-72620152D01*
X41050253Y-72839431D01*
X41135812Y-73045988D01*
X41260024Y-73231884D01*
X41418116Y-73389976D01*
X41604012Y-73514188D01*
X41810569Y-73599747D01*
X42029848Y-73643364D01*
X42253424Y-73643364D01*
X42472703Y-73599747D01*
X42679260Y-73514188D01*
X42865156Y-73389976D01*
X43023248Y-73231884D01*
X43147460Y-73045988D01*
X43233019Y-72839431D01*
X43276636Y-72620152D01*
X43276636Y-72396576D01*
X43233019Y-72177297D01*
X43147460Y-71970740D01*
X43023248Y-71784844D01*
X42865156Y-71626752D01*
X42679260Y-71502540D01*
X42472703Y-71416981D01*
X42253424Y-71373364D01*
X42029848Y-71373364D01*
X41810569Y-71416981D01*
X41604012Y-71502540D01*
X41418116Y-71626752D01*
X41260024Y-71784844D01*
X41135812Y-71970740D01*
X41050253Y-72177297D01*
X41006636Y-72396576D01*
X39410010Y-72396576D01*
X39366393Y-72177297D01*
X39280834Y-71970740D01*
X39156622Y-71784844D01*
X38998530Y-71626752D01*
X38812634Y-71502540D01*
X38606077Y-71416981D01*
X38386798Y-71373364D01*
X38163222Y-71373364D01*
X37943943Y-71416981D01*
X37737386Y-71502540D01*
X37551490Y-71626752D01*
X37393398Y-71784844D01*
X37269186Y-71970740D01*
X37183627Y-72177297D01*
X37140010Y-72396576D01*
X34426719Y-72396576D01*
X34391383Y-72218933D01*
X34305824Y-72012376D01*
X34181612Y-71826480D01*
X34023520Y-71668388D01*
X33837624Y-71544176D01*
X33631067Y-71458617D01*
X33411788Y-71415000D01*
X33188212Y-71415000D01*
X32968933Y-71458617D01*
X32762376Y-71544176D01*
X32576480Y-71668388D01*
X32418388Y-71826480D01*
X32294176Y-72012376D01*
X32208617Y-72218933D01*
X32165000Y-72438212D01*
X25936912Y-72438212D01*
X25925812Y-72325518D01*
X25889502Y-72205820D01*
X25830537Y-72095506D01*
X25751185Y-71998815D01*
X25654494Y-71919463D01*
X25544180Y-71860498D01*
X25424482Y-71824188D01*
X25300000Y-71811928D01*
X25144614Y-71812399D01*
X25233491Y-71753013D01*
X25503013Y-71483491D01*
X25714775Y-71166566D01*
X25860639Y-70814419D01*
X25935000Y-70440581D01*
X25935000Y-70338212D01*
X43115000Y-70338212D01*
X43115000Y-70561788D01*
X43158617Y-70781067D01*
X43244176Y-70987624D01*
X43368388Y-71173520D01*
X43526480Y-71331612D01*
X43712376Y-71455824D01*
X43918933Y-71541383D01*
X44138212Y-71585000D01*
X44361788Y-71585000D01*
X44581067Y-71541383D01*
X44787624Y-71455824D01*
X44973520Y-71331612D01*
X45131612Y-71173520D01*
X45255824Y-70987624D01*
X45341383Y-70781067D01*
X45367839Y-70648061D01*
X61465000Y-70648061D01*
X61465000Y-70851939D01*
X61504774Y-71051898D01*
X61582795Y-71240256D01*
X61696063Y-71409774D01*
X61840226Y-71553937D01*
X62009744Y-71667205D01*
X62198102Y-71745226D01*
X62398061Y-71785000D01*
X62601939Y-71785000D01*
X62801898Y-71745226D01*
X62990256Y-71667205D01*
X63159774Y-71553937D01*
X63303937Y-71409774D01*
X63417205Y-71240256D01*
X63495226Y-71051898D01*
X63535000Y-70851939D01*
X63535000Y-70648061D01*
X63495226Y-70448102D01*
X63417205Y-70259744D01*
X63303937Y-70090226D01*
X63159774Y-69946063D01*
X62990256Y-69832795D01*
X62801898Y-69754774D01*
X62601939Y-69715000D01*
X62398061Y-69715000D01*
X62198102Y-69754774D01*
X62009744Y-69832795D01*
X61840226Y-69946063D01*
X61696063Y-70090226D01*
X61582795Y-70259744D01*
X61504774Y-70448102D01*
X61465000Y-70648061D01*
X45367839Y-70648061D01*
X45385000Y-70561788D01*
X45385000Y-70338212D01*
X45341383Y-70118933D01*
X45255824Y-69912376D01*
X45131612Y-69726480D01*
X44973520Y-69568388D01*
X44787624Y-69444176D01*
X44581067Y-69358617D01*
X44361788Y-69315000D01*
X44138212Y-69315000D01*
X43918933Y-69358617D01*
X43712376Y-69444176D01*
X43526480Y-69568388D01*
X43368388Y-69726480D01*
X43244176Y-69912376D01*
X43158617Y-70118933D01*
X43115000Y-70338212D01*
X25935000Y-70338212D01*
X25935000Y-70059419D01*
X25860639Y-69685581D01*
X25714775Y-69333434D01*
X25503013Y-69016509D01*
X25436504Y-68950000D01*
X64061928Y-68950000D01*
X64061928Y-71550000D01*
X64074188Y-71674482D01*
X64110498Y-71794180D01*
X64169463Y-71904494D01*
X64248815Y-72001185D01*
X64345506Y-72080537D01*
X64455820Y-72139502D01*
X64575518Y-72175812D01*
X64700000Y-72188072D01*
X64854682Y-72188072D01*
X64766509Y-72246987D01*
X64496987Y-72516509D01*
X64285225Y-72833434D01*
X64139361Y-73185581D01*
X64065000Y-73559419D01*
X64065000Y-73940581D01*
X64139361Y-74314419D01*
X64285225Y-74666566D01*
X64496987Y-74983491D01*
X64766509Y-75253013D01*
X65083434Y-75464775D01*
X65435581Y-75610639D01*
X65809419Y-75685000D01*
X66190581Y-75685000D01*
X66564419Y-75610639D01*
X66916566Y-75464775D01*
X67233491Y-75253013D01*
X67503013Y-74983491D01*
X67714775Y-74666566D01*
X67860639Y-74314419D01*
X67935000Y-73940581D01*
X67935000Y-73559419D01*
X67860639Y-73185581D01*
X67714775Y-72833434D01*
X67503013Y-72516509D01*
X67233491Y-72246987D01*
X67145318Y-72188072D01*
X67300000Y-72188072D01*
X67424482Y-72175812D01*
X67544180Y-72139502D01*
X67654494Y-72080537D01*
X67751185Y-72001185D01*
X67830537Y-71904494D01*
X67889502Y-71794180D01*
X67925812Y-71674482D01*
X67938072Y-71550000D01*
X67938072Y-68950000D01*
X67925812Y-68825518D01*
X67889502Y-68705820D01*
X67830537Y-68595506D01*
X67751185Y-68498815D01*
X67654494Y-68419463D01*
X67544180Y-68360498D01*
X67424482Y-68324188D01*
X67300000Y-68311928D01*
X64700000Y-68311928D01*
X64575518Y-68324188D01*
X64455820Y-68360498D01*
X64345506Y-68419463D01*
X64248815Y-68498815D01*
X64169463Y-68595506D01*
X64110498Y-68705820D01*
X64074188Y-68825518D01*
X64061928Y-68950000D01*
X25436504Y-68950000D01*
X25233491Y-68746987D01*
X24916566Y-68535225D01*
X24564419Y-68389361D01*
X24190581Y-68315000D01*
X23809419Y-68315000D01*
X23435581Y-68389361D01*
X23083434Y-68535225D01*
X22766509Y-68746987D01*
X22496987Y-69016509D01*
X22285225Y-69333434D01*
X22139361Y-69685581D01*
X22065000Y-70059419D01*
X22065000Y-70440581D01*
X22139361Y-70814419D01*
X22285225Y-71166566D01*
X22496987Y-71483491D01*
X22766509Y-71753013D01*
X22855386Y-71812399D01*
X22700000Y-71811928D01*
X22575518Y-71824188D01*
X22455820Y-71860498D01*
X22345506Y-71919463D01*
X22248815Y-71998815D01*
X22169463Y-72095506D01*
X22110498Y-72205820D01*
X22074188Y-72325518D01*
X22061928Y-72450000D01*
X20660000Y-72450000D01*
X20660000Y-63498061D01*
X26915000Y-63498061D01*
X26915000Y-63701939D01*
X26954774Y-63901898D01*
X27032795Y-64090256D01*
X27146063Y-64259774D01*
X27290226Y-64403937D01*
X27459744Y-64517205D01*
X27648102Y-64595226D01*
X27848061Y-64635000D01*
X28051939Y-64635000D01*
X28251898Y-64595226D01*
X28440256Y-64517205D01*
X28468907Y-64498061D01*
X34265000Y-64498061D01*
X34265000Y-64701939D01*
X34304774Y-64901898D01*
X34382795Y-65090256D01*
X34496063Y-65259774D01*
X34640226Y-65403937D01*
X34809744Y-65517205D01*
X34998102Y-65595226D01*
X35198061Y-65635000D01*
X35401939Y-65635000D01*
X35601898Y-65595226D01*
X35790256Y-65517205D01*
X35959774Y-65403937D01*
X36103937Y-65259774D01*
X36217205Y-65090256D01*
X36295226Y-64901898D01*
X36335000Y-64701939D01*
X36335000Y-64498061D01*
X36295226Y-64298102D01*
X36217205Y-64109744D01*
X36103937Y-63940226D01*
X35959774Y-63796063D01*
X35790256Y-63682795D01*
X35601898Y-63604774D01*
X35401939Y-63565000D01*
X35198061Y-63565000D01*
X34998102Y-63604774D01*
X34809744Y-63682795D01*
X34640226Y-63796063D01*
X34496063Y-63940226D01*
X34382795Y-64109744D01*
X34304774Y-64298102D01*
X34265000Y-64498061D01*
X28468907Y-64498061D01*
X28609774Y-64403937D01*
X28753937Y-64259774D01*
X28867205Y-64090256D01*
X28945226Y-63901898D01*
X28985000Y-63701939D01*
X28985000Y-63498061D01*
X28945226Y-63298102D01*
X28867205Y-63109744D01*
X28753937Y-62940226D01*
X28609774Y-62796063D01*
X28440256Y-62682795D01*
X28251898Y-62604774D01*
X28051939Y-62565000D01*
X27848061Y-62565000D01*
X27648102Y-62604774D01*
X27459744Y-62682795D01*
X27290226Y-62796063D01*
X27146063Y-62940226D01*
X27032795Y-63109744D01*
X26954774Y-63298102D01*
X26915000Y-63498061D01*
X20660000Y-63498061D01*
X20660000Y-61988212D01*
X41115000Y-61988212D01*
X41115000Y-62211788D01*
X41158617Y-62431067D01*
X41244176Y-62637624D01*
X41368388Y-62823520D01*
X41526480Y-62981612D01*
X41712376Y-63105824D01*
X41918933Y-63191383D01*
X42138212Y-63235000D01*
X42361788Y-63235000D01*
X42581067Y-63191383D01*
X42787624Y-63105824D01*
X42973520Y-62981612D01*
X42979672Y-62975460D01*
X43148102Y-63045226D01*
X43348061Y-63085000D01*
X43551939Y-63085000D01*
X43751898Y-63045226D01*
X43940256Y-62967205D01*
X44109774Y-62853937D01*
X44253937Y-62709774D01*
X44367205Y-62540256D01*
X44445226Y-62351898D01*
X44485000Y-62151939D01*
X44485000Y-61948063D01*
X45014998Y-61948063D01*
X45014998Y-62151941D01*
X45054772Y-62351900D01*
X45132793Y-62540258D01*
X45246061Y-62709776D01*
X45390224Y-62853939D01*
X45559742Y-62967207D01*
X45748100Y-63045228D01*
X45948059Y-63085002D01*
X46151937Y-63085002D01*
X46351896Y-63045228D01*
X46540254Y-62967207D01*
X46709772Y-62853939D01*
X46853935Y-62709776D01*
X46960693Y-62550000D01*
X64061928Y-62550000D01*
X64074188Y-62674482D01*
X64110498Y-62794180D01*
X64169463Y-62904494D01*
X64248815Y-63001185D01*
X64345506Y-63080537D01*
X64455820Y-63139502D01*
X64575518Y-63175812D01*
X64700000Y-63188072D01*
X64855386Y-63187601D01*
X64766509Y-63246987D01*
X64496987Y-63516509D01*
X64285225Y-63833434D01*
X64139361Y-64185581D01*
X64065000Y-64559419D01*
X64065000Y-64940581D01*
X64139361Y-65314419D01*
X64285225Y-65666566D01*
X64496987Y-65983491D01*
X64766509Y-66253013D01*
X65083434Y-66464775D01*
X65435581Y-66610639D01*
X65809419Y-66685000D01*
X66190581Y-66685000D01*
X66564419Y-66610639D01*
X66916566Y-66464775D01*
X67233491Y-66253013D01*
X67503013Y-65983491D01*
X67714775Y-65666566D01*
X67860639Y-65314419D01*
X67935000Y-64940581D01*
X67935000Y-64559419D01*
X67860639Y-64185581D01*
X67714775Y-63833434D01*
X67503013Y-63516509D01*
X67233491Y-63246987D01*
X67144614Y-63187601D01*
X67300000Y-63188072D01*
X67424482Y-63175812D01*
X67544180Y-63139502D01*
X67654494Y-63080537D01*
X67751185Y-63001185D01*
X67830537Y-62904494D01*
X67889502Y-62794180D01*
X67925812Y-62674482D01*
X67938072Y-62550000D01*
X67935000Y-61535750D01*
X67776250Y-61377000D01*
X66127000Y-61377000D01*
X66127000Y-61397000D01*
X65873000Y-61397000D01*
X65873000Y-61377000D01*
X64223750Y-61377000D01*
X64065000Y-61535750D01*
X64061928Y-62550000D01*
X46960693Y-62550000D01*
X46967203Y-62540258D01*
X47045224Y-62351900D01*
X47084998Y-62151941D01*
X47084998Y-61948063D01*
X47045224Y-61748104D01*
X46967203Y-61559746D01*
X46853935Y-61390228D01*
X46709772Y-61246065D01*
X46540254Y-61132797D01*
X46351896Y-61054776D01*
X46151937Y-61015002D01*
X45948059Y-61015002D01*
X45748100Y-61054776D01*
X45559742Y-61132797D01*
X45390224Y-61246065D01*
X45246061Y-61390228D01*
X45132793Y-61559746D01*
X45054772Y-61748104D01*
X45014998Y-61948063D01*
X44485000Y-61948063D01*
X44485000Y-61948061D01*
X44445226Y-61748102D01*
X44367205Y-61559744D01*
X44253937Y-61390226D01*
X44109774Y-61246063D01*
X43940256Y-61132795D01*
X43751898Y-61054774D01*
X43551939Y-61015000D01*
X43348061Y-61015000D01*
X43148102Y-61054774D01*
X42959744Y-61132795D01*
X42902583Y-61170989D01*
X42787624Y-61094176D01*
X42581067Y-61008617D01*
X42361788Y-60965000D01*
X42138212Y-60965000D01*
X41918933Y-61008617D01*
X41712376Y-61094176D01*
X41526480Y-61218388D01*
X41368388Y-61376480D01*
X41244176Y-61562376D01*
X41158617Y-61768933D01*
X41115000Y-61988212D01*
X20660000Y-61988212D01*
X20660000Y-58908100D01*
X27953180Y-58908100D01*
X27953180Y-59111978D01*
X27992954Y-59311937D01*
X28070975Y-59500295D01*
X28184243Y-59669813D01*
X28328406Y-59813976D01*
X28497924Y-59927244D01*
X28686282Y-60005265D01*
X28886241Y-60045039D01*
X29090119Y-60045039D01*
X29290078Y-60005265D01*
X29478436Y-59927244D01*
X29647954Y-59813976D01*
X29792117Y-59669813D01*
X29905385Y-59500295D01*
X29983406Y-59311937D01*
X30023180Y-59111978D01*
X30023180Y-58908100D01*
X30021184Y-58898061D01*
X33365000Y-58898061D01*
X33365000Y-59101939D01*
X33404774Y-59301898D01*
X33482795Y-59490256D01*
X33596063Y-59659774D01*
X33740226Y-59803937D01*
X33909744Y-59917205D01*
X34098102Y-59995226D01*
X34298061Y-60035000D01*
X34501939Y-60035000D01*
X34701898Y-59995226D01*
X34890256Y-59917205D01*
X35059774Y-59803937D01*
X35203937Y-59659774D01*
X35317205Y-59490256D01*
X35329438Y-59460721D01*
X44502340Y-59460721D01*
X44502340Y-59664599D01*
X44542114Y-59864558D01*
X44620135Y-60052916D01*
X44733403Y-60222434D01*
X44877566Y-60366597D01*
X45047084Y-60479865D01*
X45235442Y-60557886D01*
X45435401Y-60597660D01*
X45639279Y-60597660D01*
X45839238Y-60557886D01*
X46027596Y-60479865D01*
X46197114Y-60366597D01*
X46341277Y-60222434D01*
X46454545Y-60052916D01*
X46497174Y-59950000D01*
X64061928Y-59950000D01*
X64065000Y-60964250D01*
X64223750Y-61123000D01*
X65873000Y-61123000D01*
X65873000Y-59473750D01*
X66127000Y-59473750D01*
X66127000Y-61123000D01*
X67776250Y-61123000D01*
X67935000Y-60964250D01*
X67938072Y-59950000D01*
X67925812Y-59825518D01*
X67889502Y-59705820D01*
X67830537Y-59595506D01*
X67751185Y-59498815D01*
X67654494Y-59419463D01*
X67544180Y-59360498D01*
X67424482Y-59324188D01*
X67300000Y-59311928D01*
X66285750Y-59315000D01*
X66127000Y-59473750D01*
X65873000Y-59473750D01*
X65714250Y-59315000D01*
X64700000Y-59311928D01*
X64575518Y-59324188D01*
X64455820Y-59360498D01*
X64345506Y-59419463D01*
X64248815Y-59498815D01*
X64169463Y-59595506D01*
X64110498Y-59705820D01*
X64074188Y-59825518D01*
X64061928Y-59950000D01*
X46497174Y-59950000D01*
X46532566Y-59864558D01*
X46572340Y-59664599D01*
X46572340Y-59460721D01*
X46532566Y-59260762D01*
X46454545Y-59072404D01*
X46341277Y-58902886D01*
X46197114Y-58758723D01*
X46027596Y-58645455D01*
X45839238Y-58567434D01*
X45639279Y-58527660D01*
X45435401Y-58527660D01*
X45235442Y-58567434D01*
X45047084Y-58645455D01*
X44877566Y-58758723D01*
X44733403Y-58902886D01*
X44620135Y-59072404D01*
X44542114Y-59260762D01*
X44502340Y-59460721D01*
X35329438Y-59460721D01*
X35395226Y-59301898D01*
X35435000Y-59101939D01*
X35435000Y-58941866D01*
X35615246Y-58867205D01*
X35784764Y-58753937D01*
X35928927Y-58609774D01*
X36042195Y-58440256D01*
X36120216Y-58251898D01*
X36159990Y-58051939D01*
X36159990Y-57848061D01*
X36120216Y-57648102D01*
X36042195Y-57459744D01*
X35928927Y-57290226D01*
X35786762Y-57148061D01*
X36764980Y-57148061D01*
X36764980Y-57351939D01*
X36804754Y-57551898D01*
X36882775Y-57740256D01*
X36996043Y-57909774D01*
X37140206Y-58053937D01*
X37309724Y-58167205D01*
X37498082Y-58245226D01*
X37698041Y-58285000D01*
X37901919Y-58285000D01*
X38101878Y-58245226D01*
X38290236Y-58167205D01*
X38459754Y-58053937D01*
X38603917Y-57909774D01*
X38717185Y-57740256D01*
X38795206Y-57551898D01*
X38834980Y-57351939D01*
X38834980Y-57148061D01*
X38795206Y-56948102D01*
X38795190Y-56948061D01*
X39490044Y-56948061D01*
X39490044Y-57151939D01*
X39529818Y-57351898D01*
X39607839Y-57540256D01*
X39721107Y-57709774D01*
X39865270Y-57853937D01*
X40034788Y-57967205D01*
X40223146Y-58045226D01*
X40423105Y-58085000D01*
X40592721Y-58085000D01*
X40577659Y-58160722D01*
X40577659Y-58364600D01*
X40617433Y-58564559D01*
X40695454Y-58752917D01*
X40808722Y-58922435D01*
X40952885Y-59066598D01*
X41122403Y-59179866D01*
X41310761Y-59257887D01*
X41510720Y-59297661D01*
X41714598Y-59297661D01*
X41914557Y-59257887D01*
X42102915Y-59179866D01*
X42272433Y-59066598D01*
X42416596Y-58922435D01*
X42529864Y-58752917D01*
X42607885Y-58564559D01*
X42647659Y-58364600D01*
X42647659Y-58160722D01*
X42607885Y-57960763D01*
X42601786Y-57946039D01*
X42725741Y-57921383D01*
X42914099Y-57843362D01*
X43083617Y-57730094D01*
X43227780Y-57585931D01*
X43341048Y-57416413D01*
X43419069Y-57228055D01*
X43458843Y-57028096D01*
X43458843Y-56824218D01*
X43419069Y-56624259D01*
X43414237Y-56612594D01*
X43455171Y-56673856D01*
X43599334Y-56818019D01*
X43768852Y-56931287D01*
X43957210Y-57009308D01*
X44157169Y-57049082D01*
X44361047Y-57049082D01*
X44561006Y-57009308D01*
X44749364Y-56931287D01*
X44918882Y-56818019D01*
X45063045Y-56673856D01*
X45176313Y-56504338D01*
X45254334Y-56315980D01*
X45294108Y-56116021D01*
X45294108Y-55912143D01*
X45254334Y-55712184D01*
X45176313Y-55523826D01*
X45063045Y-55354308D01*
X44918882Y-55210145D01*
X44900797Y-55198061D01*
X45765000Y-55198061D01*
X45765000Y-55401939D01*
X45804774Y-55601898D01*
X45882795Y-55790256D01*
X45996063Y-55959774D01*
X46140226Y-56103937D01*
X46309744Y-56217205D01*
X46498102Y-56295226D01*
X46698061Y-56335000D01*
X46901939Y-56335000D01*
X47101898Y-56295226D01*
X47290256Y-56217205D01*
X47459774Y-56103937D01*
X47603937Y-55959774D01*
X47717205Y-55790256D01*
X47795226Y-55601898D01*
X47835000Y-55401939D01*
X47835000Y-55198061D01*
X47795226Y-54998102D01*
X47717205Y-54809744D01*
X47603937Y-54640226D01*
X47459774Y-54496063D01*
X47313104Y-54398061D01*
X47715000Y-54398061D01*
X47715000Y-54601939D01*
X47754774Y-54801898D01*
X47832795Y-54990256D01*
X47946063Y-55159774D01*
X48090226Y-55303937D01*
X48259744Y-55417205D01*
X48448102Y-55495226D01*
X48648061Y-55535000D01*
X48851939Y-55535000D01*
X49051898Y-55495226D01*
X49240256Y-55417205D01*
X49409774Y-55303937D01*
X49553937Y-55159774D01*
X49667205Y-54990256D01*
X49745226Y-54801898D01*
X49785000Y-54601939D01*
X49785000Y-54398061D01*
X49745226Y-54198102D01*
X49709826Y-54112638D01*
X49749389Y-54073075D01*
X49862657Y-53903557D01*
X49940678Y-53715199D01*
X49980452Y-53515240D01*
X49980452Y-53311362D01*
X49940678Y-53111403D01*
X49862657Y-52923045D01*
X49749389Y-52753527D01*
X49605226Y-52609364D01*
X49435708Y-52496096D01*
X49247350Y-52418075D01*
X49047391Y-52378301D01*
X48843513Y-52378301D01*
X48643554Y-52418075D01*
X48455196Y-52496096D01*
X48285678Y-52609364D01*
X48141515Y-52753527D01*
X48028247Y-52923045D01*
X47950226Y-53111403D01*
X47910452Y-53311362D01*
X47910452Y-53515240D01*
X47950226Y-53715199D01*
X47985626Y-53800663D01*
X47946063Y-53840226D01*
X47832795Y-54009744D01*
X47754774Y-54198102D01*
X47715000Y-54398061D01*
X47313104Y-54398061D01*
X47290256Y-54382795D01*
X47101898Y-54304774D01*
X46901939Y-54265000D01*
X46698061Y-54265000D01*
X46498102Y-54304774D01*
X46309744Y-54382795D01*
X46140226Y-54496063D01*
X45996063Y-54640226D01*
X45882795Y-54809744D01*
X45804774Y-54998102D01*
X45765000Y-55198061D01*
X44900797Y-55198061D01*
X44749364Y-55096877D01*
X44561006Y-55018856D01*
X44361047Y-54979082D01*
X44157169Y-54979082D01*
X43957210Y-55018856D01*
X43768852Y-55096877D01*
X43599334Y-55210145D01*
X43455171Y-55354308D01*
X43341903Y-55523826D01*
X43263882Y-55712184D01*
X43224108Y-55912143D01*
X43224108Y-56116021D01*
X43263882Y-56315980D01*
X43268714Y-56327645D01*
X43227780Y-56266383D01*
X43083617Y-56122220D01*
X42914099Y-56008952D01*
X42725741Y-55930931D01*
X42525782Y-55891157D01*
X42321904Y-55891157D01*
X42121945Y-55930931D01*
X41933587Y-56008952D01*
X41764069Y-56122220D01*
X41619906Y-56266383D01*
X41506638Y-56435901D01*
X41448795Y-56575546D01*
X41442249Y-56559744D01*
X41328981Y-56390226D01*
X41184818Y-56246063D01*
X41015300Y-56132795D01*
X40826942Y-56054774D01*
X40626983Y-56015000D01*
X40423105Y-56015000D01*
X40223146Y-56054774D01*
X40034788Y-56132795D01*
X39865270Y-56246063D01*
X39721107Y-56390226D01*
X39607839Y-56559744D01*
X39529818Y-56748102D01*
X39490044Y-56948061D01*
X38795190Y-56948061D01*
X38717185Y-56759744D01*
X38603917Y-56590226D01*
X38459754Y-56446063D01*
X38290236Y-56332795D01*
X38101878Y-56254774D01*
X37901919Y-56215000D01*
X37698041Y-56215000D01*
X37498082Y-56254774D01*
X37309724Y-56332795D01*
X37140206Y-56446063D01*
X36996043Y-56590226D01*
X36882775Y-56759744D01*
X36804754Y-56948102D01*
X36764980Y-57148061D01*
X35786762Y-57148061D01*
X35784764Y-57146063D01*
X35615246Y-57032795D01*
X35426888Y-56954774D01*
X35226929Y-56915000D01*
X35023051Y-56915000D01*
X34823092Y-56954774D01*
X34634734Y-57032795D01*
X34465216Y-57146063D01*
X34321053Y-57290226D01*
X34207785Y-57459744D01*
X34129764Y-57648102D01*
X34089990Y-57848061D01*
X34089990Y-58008134D01*
X33909744Y-58082795D01*
X33740226Y-58196063D01*
X33596063Y-58340226D01*
X33482795Y-58509744D01*
X33404774Y-58698102D01*
X33365000Y-58898061D01*
X30021184Y-58898061D01*
X29983406Y-58708141D01*
X29915939Y-58545262D01*
X30051890Y-58518220D01*
X30240248Y-58440199D01*
X30409766Y-58326931D01*
X30553929Y-58182768D01*
X30667197Y-58013250D01*
X30745218Y-57824892D01*
X30784992Y-57624933D01*
X30784992Y-57421055D01*
X30745218Y-57221096D01*
X30667197Y-57032738D01*
X30553929Y-56863220D01*
X30409766Y-56719057D01*
X30240248Y-56605789D01*
X30051890Y-56527768D01*
X29851931Y-56487994D01*
X29648053Y-56487994D01*
X29448094Y-56527768D01*
X29259736Y-56605789D01*
X29090218Y-56719057D01*
X28946055Y-56863220D01*
X28832787Y-57032738D01*
X28754766Y-57221096D01*
X28714992Y-57421055D01*
X28714992Y-57624933D01*
X28754766Y-57824892D01*
X28822233Y-57987771D01*
X28686282Y-58014813D01*
X28497924Y-58092834D01*
X28328406Y-58206102D01*
X28184243Y-58350265D01*
X28070975Y-58519783D01*
X27992954Y-58708141D01*
X27953180Y-58908100D01*
X20660000Y-58908100D01*
X20660000Y-52998061D01*
X27964988Y-52998061D01*
X27964988Y-53201939D01*
X28004762Y-53401898D01*
X28082783Y-53590256D01*
X28196051Y-53759774D01*
X28340214Y-53903937D01*
X28509732Y-54017205D01*
X28698090Y-54095226D01*
X28898049Y-54135000D01*
X29101927Y-54135000D01*
X29301886Y-54095226D01*
X29490244Y-54017205D01*
X29659762Y-53903937D01*
X29803925Y-53759774D01*
X29840830Y-53704541D01*
X29940226Y-53803937D01*
X30109744Y-53917205D01*
X30298102Y-53995226D01*
X30498061Y-54035000D01*
X30701939Y-54035000D01*
X30901898Y-53995226D01*
X31090256Y-53917205D01*
X31196361Y-53846308D01*
X34839979Y-53846308D01*
X34839979Y-54050186D01*
X34879753Y-54250145D01*
X34957774Y-54438503D01*
X35071042Y-54608021D01*
X35215205Y-54752184D01*
X35384723Y-54865452D01*
X35573081Y-54943473D01*
X35773040Y-54983247D01*
X35976918Y-54983247D01*
X36176877Y-54943473D01*
X36365235Y-54865452D01*
X36534753Y-54752184D01*
X36678916Y-54608021D01*
X36756304Y-54492201D01*
X38965000Y-54492201D01*
X38965000Y-54696079D01*
X39004774Y-54896038D01*
X39082795Y-55084396D01*
X39196063Y-55253914D01*
X39340226Y-55398077D01*
X39509744Y-55511345D01*
X39698102Y-55589366D01*
X39898061Y-55629140D01*
X40101939Y-55629140D01*
X40301898Y-55589366D01*
X40490256Y-55511345D01*
X40659774Y-55398077D01*
X40803937Y-55253914D01*
X40917205Y-55084396D01*
X40995226Y-54896038D01*
X41035000Y-54696079D01*
X41035000Y-54492201D01*
X40995226Y-54292242D01*
X40917205Y-54103884D01*
X40803937Y-53934366D01*
X40659774Y-53790203D01*
X40490256Y-53676935D01*
X40301898Y-53598914D01*
X40101939Y-53559140D01*
X39898061Y-53559140D01*
X39698102Y-53598914D01*
X39509744Y-53676935D01*
X39340226Y-53790203D01*
X39196063Y-53934366D01*
X39082795Y-54103884D01*
X39004774Y-54292242D01*
X38965000Y-54492201D01*
X36756304Y-54492201D01*
X36792184Y-54438503D01*
X36870205Y-54250145D01*
X36909979Y-54050186D01*
X36909979Y-53846308D01*
X36870205Y-53646349D01*
X36792184Y-53457991D01*
X36678916Y-53288473D01*
X36534753Y-53144310D01*
X36365235Y-53031042D01*
X36176877Y-52953021D01*
X35976918Y-52913247D01*
X35773040Y-52913247D01*
X35573081Y-52953021D01*
X35384723Y-53031042D01*
X35215205Y-53144310D01*
X35071042Y-53288473D01*
X34957774Y-53457991D01*
X34879753Y-53646349D01*
X34839979Y-53846308D01*
X31196361Y-53846308D01*
X31259774Y-53803937D01*
X31403937Y-53659774D01*
X31517205Y-53490256D01*
X31595226Y-53301898D01*
X31635000Y-53101939D01*
X31635000Y-52898061D01*
X31595226Y-52698102D01*
X31517205Y-52509744D01*
X31403937Y-52340226D01*
X31259774Y-52196063D01*
X31090256Y-52082795D01*
X30901898Y-52004774D01*
X30701939Y-51965000D01*
X30498061Y-51965000D01*
X30298102Y-52004774D01*
X30109744Y-52082795D01*
X29940226Y-52196063D01*
X29796063Y-52340226D01*
X29759158Y-52395459D01*
X29659762Y-52296063D01*
X29490244Y-52182795D01*
X29301886Y-52104774D01*
X29101927Y-52065000D01*
X28898049Y-52065000D01*
X28698090Y-52104774D01*
X28509732Y-52182795D01*
X28340214Y-52296063D01*
X28196051Y-52440226D01*
X28082783Y-52609744D01*
X28004762Y-52798102D01*
X27964988Y-52998061D01*
X20660000Y-52998061D01*
X20660000Y-51732894D01*
X33592001Y-51732894D01*
X33592001Y-51936772D01*
X33631775Y-52136731D01*
X33709796Y-52325089D01*
X33823064Y-52494607D01*
X33967227Y-52638770D01*
X34136745Y-52752038D01*
X34325103Y-52830059D01*
X34525062Y-52869833D01*
X34728940Y-52869833D01*
X34928899Y-52830059D01*
X35006148Y-52798061D01*
X37489990Y-52798061D01*
X37489990Y-53001939D01*
X37529764Y-53201898D01*
X37607785Y-53390256D01*
X37721053Y-53559774D01*
X37865216Y-53703937D01*
X38034734Y-53817205D01*
X38223092Y-53895226D01*
X38423051Y-53935000D01*
X38626929Y-53935000D01*
X38826888Y-53895226D01*
X39015246Y-53817205D01*
X39184764Y-53703937D01*
X39328927Y-53559774D01*
X39442195Y-53390256D01*
X39520216Y-53201898D01*
X39537913Y-53112926D01*
X39626898Y-53095226D01*
X39815256Y-53017205D01*
X39984774Y-52903937D01*
X40128937Y-52759774D01*
X40242205Y-52590256D01*
X40320226Y-52401898D01*
X40340880Y-52298061D01*
X53865000Y-52298061D01*
X53865000Y-52501939D01*
X53904774Y-52701898D01*
X53982795Y-52890256D01*
X54096063Y-53059774D01*
X54240226Y-53203937D01*
X54409744Y-53317205D01*
X54598102Y-53395226D01*
X54798061Y-53435000D01*
X55001939Y-53435000D01*
X55201898Y-53395226D01*
X55390256Y-53317205D01*
X55559774Y-53203937D01*
X55703937Y-53059774D01*
X55817205Y-52890256D01*
X55895226Y-52701898D01*
X55935000Y-52501939D01*
X55935000Y-52298061D01*
X55901142Y-52127839D01*
X63340000Y-52127839D01*
X63340000Y-52872162D01*
X63353890Y-53013193D01*
X63408785Y-53194154D01*
X63497928Y-53360928D01*
X63617894Y-53507107D01*
X63764073Y-53627073D01*
X63930847Y-53716216D01*
X64111808Y-53771110D01*
X64300000Y-53789645D01*
X64488193Y-53771110D01*
X64669154Y-53716216D01*
X64835928Y-53627073D01*
X64982107Y-53507107D01*
X64987939Y-53500000D01*
X65585053Y-53500000D01*
X65604795Y-53700445D01*
X65663263Y-53893187D01*
X65758209Y-54070819D01*
X65885985Y-54226515D01*
X66041681Y-54354291D01*
X66219313Y-54449237D01*
X66412055Y-54507705D01*
X66562272Y-54522500D01*
X67437728Y-54522500D01*
X67587945Y-54507705D01*
X67780687Y-54449237D01*
X67958319Y-54354291D01*
X68114015Y-54226515D01*
X68241791Y-54070819D01*
X68336737Y-53893187D01*
X68395205Y-53700445D01*
X68414947Y-53500000D01*
X68395205Y-53299555D01*
X68336737Y-53106813D01*
X68241791Y-52929181D01*
X68114015Y-52773485D01*
X67958319Y-52645709D01*
X67780687Y-52550763D01*
X67587945Y-52492295D01*
X67437728Y-52477500D01*
X66562272Y-52477500D01*
X66412055Y-52492295D01*
X66219313Y-52550763D01*
X66041681Y-52645709D01*
X65885985Y-52773485D01*
X65758209Y-52929181D01*
X65663263Y-53106813D01*
X65604795Y-53299555D01*
X65585053Y-53500000D01*
X64987939Y-53500000D01*
X65102073Y-53360928D01*
X65191216Y-53194154D01*
X65246110Y-53013193D01*
X65260000Y-52872161D01*
X65260000Y-52127838D01*
X65246110Y-51986807D01*
X65191216Y-51805846D01*
X65102073Y-51639072D01*
X64982107Y-51492893D01*
X64835928Y-51372927D01*
X64669153Y-51283784D01*
X64488192Y-51228890D01*
X64300000Y-51210355D01*
X64111807Y-51228890D01*
X63930846Y-51283784D01*
X63764072Y-51372927D01*
X63617893Y-51492893D01*
X63497927Y-51639072D01*
X63408784Y-51805847D01*
X63353890Y-51986808D01*
X63340000Y-52127839D01*
X55901142Y-52127839D01*
X55895226Y-52098102D01*
X55817205Y-51909744D01*
X55703937Y-51740226D01*
X55559774Y-51596063D01*
X55390256Y-51482795D01*
X55201898Y-51404774D01*
X55001939Y-51365000D01*
X54798061Y-51365000D01*
X54598102Y-51404774D01*
X54409744Y-51482795D01*
X54240226Y-51596063D01*
X54096063Y-51740226D01*
X53982795Y-51909744D01*
X53904774Y-52098102D01*
X53865000Y-52298061D01*
X40340880Y-52298061D01*
X40360000Y-52201939D01*
X40360000Y-51998061D01*
X40320226Y-51798102D01*
X40242205Y-51609744D01*
X40128937Y-51440226D01*
X39984774Y-51296063D01*
X39815256Y-51182795D01*
X39626898Y-51104774D01*
X39426939Y-51065000D01*
X39223061Y-51065000D01*
X39023102Y-51104774D01*
X38834744Y-51182795D01*
X38665226Y-51296063D01*
X38521063Y-51440226D01*
X38407795Y-51609744D01*
X38329774Y-51798102D01*
X38312077Y-51887074D01*
X38223092Y-51904774D01*
X38034734Y-51982795D01*
X37865216Y-52096063D01*
X37721053Y-52240226D01*
X37607785Y-52409744D01*
X37529764Y-52598102D01*
X37489990Y-52798061D01*
X35006148Y-52798061D01*
X35117257Y-52752038D01*
X35286775Y-52638770D01*
X35430938Y-52494607D01*
X35544206Y-52325089D01*
X35622227Y-52136731D01*
X35662001Y-51936772D01*
X35662001Y-51885000D01*
X35851939Y-51885000D01*
X36051898Y-51845226D01*
X36240256Y-51767205D01*
X36409774Y-51653937D01*
X36553937Y-51509774D01*
X36667205Y-51340256D01*
X36745226Y-51151898D01*
X36785000Y-50951939D01*
X36785000Y-50748061D01*
X36745226Y-50548102D01*
X36667205Y-50359744D01*
X36553937Y-50190226D01*
X36409774Y-50046063D01*
X36240256Y-49932795D01*
X36051898Y-49854774D01*
X35851939Y-49815000D01*
X35648061Y-49815000D01*
X35448102Y-49854774D01*
X35259744Y-49932795D01*
X35090226Y-50046063D01*
X34946063Y-50190226D01*
X34832795Y-50359744D01*
X34754774Y-50548102D01*
X34715000Y-50748061D01*
X34715000Y-50799833D01*
X34525062Y-50799833D01*
X34325103Y-50839607D01*
X34136745Y-50917628D01*
X33967227Y-51030896D01*
X33823064Y-51175059D01*
X33709796Y-51344577D01*
X33631775Y-51532935D01*
X33592001Y-51732894D01*
X20660000Y-51732894D01*
X20660000Y-49398061D01*
X27315000Y-49398061D01*
X27315000Y-49601939D01*
X27354774Y-49801898D01*
X27432795Y-49990256D01*
X27546063Y-50159774D01*
X27690226Y-50303937D01*
X27859744Y-50417205D01*
X28048102Y-50495226D01*
X28248061Y-50535000D01*
X28451939Y-50535000D01*
X28651898Y-50495226D01*
X28840256Y-50417205D01*
X29009774Y-50303937D01*
X29153937Y-50159774D01*
X29267205Y-49990256D01*
X29345226Y-49801898D01*
X29385000Y-49601939D01*
X29385000Y-49398061D01*
X29355164Y-49248061D01*
X38065000Y-49248061D01*
X38065000Y-49451939D01*
X38104774Y-49651898D01*
X38182795Y-49840256D01*
X38296063Y-50009774D01*
X38440226Y-50153937D01*
X38609744Y-50267205D01*
X38798102Y-50345226D01*
X38998061Y-50385000D01*
X39201939Y-50385000D01*
X39401898Y-50345226D01*
X39590256Y-50267205D01*
X39759774Y-50153937D01*
X39903937Y-50009774D01*
X40017205Y-49840256D01*
X40095226Y-49651898D01*
X40135000Y-49451939D01*
X40135000Y-49248061D01*
X40095226Y-49048102D01*
X40017205Y-48859744D01*
X39903937Y-48690226D01*
X39759774Y-48546063D01*
X39590256Y-48432795D01*
X39401898Y-48354774D01*
X39201939Y-48315000D01*
X38998061Y-48315000D01*
X38798102Y-48354774D01*
X38609744Y-48432795D01*
X38440226Y-48546063D01*
X38296063Y-48690226D01*
X38182795Y-48859744D01*
X38104774Y-49048102D01*
X38065000Y-49248061D01*
X29355164Y-49248061D01*
X29345226Y-49198102D01*
X29267205Y-49009744D01*
X29153937Y-48840226D01*
X29009774Y-48696063D01*
X28840256Y-48582795D01*
X28651898Y-48504774D01*
X28451939Y-48465000D01*
X28248061Y-48465000D01*
X28048102Y-48504774D01*
X27859744Y-48582795D01*
X27690226Y-48696063D01*
X27546063Y-48840226D01*
X27432795Y-49009744D01*
X27354774Y-49198102D01*
X27315000Y-49398061D01*
X20660000Y-49398061D01*
X20660000Y-48038212D01*
X23815000Y-48038212D01*
X23815000Y-48261788D01*
X23858617Y-48481067D01*
X23944176Y-48687624D01*
X24068388Y-48873520D01*
X24226480Y-49031612D01*
X24412376Y-49155824D01*
X24618933Y-49241383D01*
X24838212Y-49285000D01*
X25061788Y-49285000D01*
X25281067Y-49241383D01*
X25487624Y-49155824D01*
X25673520Y-49031612D01*
X25831612Y-48873520D01*
X25955824Y-48687624D01*
X26041383Y-48481067D01*
X26085000Y-48261788D01*
X26085000Y-48038212D01*
X26041383Y-47818933D01*
X25955824Y-47612376D01*
X25831612Y-47426480D01*
X25673520Y-47268388D01*
X25487624Y-47144176D01*
X25281067Y-47058617D01*
X25061788Y-47015000D01*
X24838212Y-47015000D01*
X24618933Y-47058617D01*
X24412376Y-47144176D01*
X24226480Y-47268388D01*
X24068388Y-47426480D01*
X23944176Y-47612376D01*
X23858617Y-47818933D01*
X23815000Y-48038212D01*
X20660000Y-48038212D01*
X20660000Y-46612688D01*
X40950373Y-46612688D01*
X40950373Y-46816566D01*
X40990147Y-47016525D01*
X41068168Y-47204883D01*
X41181436Y-47374401D01*
X41325599Y-47518564D01*
X41495117Y-47631832D01*
X41683475Y-47709853D01*
X41883434Y-47749627D01*
X42087312Y-47749627D01*
X42287271Y-47709853D01*
X42475629Y-47631832D01*
X42645147Y-47518564D01*
X42789310Y-47374401D01*
X42902578Y-47204883D01*
X42926114Y-47148061D01*
X47515000Y-47148061D01*
X47515000Y-47351939D01*
X47554774Y-47551898D01*
X47632795Y-47740256D01*
X47746063Y-47909774D01*
X47890226Y-48053937D01*
X48059744Y-48167205D01*
X48248102Y-48245226D01*
X48448061Y-48285000D01*
X48651939Y-48285000D01*
X48851898Y-48245226D01*
X49040256Y-48167205D01*
X49115000Y-48117263D01*
X49115000Y-48301939D01*
X49154774Y-48501898D01*
X49232795Y-48690256D01*
X49256010Y-48725000D01*
X49232795Y-48759744D01*
X49154774Y-48948102D01*
X49115000Y-49148061D01*
X49115000Y-49351939D01*
X49154774Y-49551898D01*
X49232795Y-49740256D01*
X49346063Y-49909774D01*
X49490226Y-50053937D01*
X49659744Y-50167205D01*
X49848102Y-50245226D01*
X50048061Y-50285000D01*
X50251939Y-50285000D01*
X50451898Y-50245226D01*
X50565763Y-50198061D01*
X54165000Y-50198061D01*
X54165000Y-50401939D01*
X54204774Y-50601898D01*
X54282795Y-50790256D01*
X54396063Y-50959774D01*
X54540226Y-51103937D01*
X54709744Y-51217205D01*
X54898102Y-51295226D01*
X55098061Y-51335000D01*
X55301939Y-51335000D01*
X55501898Y-51295226D01*
X55690256Y-51217205D01*
X55859774Y-51103937D01*
X56003937Y-50959774D01*
X56117205Y-50790256D01*
X56195226Y-50601898D01*
X56235000Y-50401939D01*
X56235000Y-50198061D01*
X56195226Y-49998102D01*
X56117205Y-49809744D01*
X56003937Y-49640226D01*
X55859774Y-49496063D01*
X55690256Y-49382795D01*
X55501898Y-49304774D01*
X55301939Y-49265000D01*
X55098061Y-49265000D01*
X54898102Y-49304774D01*
X54709744Y-49382795D01*
X54540226Y-49496063D01*
X54396063Y-49640226D01*
X54282795Y-49809744D01*
X54204774Y-49998102D01*
X54165000Y-50198061D01*
X50565763Y-50198061D01*
X50640256Y-50167205D01*
X50809774Y-50053937D01*
X50953937Y-49909774D01*
X51067205Y-49740256D01*
X51145226Y-49551898D01*
X51185000Y-49351939D01*
X51185000Y-49148061D01*
X51145226Y-48948102D01*
X51067205Y-48759744D01*
X51043990Y-48725000D01*
X51067205Y-48690256D01*
X51145226Y-48501898D01*
X51185000Y-48301939D01*
X51185000Y-48098061D01*
X51145226Y-47898102D01*
X51067205Y-47709744D01*
X50953937Y-47540226D01*
X50809774Y-47396063D01*
X50640256Y-47282795D01*
X50451898Y-47204774D01*
X50251939Y-47165000D01*
X50048061Y-47165000D01*
X49848102Y-47204774D01*
X49659744Y-47282795D01*
X49585000Y-47332737D01*
X49585000Y-47148061D01*
X49580978Y-47127839D01*
X63340000Y-47127839D01*
X63340000Y-47872162D01*
X63353890Y-48013193D01*
X63408785Y-48194154D01*
X63497928Y-48360928D01*
X63617894Y-48507107D01*
X63764073Y-48627073D01*
X63930847Y-48716216D01*
X64111808Y-48771110D01*
X64300000Y-48789645D01*
X64488193Y-48771110D01*
X64669154Y-48716216D01*
X64835928Y-48627073D01*
X64982107Y-48507107D01*
X65102073Y-48360928D01*
X65191216Y-48194154D01*
X65246110Y-48013193D01*
X65260000Y-47872161D01*
X65260000Y-47127838D01*
X65246110Y-46986807D01*
X65191216Y-46805846D01*
X65102073Y-46639072D01*
X64987940Y-46500000D01*
X65585053Y-46500000D01*
X65604795Y-46700445D01*
X65663263Y-46893187D01*
X65758209Y-47070819D01*
X65885985Y-47226515D01*
X66041681Y-47354291D01*
X66219313Y-47449237D01*
X66412055Y-47507705D01*
X66562272Y-47522500D01*
X67437728Y-47522500D01*
X67587945Y-47507705D01*
X67780687Y-47449237D01*
X67958319Y-47354291D01*
X68114015Y-47226515D01*
X68241791Y-47070819D01*
X68336737Y-46893187D01*
X68395205Y-46700445D01*
X68414947Y-46500000D01*
X68395205Y-46299555D01*
X68336737Y-46106813D01*
X68241791Y-45929181D01*
X68114015Y-45773485D01*
X67958319Y-45645709D01*
X67780687Y-45550763D01*
X67587945Y-45492295D01*
X67437728Y-45477500D01*
X66562272Y-45477500D01*
X66412055Y-45492295D01*
X66219313Y-45550763D01*
X66041681Y-45645709D01*
X65885985Y-45773485D01*
X65758209Y-45929181D01*
X65663263Y-46106813D01*
X65604795Y-46299555D01*
X65585053Y-46500000D01*
X64987940Y-46500000D01*
X64982107Y-46492893D01*
X64835928Y-46372927D01*
X64669153Y-46283784D01*
X64488192Y-46228890D01*
X64300000Y-46210355D01*
X64111807Y-46228890D01*
X63930846Y-46283784D01*
X63764072Y-46372927D01*
X63617893Y-46492893D01*
X63497927Y-46639072D01*
X63408784Y-46805847D01*
X63353890Y-46986808D01*
X63340000Y-47127839D01*
X49580978Y-47127839D01*
X49545226Y-46948102D01*
X49467205Y-46759744D01*
X49353937Y-46590226D01*
X49209774Y-46446063D01*
X49040256Y-46332795D01*
X48851898Y-46254774D01*
X48651939Y-46215000D01*
X48448061Y-46215000D01*
X48248102Y-46254774D01*
X48059744Y-46332795D01*
X47890226Y-46446063D01*
X47746063Y-46590226D01*
X47632795Y-46759744D01*
X47554774Y-46948102D01*
X47515000Y-47148061D01*
X42926114Y-47148061D01*
X42980599Y-47016525D01*
X43020373Y-46816566D01*
X43020373Y-46612688D01*
X42980599Y-46412729D01*
X42902578Y-46224371D01*
X42789310Y-46054853D01*
X42645147Y-45910690D01*
X42475629Y-45797422D01*
X42287271Y-45719401D01*
X42087312Y-45679627D01*
X41883434Y-45679627D01*
X41683475Y-45719401D01*
X41495117Y-45797422D01*
X41325599Y-45910690D01*
X41181436Y-46054853D01*
X41068168Y-46224371D01*
X40990147Y-46412729D01*
X40950373Y-46612688D01*
X20660000Y-46612688D01*
X20660000Y-45244323D01*
X38953972Y-45244323D01*
X38953972Y-45448201D01*
X38993746Y-45648160D01*
X39071767Y-45836518D01*
X39185035Y-46006036D01*
X39329198Y-46150199D01*
X39498716Y-46263467D01*
X39687074Y-46341488D01*
X39887033Y-46381262D01*
X40090911Y-46381262D01*
X40290870Y-46341488D01*
X40479228Y-46263467D01*
X40648746Y-46150199D01*
X40792909Y-46006036D01*
X40906177Y-45836518D01*
X40984198Y-45648160D01*
X41023972Y-45448201D01*
X41023972Y-45244323D01*
X40984198Y-45044364D01*
X40906177Y-44856006D01*
X40792909Y-44686488D01*
X40648746Y-44542325D01*
X40479228Y-44429057D01*
X40290870Y-44351036D01*
X40090911Y-44311262D01*
X39887033Y-44311262D01*
X39687074Y-44351036D01*
X39498716Y-44429057D01*
X39329198Y-44542325D01*
X39185035Y-44686488D01*
X39071767Y-44856006D01*
X38993746Y-45044364D01*
X38953972Y-45244323D01*
X20660000Y-45244323D01*
X20660000Y-44098061D01*
X37065010Y-44098061D01*
X37065010Y-44301939D01*
X37104784Y-44501898D01*
X37182805Y-44690256D01*
X37296073Y-44859774D01*
X37440236Y-45003937D01*
X37609754Y-45117205D01*
X37798112Y-45195226D01*
X37998071Y-45235000D01*
X38201949Y-45235000D01*
X38401908Y-45195226D01*
X38590266Y-45117205D01*
X38759784Y-45003937D01*
X38903947Y-44859774D01*
X39017215Y-44690256D01*
X39095236Y-44501898D01*
X39135010Y-44301939D01*
X39135010Y-44098061D01*
X39095236Y-43898102D01*
X39017215Y-43709744D01*
X38903947Y-43540226D01*
X38759784Y-43396063D01*
X38590266Y-43282795D01*
X38401908Y-43204774D01*
X38201949Y-43165000D01*
X37998071Y-43165000D01*
X37798112Y-43204774D01*
X37609754Y-43282795D01*
X37440236Y-43396063D01*
X37296073Y-43540226D01*
X37182805Y-43709744D01*
X37104784Y-43898102D01*
X37065010Y-44098061D01*
X20660000Y-44098061D01*
X20660000Y-41298061D01*
X42765000Y-41298061D01*
X42765000Y-41501939D01*
X42804774Y-41701898D01*
X42882795Y-41890256D01*
X42996063Y-42059774D01*
X43140226Y-42203937D01*
X43296580Y-42308409D01*
X43240226Y-42346063D01*
X43096063Y-42490226D01*
X42982795Y-42659744D01*
X42904774Y-42848102D01*
X42865000Y-43048061D01*
X42865000Y-43251939D01*
X42904774Y-43451898D01*
X42982795Y-43640256D01*
X43096063Y-43809774D01*
X43240226Y-43953937D01*
X43409744Y-44067205D01*
X43598102Y-44145226D01*
X43798061Y-44185000D01*
X44001939Y-44185000D01*
X44201898Y-44145226D01*
X44390256Y-44067205D01*
X44559774Y-43953937D01*
X44703937Y-43809774D01*
X44817205Y-43640256D01*
X44895226Y-43451898D01*
X44935000Y-43251939D01*
X44935000Y-43098061D01*
X51565000Y-43098061D01*
X51565000Y-43301939D01*
X51604774Y-43501898D01*
X51682795Y-43690256D01*
X51796063Y-43859774D01*
X51940226Y-44003937D01*
X52109744Y-44117205D01*
X52298102Y-44195226D01*
X52498061Y-44235000D01*
X52701939Y-44235000D01*
X52901898Y-44195226D01*
X53090256Y-44117205D01*
X53092719Y-44115559D01*
X53129784Y-44301898D01*
X53207805Y-44490256D01*
X53321073Y-44659774D01*
X53465236Y-44803937D01*
X53634754Y-44917205D01*
X53823112Y-44995226D01*
X54023071Y-45035000D01*
X54226949Y-45035000D01*
X54426908Y-44995226D01*
X54615266Y-44917205D01*
X54784784Y-44803937D01*
X54928947Y-44659774D01*
X55042215Y-44490256D01*
X55120236Y-44301898D01*
X55160010Y-44101939D01*
X55160010Y-43898061D01*
X55120236Y-43698102D01*
X55042215Y-43509744D01*
X54928947Y-43340226D01*
X54784784Y-43196063D01*
X54615266Y-43082795D01*
X54426908Y-43004774D01*
X54226949Y-42965000D01*
X54023071Y-42965000D01*
X53823112Y-43004774D01*
X53634754Y-43082795D01*
X53632291Y-43084441D01*
X53595226Y-42898102D01*
X53595210Y-42898061D01*
X55115000Y-42898061D01*
X55115000Y-43101939D01*
X55154774Y-43301898D01*
X55232795Y-43490256D01*
X55346063Y-43659774D01*
X55490226Y-43803937D01*
X55659744Y-43917205D01*
X55848102Y-43995226D01*
X56048061Y-44035000D01*
X56251939Y-44035000D01*
X56451898Y-43995226D01*
X56640256Y-43917205D01*
X56809774Y-43803937D01*
X56953937Y-43659774D01*
X57067205Y-43490256D01*
X57145226Y-43301898D01*
X57185000Y-43101939D01*
X57185000Y-42898061D01*
X59465000Y-42898061D01*
X59465000Y-43101939D01*
X59504774Y-43301898D01*
X59582795Y-43490256D01*
X59696063Y-43659774D01*
X59840226Y-43803937D01*
X60009744Y-43917205D01*
X60198102Y-43995226D01*
X60398061Y-44035000D01*
X60601939Y-44035000D01*
X60801898Y-43995226D01*
X60990256Y-43917205D01*
X61159774Y-43803937D01*
X61303937Y-43659774D01*
X61350000Y-43590836D01*
X61396063Y-43659774D01*
X61540226Y-43803937D01*
X61709744Y-43917205D01*
X61898102Y-43995226D01*
X62098061Y-44035000D01*
X62301939Y-44035000D01*
X62501898Y-43995226D01*
X62690256Y-43917205D01*
X62859774Y-43803937D01*
X63003937Y-43659774D01*
X63117205Y-43490256D01*
X63195226Y-43301898D01*
X63235000Y-43101939D01*
X63235000Y-42898061D01*
X63195226Y-42698102D01*
X63117205Y-42509744D01*
X63003937Y-42340226D01*
X62859774Y-42196063D01*
X62690256Y-42082795D01*
X62501898Y-42004774D01*
X62301939Y-41965000D01*
X62098061Y-41965000D01*
X61898102Y-42004774D01*
X61709744Y-42082795D01*
X61540226Y-42196063D01*
X61396063Y-42340226D01*
X61350000Y-42409164D01*
X61303937Y-42340226D01*
X61159774Y-42196063D01*
X60990256Y-42082795D01*
X60801898Y-42004774D01*
X60601939Y-41965000D01*
X60398061Y-41965000D01*
X60198102Y-42004774D01*
X60009744Y-42082795D01*
X59840226Y-42196063D01*
X59696063Y-42340226D01*
X59582795Y-42509744D01*
X59504774Y-42698102D01*
X59465000Y-42898061D01*
X57185000Y-42898061D01*
X57145226Y-42698102D01*
X57067205Y-42509744D01*
X56953937Y-42340226D01*
X56809774Y-42196063D01*
X56640256Y-42082795D01*
X56451898Y-42004774D01*
X56251939Y-41965000D01*
X56048061Y-41965000D01*
X55848102Y-42004774D01*
X55659744Y-42082795D01*
X55490226Y-42196063D01*
X55346063Y-42340226D01*
X55232795Y-42509744D01*
X55154774Y-42698102D01*
X55115000Y-42898061D01*
X53595210Y-42898061D01*
X53517205Y-42709744D01*
X53403937Y-42540226D01*
X53259774Y-42396063D01*
X53090256Y-42282795D01*
X52901898Y-42204774D01*
X52701939Y-42165000D01*
X52498061Y-42165000D01*
X52298102Y-42204774D01*
X52109744Y-42282795D01*
X51940226Y-42396063D01*
X51796063Y-42540226D01*
X51682795Y-42709744D01*
X51604774Y-42898102D01*
X51565000Y-43098061D01*
X44935000Y-43098061D01*
X44935000Y-43048061D01*
X44895226Y-42848102D01*
X44817205Y-42659744D01*
X44703937Y-42490226D01*
X44559774Y-42346063D01*
X44403420Y-42241591D01*
X44459774Y-42203937D01*
X44603937Y-42059774D01*
X44717205Y-41890256D01*
X44795226Y-41701898D01*
X44835000Y-41501939D01*
X44835000Y-41298061D01*
X44795226Y-41098102D01*
X44717205Y-40909744D01*
X44609173Y-40748061D01*
X49265000Y-40748061D01*
X49265000Y-40951939D01*
X49304774Y-41151898D01*
X49382795Y-41340256D01*
X49496063Y-41509774D01*
X49640226Y-41653937D01*
X49809744Y-41767205D01*
X49998102Y-41845226D01*
X50198061Y-41885000D01*
X50401939Y-41885000D01*
X50601898Y-41845226D01*
X50790256Y-41767205D01*
X50959774Y-41653937D01*
X51103937Y-41509774D01*
X51217205Y-41340256D01*
X51295226Y-41151898D01*
X51335000Y-40951939D01*
X51335000Y-40748061D01*
X53115000Y-40748061D01*
X53115000Y-40951939D01*
X53154774Y-41151898D01*
X53232795Y-41340256D01*
X53346063Y-41509774D01*
X53490226Y-41653937D01*
X53659744Y-41767205D01*
X53848102Y-41845226D01*
X54048061Y-41885000D01*
X54251939Y-41885000D01*
X54451898Y-41845226D01*
X54640256Y-41767205D01*
X54809774Y-41653937D01*
X54953937Y-41509774D01*
X55067205Y-41340256D01*
X55110355Y-41236082D01*
X55132795Y-41290256D01*
X55246063Y-41459774D01*
X55390226Y-41603937D01*
X55559744Y-41717205D01*
X55748102Y-41795226D01*
X55948061Y-41835000D01*
X56151939Y-41835000D01*
X56351898Y-41795226D01*
X56540256Y-41717205D01*
X56709774Y-41603937D01*
X56853937Y-41459774D01*
X56895172Y-41398061D01*
X64665000Y-41398061D01*
X64665000Y-41601939D01*
X64704774Y-41801898D01*
X64782795Y-41990256D01*
X64896063Y-42159774D01*
X65040226Y-42303937D01*
X65209744Y-42417205D01*
X65398102Y-42495226D01*
X65598061Y-42535000D01*
X65801939Y-42535000D01*
X66001898Y-42495226D01*
X66190256Y-42417205D01*
X66359774Y-42303937D01*
X66503937Y-42159774D01*
X66617205Y-41990256D01*
X66695226Y-41801898D01*
X66735000Y-41601939D01*
X66735000Y-41398061D01*
X66695226Y-41198102D01*
X66617205Y-41009744D01*
X66503937Y-40840226D01*
X66359774Y-40696063D01*
X66190256Y-40582795D01*
X66001898Y-40504774D01*
X65801939Y-40465000D01*
X65598061Y-40465000D01*
X65398102Y-40504774D01*
X65209744Y-40582795D01*
X65040226Y-40696063D01*
X64896063Y-40840226D01*
X64782795Y-41009744D01*
X64704774Y-41198102D01*
X64665000Y-41398061D01*
X56895172Y-41398061D01*
X56967205Y-41290256D01*
X57045226Y-41101898D01*
X57085000Y-40901939D01*
X57085000Y-40698061D01*
X57045226Y-40498102D01*
X56967205Y-40309744D01*
X56853937Y-40140226D01*
X56709774Y-39996063D01*
X56540256Y-39882795D01*
X56351898Y-39804774D01*
X56151939Y-39765000D01*
X55948061Y-39765000D01*
X55748102Y-39804774D01*
X55559744Y-39882795D01*
X55390226Y-39996063D01*
X55246063Y-40140226D01*
X55132795Y-40309744D01*
X55089645Y-40413918D01*
X55067205Y-40359744D01*
X54953937Y-40190226D01*
X54809774Y-40046063D01*
X54640256Y-39932795D01*
X54451898Y-39854774D01*
X54251939Y-39815000D01*
X54048061Y-39815000D01*
X53848102Y-39854774D01*
X53659744Y-39932795D01*
X53490226Y-40046063D01*
X53346063Y-40190226D01*
X53232795Y-40359744D01*
X53154774Y-40548102D01*
X53115000Y-40748061D01*
X51335000Y-40748061D01*
X51295226Y-40548102D01*
X51217205Y-40359744D01*
X51103937Y-40190226D01*
X50959774Y-40046063D01*
X50790256Y-39932795D01*
X50601898Y-39854774D01*
X50401939Y-39815000D01*
X50198061Y-39815000D01*
X49998102Y-39854774D01*
X49809744Y-39932795D01*
X49640226Y-40046063D01*
X49496063Y-40190226D01*
X49382795Y-40359744D01*
X49304774Y-40548102D01*
X49265000Y-40748061D01*
X44609173Y-40748061D01*
X44603937Y-40740226D01*
X44459774Y-40596063D01*
X44290256Y-40482795D01*
X44101898Y-40404774D01*
X43901939Y-40365000D01*
X43698061Y-40365000D01*
X43498102Y-40404774D01*
X43309744Y-40482795D01*
X43140226Y-40596063D01*
X42996063Y-40740226D01*
X42882795Y-40909744D01*
X42804774Y-41098102D01*
X42765000Y-41298061D01*
X20660000Y-41298061D01*
X20660000Y-37498062D01*
X43714999Y-37498062D01*
X43714999Y-37701940D01*
X43754773Y-37901899D01*
X43832794Y-38090257D01*
X43946062Y-38259775D01*
X44090225Y-38403938D01*
X44259743Y-38517206D01*
X44448101Y-38595227D01*
X44648060Y-38635001D01*
X44851938Y-38635001D01*
X45051897Y-38595227D01*
X45240255Y-38517206D01*
X45409773Y-38403938D01*
X45553936Y-38259775D01*
X45667204Y-38090257D01*
X45745225Y-37901899D01*
X45784999Y-37701940D01*
X45784999Y-37548061D01*
X46865000Y-37548061D01*
X46865000Y-37751939D01*
X46904774Y-37951898D01*
X46982795Y-38140256D01*
X47096063Y-38309774D01*
X47240226Y-38453937D01*
X47409744Y-38567205D01*
X47598102Y-38645226D01*
X47798061Y-38685000D01*
X48001939Y-38685000D01*
X48187645Y-38648061D01*
X50965000Y-38648061D01*
X50965000Y-38851939D01*
X51004774Y-39051898D01*
X51082795Y-39240256D01*
X51196063Y-39409774D01*
X51340226Y-39553937D01*
X51509744Y-39667205D01*
X51698102Y-39745226D01*
X51898061Y-39785000D01*
X52101939Y-39785000D01*
X52301898Y-39745226D01*
X52490256Y-39667205D01*
X52659774Y-39553937D01*
X52803937Y-39409774D01*
X52917205Y-39240256D01*
X52995226Y-39051898D01*
X53035000Y-38851939D01*
X53035000Y-38648061D01*
X52995226Y-38448102D01*
X52917205Y-38259744D01*
X52803937Y-38090226D01*
X52659774Y-37946063D01*
X52490256Y-37832795D01*
X52301898Y-37754774D01*
X52101939Y-37715000D01*
X51898061Y-37715000D01*
X51698102Y-37754774D01*
X51509744Y-37832795D01*
X51340226Y-37946063D01*
X51196063Y-38090226D01*
X51082795Y-38259744D01*
X51004774Y-38448102D01*
X50965000Y-38648061D01*
X48187645Y-38648061D01*
X48201898Y-38645226D01*
X48390256Y-38567205D01*
X48559774Y-38453937D01*
X48703937Y-38309774D01*
X48817205Y-38140256D01*
X48895226Y-37951898D01*
X48935000Y-37751939D01*
X48935000Y-37548061D01*
X48895226Y-37348102D01*
X48823523Y-37174996D01*
X48895227Y-37001887D01*
X48935001Y-36801928D01*
X48935001Y-36598050D01*
X48895227Y-36398091D01*
X48817206Y-36209733D01*
X48703938Y-36040215D01*
X48559775Y-35896052D01*
X48390257Y-35782784D01*
X48201899Y-35704763D01*
X48001940Y-35664989D01*
X47798062Y-35664989D01*
X47598103Y-35704763D01*
X47409745Y-35782784D01*
X47240227Y-35896052D01*
X47096064Y-36040215D01*
X46982796Y-36209733D01*
X46904775Y-36398091D01*
X46865001Y-36598050D01*
X46865001Y-36801928D01*
X46904775Y-37001887D01*
X46976478Y-37174993D01*
X46904774Y-37348102D01*
X46865000Y-37548061D01*
X45784999Y-37548061D01*
X45784999Y-37498062D01*
X45745225Y-37298103D01*
X45667204Y-37109745D01*
X45553936Y-36940227D01*
X45409773Y-36796064D01*
X45240255Y-36682796D01*
X45051897Y-36604775D01*
X44851938Y-36565001D01*
X44648060Y-36565001D01*
X44448101Y-36604775D01*
X44259743Y-36682796D01*
X44090225Y-36796064D01*
X43946062Y-36940227D01*
X43832794Y-37109745D01*
X43754773Y-37298103D01*
X43714999Y-37498062D01*
X20660000Y-37498062D01*
X20660000Y-35138212D01*
X23915000Y-35138212D01*
X23915000Y-35361788D01*
X23958617Y-35581067D01*
X24044176Y-35787624D01*
X24168388Y-35973520D01*
X24326480Y-36131612D01*
X24512376Y-36255824D01*
X24718933Y-36341383D01*
X24938212Y-36385000D01*
X25161788Y-36385000D01*
X25381067Y-36341383D01*
X25485655Y-36298061D01*
X27365000Y-36298061D01*
X27365000Y-36501939D01*
X27404774Y-36701898D01*
X27482795Y-36890256D01*
X27596063Y-37059774D01*
X27740226Y-37203937D01*
X27909744Y-37317205D01*
X28098102Y-37395226D01*
X28298061Y-37435000D01*
X28501939Y-37435000D01*
X28701898Y-37395226D01*
X28890256Y-37317205D01*
X29059774Y-37203937D01*
X29203937Y-37059774D01*
X29317205Y-36890256D01*
X29395226Y-36701898D01*
X29435000Y-36501939D01*
X29435000Y-36298061D01*
X29395226Y-36098102D01*
X29317205Y-35909744D01*
X29203937Y-35740226D01*
X29059774Y-35596063D01*
X28890256Y-35482795D01*
X28701898Y-35404774D01*
X28501939Y-35365000D01*
X28298061Y-35365000D01*
X28098102Y-35404774D01*
X27909744Y-35482795D01*
X27740226Y-35596063D01*
X27596063Y-35740226D01*
X27482795Y-35909744D01*
X27404774Y-36098102D01*
X27365000Y-36298061D01*
X25485655Y-36298061D01*
X25587624Y-36255824D01*
X25773520Y-36131612D01*
X25931612Y-35973520D01*
X26055824Y-35787624D01*
X26141383Y-35581067D01*
X26185000Y-35361788D01*
X26185000Y-35138212D01*
X26141383Y-34918933D01*
X26055824Y-34712376D01*
X25931612Y-34526480D01*
X25773520Y-34368388D01*
X25587624Y-34244176D01*
X25476293Y-34198061D01*
X42215000Y-34198061D01*
X42215000Y-34401939D01*
X42254774Y-34601898D01*
X42332795Y-34790256D01*
X42446063Y-34959774D01*
X42590226Y-35103937D01*
X42759744Y-35217205D01*
X42948102Y-35295226D01*
X43148061Y-35335000D01*
X43351939Y-35335000D01*
X43551898Y-35295226D01*
X43740256Y-35217205D01*
X43909774Y-35103937D01*
X43961313Y-35052398D01*
X44040238Y-35131323D01*
X44209756Y-35244591D01*
X44398114Y-35322612D01*
X44598073Y-35362386D01*
X44801951Y-35362386D01*
X45001910Y-35322612D01*
X45190268Y-35244591D01*
X45359786Y-35131323D01*
X45503949Y-34987160D01*
X45617217Y-34817642D01*
X45695238Y-34629284D01*
X45735012Y-34429325D01*
X45735012Y-34225447D01*
X45695238Y-34025488D01*
X45617217Y-33837130D01*
X45503949Y-33667612D01*
X45359786Y-33523449D01*
X45190268Y-33410181D01*
X45001910Y-33332160D01*
X44801951Y-33292386D01*
X44598073Y-33292386D01*
X44398114Y-33332160D01*
X44209756Y-33410181D01*
X44040238Y-33523449D01*
X43988699Y-33574988D01*
X43909774Y-33496063D01*
X43740256Y-33382795D01*
X43551898Y-33304774D01*
X43351939Y-33265000D01*
X43148061Y-33265000D01*
X42948102Y-33304774D01*
X42759744Y-33382795D01*
X42590226Y-33496063D01*
X42446063Y-33640226D01*
X42332795Y-33809744D01*
X42254774Y-33998102D01*
X42215000Y-34198061D01*
X25476293Y-34198061D01*
X25381067Y-34158617D01*
X25161788Y-34115000D01*
X24938212Y-34115000D01*
X24718933Y-34158617D01*
X24512376Y-34244176D01*
X24326480Y-34368388D01*
X24168388Y-34526480D01*
X24044176Y-34712376D01*
X23958617Y-34918933D01*
X23915000Y-35138212D01*
X20660000Y-35138212D01*
X20660000Y-26398061D01*
X57965000Y-26398061D01*
X57965000Y-26601939D01*
X58004774Y-26801898D01*
X58082795Y-26990256D01*
X58196063Y-27159774D01*
X58340226Y-27303937D01*
X58509744Y-27417205D01*
X58698102Y-27495226D01*
X58898061Y-27535000D01*
X59101939Y-27535000D01*
X59301898Y-27495226D01*
X59490256Y-27417205D01*
X59659774Y-27303937D01*
X59803937Y-27159774D01*
X59917205Y-26990256D01*
X59995226Y-26801898D01*
X60035000Y-26601939D01*
X60035000Y-26398061D01*
X59995226Y-26198102D01*
X59917205Y-26009744D01*
X59803937Y-25840226D01*
X59659774Y-25696063D01*
X59490256Y-25582795D01*
X59301898Y-25504774D01*
X59101939Y-25465000D01*
X58898061Y-25465000D01*
X58698102Y-25504774D01*
X58509744Y-25582795D01*
X58340226Y-25696063D01*
X58196063Y-25840226D01*
X58082795Y-26009744D01*
X58004774Y-26198102D01*
X57965000Y-26398061D01*
X20660000Y-26398061D01*
X20660000Y-25298061D01*
X62565000Y-25298061D01*
X62565000Y-25501939D01*
X62604774Y-25701898D01*
X62682795Y-25890256D01*
X62796063Y-26059774D01*
X62940226Y-26203937D01*
X63109744Y-26317205D01*
X63188918Y-26350000D01*
X63109744Y-26382795D01*
X62940226Y-26496063D01*
X62796063Y-26640226D01*
X62682795Y-26809744D01*
X62604774Y-26998102D01*
X62565000Y-27198061D01*
X62565000Y-27401939D01*
X62604774Y-27601898D01*
X62682795Y-27790256D01*
X62796063Y-27959774D01*
X62940226Y-28103937D01*
X63109744Y-28217205D01*
X63298102Y-28295226D01*
X63498061Y-28335000D01*
X63701939Y-28335000D01*
X63901898Y-28295226D01*
X64090256Y-28217205D01*
X64259774Y-28103937D01*
X64403937Y-27959774D01*
X64517205Y-27790256D01*
X64595226Y-27601898D01*
X64635000Y-27401939D01*
X64635000Y-27198061D01*
X64595226Y-26998102D01*
X64517205Y-26809744D01*
X64403937Y-26640226D01*
X64259774Y-26496063D01*
X64090256Y-26382795D01*
X64011082Y-26350000D01*
X64090256Y-26317205D01*
X64259774Y-26203937D01*
X64403937Y-26059774D01*
X64517205Y-25890256D01*
X64595226Y-25701898D01*
X64635000Y-25501939D01*
X64635000Y-25298061D01*
X64595226Y-25098102D01*
X64517205Y-24909744D01*
X64403937Y-24740226D01*
X64259774Y-24596063D01*
X64090256Y-24482795D01*
X63901898Y-24404774D01*
X63701939Y-24365000D01*
X63498061Y-24365000D01*
X63298102Y-24404774D01*
X63109744Y-24482795D01*
X62940226Y-24596063D01*
X62796063Y-24740226D01*
X62682795Y-24909744D01*
X62604774Y-25098102D01*
X62565000Y-25298061D01*
X20660000Y-25298061D01*
X20660000Y-22779872D01*
X20765000Y-22779872D01*
X20765000Y-23220128D01*
X20850890Y-23651925D01*
X21019369Y-24058669D01*
X21263962Y-24424729D01*
X21575271Y-24736038D01*
X21941331Y-24980631D01*
X22348075Y-25149110D01*
X22779872Y-25235000D01*
X23220128Y-25235000D01*
X23651925Y-25149110D01*
X24058669Y-24980631D01*
X24424729Y-24736038D01*
X24736038Y-24424729D01*
X24980631Y-24058669D01*
X25149110Y-23651925D01*
X25235000Y-23220128D01*
X25235000Y-22779872D01*
X64765000Y-22779872D01*
X64765000Y-23220128D01*
X64850890Y-23651925D01*
X65019369Y-24058669D01*
X65263962Y-24424729D01*
X65575271Y-24736038D01*
X65941331Y-24980631D01*
X66348075Y-25149110D01*
X66779872Y-25235000D01*
X67220128Y-25235000D01*
X67651925Y-25149110D01*
X68058669Y-24980631D01*
X68424729Y-24736038D01*
X68736038Y-24424729D01*
X68980631Y-24058669D01*
X69149110Y-23651925D01*
X69235000Y-23220128D01*
X69235000Y-22779872D01*
X69149110Y-22348075D01*
X68980631Y-21941331D01*
X68736038Y-21575271D01*
X68424729Y-21263962D01*
X68058669Y-21019369D01*
X67651925Y-20850890D01*
X67220128Y-20765000D01*
X66779872Y-20765000D01*
X66348075Y-20850890D01*
X65941331Y-21019369D01*
X65575271Y-21263962D01*
X65263962Y-21575271D01*
X65019369Y-21941331D01*
X64850890Y-22348075D01*
X64765000Y-22779872D01*
X25235000Y-22779872D01*
X25149110Y-22348075D01*
X24980631Y-21941331D01*
X24736038Y-21575271D01*
X24424729Y-21263962D01*
X24058669Y-21019369D01*
X23651925Y-20850890D01*
X23220128Y-20765000D01*
X22779872Y-20765000D01*
X22348075Y-20850890D01*
X21941331Y-21019369D01*
X21575271Y-21263962D01*
X21263962Y-21575271D01*
X21019369Y-21941331D01*
X20850890Y-22348075D01*
X20765000Y-22779872D01*
X20660000Y-22779872D01*
X20660000Y-20660000D01*
X69340000Y-20660000D01*
X69340000Y-39232689D01*
G37*
G04 #@! TD.AperFunction*
G04 #@! TD*
M02*
