G04 #@! TF.GenerationSoftware,KiCad,Pcbnew,(5.1.9)-1*
G04 #@! TF.CreationDate,2021-01-07T21:38:47-08:00*
G04 #@! TF.ProjectId,Hermes,4865726d-6573-42e6-9b69-6361645f7063,rev?*
G04 #@! TF.SameCoordinates,Original*
G04 #@! TF.FileFunction,Copper,L1,Top*
G04 #@! TF.FilePolarity,Positive*
%FSLAX46Y46*%
G04 Gerber Fmt 4.6, Leading zero omitted, Abs format (unit mm)*
G04 Created by KiCad (PCBNEW (5.1.9)-1) date 2021-01-07 21:38:47*
%MOMM*%
%LPD*%
G01*
G04 APERTURE LIST*
G04 #@! TA.AperFunction,EtchedComponent*
%ADD10C,0.001000*%
G04 #@! TD*
G04 #@! TA.AperFunction,SMDPad,CuDef*
%ADD11C,0.100000*%
G04 #@! TD*
G04 #@! TA.AperFunction,SMDPad,CuDef*
%ADD12R,2.500000X1.200000*%
G04 #@! TD*
G04 #@! TA.AperFunction,SMDPad,CuDef*
%ADD13R,0.675000X0.250000*%
G04 #@! TD*
G04 #@! TA.AperFunction,SMDPad,CuDef*
%ADD14R,0.250000X0.675000*%
G04 #@! TD*
G04 #@! TA.AperFunction,SMDPad,CuDef*
%ADD15R,0.350000X0.500000*%
G04 #@! TD*
G04 #@! TA.AperFunction,SMDPad,CuDef*
%ADD16R,1.000000X1.550000*%
G04 #@! TD*
G04 #@! TA.AperFunction,ComponentPad*
%ADD17C,2.600000*%
G04 #@! TD*
G04 #@! TA.AperFunction,ComponentPad*
%ADD18R,2.600000X2.600000*%
G04 #@! TD*
G04 #@! TA.AperFunction,SMDPad,CuDef*
%ADD19R,3.000000X2.100000*%
G04 #@! TD*
G04 #@! TA.AperFunction,SMDPad,CuDef*
%ADD20R,1.600000X0.800000*%
G04 #@! TD*
G04 #@! TA.AperFunction,ComponentPad*
%ADD21O,1.550000X0.775000*%
G04 #@! TD*
G04 #@! TA.AperFunction,SMDPad,CuDef*
%ADD22R,1.550000X1.500000*%
G04 #@! TD*
G04 #@! TA.AperFunction,ComponentPad*
%ADD23O,0.650000X1.300000*%
G04 #@! TD*
G04 #@! TA.AperFunction,SMDPad,CuDef*
%ADD24R,1.350000X0.400000*%
G04 #@! TD*
G04 #@! TA.AperFunction,SMDPad,CuDef*
%ADD25R,1.117600X0.508000*%
G04 #@! TD*
G04 #@! TA.AperFunction,SMDPad,CuDef*
%ADD26R,1.200000X0.600000*%
G04 #@! TD*
G04 #@! TA.AperFunction,ComponentPad*
%ADD27R,1.700000X1.700000*%
G04 #@! TD*
G04 #@! TA.AperFunction,ComponentPad*
%ADD28O,1.700000X1.700000*%
G04 #@! TD*
G04 #@! TA.AperFunction,ViaPad*
%ADD29C,0.800000*%
G04 #@! TD*
G04 #@! TA.AperFunction,ViaPad*
%ADD30C,1.000000*%
G04 #@! TD*
G04 #@! TA.AperFunction,Conductor*
%ADD31C,0.250000*%
G04 #@! TD*
G04 #@! TA.AperFunction,Conductor*
%ADD32C,1.000000*%
G04 #@! TD*
G04 #@! TA.AperFunction,Conductor*
%ADD33C,0.500000*%
G04 #@! TD*
G04 APERTURE END LIST*
D10*
G04 #@! TO.C,J5*
G36*
X67780000Y-47700000D02*
G01*
X66225000Y-47700000D01*
X66225000Y-46502500D01*
X66425000Y-46502500D01*
X66425338Y-46514269D01*
X66426360Y-46527252D01*
X66428059Y-46540164D01*
X66430433Y-46552969D01*
X66433473Y-46565632D01*
X66437172Y-46578119D01*
X66441519Y-46590395D01*
X66446503Y-46602427D01*
X66452109Y-46614182D01*
X66458323Y-46625627D01*
X66465128Y-46636731D01*
X66472504Y-46647463D01*
X66480433Y-46657795D01*
X66488890Y-46667698D01*
X66497855Y-46677145D01*
X66507302Y-46686110D01*
X66517205Y-46694567D01*
X66527537Y-46702496D01*
X66538269Y-46709872D01*
X66549373Y-46716677D01*
X66560818Y-46722891D01*
X66572573Y-46728497D01*
X66584605Y-46733481D01*
X66596881Y-46737828D01*
X66609368Y-46741527D01*
X66622031Y-46744567D01*
X66634836Y-46746941D01*
X66647748Y-46748640D01*
X66660731Y-46749662D01*
X66675000Y-46750000D01*
X66685000Y-46750000D01*
X67315000Y-46750000D01*
X67325000Y-46750000D01*
X67338084Y-46749657D01*
X67351132Y-46748630D01*
X67364109Y-46746922D01*
X67376978Y-46744537D01*
X67389705Y-46741481D01*
X67402254Y-46737764D01*
X67414592Y-46733395D01*
X67426684Y-46728386D01*
X67438498Y-46722752D01*
X67450000Y-46716506D01*
X67461160Y-46709668D01*
X67471946Y-46702254D01*
X67482330Y-46694286D01*
X67492283Y-46685786D01*
X67501777Y-46676777D01*
X67510786Y-46667283D01*
X67519286Y-46657330D01*
X67527254Y-46646946D01*
X67534668Y-46636160D01*
X67541506Y-46625000D01*
X67547752Y-46613498D01*
X67553386Y-46601684D01*
X67558395Y-46589592D01*
X67562764Y-46577254D01*
X67566481Y-46564705D01*
X67569537Y-46551978D01*
X67571922Y-46539109D01*
X67573630Y-46526132D01*
X67574657Y-46513084D01*
X67575000Y-46500000D01*
X67574657Y-46486916D01*
X67573630Y-46473868D01*
X67571922Y-46460891D01*
X67569537Y-46448022D01*
X67566481Y-46435295D01*
X67562764Y-46422746D01*
X67558395Y-46410408D01*
X67553386Y-46398316D01*
X67547752Y-46386502D01*
X67541506Y-46375000D01*
X67534668Y-46363840D01*
X67527254Y-46353054D01*
X67519286Y-46342670D01*
X67510786Y-46332717D01*
X67501777Y-46323223D01*
X67492283Y-46314214D01*
X67482330Y-46305714D01*
X67471946Y-46297746D01*
X67461160Y-46290332D01*
X67450000Y-46283494D01*
X67438498Y-46277248D01*
X67426684Y-46271614D01*
X67414592Y-46266605D01*
X67402254Y-46262236D01*
X67389705Y-46258519D01*
X67376978Y-46255463D01*
X67364109Y-46253078D01*
X67351132Y-46251370D01*
X67338084Y-46250343D01*
X67325000Y-46250000D01*
X66675000Y-46250000D01*
X66660731Y-46250338D01*
X66647748Y-46251360D01*
X66634836Y-46253059D01*
X66622031Y-46255433D01*
X66609368Y-46258473D01*
X66596881Y-46262172D01*
X66584605Y-46266519D01*
X66572573Y-46271503D01*
X66560818Y-46277109D01*
X66549373Y-46283323D01*
X66538269Y-46290128D01*
X66527537Y-46297504D01*
X66517205Y-46305433D01*
X66507302Y-46313890D01*
X66497855Y-46322855D01*
X66488890Y-46332302D01*
X66480433Y-46342205D01*
X66472504Y-46352537D01*
X66465128Y-46363269D01*
X66458323Y-46374373D01*
X66452109Y-46385818D01*
X66446503Y-46397573D01*
X66441519Y-46409605D01*
X66437172Y-46421881D01*
X66433473Y-46434368D01*
X66430433Y-46447031D01*
X66428059Y-46459836D01*
X66426360Y-46472748D01*
X66425338Y-46485731D01*
X66425000Y-46497500D01*
X66225000Y-46497500D01*
X66225682Y-46472647D01*
X66227731Y-46446616D01*
X66231139Y-46420728D01*
X66235897Y-46395054D01*
X66241993Y-46369664D01*
X66249409Y-46344627D01*
X66258125Y-46320013D01*
X66268118Y-46295889D01*
X66279359Y-46272322D01*
X66291818Y-46249374D01*
X66305462Y-46227110D01*
X66320252Y-46205591D01*
X66336147Y-46184875D01*
X66353105Y-46165020D01*
X66371079Y-46146079D01*
X66390020Y-46128105D01*
X66409875Y-46111147D01*
X66430591Y-46095252D01*
X66452110Y-46080462D01*
X66474374Y-46066818D01*
X66497322Y-46054359D01*
X66520889Y-46043118D01*
X66545013Y-46033125D01*
X66569627Y-46024409D01*
X66594664Y-46016993D01*
X66620054Y-46010897D01*
X66645728Y-46006139D01*
X66671616Y-46002731D01*
X66697647Y-46000682D01*
X66725000Y-46000000D01*
X67275000Y-46000000D01*
X67301168Y-46000685D01*
X67327264Y-46002739D01*
X67353217Y-46006156D01*
X67378956Y-46010926D01*
X67404410Y-46017037D01*
X67429508Y-46024472D01*
X67454184Y-46033210D01*
X67478368Y-46043227D01*
X67501995Y-46054497D01*
X67525000Y-46066987D01*
X67547320Y-46080665D01*
X67568893Y-46095492D01*
X67589660Y-46111427D01*
X67609565Y-46128428D01*
X67628553Y-46146447D01*
X67646572Y-46165435D01*
X67663573Y-46185340D01*
X67679508Y-46206107D01*
X67694335Y-46227680D01*
X67708013Y-46250000D01*
X67720503Y-46273005D01*
X67731773Y-46296632D01*
X67741790Y-46320816D01*
X67750528Y-46345492D01*
X67757963Y-46370590D01*
X67764074Y-46396044D01*
X67768844Y-46421783D01*
X67772261Y-46447736D01*
X67774315Y-46473832D01*
X67775000Y-46500000D01*
X67775000Y-47695000D01*
X67780000Y-47695000D01*
X67780000Y-47700000D01*
G37*
X67780000Y-47700000D02*
X66225000Y-47700000D01*
X66225000Y-46502500D01*
X66425000Y-46502500D01*
X66425338Y-46514269D01*
X66426360Y-46527252D01*
X66428059Y-46540164D01*
X66430433Y-46552969D01*
X66433473Y-46565632D01*
X66437172Y-46578119D01*
X66441519Y-46590395D01*
X66446503Y-46602427D01*
X66452109Y-46614182D01*
X66458323Y-46625627D01*
X66465128Y-46636731D01*
X66472504Y-46647463D01*
X66480433Y-46657795D01*
X66488890Y-46667698D01*
X66497855Y-46677145D01*
X66507302Y-46686110D01*
X66517205Y-46694567D01*
X66527537Y-46702496D01*
X66538269Y-46709872D01*
X66549373Y-46716677D01*
X66560818Y-46722891D01*
X66572573Y-46728497D01*
X66584605Y-46733481D01*
X66596881Y-46737828D01*
X66609368Y-46741527D01*
X66622031Y-46744567D01*
X66634836Y-46746941D01*
X66647748Y-46748640D01*
X66660731Y-46749662D01*
X66675000Y-46750000D01*
X66685000Y-46750000D01*
X67315000Y-46750000D01*
X67325000Y-46750000D01*
X67338084Y-46749657D01*
X67351132Y-46748630D01*
X67364109Y-46746922D01*
X67376978Y-46744537D01*
X67389705Y-46741481D01*
X67402254Y-46737764D01*
X67414592Y-46733395D01*
X67426684Y-46728386D01*
X67438498Y-46722752D01*
X67450000Y-46716506D01*
X67461160Y-46709668D01*
X67471946Y-46702254D01*
X67482330Y-46694286D01*
X67492283Y-46685786D01*
X67501777Y-46676777D01*
X67510786Y-46667283D01*
X67519286Y-46657330D01*
X67527254Y-46646946D01*
X67534668Y-46636160D01*
X67541506Y-46625000D01*
X67547752Y-46613498D01*
X67553386Y-46601684D01*
X67558395Y-46589592D01*
X67562764Y-46577254D01*
X67566481Y-46564705D01*
X67569537Y-46551978D01*
X67571922Y-46539109D01*
X67573630Y-46526132D01*
X67574657Y-46513084D01*
X67575000Y-46500000D01*
X67574657Y-46486916D01*
X67573630Y-46473868D01*
X67571922Y-46460891D01*
X67569537Y-46448022D01*
X67566481Y-46435295D01*
X67562764Y-46422746D01*
X67558395Y-46410408D01*
X67553386Y-46398316D01*
X67547752Y-46386502D01*
X67541506Y-46375000D01*
X67534668Y-46363840D01*
X67527254Y-46353054D01*
X67519286Y-46342670D01*
X67510786Y-46332717D01*
X67501777Y-46323223D01*
X67492283Y-46314214D01*
X67482330Y-46305714D01*
X67471946Y-46297746D01*
X67461160Y-46290332D01*
X67450000Y-46283494D01*
X67438498Y-46277248D01*
X67426684Y-46271614D01*
X67414592Y-46266605D01*
X67402254Y-46262236D01*
X67389705Y-46258519D01*
X67376978Y-46255463D01*
X67364109Y-46253078D01*
X67351132Y-46251370D01*
X67338084Y-46250343D01*
X67325000Y-46250000D01*
X66675000Y-46250000D01*
X66660731Y-46250338D01*
X66647748Y-46251360D01*
X66634836Y-46253059D01*
X66622031Y-46255433D01*
X66609368Y-46258473D01*
X66596881Y-46262172D01*
X66584605Y-46266519D01*
X66572573Y-46271503D01*
X66560818Y-46277109D01*
X66549373Y-46283323D01*
X66538269Y-46290128D01*
X66527537Y-46297504D01*
X66517205Y-46305433D01*
X66507302Y-46313890D01*
X66497855Y-46322855D01*
X66488890Y-46332302D01*
X66480433Y-46342205D01*
X66472504Y-46352537D01*
X66465128Y-46363269D01*
X66458323Y-46374373D01*
X66452109Y-46385818D01*
X66446503Y-46397573D01*
X66441519Y-46409605D01*
X66437172Y-46421881D01*
X66433473Y-46434368D01*
X66430433Y-46447031D01*
X66428059Y-46459836D01*
X66426360Y-46472748D01*
X66425338Y-46485731D01*
X66425000Y-46497500D01*
X66225000Y-46497500D01*
X66225682Y-46472647D01*
X66227731Y-46446616D01*
X66231139Y-46420728D01*
X66235897Y-46395054D01*
X66241993Y-46369664D01*
X66249409Y-46344627D01*
X66258125Y-46320013D01*
X66268118Y-46295889D01*
X66279359Y-46272322D01*
X66291818Y-46249374D01*
X66305462Y-46227110D01*
X66320252Y-46205591D01*
X66336147Y-46184875D01*
X66353105Y-46165020D01*
X66371079Y-46146079D01*
X66390020Y-46128105D01*
X66409875Y-46111147D01*
X66430591Y-46095252D01*
X66452110Y-46080462D01*
X66474374Y-46066818D01*
X66497322Y-46054359D01*
X66520889Y-46043118D01*
X66545013Y-46033125D01*
X66569627Y-46024409D01*
X66594664Y-46016993D01*
X66620054Y-46010897D01*
X66645728Y-46006139D01*
X66671616Y-46002731D01*
X66697647Y-46000682D01*
X66725000Y-46000000D01*
X67275000Y-46000000D01*
X67301168Y-46000685D01*
X67327264Y-46002739D01*
X67353217Y-46006156D01*
X67378956Y-46010926D01*
X67404410Y-46017037D01*
X67429508Y-46024472D01*
X67454184Y-46033210D01*
X67478368Y-46043227D01*
X67501995Y-46054497D01*
X67525000Y-46066987D01*
X67547320Y-46080665D01*
X67568893Y-46095492D01*
X67589660Y-46111427D01*
X67609565Y-46128428D01*
X67628553Y-46146447D01*
X67646572Y-46165435D01*
X67663573Y-46185340D01*
X67679508Y-46206107D01*
X67694335Y-46227680D01*
X67708013Y-46250000D01*
X67720503Y-46273005D01*
X67731773Y-46296632D01*
X67741790Y-46320816D01*
X67750528Y-46345492D01*
X67757963Y-46370590D01*
X67764074Y-46396044D01*
X67768844Y-46421783D01*
X67772261Y-46447736D01*
X67774315Y-46473832D01*
X67775000Y-46500000D01*
X67775000Y-47695000D01*
X67780000Y-47695000D01*
X67780000Y-47700000D01*
G36*
X66220000Y-52300000D02*
G01*
X67775000Y-52300000D01*
X67775000Y-53497500D01*
X67575000Y-53497500D01*
X67574662Y-53485731D01*
X67573640Y-53472748D01*
X67571941Y-53459836D01*
X67569567Y-53447031D01*
X67566527Y-53434368D01*
X67562828Y-53421881D01*
X67558481Y-53409605D01*
X67553497Y-53397573D01*
X67547891Y-53385818D01*
X67541677Y-53374373D01*
X67534872Y-53363269D01*
X67527496Y-53352537D01*
X67519567Y-53342205D01*
X67511110Y-53332302D01*
X67502145Y-53322855D01*
X67492698Y-53313890D01*
X67482795Y-53305433D01*
X67472463Y-53297504D01*
X67461731Y-53290128D01*
X67450627Y-53283323D01*
X67439182Y-53277109D01*
X67427427Y-53271503D01*
X67415395Y-53266519D01*
X67403119Y-53262172D01*
X67390632Y-53258473D01*
X67377969Y-53255433D01*
X67365164Y-53253059D01*
X67352252Y-53251360D01*
X67339269Y-53250338D01*
X67325000Y-53250000D01*
X67315000Y-53250000D01*
X66685000Y-53250000D01*
X66675000Y-53250000D01*
X66661916Y-53250343D01*
X66648868Y-53251370D01*
X66635891Y-53253078D01*
X66623022Y-53255463D01*
X66610295Y-53258519D01*
X66597746Y-53262236D01*
X66585408Y-53266605D01*
X66573316Y-53271614D01*
X66561502Y-53277248D01*
X66550000Y-53283494D01*
X66538840Y-53290332D01*
X66528054Y-53297746D01*
X66517670Y-53305714D01*
X66507717Y-53314214D01*
X66498223Y-53323223D01*
X66489214Y-53332717D01*
X66480714Y-53342670D01*
X66472746Y-53353054D01*
X66465332Y-53363840D01*
X66458494Y-53375000D01*
X66452248Y-53386502D01*
X66446614Y-53398316D01*
X66441605Y-53410408D01*
X66437236Y-53422746D01*
X66433519Y-53435295D01*
X66430463Y-53448022D01*
X66428078Y-53460891D01*
X66426370Y-53473868D01*
X66425343Y-53486916D01*
X66425000Y-53500000D01*
X66425343Y-53513084D01*
X66426370Y-53526132D01*
X66428078Y-53539109D01*
X66430463Y-53551978D01*
X66433519Y-53564705D01*
X66437236Y-53577254D01*
X66441605Y-53589592D01*
X66446614Y-53601684D01*
X66452248Y-53613498D01*
X66458494Y-53625000D01*
X66465332Y-53636160D01*
X66472746Y-53646946D01*
X66480714Y-53657330D01*
X66489214Y-53667283D01*
X66498223Y-53676777D01*
X66507717Y-53685786D01*
X66517670Y-53694286D01*
X66528054Y-53702254D01*
X66538840Y-53709668D01*
X66550000Y-53716506D01*
X66561502Y-53722752D01*
X66573316Y-53728386D01*
X66585408Y-53733395D01*
X66597746Y-53737764D01*
X66610295Y-53741481D01*
X66623022Y-53744537D01*
X66635891Y-53746922D01*
X66648868Y-53748630D01*
X66661916Y-53749657D01*
X66675000Y-53750000D01*
X67325000Y-53750000D01*
X67339269Y-53749662D01*
X67352252Y-53748640D01*
X67365164Y-53746941D01*
X67377969Y-53744567D01*
X67390632Y-53741527D01*
X67403119Y-53737828D01*
X67415395Y-53733481D01*
X67427427Y-53728497D01*
X67439182Y-53722891D01*
X67450627Y-53716677D01*
X67461731Y-53709872D01*
X67472463Y-53702496D01*
X67482795Y-53694567D01*
X67492698Y-53686110D01*
X67502145Y-53677145D01*
X67511110Y-53667698D01*
X67519567Y-53657795D01*
X67527496Y-53647463D01*
X67534872Y-53636731D01*
X67541677Y-53625627D01*
X67547891Y-53614182D01*
X67553497Y-53602427D01*
X67558481Y-53590395D01*
X67562828Y-53578119D01*
X67566527Y-53565632D01*
X67569567Y-53552969D01*
X67571941Y-53540164D01*
X67573640Y-53527252D01*
X67574662Y-53514269D01*
X67575000Y-53502500D01*
X67775000Y-53502500D01*
X67774318Y-53527353D01*
X67772269Y-53553384D01*
X67768861Y-53579272D01*
X67764103Y-53604946D01*
X67758007Y-53630336D01*
X67750591Y-53655373D01*
X67741875Y-53679987D01*
X67731882Y-53704111D01*
X67720641Y-53727678D01*
X67708182Y-53750626D01*
X67694538Y-53772890D01*
X67679748Y-53794409D01*
X67663853Y-53815125D01*
X67646895Y-53834980D01*
X67628921Y-53853921D01*
X67609980Y-53871895D01*
X67590125Y-53888853D01*
X67569409Y-53904748D01*
X67547890Y-53919538D01*
X67525626Y-53933182D01*
X67502678Y-53945641D01*
X67479111Y-53956882D01*
X67454987Y-53966875D01*
X67430373Y-53975591D01*
X67405336Y-53983007D01*
X67379946Y-53989103D01*
X67354272Y-53993861D01*
X67328384Y-53997269D01*
X67302353Y-53999318D01*
X67275000Y-54000000D01*
X66725000Y-54000000D01*
X66698832Y-53999315D01*
X66672736Y-53997261D01*
X66646783Y-53993844D01*
X66621044Y-53989074D01*
X66595590Y-53982963D01*
X66570492Y-53975528D01*
X66545816Y-53966790D01*
X66521632Y-53956773D01*
X66498005Y-53945503D01*
X66475000Y-53933013D01*
X66452680Y-53919335D01*
X66431107Y-53904508D01*
X66410340Y-53888573D01*
X66390435Y-53871572D01*
X66371447Y-53853553D01*
X66353428Y-53834565D01*
X66336427Y-53814660D01*
X66320492Y-53793893D01*
X66305665Y-53772320D01*
X66291987Y-53750000D01*
X66279497Y-53726995D01*
X66268227Y-53703368D01*
X66258210Y-53679184D01*
X66249472Y-53654508D01*
X66242037Y-53629410D01*
X66235926Y-53603956D01*
X66231156Y-53578217D01*
X66227739Y-53552264D01*
X66225685Y-53526168D01*
X66225000Y-53500000D01*
X66225000Y-52305000D01*
X66220000Y-52305000D01*
X66220000Y-52300000D01*
G37*
X66220000Y-52300000D02*
X67775000Y-52300000D01*
X67775000Y-53497500D01*
X67575000Y-53497500D01*
X67574662Y-53485731D01*
X67573640Y-53472748D01*
X67571941Y-53459836D01*
X67569567Y-53447031D01*
X67566527Y-53434368D01*
X67562828Y-53421881D01*
X67558481Y-53409605D01*
X67553497Y-53397573D01*
X67547891Y-53385818D01*
X67541677Y-53374373D01*
X67534872Y-53363269D01*
X67527496Y-53352537D01*
X67519567Y-53342205D01*
X67511110Y-53332302D01*
X67502145Y-53322855D01*
X67492698Y-53313890D01*
X67482795Y-53305433D01*
X67472463Y-53297504D01*
X67461731Y-53290128D01*
X67450627Y-53283323D01*
X67439182Y-53277109D01*
X67427427Y-53271503D01*
X67415395Y-53266519D01*
X67403119Y-53262172D01*
X67390632Y-53258473D01*
X67377969Y-53255433D01*
X67365164Y-53253059D01*
X67352252Y-53251360D01*
X67339269Y-53250338D01*
X67325000Y-53250000D01*
X67315000Y-53250000D01*
X66685000Y-53250000D01*
X66675000Y-53250000D01*
X66661916Y-53250343D01*
X66648868Y-53251370D01*
X66635891Y-53253078D01*
X66623022Y-53255463D01*
X66610295Y-53258519D01*
X66597746Y-53262236D01*
X66585408Y-53266605D01*
X66573316Y-53271614D01*
X66561502Y-53277248D01*
X66550000Y-53283494D01*
X66538840Y-53290332D01*
X66528054Y-53297746D01*
X66517670Y-53305714D01*
X66507717Y-53314214D01*
X66498223Y-53323223D01*
X66489214Y-53332717D01*
X66480714Y-53342670D01*
X66472746Y-53353054D01*
X66465332Y-53363840D01*
X66458494Y-53375000D01*
X66452248Y-53386502D01*
X66446614Y-53398316D01*
X66441605Y-53410408D01*
X66437236Y-53422746D01*
X66433519Y-53435295D01*
X66430463Y-53448022D01*
X66428078Y-53460891D01*
X66426370Y-53473868D01*
X66425343Y-53486916D01*
X66425000Y-53500000D01*
X66425343Y-53513084D01*
X66426370Y-53526132D01*
X66428078Y-53539109D01*
X66430463Y-53551978D01*
X66433519Y-53564705D01*
X66437236Y-53577254D01*
X66441605Y-53589592D01*
X66446614Y-53601684D01*
X66452248Y-53613498D01*
X66458494Y-53625000D01*
X66465332Y-53636160D01*
X66472746Y-53646946D01*
X66480714Y-53657330D01*
X66489214Y-53667283D01*
X66498223Y-53676777D01*
X66507717Y-53685786D01*
X66517670Y-53694286D01*
X66528054Y-53702254D01*
X66538840Y-53709668D01*
X66550000Y-53716506D01*
X66561502Y-53722752D01*
X66573316Y-53728386D01*
X66585408Y-53733395D01*
X66597746Y-53737764D01*
X66610295Y-53741481D01*
X66623022Y-53744537D01*
X66635891Y-53746922D01*
X66648868Y-53748630D01*
X66661916Y-53749657D01*
X66675000Y-53750000D01*
X67325000Y-53750000D01*
X67339269Y-53749662D01*
X67352252Y-53748640D01*
X67365164Y-53746941D01*
X67377969Y-53744567D01*
X67390632Y-53741527D01*
X67403119Y-53737828D01*
X67415395Y-53733481D01*
X67427427Y-53728497D01*
X67439182Y-53722891D01*
X67450627Y-53716677D01*
X67461731Y-53709872D01*
X67472463Y-53702496D01*
X67482795Y-53694567D01*
X67492698Y-53686110D01*
X67502145Y-53677145D01*
X67511110Y-53667698D01*
X67519567Y-53657795D01*
X67527496Y-53647463D01*
X67534872Y-53636731D01*
X67541677Y-53625627D01*
X67547891Y-53614182D01*
X67553497Y-53602427D01*
X67558481Y-53590395D01*
X67562828Y-53578119D01*
X67566527Y-53565632D01*
X67569567Y-53552969D01*
X67571941Y-53540164D01*
X67573640Y-53527252D01*
X67574662Y-53514269D01*
X67575000Y-53502500D01*
X67775000Y-53502500D01*
X67774318Y-53527353D01*
X67772269Y-53553384D01*
X67768861Y-53579272D01*
X67764103Y-53604946D01*
X67758007Y-53630336D01*
X67750591Y-53655373D01*
X67741875Y-53679987D01*
X67731882Y-53704111D01*
X67720641Y-53727678D01*
X67708182Y-53750626D01*
X67694538Y-53772890D01*
X67679748Y-53794409D01*
X67663853Y-53815125D01*
X67646895Y-53834980D01*
X67628921Y-53853921D01*
X67609980Y-53871895D01*
X67590125Y-53888853D01*
X67569409Y-53904748D01*
X67547890Y-53919538D01*
X67525626Y-53933182D01*
X67502678Y-53945641D01*
X67479111Y-53956882D01*
X67454987Y-53966875D01*
X67430373Y-53975591D01*
X67405336Y-53983007D01*
X67379946Y-53989103D01*
X67354272Y-53993861D01*
X67328384Y-53997269D01*
X67302353Y-53999318D01*
X67275000Y-54000000D01*
X66725000Y-54000000D01*
X66698832Y-53999315D01*
X66672736Y-53997261D01*
X66646783Y-53993844D01*
X66621044Y-53989074D01*
X66595590Y-53982963D01*
X66570492Y-53975528D01*
X66545816Y-53966790D01*
X66521632Y-53956773D01*
X66498005Y-53945503D01*
X66475000Y-53933013D01*
X66452680Y-53919335D01*
X66431107Y-53904508D01*
X66410340Y-53888573D01*
X66390435Y-53871572D01*
X66371447Y-53853553D01*
X66353428Y-53834565D01*
X66336427Y-53814660D01*
X66320492Y-53793893D01*
X66305665Y-53772320D01*
X66291987Y-53750000D01*
X66279497Y-53726995D01*
X66268227Y-53703368D01*
X66258210Y-53679184D01*
X66249472Y-53654508D01*
X66242037Y-53629410D01*
X66235926Y-53603956D01*
X66231156Y-53578217D01*
X66227739Y-53552264D01*
X66225685Y-53526168D01*
X66225000Y-53500000D01*
X66225000Y-52305000D01*
X66220000Y-52305000D01*
X66220000Y-52300000D01*
G04 #@! TD*
G04 #@! TA.AperFunction,SMDPad,CuDef*
D11*
G04 #@! TO.P,IC1,49*
G04 #@! TO.N,Net-(IC1-Pad49)*
G36*
X45000000Y-47536515D02*
G01*
X47963485Y-50500000D01*
X45000000Y-53463485D01*
X42036515Y-50500000D01*
X45000000Y-47536515D01*
G37*
G04 #@! TD.AperFunction*
G04 #@! TA.AperFunction,SMDPad,CuDef*
G04 #@! TO.P,IC1,48*
G04 #@! TO.N,Net-(IC1-Pad48)*
G36*
X49238681Y-50607763D02*
G01*
X49813418Y-51182500D01*
X49633813Y-51362105D01*
X49059076Y-50787368D01*
X49238681Y-50607763D01*
G37*
G04 #@! TD.AperFunction*
G04 #@! TA.AperFunction,SMDPad,CuDef*
G04 #@! TO.P,IC1,47*
G04 #@! TO.N,Net-(IC1-Pad47)*
G36*
X48879470Y-50966973D02*
G01*
X49454207Y-51541710D01*
X49274602Y-51721315D01*
X48699865Y-51146578D01*
X48879470Y-50966973D01*
G37*
G04 #@! TD.AperFunction*
G04 #@! TA.AperFunction,SMDPad,CuDef*
G04 #@! TO.P,IC1,46*
G04 #@! TO.N,SWDIO*
G36*
X48520260Y-51326183D02*
G01*
X49094997Y-51900920D01*
X48915392Y-52080525D01*
X48340655Y-51505788D01*
X48520260Y-51326183D01*
G37*
G04 #@! TD.AperFunction*
G04 #@! TA.AperFunction,SMDPad,CuDef*
G04 #@! TO.P,IC1,45*
G04 #@! TO.N,SWCLK*
G36*
X48161050Y-51685394D02*
G01*
X48735787Y-52260131D01*
X48556182Y-52439736D01*
X47981445Y-51864999D01*
X48161050Y-51685394D01*
G37*
G04 #@! TD.AperFunction*
G04 #@! TA.AperFunction,SMDPad,CuDef*
G04 #@! TO.P,IC1,44*
G04 #@! TO.N,VDDIO*
G36*
X47801840Y-52044604D02*
G01*
X48376577Y-52619341D01*
X48196972Y-52798946D01*
X47622235Y-52224209D01*
X47801840Y-52044604D01*
G37*
G04 #@! TD.AperFunction*
G04 #@! TA.AperFunction,SMDPad,CuDef*
G04 #@! TO.P,IC1,43*
G04 #@! TO.N,Net-(C10-Pad1)*
G36*
X47442629Y-52403814D02*
G01*
X48017366Y-52978551D01*
X47837761Y-53158156D01*
X47263024Y-52583419D01*
X47442629Y-52403814D01*
G37*
G04 #@! TD.AperFunction*
G04 #@! TA.AperFunction,SMDPad,CuDef*
G04 #@! TO.P,IC1,42*
G04 #@! TO.N,GND*
G36*
X47083419Y-52763024D02*
G01*
X47658156Y-53337761D01*
X47478551Y-53517366D01*
X46903814Y-52942629D01*
X47083419Y-52763024D01*
G37*
G04 #@! TD.AperFunction*
G04 #@! TA.AperFunction,SMDPad,CuDef*
G04 #@! TO.P,IC1,41*
G04 #@! TO.N,Net-(IC1-Pad41)*
G36*
X46724209Y-53122235D02*
G01*
X47298946Y-53696972D01*
X47119341Y-53876577D01*
X46544604Y-53301840D01*
X46724209Y-53122235D01*
G37*
G04 #@! TD.AperFunction*
G04 #@! TA.AperFunction,SMDPad,CuDef*
G04 #@! TO.P,IC1,40*
G04 #@! TO.N,TG_RESET*
G36*
X46364999Y-53481445D02*
G01*
X46939736Y-54056182D01*
X46760131Y-54235787D01*
X46185394Y-53661050D01*
X46364999Y-53481445D01*
G37*
G04 #@! TD.AperFunction*
G04 #@! TA.AperFunction,SMDPad,CuDef*
G04 #@! TO.P,IC1,39*
G04 #@! TO.N,Net-(IC1-Pad39)*
G36*
X46005788Y-53840655D02*
G01*
X46580525Y-54415392D01*
X46400920Y-54594997D01*
X45826183Y-54020260D01*
X46005788Y-53840655D01*
G37*
G04 #@! TD.AperFunction*
G04 #@! TA.AperFunction,SMDPad,CuDef*
G04 #@! TO.P,IC1,38*
G04 #@! TO.N,Net-(IC1-Pad38)*
G36*
X45646578Y-54199865D02*
G01*
X46221315Y-54774602D01*
X46041710Y-54954207D01*
X45466973Y-54379470D01*
X45646578Y-54199865D01*
G37*
G04 #@! TD.AperFunction*
G04 #@! TA.AperFunction,SMDPad,CuDef*
G04 #@! TO.P,IC1,37*
G04 #@! TO.N,Net-(IC1-Pad37)*
G36*
X45287368Y-54559076D02*
G01*
X45862105Y-55133813D01*
X45682500Y-55313418D01*
X45107763Y-54738681D01*
X45287368Y-54559076D01*
G37*
G04 #@! TD.AperFunction*
G04 #@! TA.AperFunction,SMDPad,CuDef*
G04 #@! TO.P,IC1,36*
G04 #@! TO.N,VDDIO*
G36*
X44137895Y-55133813D02*
G01*
X44712632Y-54559076D01*
X44892237Y-54738681D01*
X44317500Y-55313418D01*
X44137895Y-55133813D01*
G37*
G04 #@! TD.AperFunction*
G04 #@! TA.AperFunction,SMDPad,CuDef*
G04 #@! TO.P,IC1,35*
G04 #@! TO.N,Net-(IC1-Pad35)*
G36*
X43778685Y-54774602D02*
G01*
X44353422Y-54199865D01*
X44533027Y-54379470D01*
X43958290Y-54954207D01*
X43778685Y-54774602D01*
G37*
G04 #@! TD.AperFunction*
G04 #@! TA.AperFunction,SMDPad,CuDef*
G04 #@! TO.P,IC1,34*
G04 #@! TO.N,USB_D+*
G36*
X43419475Y-54415392D02*
G01*
X43994212Y-53840655D01*
X44173817Y-54020260D01*
X43599080Y-54594997D01*
X43419475Y-54415392D01*
G37*
G04 #@! TD.AperFunction*
G04 #@! TA.AperFunction,SMDPad,CuDef*
G04 #@! TO.P,IC1,33*
G04 #@! TO.N,USB_D-*
G36*
X43060264Y-54056182D02*
G01*
X43635001Y-53481445D01*
X43814606Y-53661050D01*
X43239869Y-54235787D01*
X43060264Y-54056182D01*
G37*
G04 #@! TD.AperFunction*
G04 #@! TA.AperFunction,SMDPad,CuDef*
G04 #@! TO.P,IC1,32*
G04 #@! TO.N,SCL*
G36*
X42701054Y-53696972D02*
G01*
X43275791Y-53122235D01*
X43455396Y-53301840D01*
X42880659Y-53876577D01*
X42701054Y-53696972D01*
G37*
G04 #@! TD.AperFunction*
G04 #@! TA.AperFunction,SMDPad,CuDef*
G04 #@! TO.P,IC1,31*
G04 #@! TO.N,SDA*
G36*
X42341844Y-53337761D02*
G01*
X42916581Y-52763024D01*
X43096186Y-52942629D01*
X42521449Y-53517366D01*
X42341844Y-53337761D01*
G37*
G04 #@! TD.AperFunction*
G04 #@! TA.AperFunction,SMDPad,CuDef*
G04 #@! TO.P,IC1,30*
G04 #@! TO.N,PY3*
G36*
X41982634Y-52978551D02*
G01*
X42557371Y-52403814D01*
X42736976Y-52583419D01*
X42162239Y-53158156D01*
X41982634Y-52978551D01*
G37*
G04 #@! TD.AperFunction*
G04 #@! TA.AperFunction,SMDPad,CuDef*
G04 #@! TO.P,IC1,29*
G04 #@! TO.N,PROP_Z*
G36*
X41623423Y-52619341D02*
G01*
X42198160Y-52044604D01*
X42377765Y-52224209D01*
X41803028Y-52798946D01*
X41623423Y-52619341D01*
G37*
G04 #@! TD.AperFunction*
G04 #@! TA.AperFunction,SMDPad,CuDef*
G04 #@! TO.P,IC1,28*
G04 #@! TO.N,MISO*
G36*
X41264213Y-52260131D02*
G01*
X41838950Y-51685394D01*
X42018555Y-51864999D01*
X41443818Y-52439736D01*
X41264213Y-52260131D01*
G37*
G04 #@! TD.AperFunction*
G04 #@! TA.AperFunction,SMDPad,CuDef*
G04 #@! TO.P,IC1,27*
G04 #@! TO.N,PY2*
G36*
X40905003Y-51900920D02*
G01*
X41479740Y-51326183D01*
X41659345Y-51505788D01*
X41084608Y-52080525D01*
X40905003Y-51900920D01*
G37*
G04 #@! TD.AperFunction*
G04 #@! TA.AperFunction,SMDPad,CuDef*
G04 #@! TO.P,IC1,26*
G04 #@! TO.N,PY1*
G36*
X40545793Y-51541710D02*
G01*
X41120530Y-50966973D01*
X41300135Y-51146578D01*
X40725398Y-51721315D01*
X40545793Y-51541710D01*
G37*
G04 #@! TD.AperFunction*
G04 #@! TA.AperFunction,SMDPad,CuDef*
G04 #@! TO.P,IC1,25*
G04 #@! TO.N,MOSI*
G36*
X40186582Y-51182500D02*
G01*
X40761319Y-50607763D01*
X40940924Y-50787368D01*
X40366187Y-51362105D01*
X40186582Y-51182500D01*
G37*
G04 #@! TD.AperFunction*
G04 #@! TA.AperFunction,SMDPad,CuDef*
G04 #@! TO.P,IC1,24*
G04 #@! TO.N,PROP_Y*
G36*
X40366187Y-49637895D02*
G01*
X40940924Y-50212632D01*
X40761319Y-50392237D01*
X40186582Y-49817500D01*
X40366187Y-49637895D01*
G37*
G04 #@! TD.AperFunction*
G04 #@! TA.AperFunction,SMDPad,CuDef*
G04 #@! TO.P,IC1,23*
G04 #@! TO.N,LEDB*
G36*
X40725398Y-49278685D02*
G01*
X41300135Y-49853422D01*
X41120530Y-50033027D01*
X40545793Y-49458290D01*
X40725398Y-49278685D01*
G37*
G04 #@! TD.AperFunction*
G04 #@! TA.AperFunction,SMDPad,CuDef*
G04 #@! TO.P,IC1,22*
G04 #@! TO.N,Net-(IC1-Pad22)*
G36*
X41084608Y-48919475D02*
G01*
X41659345Y-49494212D01*
X41479740Y-49673817D01*
X40905003Y-49099080D01*
X41084608Y-48919475D01*
G37*
G04 #@! TD.AperFunction*
G04 #@! TA.AperFunction,SMDPad,CuDef*
G04 #@! TO.P,IC1,21*
G04 #@! TO.N,Net-(IC1-Pad21)*
G36*
X41443818Y-48560264D02*
G01*
X42018555Y-49135001D01*
X41838950Y-49314606D01*
X41264213Y-48739869D01*
X41443818Y-48560264D01*
G37*
G04 #@! TD.AperFunction*
G04 #@! TA.AperFunction,SMDPad,CuDef*
G04 #@! TO.P,IC1,20*
G04 #@! TO.N,Net-(IC1-Pad20)*
G36*
X41803028Y-48201054D02*
G01*
X42377765Y-48775791D01*
X42198160Y-48955396D01*
X41623423Y-48380659D01*
X41803028Y-48201054D01*
G37*
G04 #@! TD.AperFunction*
G04 #@! TA.AperFunction,SMDPad,CuDef*
G04 #@! TO.P,IC1,19*
G04 #@! TO.N,Net-(IC1-Pad19)*
G36*
X42162239Y-47841844D02*
G01*
X42736976Y-48416581D01*
X42557371Y-48596186D01*
X41982634Y-48021449D01*
X42162239Y-47841844D01*
G37*
G04 #@! TD.AperFunction*
G04 #@! TA.AperFunction,SMDPad,CuDef*
G04 #@! TO.P,IC1,18*
G04 #@! TO.N,Net-(IC1-Pad18)*
G36*
X42521449Y-47482634D02*
G01*
X43096186Y-48057371D01*
X42916581Y-48236976D01*
X42341844Y-47662239D01*
X42521449Y-47482634D01*
G37*
G04 #@! TD.AperFunction*
G04 #@! TA.AperFunction,SMDPad,CuDef*
G04 #@! TO.P,IC1,17*
G04 #@! TO.N,VDDIO*
G36*
X42880659Y-47123423D02*
G01*
X43455396Y-47698160D01*
X43275791Y-47877765D01*
X42701054Y-47303028D01*
X42880659Y-47123423D01*
G37*
G04 #@! TD.AperFunction*
G04 #@! TA.AperFunction,SMDPad,CuDef*
G04 #@! TO.P,IC1,16*
G04 #@! TO.N,RX*
G36*
X43239869Y-46764213D02*
G01*
X43814606Y-47338950D01*
X43635001Y-47518555D01*
X43060264Y-46943818D01*
X43239869Y-46764213D01*
G37*
G04 #@! TD.AperFunction*
G04 #@! TA.AperFunction,SMDPad,CuDef*
G04 #@! TO.P,IC1,15*
G04 #@! TO.N,FLASH_CS*
G36*
X43599080Y-46405003D02*
G01*
X44173817Y-46979740D01*
X43994212Y-47159345D01*
X43419475Y-46584608D01*
X43599080Y-46405003D01*
G37*
G04 #@! TD.AperFunction*
G04 #@! TA.AperFunction,SMDPad,CuDef*
G04 #@! TO.P,IC1,14*
G04 #@! TO.N,LEDG*
G36*
X43958290Y-46045793D02*
G01*
X44533027Y-46620530D01*
X44353422Y-46800135D01*
X43778685Y-46225398D01*
X43958290Y-46045793D01*
G37*
G04 #@! TD.AperFunction*
G04 #@! TA.AperFunction,SMDPad,CuDef*
G04 #@! TO.P,IC1,13*
G04 #@! TO.N,LEDR*
G36*
X44317500Y-45686582D02*
G01*
X44892237Y-46261319D01*
X44712632Y-46440924D01*
X44137895Y-45866187D01*
X44317500Y-45686582D01*
G37*
G04 #@! TD.AperFunction*
G04 #@! TA.AperFunction,SMDPad,CuDef*
G04 #@! TO.P,IC1,12*
G04 #@! TO.N,TVCY*
G36*
X45107763Y-46261319D02*
G01*
X45682500Y-45686582D01*
X45862105Y-45866187D01*
X45287368Y-46440924D01*
X45107763Y-46261319D01*
G37*
G04 #@! TD.AperFunction*
G04 #@! TA.AperFunction,SMDPad,CuDef*
G04 #@! TO.P,IC1,11*
G04 #@! TO.N,TVCZ*
G36*
X45466973Y-46620530D02*
G01*
X46041710Y-46045793D01*
X46221315Y-46225398D01*
X45646578Y-46800135D01*
X45466973Y-46620530D01*
G37*
G04 #@! TD.AperFunction*
G04 #@! TA.AperFunction,SMDPad,CuDef*
G04 #@! TO.P,IC1,10*
G04 #@! TO.N,Net-(IC1-Pad10)*
G36*
X45826183Y-46979740D02*
G01*
X46400920Y-46405003D01*
X46580525Y-46584608D01*
X46005788Y-47159345D01*
X45826183Y-46979740D01*
G37*
G04 #@! TD.AperFunction*
G04 #@! TA.AperFunction,SMDPad,CuDef*
G04 #@! TO.P,IC1,9*
G04 #@! TO.N,Net-(IC1-Pad9)*
G36*
X46185394Y-47338950D02*
G01*
X46760131Y-46764213D01*
X46939736Y-46943818D01*
X46364999Y-47518555D01*
X46185394Y-47338950D01*
G37*
G04 #@! TD.AperFunction*
G04 #@! TA.AperFunction,SMDPad,CuDef*
G04 #@! TO.P,IC1,8*
G04 #@! TO.N,Net-(IC1-Pad8)*
G36*
X46544604Y-47698160D02*
G01*
X47119341Y-47123423D01*
X47298946Y-47303028D01*
X46724209Y-47877765D01*
X46544604Y-47698160D01*
G37*
G04 #@! TD.AperFunction*
G04 #@! TA.AperFunction,SMDPad,CuDef*
G04 #@! TO.P,IC1,7*
G04 #@! TO.N,VOLTAGE*
G36*
X46903814Y-48057371D02*
G01*
X47478551Y-47482634D01*
X47658156Y-47662239D01*
X47083419Y-48236976D01*
X46903814Y-48057371D01*
G37*
G04 #@! TD.AperFunction*
G04 #@! TA.AperFunction,SMDPad,CuDef*
G04 #@! TO.P,IC1,6*
G04 #@! TO.N,Net-(C2-Pad1)*
G36*
X47263024Y-48416581D02*
G01*
X47837761Y-47841844D01*
X48017366Y-48021449D01*
X47442629Y-48596186D01*
X47263024Y-48416581D01*
G37*
G04 #@! TD.AperFunction*
G04 #@! TA.AperFunction,SMDPad,CuDef*
G04 #@! TO.P,IC1,5*
G04 #@! TO.N,GND*
G36*
X47622235Y-48775791D02*
G01*
X48196972Y-48201054D01*
X48376577Y-48380659D01*
X47801840Y-48955396D01*
X47622235Y-48775791D01*
G37*
G04 #@! TD.AperFunction*
G04 #@! TA.AperFunction,SMDPad,CuDef*
G04 #@! TO.P,IC1,4*
G04 #@! TO.N,Net-(IC1-Pad4)*
G36*
X47981445Y-49135001D02*
G01*
X48556182Y-48560264D01*
X48735787Y-48739869D01*
X48161050Y-49314606D01*
X47981445Y-49135001D01*
G37*
G04 #@! TD.AperFunction*
G04 #@! TA.AperFunction,SMDPad,CuDef*
G04 #@! TO.P,IC1,3*
G04 #@! TO.N,Net-(IC1-Pad3)*
G36*
X48340655Y-49494212D02*
G01*
X48915392Y-48919475D01*
X49094997Y-49099080D01*
X48520260Y-49673817D01*
X48340655Y-49494212D01*
G37*
G04 #@! TD.AperFunction*
G04 #@! TA.AperFunction,SMDPad,CuDef*
G04 #@! TO.P,IC1,2*
G04 #@! TO.N,Net-(C3-Pad2)*
G36*
X48699865Y-49853422D02*
G01*
X49274602Y-49278685D01*
X49454207Y-49458290D01*
X48879470Y-50033027D01*
X48699865Y-49853422D01*
G37*
G04 #@! TD.AperFunction*
G04 #@! TA.AperFunction,SMDPad,CuDef*
G04 #@! TO.P,IC1,1*
G04 #@! TO.N,Net-(C4-Pad2)*
G36*
X49059076Y-50212632D02*
G01*
X49633813Y-49637895D01*
X49813418Y-49817500D01*
X49238681Y-50392237D01*
X49059076Y-50212632D01*
G37*
G04 #@! TD.AperFunction*
G04 #@! TD*
D12*
G04 #@! TO.P,S2,6*
G04 #@! TO.N,Net-(S2-Pad6)*
X47750000Y-63500000D03*
G04 #@! TO.P,S2,5*
G04 #@! TO.N,Net-(S2-Pad5)*
X47750000Y-66000000D03*
G04 #@! TO.P,S2,4*
G04 #@! TO.N,Net-(S2-Pad4)*
X47750000Y-68500000D03*
G04 #@! TO.P,S2,3*
G04 #@! TO.N,Net-(S2-Pad3)*
X42250000Y-68500000D03*
G04 #@! TO.P,S2,2*
G04 #@! TO.N,PWR_SW*
X42250000Y-66000000D03*
G04 #@! TO.P,S2,1*
G04 #@! TO.N,VDDIO*
X42250000Y-63500000D03*
G04 #@! TD*
D13*
G04 #@! TO.P,U2,16*
G04 #@! TO.N,Net-(U2-Pad16)*
X43085000Y-80000000D03*
D14*
G04 #@! TO.P,U2,15*
G04 #@! TO.N,Net-(U2-Pad15)*
X43500000Y-81165000D03*
G04 #@! TO.P,U2,14*
G04 #@! TO.N,VDDIO*
X44000000Y-81165000D03*
G04 #@! TO.P,U2,13*
G04 #@! TO.N,Net-(U2-Pad13)*
X44500000Y-81165000D03*
G04 #@! TO.P,U2,12*
G04 #@! TO.N,Net-(U2-Pad12)*
X45000000Y-81165000D03*
G04 #@! TO.P,U2,11*
G04 #@! TO.N,VDDIO*
X45500000Y-81165000D03*
G04 #@! TO.P,U2,10*
G04 #@! TO.N,Net-(U2-Pad10)*
X46000000Y-81165000D03*
G04 #@! TO.P,U2,9*
G04 #@! TO.N,SDA*
X46500000Y-81165000D03*
D13*
G04 #@! TO.P,U2,8*
G04 #@! TO.N,SCL*
X46915000Y-80000000D03*
D14*
G04 #@! TO.P,U2,7*
G04 #@! TO.N,VDDIO*
X46500000Y-78835000D03*
G04 #@! TO.P,U2,6*
G04 #@! TO.N,GND*
X46000000Y-78835000D03*
G04 #@! TO.P,U2,5*
G04 #@! TO.N,Net-(U2-Pad5)*
X45500000Y-78835000D03*
G04 #@! TO.P,U2,4*
G04 #@! TO.N,GND*
X45000000Y-78835000D03*
G04 #@! TO.P,U2,3*
G04 #@! TO.N,VDDIO*
X44500000Y-78835000D03*
G04 #@! TO.P,U2,2*
G04 #@! TO.N,N/C*
X44000000Y-78835000D03*
G04 #@! TO.P,U2,1*
G04 #@! TO.N,Net-(U2-Pad1)*
X43500000Y-78835000D03*
G04 #@! TD*
D15*
G04 #@! TO.P,U3,8*
G04 #@! TO.N,VDDIO*
X39975000Y-79200000D03*
G04 #@! TO.P,U3,7*
G04 #@! TO.N,GND*
X39325000Y-79200000D03*
G04 #@! TO.P,U3,6*
G04 #@! TO.N,VDDIO*
X38675000Y-79200000D03*
G04 #@! TO.P,U3,5*
G04 #@! TO.N,Net-(U3-Pad5)*
X38025000Y-79200000D03*
G04 #@! TO.P,U3,4*
G04 #@! TO.N,SCL*
X38025000Y-80800000D03*
G04 #@! TO.P,U3,3*
G04 #@! TO.N,SDA*
X38675000Y-80800000D03*
G04 #@! TO.P,U3,2*
G04 #@! TO.N,VDDIO*
X39325000Y-80800000D03*
G04 #@! TO.P,U3,1*
G04 #@! TO.N,GND*
X39975000Y-80800000D03*
G04 #@! TD*
D16*
G04 #@! TO.P,S1,4*
G04 #@! TO.N,GND*
X25550000Y-58575000D03*
G04 #@! TO.P,S1,3*
G04 #@! TO.N,Net-(S1-Pad3)*
X25550000Y-63825000D03*
G04 #@! TO.P,S1,2*
G04 #@! TO.N,Net-(S1-Pad2)*
X22350000Y-58575000D03*
G04 #@! TO.P,S1,1*
G04 #@! TO.N,RESET*
X22350000Y-63825000D03*
G04 #@! TD*
D17*
G04 #@! TO.P,J17,2*
G04 #@! TO.N,R_OUT*
X66000000Y-91750000D03*
D18*
G04 #@! TO.P,J17,1*
G04 #@! TO.N,Net-(J17-Pad1)*
X66000000Y-88250000D03*
G04 #@! TD*
D17*
G04 #@! TO.P,J16,2*
G04 #@! TO.N,R_OUT*
X66000000Y-82750000D03*
D18*
G04 #@! TO.P,J16,1*
G04 #@! TO.N,Net-(J16-Pad1)*
X66000000Y-79250000D03*
G04 #@! TD*
D17*
G04 #@! TO.P,J15,2*
G04 #@! TO.N,R_OUT*
X66000000Y-73750000D03*
D18*
G04 #@! TO.P,J15,1*
G04 #@! TO.N,Net-(J15-Pad1)*
X66000000Y-70250000D03*
G04 #@! TD*
D17*
G04 #@! TO.P,J12,2*
G04 #@! TO.N,VDDIO*
X24000000Y-79250000D03*
D18*
G04 #@! TO.P,J12,1*
G04 #@! TO.N,PWR_SW*
X24000000Y-82750000D03*
G04 #@! TD*
D17*
G04 #@! TO.P,J11,2*
G04 #@! TO.N,R_IN*
X66000000Y-64750000D03*
D18*
G04 #@! TO.P,J11,1*
G04 #@! TO.N,GND*
X66000000Y-61250000D03*
G04 #@! TD*
D17*
G04 #@! TO.P,J9,2*
G04 #@! TO.N,VDDIO*
X24000000Y-88250000D03*
D18*
G04 #@! TO.P,J9,1*
G04 #@! TO.N,GND*
X24000000Y-91750000D03*
G04 #@! TD*
D17*
G04 #@! TO.P,J8,2*
G04 #@! TO.N,+5V*
X24000000Y-70250000D03*
D18*
G04 #@! TO.P,J8,1*
G04 #@! TO.N,GND*
X24000000Y-73750000D03*
G04 #@! TD*
D19*
G04 #@! TO.P,J6,MP2*
G04 #@! TO.N,Net-(J6-PadMP2)*
X24000000Y-54425000D03*
G04 #@! TO.P,J6,MP1*
G04 #@! TO.N,Net-(J6-PadMP1)*
X24000000Y-45575000D03*
D20*
G04 #@! TO.P,J6,4*
G04 #@! TO.N,GND*
X26900000Y-51875000D03*
G04 #@! TO.P,J6,3*
G04 #@! TO.N,SDA*
X26900000Y-50625000D03*
G04 #@! TO.P,J6,2*
G04 #@! TO.N,SCL*
X26900000Y-49375000D03*
G04 #@! TO.P,J6,1*
G04 #@! TO.N,+5V*
X26900000Y-48125000D03*
G04 #@! TD*
D21*
G04 #@! TO.P,J5,S6*
G04 #@! TO.N,N/C*
X67000000Y-46500000D03*
D22*
G04 #@! TO.P,J5,S5*
X67000000Y-49000000D03*
G04 #@! TO.P,J5,S4*
X67000000Y-51000000D03*
D21*
G04 #@! TO.P,J5,S3*
X67000000Y-53500000D03*
D23*
G04 #@! TO.P,J5,S2*
X64300000Y-47500000D03*
G04 #@! TO.P,J5,S1*
X64300000Y-52500000D03*
D24*
G04 #@! TO.P,J5,5*
G04 #@! TO.N,GND*
X64300000Y-48700000D03*
G04 #@! TO.P,J5,4*
G04 #@! TO.N,Net-(J5-Pad4)*
X64300000Y-49350000D03*
G04 #@! TO.P,J5,3*
G04 #@! TO.N,Net-(D1-Pad3)*
X64300000Y-50000000D03*
G04 #@! TO.P,J5,2*
G04 #@! TO.N,Net-(D1-Pad1)*
X64300000Y-50650000D03*
G04 #@! TO.P,J5,1*
G04 #@! TO.N,Net-(FB1-Pad2)*
X64300000Y-51300000D03*
G04 #@! TD*
G04 #@! TO.P,FB1,2*
G04 #@! TO.N,Net-(FB1-Pad2)*
G04 #@! TA.AperFunction,SMDPad,CuDef*
G36*
G01*
X61350000Y-53256250D02*
X61350000Y-52743750D01*
G75*
G02*
X61568750Y-52525000I218750J0D01*
G01*
X62006250Y-52525000D01*
G75*
G02*
X62225000Y-52743750I0J-218750D01*
G01*
X62225000Y-53256250D01*
G75*
G02*
X62006250Y-53475000I-218750J0D01*
G01*
X61568750Y-53475000D01*
G75*
G02*
X61350000Y-53256250I0J218750D01*
G01*
G37*
G04 #@! TD.AperFunction*
G04 #@! TO.P,FB1,1*
G04 #@! TO.N,Net-(C1-Pad2)*
G04 #@! TA.AperFunction,SMDPad,CuDef*
G36*
G01*
X59775000Y-53256250D02*
X59775000Y-52743750D01*
G75*
G02*
X59993750Y-52525000I218750J0D01*
G01*
X60431250Y-52525000D01*
G75*
G02*
X60650000Y-52743750I0J-218750D01*
G01*
X60650000Y-53256250D01*
G75*
G02*
X60431250Y-53475000I-218750J0D01*
G01*
X59993750Y-53475000D01*
G75*
G02*
X59775000Y-53256250I0J218750D01*
G01*
G37*
G04 #@! TD.AperFunction*
G04 #@! TD*
G04 #@! TO.P,F1,2*
G04 #@! TO.N,VBUS*
G04 #@! TA.AperFunction,SMDPad,CuDef*
G36*
G01*
X56750000Y-49943750D02*
X56750000Y-50856250D01*
G75*
G02*
X56506250Y-51100000I-243750J0D01*
G01*
X56018750Y-51100000D01*
G75*
G02*
X55775000Y-50856250I0J243750D01*
G01*
X55775000Y-49943750D01*
G75*
G02*
X56018750Y-49700000I243750J0D01*
G01*
X56506250Y-49700000D01*
G75*
G02*
X56750000Y-49943750I0J-243750D01*
G01*
G37*
G04 #@! TD.AperFunction*
G04 #@! TO.P,F1,1*
G04 #@! TO.N,Net-(C1-Pad2)*
G04 #@! TA.AperFunction,SMDPad,CuDef*
G36*
G01*
X58625000Y-49943750D02*
X58625000Y-50856250D01*
G75*
G02*
X58381250Y-51100000I-243750J0D01*
G01*
X57893750Y-51100000D01*
G75*
G02*
X57650000Y-50856250I0J243750D01*
G01*
X57650000Y-49943750D01*
G75*
G02*
X57893750Y-49700000I243750J0D01*
G01*
X58381250Y-49700000D01*
G75*
G02*
X58625000Y-49943750I0J-243750D01*
G01*
G37*
G04 #@! TD.AperFunction*
G04 #@! TD*
D25*
G04 #@! TO.P,D4,2*
G04 #@! TO.N,GND*
X46624000Y-35899999D03*
G04 #@! TO.P,D4,4*
G04 #@! TO.N,Net-(D4-Pad4)*
X46624000Y-36750000D03*
G04 #@! TO.P,D4,6*
G04 #@! TO.N,Net-(D4-Pad6)*
X46624000Y-37600001D03*
G04 #@! TO.P,D4,5*
G04 #@! TO.N,Net-(D4-Pad5)*
X43576000Y-37600001D03*
G04 #@! TO.P,D4,3*
G04 #@! TO.N,GND*
X43576000Y-36750000D03*
G04 #@! TO.P,D4,1*
X43576000Y-35899999D03*
G04 #@! TD*
G04 #@! TO.P,D3,2*
G04 #@! TO.N,VDDIO*
G04 #@! TA.AperFunction,SMDPad,CuDef*
G36*
G01*
X66950000Y-40600001D02*
X66950000Y-39699999D01*
G75*
G02*
X67199999Y-39450000I249999J0D01*
G01*
X67850001Y-39450000D01*
G75*
G02*
X68100000Y-39699999I0J-249999D01*
G01*
X68100000Y-40600001D01*
G75*
G02*
X67850001Y-40850000I-249999J0D01*
G01*
X67199999Y-40850000D01*
G75*
G02*
X66950000Y-40600001I0J249999D01*
G01*
G37*
G04 #@! TD.AperFunction*
G04 #@! TO.P,D3,1*
G04 #@! TO.N,Net-(D3-Pad1)*
G04 #@! TA.AperFunction,SMDPad,CuDef*
G36*
G01*
X64900000Y-40600001D02*
X64900000Y-39699999D01*
G75*
G02*
X65149999Y-39450000I249999J0D01*
G01*
X65800001Y-39450000D01*
G75*
G02*
X66050000Y-39699999I0J-249999D01*
G01*
X66050000Y-40600001D01*
G75*
G02*
X65800001Y-40850000I-249999J0D01*
G01*
X65149999Y-40850000D01*
G75*
G02*
X64900000Y-40600001I0J249999D01*
G01*
G37*
G04 #@! TD.AperFunction*
G04 #@! TD*
D26*
G04 #@! TO.P,D1,6*
G04 #@! TO.N,USB_D-*
X59850000Y-51350000D03*
G04 #@! TO.P,D1,5*
G04 #@! TO.N,Net-(C1-Pad2)*
X59850000Y-50400000D03*
G04 #@! TO.P,D1,4*
G04 #@! TO.N,USB_D+*
X59850000Y-49450000D03*
G04 #@! TO.P,D1,3*
G04 #@! TO.N,Net-(D1-Pad3)*
X62150000Y-49450000D03*
G04 #@! TO.P,D1,2*
G04 #@! TO.N,GND*
X62150000Y-50400000D03*
G04 #@! TO.P,D1,1*
G04 #@! TO.N,Net-(D1-Pad1)*
X62150000Y-51350000D03*
G04 #@! TD*
G04 #@! TO.P,C1,2*
G04 #@! TO.N,Net-(C1-Pad2)*
G04 #@! TA.AperFunction,SMDPad,CuDef*
G36*
G01*
X60550000Y-54325000D02*
X60550000Y-55275000D01*
G75*
G02*
X60300000Y-55525000I-250000J0D01*
G01*
X59800000Y-55525000D01*
G75*
G02*
X59550000Y-55275000I0J250000D01*
G01*
X59550000Y-54325000D01*
G75*
G02*
X59800000Y-54075000I250000J0D01*
G01*
X60300000Y-54075000D01*
G75*
G02*
X60550000Y-54325000I0J-250000D01*
G01*
G37*
G04 #@! TD.AperFunction*
G04 #@! TO.P,C1,1*
G04 #@! TO.N,GND*
G04 #@! TA.AperFunction,SMDPad,CuDef*
G36*
G01*
X62450000Y-54325000D02*
X62450000Y-55275000D01*
G75*
G02*
X62200000Y-55525000I-250000J0D01*
G01*
X61700000Y-55525000D01*
G75*
G02*
X61450000Y-55275000I0J250000D01*
G01*
X61450000Y-54325000D01*
G75*
G02*
X61700000Y-54075000I250000J0D01*
G01*
X62200000Y-54075000D01*
G75*
G02*
X62450000Y-54325000I0J-250000D01*
G01*
G37*
G04 #@! TD.AperFunction*
G04 #@! TD*
D27*
G04 #@! TO.P,J1,1*
G04 #@! TO.N,GND*
X46750000Y-98050000D03*
D28*
G04 #@! TO.P,J1,2*
G04 #@! TO.N,+5V*
X46750000Y-95510000D03*
G04 #@! TO.P,J1,3*
G04 #@! TO.N,TVCY*
X46750000Y-92970000D03*
G04 #@! TD*
G04 #@! TO.P,J2,3*
G04 #@! TO.N,TVCZ*
X50350000Y-92970000D03*
G04 #@! TO.P,J2,2*
G04 #@! TO.N,+5V*
X50350000Y-95510000D03*
D27*
G04 #@! TO.P,J2,1*
G04 #@! TO.N,GND*
X50350000Y-98050000D03*
G04 #@! TD*
G04 #@! TO.P,J3,1*
G04 #@! TO.N,GND*
X43150000Y-98050000D03*
D28*
G04 #@! TO.P,J3,2*
G04 #@! TO.N,+5V*
X43150000Y-95510000D03*
G04 #@! TO.P,J3,3*
G04 #@! TO.N,PROP_Z*
X43150000Y-92970000D03*
G04 #@! TD*
G04 #@! TO.P,J4,3*
G04 #@! TO.N,PROP_Y*
X39550000Y-92970000D03*
G04 #@! TO.P,J4,2*
G04 #@! TO.N,+5V*
X39550000Y-95510000D03*
D27*
G04 #@! TO.P,J4,1*
G04 #@! TO.N,GND*
X39550000Y-98050000D03*
G04 #@! TD*
D20*
G04 #@! TO.P,J7,1*
G04 #@! TO.N,+5V*
X26900000Y-35125000D03*
G04 #@! TO.P,J7,2*
G04 #@! TO.N,FLASH_CS*
X26900000Y-36375000D03*
G04 #@! TO.P,J7,3*
G04 #@! TO.N,RX*
X26900000Y-37625000D03*
G04 #@! TO.P,J7,4*
G04 #@! TO.N,GND*
X26900000Y-38875000D03*
D19*
G04 #@! TO.P,J7,MP1*
G04 #@! TO.N,Net-(J7-PadMP1)*
X24000000Y-32575000D03*
G04 #@! TO.P,J7,MP2*
G04 #@! TO.N,Net-(J7-PadMP2)*
X24000000Y-41425000D03*
G04 #@! TD*
D29*
G04 #@! TO.N,GND*
X40100000Y-78300000D03*
X41000000Y-78300000D03*
X41700000Y-81700000D03*
X40500000Y-81699994D03*
X45600000Y-82200002D03*
X46000000Y-77900000D03*
X46900000Y-77900000D03*
X63400000Y-54800000D03*
X56700000Y-31600000D03*
X56700000Y-34000000D03*
X32200000Y-29100000D03*
X56500000Y-62250000D03*
X55250000Y-64250000D03*
X54250000Y-75250000D03*
X55250000Y-75250000D03*
X56250000Y-75250000D03*
X54250000Y-80000000D03*
X55250000Y-80000000D03*
X56250000Y-80000000D03*
X54250000Y-87000000D03*
X55250000Y-87000000D03*
X56250000Y-87000000D03*
X44450000Y-75500000D03*
X28400000Y-38900000D03*
X54800000Y-22700000D03*
X31650000Y-54400000D03*
X67400000Y-43900000D03*
X49421207Y-43871207D03*
X33337340Y-59037340D03*
X47925000Y-55300000D03*
X60500000Y-48150000D03*
X63050000Y-47450000D03*
X59000004Y-24000000D03*
X59000000Y-25299994D03*
X31700000Y-65600072D03*
X38100000Y-46400000D03*
X46600000Y-59600000D03*
X53000000Y-53800000D03*
X35150000Y-60100000D03*
X42250000Y-36750000D03*
X42250002Y-35850000D03*
X56100000Y-41900000D03*
X45450001Y-35899999D03*
X51473843Y-56473841D03*
X24100000Y-56750002D03*
X42550000Y-32200000D03*
X28324990Y-51900000D03*
X24899990Y-57050000D03*
X24899990Y-67450000D03*
X49100000Y-48150000D03*
X50900000Y-43900000D03*
X53275000Y-48200000D03*
X59826048Y-36326048D03*
G04 #@! TO.N,Net-(C2-Pad1)*
X48550000Y-47250000D03*
G04 #@! TO.N,Net-(C3-Pad2)*
X50150000Y-48200000D03*
G04 #@! TO.N,Net-(C4-Pad2)*
X50150000Y-49250000D03*
G04 #@! TO.N,VDDIO*
X38700000Y-78300000D03*
X39391964Y-81705940D03*
X44500000Y-77800000D03*
X44000000Y-82100000D03*
X35300000Y-64600000D03*
X48945452Y-53413301D03*
X68850000Y-40150000D03*
X59000000Y-26500000D03*
X45537340Y-59562660D03*
D30*
X42250000Y-62100000D03*
D29*
X44259108Y-56014082D03*
X41985373Y-46714627D03*
D30*
G04 #@! TO.N,+5V*
X44250000Y-70450000D03*
X42141636Y-72508364D03*
X24950000Y-48150000D03*
X25050000Y-35250000D03*
X33300000Y-72550000D03*
X38275010Y-72508364D03*
D29*
G04 #@! TO.N,Net-(C10-Pad1)*
X48750000Y-54500000D03*
G04 #@! TO.N,TG_RESET*
X46800000Y-55300000D03*
X43900000Y-43150000D03*
X43800000Y-41400000D03*
G04 #@! TO.N,PWR_SW*
X54150000Y-40850000D03*
X41612659Y-58262661D03*
X56050000Y-40800000D03*
G04 #@! TO.N,VBUS*
X55200000Y-50300000D03*
G04 #@! TO.N,Net-(D3-Pad1)*
X65700000Y-41500000D03*
G04 #@! TO.N,Net-(D4-Pad5)*
X44749999Y-37600001D03*
G04 #@! TO.N,Net-(D4-Pad6)*
X47900000Y-37650000D03*
G04 #@! TO.N,Net-(D4-Pad4)*
X47900001Y-36699989D03*
G04 #@! TO.N,VOLTAGE*
X56150000Y-43000000D03*
G04 #@! TO.N,TVCZ*
X54900000Y-52400000D03*
X54125010Y-44000000D03*
G04 #@! TO.N,TVCY*
X52600000Y-43200000D03*
X46049998Y-62050002D03*
G04 #@! TO.N,LEDR*
X52000000Y-38750000D03*
G04 #@! TO.N,LEDG*
X50300000Y-40850000D03*
G04 #@! TO.N,FLASH_CS*
X28400000Y-36400000D03*
G04 #@! TO.N,RX*
X38100010Y-44200000D03*
G04 #@! TO.N,LEDB*
X39988972Y-45346262D03*
X44700012Y-34327386D03*
X43250000Y-34300000D03*
G04 #@! TO.N,PROP_Y*
X39100000Y-49350000D03*
G04 #@! TO.N,MOSI*
X35874979Y-53948247D03*
G04 #@! TO.N,PY1*
X39325000Y-52100000D03*
G04 #@! TO.N,PY2*
X38524990Y-52900000D03*
G04 #@! TO.N,MISO*
X35124990Y-57950000D03*
G04 #@! TO.N,PROP_Z*
X43450000Y-62050000D03*
X40000000Y-54594140D03*
G04 #@! TO.N,PY3*
X37799980Y-57250000D03*
G04 #@! TO.N,SDA*
X29749992Y-57522994D03*
X40525044Y-57050000D03*
X36025000Y-78350000D03*
G04 #@! TO.N,SCL*
X28350000Y-49500000D03*
X28988180Y-59010039D03*
X42423843Y-56926157D03*
X35974840Y-79650160D03*
X28999988Y-53100000D03*
G04 #@! TO.N,SWCLK*
X63600000Y-25400000D03*
G04 #@! TO.N,SWDIO*
X63600000Y-27300000D03*
G04 #@! TO.N,R_IN*
X60500000Y-43000000D03*
X62200000Y-43000000D03*
G04 #@! TO.N,SCK*
X34627001Y-51834833D03*
X34400000Y-59000000D03*
G04 #@! TO.N,RESET*
X27950000Y-63600000D03*
X30600000Y-53000000D03*
X35750000Y-50850000D03*
G04 #@! TO.N,Net-(J15-Pad1)*
X62597182Y-73902818D03*
X62500000Y-70750000D03*
G04 #@! TD*
D31*
G04 #@! TO.N,GND*
X39725000Y-78300000D02*
X40100000Y-78300000D01*
X39325000Y-78700000D02*
X39725000Y-78300000D01*
X39325000Y-79200000D02*
X39325000Y-78700000D01*
X39975000Y-80800000D02*
X39975000Y-81174994D01*
X39975000Y-81174994D02*
X40500000Y-81699994D01*
X45473002Y-77900000D02*
X46000000Y-77900000D01*
X45000000Y-78373002D02*
X45473002Y-77900000D01*
X45000000Y-78835000D02*
X45000000Y-78373002D01*
X46000000Y-78835000D02*
X46000000Y-77900000D01*
X46000000Y-77900000D02*
X46900000Y-77900000D01*
X61950000Y-54800000D02*
X63400000Y-54800000D01*
X28375000Y-38875000D02*
X28400000Y-38900000D01*
X26900000Y-38875000D02*
X28375000Y-38875000D01*
X47650009Y-55025009D02*
X47925000Y-55300000D01*
X47650009Y-53509219D02*
X47650009Y-55025009D01*
X47280985Y-53140195D02*
X47650009Y-53509219D01*
X61025000Y-48675000D02*
X60500000Y-48150000D01*
X61025000Y-50125000D02*
X61025000Y-48675000D01*
X61300000Y-50400000D02*
X61025000Y-50125000D01*
X62150000Y-50400000D02*
X61300000Y-50400000D01*
X63050000Y-48375000D02*
X63050000Y-47450000D01*
X63375000Y-48700000D02*
X63050000Y-48375000D01*
X64300000Y-48700000D02*
X63375000Y-48700000D01*
X43576000Y-36750000D02*
X42250000Y-36750000D01*
X43576000Y-35899999D02*
X42300001Y-35899999D01*
X42300001Y-35899999D02*
X42250002Y-35850000D01*
X46624000Y-35899999D02*
X45450001Y-35899999D01*
X28299990Y-51875000D02*
X28324990Y-51900000D01*
X26900000Y-51875000D02*
X28299990Y-51875000D01*
X25700000Y-58575000D02*
X25700000Y-57850010D01*
X25700000Y-57850010D02*
X24899990Y-57050000D01*
X49000000Y-48050000D02*
X49100000Y-48150000D01*
X48527631Y-48050000D02*
X49000000Y-48050000D01*
X47999406Y-48578225D02*
X48527631Y-48050000D01*
G04 #@! TO.N,Net-(C1-Pad2)*
X60050000Y-53162500D02*
X60212500Y-53000000D01*
X60050000Y-54800000D02*
X60050000Y-53162500D01*
X59850000Y-50400000D02*
X58137500Y-50400000D01*
X60500002Y-50400000D02*
X59850000Y-50400000D01*
X60775001Y-50674999D02*
X60500002Y-50400000D01*
X60775001Y-52437499D02*
X60775001Y-50674999D01*
X60212500Y-53000000D02*
X60775001Y-52437499D01*
G04 #@! TO.N,Net-(C2-Pad1)*
X48550000Y-47309210D02*
X47640195Y-48219015D01*
X48550000Y-47250000D02*
X48550000Y-47309210D01*
G04 #@! TO.N,Net-(C3-Pad2)*
X49420007Y-48929993D02*
X49420007Y-49312885D01*
X50150000Y-48200000D02*
X49420007Y-48929993D01*
X49420007Y-49312885D02*
X49077036Y-49655856D01*
G04 #@! TO.N,Net-(C4-Pad2)*
X50150000Y-49301313D02*
X49436247Y-50015066D01*
X50150000Y-49250000D02*
X50150000Y-49301313D01*
G04 #@! TO.N,VDDIO*
X46500000Y-79382502D02*
X46500000Y-78835000D01*
X46385001Y-79497501D02*
X46500000Y-79382502D01*
X44614999Y-79497501D02*
X46385001Y-79497501D01*
X44500000Y-79382502D02*
X44614999Y-79497501D01*
X44500000Y-78835000D02*
X44500000Y-79382502D01*
X38675000Y-78325000D02*
X38700000Y-78300000D01*
X38675000Y-79200000D02*
X38675000Y-78325000D01*
X39325000Y-80800000D02*
X39325000Y-81638976D01*
X39325000Y-81638976D02*
X39391964Y-81705940D01*
X44500000Y-78835000D02*
X44500000Y-77800000D01*
X44000000Y-82100000D02*
X44000000Y-81165000D01*
X45500000Y-80617498D02*
X45500000Y-81165000D01*
X45385001Y-80502499D02*
X45500000Y-80617498D01*
X44114999Y-80502499D02*
X45385001Y-80502499D01*
X44000000Y-80617498D02*
X44114999Y-80502499D01*
X44000000Y-81165000D02*
X44000000Y-80617498D01*
X39760001Y-79775001D02*
X38850001Y-79775001D01*
X39975000Y-79560002D02*
X39760001Y-79775001D01*
X39975000Y-79200000D02*
X39975000Y-79560002D01*
X38675000Y-79600000D02*
X38675000Y-79200000D01*
X38850001Y-79775001D02*
X38675000Y-79600000D01*
X48945452Y-53367821D02*
X48945452Y-53413301D01*
X47999406Y-52421775D02*
X48945452Y-53367821D01*
X67525000Y-40150000D02*
X68850000Y-40150000D01*
D32*
X42250000Y-63500000D02*
X42250000Y-62100000D01*
D31*
X44050000Y-55804974D02*
X44259108Y-56014082D01*
X44050000Y-55401313D02*
X44050000Y-55804974D01*
X44515066Y-54936247D02*
X44050000Y-55401313D01*
X42292258Y-46714627D02*
X43078225Y-47500594D01*
X41985373Y-46714627D02*
X42292258Y-46714627D01*
D32*
G04 #@! TO.N,+5V*
X44200000Y-70450000D02*
X42141636Y-72508364D01*
X44250000Y-70450000D02*
X44200000Y-70450000D01*
X26875000Y-48150000D02*
X26900000Y-48125000D01*
X24950000Y-48150000D02*
X26875000Y-48150000D01*
X26775000Y-35250000D02*
X26900000Y-35125000D01*
X25050000Y-35250000D02*
X26775000Y-35250000D01*
X38233374Y-72550000D02*
X38275010Y-72508364D01*
X33300000Y-72550000D02*
X38233374Y-72550000D01*
D31*
G04 #@! TO.N,Net-(C10-Pad1)*
X48220451Y-53361241D02*
X47640195Y-52780985D01*
X48750000Y-54500000D02*
X48220451Y-53970451D01*
X48220451Y-53970451D02*
X48220451Y-53361241D01*
G04 #@! TO.N,TG_RESET*
X47199999Y-54496050D02*
X47199999Y-54900001D01*
X46562565Y-53858616D02*
X47199999Y-54496050D01*
X47199999Y-54900001D02*
X46800000Y-55300000D01*
X43900000Y-43150000D02*
X43900000Y-41500000D01*
X43900000Y-41500000D02*
X43800000Y-41400000D01*
D32*
G04 #@! TO.N,PWR_SW*
X40150000Y-66000000D02*
X42250000Y-66000000D01*
X37849999Y-68300001D02*
X40150000Y-66000000D01*
X33949999Y-68300001D02*
X37849999Y-68300001D01*
X30000000Y-72250000D02*
X33949999Y-68300001D01*
X30000000Y-79500000D02*
X30000000Y-72250000D01*
X26750000Y-82750000D02*
X30000000Y-79500000D01*
X24000000Y-82750000D02*
X26750000Y-82750000D01*
D33*
X40150000Y-66000000D02*
X40150000Y-59725320D01*
X40150000Y-59725320D02*
X41612659Y-58262661D01*
X54200000Y-40800000D02*
X54150000Y-40850000D01*
X56050000Y-40800000D02*
X54200000Y-40800000D01*
D31*
G04 #@! TO.N,Net-(D1-Pad1)*
X62675000Y-51350000D02*
X62150000Y-51350000D01*
X63375000Y-50650000D02*
X62675000Y-51350000D01*
X64300000Y-50650000D02*
X63375000Y-50650000D01*
G04 #@! TO.N,Net-(D1-Pad3)*
X62685002Y-49450000D02*
X62150000Y-49450000D01*
X63235002Y-50000000D02*
X62685002Y-49450000D01*
X64300000Y-50000000D02*
X63235002Y-50000000D01*
G04 #@! TO.N,USB_D+*
X43453675Y-54560797D02*
X43796646Y-54217826D01*
X43453675Y-56281651D02*
X43453675Y-54560797D01*
X47583919Y-56739083D02*
X43911107Y-56739083D01*
X55073002Y-49250000D02*
X47583919Y-56739083D01*
X43911107Y-56739083D02*
X43453675Y-56281651D01*
X58850000Y-49450000D02*
X58650000Y-49250000D01*
X58650000Y-49250000D02*
X55073002Y-49250000D01*
X59850000Y-49450000D02*
X58850000Y-49450000D01*
G04 #@! TO.N,USB_D-*
X43003665Y-54292386D02*
X43437435Y-53858616D01*
X43003665Y-56468051D02*
X43003665Y-54292386D01*
X43724706Y-57189092D02*
X43003665Y-56468051D01*
X53359412Y-51600000D02*
X47770319Y-57189093D01*
X58900000Y-51600000D02*
X53359412Y-51600000D01*
X47770319Y-57189093D02*
X43724706Y-57189092D01*
X59100000Y-51400000D02*
X58900000Y-51600000D01*
X59800000Y-51400000D02*
X59100000Y-51400000D01*
X59850000Y-51350000D02*
X59800000Y-51400000D01*
D33*
G04 #@! TO.N,VBUS*
X56262500Y-50400000D02*
X55300000Y-50400000D01*
X55300000Y-50400000D02*
X55200000Y-50300000D01*
D31*
G04 #@! TO.N,Net-(D3-Pad1)*
X65700000Y-40375000D02*
X65475000Y-40150000D01*
X65700000Y-41500000D02*
X65700000Y-40375000D01*
G04 #@! TO.N,Net-(D4-Pad5)*
X43576000Y-37600001D02*
X44749999Y-37600001D01*
G04 #@! TO.N,Net-(D4-Pad6)*
X46624000Y-37600001D02*
X47800001Y-37600001D01*
X47800001Y-37600001D02*
X47900000Y-37700000D01*
G04 #@! TO.N,Net-(D4-Pad4)*
X46624000Y-36750000D02*
X47849990Y-36750000D01*
X47849990Y-36750000D02*
X47900001Y-36699989D01*
G04 #@! TO.N,Net-(FB1-Pad2)*
X62750000Y-53000000D02*
X61787500Y-53000000D01*
X63250000Y-52500000D02*
X62750000Y-53000000D01*
X63250000Y-51526408D02*
X63250000Y-52500000D01*
X63476408Y-51300000D02*
X63250000Y-51526408D01*
X64300000Y-51300000D02*
X63476408Y-51300000D01*
G04 #@! TO.N,VOLTAGE*
X47824999Y-47236610D02*
X47824999Y-46901999D01*
X47280985Y-47859805D02*
X47280985Y-47780624D01*
X47280985Y-47780624D02*
X47824999Y-47236610D01*
X47824999Y-46901999D02*
X50001997Y-44725001D01*
X50001997Y-44725001D02*
X54474999Y-44725001D01*
X54474999Y-44725001D02*
X56150000Y-43050000D01*
X56150000Y-43050000D02*
X56150000Y-43000000D01*
G04 #@! TO.N,TVCZ*
X54334315Y-52400000D02*
X54900000Y-52400000D01*
X53300000Y-52400000D02*
X54334315Y-52400000D01*
X49500000Y-56200000D02*
X53300000Y-52400000D01*
X49500000Y-92120000D02*
X49500000Y-56200000D01*
X50350000Y-92970000D02*
X49500000Y-92120000D01*
X45844144Y-46422964D02*
X49192109Y-43074999D01*
X52173002Y-44000000D02*
X54125010Y-44000000D01*
X49192109Y-43074999D02*
X51248001Y-43074999D01*
X51248001Y-43074999D02*
X52173002Y-44000000D01*
G04 #@! TO.N,TVCY*
X46049998Y-70049998D02*
X46049998Y-62050002D01*
X48900000Y-72900000D02*
X46049998Y-70049998D01*
X48900000Y-90820000D02*
X48900000Y-72900000D01*
X46750000Y-92970000D02*
X48900000Y-90820000D01*
X52024988Y-42624988D02*
X52600000Y-43200000D01*
X48923699Y-42624988D02*
X52024988Y-42624988D01*
X45484934Y-46063753D02*
X48923699Y-42624988D01*
G04 #@! TO.N,LEDR*
X52000000Y-40500000D02*
X52000000Y-38750000D01*
X50900000Y-41600000D02*
X52000000Y-40500000D01*
X47150000Y-41600000D02*
X50900000Y-41600000D01*
X44100000Y-44650000D02*
X47150000Y-41600000D01*
X44100000Y-45648687D02*
X44100000Y-44650000D01*
X44515066Y-46063753D02*
X44100000Y-45648687D01*
G04 #@! TO.N,LEDG*
X43649991Y-44463599D02*
X47263590Y-40850000D01*
X43649991Y-45917099D02*
X43649991Y-44463599D01*
X44155856Y-46422964D02*
X43649991Y-45917099D01*
X47263590Y-40850000D02*
X50300000Y-40850000D01*
G04 #@! TO.N,FLASH_CS*
X28375000Y-36375000D02*
X28400000Y-36400000D01*
X26925000Y-36400000D02*
X26900000Y-36375000D01*
X28400000Y-36400000D02*
X26925000Y-36400000D01*
X28965685Y-36400000D02*
X28400000Y-36400000D01*
X31550000Y-36400000D02*
X28965685Y-36400000D01*
X40685291Y-43750000D02*
X38900000Y-43750000D01*
X43796646Y-46782174D02*
X43717465Y-46782174D01*
X38900000Y-43750000D02*
X31550000Y-36400000D01*
X43717465Y-46782174D02*
X40685291Y-43750000D01*
G04 #@! TO.N,RX*
X40496051Y-44200000D02*
X38100010Y-44200000D01*
X43437435Y-47141384D02*
X40496051Y-44200000D01*
X32138590Y-37625000D02*
X38100010Y-43586420D01*
X26900000Y-37625000D02*
X32138590Y-37625000D01*
X38100010Y-43586420D02*
X38100010Y-44200000D01*
G04 #@! TO.N,LEDB*
X39988972Y-45911947D02*
X39988972Y-45346262D01*
X39988972Y-48721864D02*
X39988972Y-45911947D01*
X40922964Y-49655856D02*
X39988972Y-48721864D01*
X44672626Y-34300000D02*
X44700012Y-34327386D01*
X43250000Y-34300000D02*
X44672626Y-34300000D01*
G04 #@! TO.N,PROP_Y*
X39898687Y-49350000D02*
X40563753Y-50015066D01*
X39100000Y-49350000D02*
X39898687Y-49350000D01*
G04 #@! TO.N,MOSI*
X40173687Y-51375000D02*
X38448226Y-51375000D01*
X38448226Y-51375000D02*
X35874979Y-53948247D01*
X40563753Y-50984934D02*
X40173687Y-51375000D01*
G04 #@! TO.N,PY1*
X40267108Y-52000000D02*
X39400000Y-52000000D01*
X40922964Y-51344144D02*
X40267108Y-52000000D01*
G04 #@! TO.N,PY2*
X40085528Y-52900000D02*
X38524990Y-52900000D01*
X41282174Y-51703354D02*
X40085528Y-52900000D01*
G04 #@! TO.N,MISO*
X39205851Y-53869139D02*
X35124990Y-57950000D01*
X39834810Y-53869139D02*
X39205851Y-53869139D01*
X41641384Y-52062565D02*
X39834810Y-53869139D01*
G04 #@! TO.N,PROP_Z*
X40144130Y-54278239D02*
X40144130Y-54594140D01*
X42000594Y-52421775D02*
X40144130Y-54278239D01*
X43150000Y-92970000D02*
X34900000Y-84720000D01*
X34900000Y-84720000D02*
X34900000Y-78285002D01*
X34900000Y-78285002D02*
X43849999Y-69335003D01*
X43849999Y-69335003D02*
X43849999Y-62449999D01*
X43849999Y-62449999D02*
X43450000Y-62050000D01*
G04 #@! TO.N,PY3*
X38440675Y-57250000D02*
X37799980Y-57250000D01*
X41049989Y-54090801D02*
X41049989Y-54640686D01*
X42359805Y-52780985D02*
X41049989Y-54090801D01*
X41049989Y-54640686D02*
X38440675Y-57250000D01*
G04 #@! TO.N,SDA*
X38666963Y-80808037D02*
X38675000Y-80800000D01*
X39538025Y-82925003D02*
X38666963Y-82053941D01*
X45948001Y-82925003D02*
X39538025Y-82925003D01*
X46500000Y-82373004D02*
X45948001Y-82925003D01*
X38666963Y-82053941D02*
X38666963Y-80808037D01*
X46500000Y-81165000D02*
X46500000Y-82373004D01*
X41500000Y-54900000D02*
X41500000Y-54356380D01*
X41500000Y-54356380D02*
X42716185Y-53140195D01*
X42716185Y-53140195D02*
X42719015Y-53140195D01*
X29750000Y-57523002D02*
X29749992Y-57522994D01*
X41500000Y-56075044D02*
X40525044Y-57050000D01*
X41500000Y-54900000D02*
X41500000Y-56075044D01*
X36025000Y-78675000D02*
X37550000Y-80200000D01*
X38500000Y-80200000D02*
X38675000Y-80375000D01*
X38675000Y-80375000D02*
X38675000Y-80800000D01*
X37550000Y-80200000D02*
X38500000Y-80200000D01*
X36025000Y-78350000D02*
X36025000Y-78675000D01*
X29750000Y-54073004D02*
X29750000Y-57523002D01*
X29724998Y-54048002D02*
X29750000Y-54073004D01*
X26900000Y-50625000D02*
X28148002Y-50625000D01*
X28148002Y-50625000D02*
X29724998Y-52201996D01*
X29724998Y-52201996D02*
X29724998Y-54048002D01*
X30523002Y-57523002D02*
X33825001Y-60825001D01*
X29750000Y-57523002D02*
X30523002Y-57523002D01*
X35648001Y-60825001D02*
X41500000Y-54973002D01*
X33825001Y-60825001D02*
X35648001Y-60825001D01*
X41500000Y-54973002D02*
X41500000Y-54900000D01*
G04 #@! TO.N,SCL*
X38025000Y-82048388D02*
X38025000Y-80800000D01*
X39351624Y-83375012D02*
X38025000Y-82048388D01*
X46134401Y-83375013D02*
X39351624Y-83375012D01*
X46950009Y-80035009D02*
X46950009Y-82559405D01*
X46950009Y-82559405D02*
X46134401Y-83375013D01*
X46915000Y-80000000D02*
X46950009Y-80035009D01*
X28225000Y-49375000D02*
X28350000Y-49500000D01*
X26900000Y-49375000D02*
X28225000Y-49375000D01*
X41950010Y-54706801D02*
X41950010Y-56399990D01*
X43078225Y-53578586D02*
X41950010Y-54706801D01*
X43078225Y-53499406D02*
X43078225Y-53578586D01*
X29000000Y-59000000D02*
X28998219Y-59000000D01*
X28998219Y-59000000D02*
X28988180Y-59010039D01*
X41950010Y-56399990D02*
X41950010Y-56749990D01*
X41950010Y-56749990D02*
X37369781Y-61330219D01*
X37369781Y-61330219D02*
X34729765Y-61330219D01*
X34729765Y-61330219D02*
X34674558Y-61275012D01*
X34674558Y-61275012D02*
X33575012Y-61275012D01*
X33575012Y-61275012D02*
X31300000Y-59000000D01*
X31300000Y-59000000D02*
X29000000Y-59000000D01*
X41950010Y-56399990D02*
X42423843Y-56873823D01*
X42423843Y-56873823D02*
X42423843Y-56926157D01*
X38025000Y-80800000D02*
X37124680Y-80800000D01*
X37124680Y-80800000D02*
X35974840Y-79650160D01*
X29000000Y-59000000D02*
X29000000Y-53100012D01*
X29000000Y-53100012D02*
X28999988Y-53100000D01*
G04 #@! TO.N,SWCLK*
X64386592Y-26186592D02*
X63600000Y-25400000D01*
X64386592Y-43413408D02*
X64386592Y-26186592D01*
X63544979Y-44255021D02*
X64386592Y-43413408D01*
X59431572Y-44255021D02*
X63544979Y-44255021D01*
X50986592Y-52700000D02*
X59431572Y-44255021D01*
X49075232Y-52700000D02*
X50986592Y-52700000D01*
X48437797Y-52062565D02*
X49075232Y-52700000D01*
X48358616Y-52062565D02*
X48437797Y-52062565D01*
G04 #@! TO.N,SWDIO*
X63600000Y-43350000D02*
X63600000Y-27865685D01*
X63144990Y-43805010D02*
X63600000Y-43350000D01*
X59245172Y-43805010D02*
X63144990Y-43805010D01*
X50950182Y-52100000D02*
X59245172Y-43805010D01*
X63600000Y-27865685D02*
X63600000Y-27300000D01*
X49114472Y-52100000D02*
X50950182Y-52100000D01*
X48717826Y-51703354D02*
X49114472Y-52100000D01*
D33*
G04 #@! TO.N,R_IN*
X62200000Y-43000000D02*
X60500000Y-43000000D01*
D31*
G04 #@! TO.N,SCK*
X34627001Y-51834833D02*
X34227002Y-52234832D01*
X34227002Y-52234832D02*
X34227002Y-58827002D01*
X34227002Y-58827002D02*
X34400000Y-59000000D01*
G04 #@! TO.N,RESET*
X27950000Y-64950000D02*
X27950000Y-63600000D01*
X27400000Y-65500000D02*
X27950000Y-64950000D01*
X23200000Y-65500000D02*
X27400000Y-65500000D01*
X22500000Y-64800000D02*
X23200000Y-65500000D01*
X22500000Y-63825000D02*
X22500000Y-64800000D01*
X30600000Y-53000000D02*
X32750000Y-50850000D01*
X32750000Y-50850000D02*
X35750000Y-50850000D01*
D33*
G04 #@! TO.N,Net-(J15-Pad1)*
X62597182Y-70847182D02*
X62500000Y-70750000D01*
X62597182Y-73902818D02*
X62597182Y-70847182D01*
G04 #@! TD*
M02*
