M48
; DRILL file {KiCad (5.1.9)-1} date 01/07/21 21:38:44
; FORMAT={3:3/ absolute / metric / suppress leading zeros}
; #@! TF.CreationDate,2021-01-07T21:38:44-08:00
; #@! TF.GenerationSoftware,Kicad,Pcbnew,(5.1.9)-1
FMAT,2
METRIC,TZ
T1C0.400
T2C0.500
T3C0.550
T4C0.600
T5C1.000
T6C1.300
T7C3.200
%
G90
G05
T1
X24100Y-56750
X24900Y-57050
X24900Y-67450
X27950Y-63600
X28325Y-51900
X28350Y-49500
X28400Y-36400
X28400Y-38900
X28988Y-59010
X29000Y-53100
X29750Y-57523
X30600Y-53000
X31650Y-54400
X31700Y-65600
X32200Y-29100
X33337Y-59037
X34400Y-59000
X34627Y-51835
X35125Y-57950
X35150Y-60100
X35300Y-64600
X35750Y-50850
X35875Y-53948
X35975Y-79650
X36025Y-78350
X37800Y-57250
X38100Y-46400
X38100Y-44200
X38525Y-52900
X38700Y-78300
X39100Y-49350
X39325Y-52100
X39392Y-81706
X39989Y-45346
X40000Y-54594
X40100Y-78300
X40500Y-81700
X40525Y-57050
X41000Y-78300
X41613Y-58263
X41700Y-81700
X41985Y-46715
X42250Y-36750
X42250Y-35850
X42424Y-56926
X42550Y-32200
X43250Y-34300
X43450Y-62050
X43800Y-41400
X43900Y-43150
X44000Y-82100
X44259Y-56014
X44450Y-75500
X44500Y-77800
X44700Y-34327
X44750Y-37600
X45450Y-35900
X45537Y-59563
X45600Y-82200
X46000Y-77900
X46050Y-62050
X46600Y-59600
X46800Y-55300
X46900Y-77900
X47900Y-37650
X47900Y-36700
X47925Y-55300
X48550Y-47250
X48750Y-54500
X48945Y-53413
X49100Y-48150
X49421Y-43871
X50150Y-48200
X50150Y-49250
X50300Y-40850
X50900Y-43900
X51474Y-56474
X52000Y-38750
X52600Y-43200
X53000Y-53800
X53275Y-48200
X54125Y-44000
X54150Y-40850
X54250Y-75250
X54250Y-80000
X54250Y-87000
X54800Y-22700
X54900Y-52400
X55200Y-50300
X55250Y-64250
X55250Y-75250
X55250Y-80000
X55250Y-87000
X56050Y-40800
X56100Y-41900
X56150Y-43000
X56250Y-75250
X56250Y-80000
X56250Y-87000
X56500Y-62250
X56700Y-31600
X56700Y-34000
X59000Y-25300
X59000Y-26500
X59000Y-24000
X59826Y-36326
X60500Y-43000
X60500Y-48150
X62200Y-43000
X62500Y-70750
X62597Y-73903
X63050Y-47450
X63400Y-54800
X63600Y-25400
X63600Y-27300
X65700Y-41500
X67400Y-43900
X68850Y-40150
T4
X24950Y-48150
X25050Y-35250
X33300Y-72550
X38275Y-72508
X42142Y-72508
X42250Y-62100
X44250Y-70450
T5
X39550Y-92970
X39550Y-95510
X39550Y-98050
X43150Y-92970
X43150Y-95510
X43150Y-98050
X46750Y-92970
X46750Y-95510
X46750Y-98050
X50350Y-92970
X50350Y-95510
X50350Y-98050
T6
X24000Y-70250
X24000Y-73750
X24000Y-79250
X24000Y-82750
X24000Y-88250
X24000Y-91750
X66000Y-61250
X66000Y-64750
X66000Y-70250
X66000Y-73750
X66000Y-79250
X66000Y-82750
X66000Y-88250
X66000Y-91750
T7
X23000Y-23000
X23000Y-97000
X67000Y-23000
X67000Y-97000
T2
G00X66675Y-46500
M15
G01X67325Y-46500
M16
G05
G00X66675Y-53500
M15
G01X67325Y-53500
M16
G05
T3
G00X64300Y-47650
M15
G01X64300Y-47350
M16
G05
G00X64300Y-52650
M15
G01X64300Y-52350
M16
G05
T0
M30
