G04 #@! TF.GenerationSoftware,KiCad,Pcbnew,(5.1.9)-1*
G04 #@! TF.CreationDate,2021-01-07T21:38:48-08:00*
G04 #@! TF.ProjectId,Hermes,4865726d-6573-42e6-9b69-6361645f7063,rev?*
G04 #@! TF.SameCoordinates,Original*
G04 #@! TF.FileFunction,Legend,Top*
G04 #@! TF.FilePolarity,Positive*
%FSLAX46Y46*%
G04 Gerber Fmt 4.6, Leading zero omitted, Abs format (unit mm)*
G04 Created by KiCad (PCBNEW (5.1.9)-1) date 2021-01-07 21:38:48*
%MOMM*%
%LPD*%
G01*
G04 APERTURE LIST*
%ADD10C,0.250000*%
%ADD11C,0.010000*%
%ADD12C,0.300000*%
%ADD13C,0.152400*%
%ADD14C,0.071590*%
%ADD15C,0.100000*%
%ADD16C,0.200000*%
%ADD17C,0.120000*%
%ADD18C,0.127000*%
G04 APERTURE END LIST*
D10*
X29273809Y-50452380D02*
X29273809Y-49452380D01*
X29702380Y-49547619D02*
X29750000Y-49500000D01*
X29845238Y-49452380D01*
X30083333Y-49452380D01*
X30178571Y-49500000D01*
X30226190Y-49547619D01*
X30273809Y-49642857D01*
X30273809Y-49738095D01*
X30226190Y-49880952D01*
X29654761Y-50452380D01*
X30273809Y-50452380D01*
X31273809Y-50357142D02*
X31226190Y-50404761D01*
X31083333Y-50452380D01*
X30988095Y-50452380D01*
X30845238Y-50404761D01*
X30750000Y-50309523D01*
X30702380Y-50214285D01*
X30654761Y-50023809D01*
X30654761Y-49880952D01*
X30702380Y-49690476D01*
X30750000Y-49595238D01*
X30845238Y-49500000D01*
X30988095Y-49452380D01*
X31083333Y-49452380D01*
X31226190Y-49500000D01*
X31273809Y-49547619D01*
X29104761Y-36552380D02*
X29104761Y-37361904D01*
X29152380Y-37457142D01*
X29200000Y-37504761D01*
X29295238Y-37552380D01*
X29485714Y-37552380D01*
X29580952Y-37504761D01*
X29628571Y-37457142D01*
X29676190Y-37361904D01*
X29676190Y-36552380D01*
X30104761Y-37266666D02*
X30580952Y-37266666D01*
X30009523Y-37552380D02*
X30342857Y-36552380D01*
X30676190Y-37552380D01*
X31580952Y-37552380D02*
X31247619Y-37076190D01*
X31009523Y-37552380D02*
X31009523Y-36552380D01*
X31390476Y-36552380D01*
X31485714Y-36600000D01*
X31533333Y-36647619D01*
X31580952Y-36742857D01*
X31580952Y-36885714D01*
X31533333Y-36980952D01*
X31485714Y-37028571D01*
X31390476Y-37076190D01*
X31009523Y-37076190D01*
X31866666Y-36552380D02*
X32438095Y-36552380D01*
X32152380Y-37552380D02*
X32152380Y-36552380D01*
X57080952Y-63128571D02*
X57223809Y-63176190D01*
X57271428Y-63223809D01*
X57319047Y-63319047D01*
X57319047Y-63461904D01*
X57271428Y-63557142D01*
X57223809Y-63604761D01*
X57128571Y-63652380D01*
X56747619Y-63652380D01*
X56747619Y-62652380D01*
X57080952Y-62652380D01*
X57176190Y-62700000D01*
X57223809Y-62747619D01*
X57271428Y-62842857D01*
X57271428Y-62938095D01*
X57223809Y-63033333D01*
X57176190Y-63080952D01*
X57080952Y-63128571D01*
X56747619Y-63128571D01*
X57700000Y-63366666D02*
X58176190Y-63366666D01*
X57604761Y-63652380D02*
X57938095Y-62652380D01*
X58271428Y-63652380D01*
X58461904Y-62652380D02*
X59033333Y-62652380D01*
X58747619Y-63652380D02*
X58747619Y-62652380D01*
X59223809Y-62652380D02*
X59795238Y-62652380D01*
X59509523Y-63652380D02*
X59509523Y-62652380D01*
X60019047Y-61271428D02*
X60780952Y-61271428D01*
X60780952Y-64871428D02*
X60019047Y-64871428D01*
X60400000Y-65252380D02*
X60400000Y-64490476D01*
X59819047Y-70271428D02*
X60580952Y-70271428D01*
X56852380Y-72627380D02*
X56852380Y-71627380D01*
X57233333Y-71627380D01*
X57328571Y-71675000D01*
X57376190Y-71722619D01*
X57423809Y-71817857D01*
X57423809Y-71960714D01*
X57376190Y-72055952D01*
X57328571Y-72103571D01*
X57233333Y-72151190D01*
X56852380Y-72151190D01*
X58042857Y-72151190D02*
X58042857Y-72627380D01*
X57709523Y-71627380D02*
X58042857Y-72151190D01*
X58376190Y-71627380D01*
X59995238Y-72627380D02*
X59423809Y-72627380D01*
X59709523Y-72627380D02*
X59709523Y-71627380D01*
X59614285Y-71770238D01*
X59519047Y-71865476D01*
X59423809Y-71913095D01*
X60580952Y-73871428D02*
X59819047Y-73871428D01*
X60200000Y-74252380D02*
X60200000Y-73490476D01*
X59819047Y-79271428D02*
X60580952Y-79271428D01*
X60580952Y-82871428D02*
X59819047Y-82871428D01*
X60200000Y-83252380D02*
X60200000Y-82490476D01*
X56852380Y-81502380D02*
X56852380Y-80502380D01*
X57233333Y-80502380D01*
X57328571Y-80550000D01*
X57376190Y-80597619D01*
X57423809Y-80692857D01*
X57423809Y-80835714D01*
X57376190Y-80930952D01*
X57328571Y-80978571D01*
X57233333Y-81026190D01*
X56852380Y-81026190D01*
X58042857Y-81026190D02*
X58042857Y-81502380D01*
X57709523Y-80502380D02*
X58042857Y-81026190D01*
X58376190Y-80502380D01*
X59423809Y-80597619D02*
X59471428Y-80550000D01*
X59566666Y-80502380D01*
X59804761Y-80502380D01*
X59900000Y-80550000D01*
X59947619Y-80597619D01*
X59995238Y-80692857D01*
X59995238Y-80788095D01*
X59947619Y-80930952D01*
X59376190Y-81502380D01*
X59995238Y-81502380D01*
X56652380Y-90577380D02*
X56652380Y-89577380D01*
X57033333Y-89577380D01*
X57128571Y-89625000D01*
X57176190Y-89672619D01*
X57223809Y-89767857D01*
X57223809Y-89910714D01*
X57176190Y-90005952D01*
X57128571Y-90053571D01*
X57033333Y-90101190D01*
X56652380Y-90101190D01*
X57842857Y-90101190D02*
X57842857Y-90577380D01*
X57509523Y-89577380D02*
X57842857Y-90101190D01*
X58176190Y-89577380D01*
X59176190Y-89577380D02*
X59795238Y-89577380D01*
X59461904Y-89958333D01*
X59604761Y-89958333D01*
X59700000Y-90005952D01*
X59747619Y-90053571D01*
X59795238Y-90148809D01*
X59795238Y-90386904D01*
X59747619Y-90482142D01*
X59700000Y-90529761D01*
X59604761Y-90577380D01*
X59319047Y-90577380D01*
X59223809Y-90529761D01*
X59176190Y-90482142D01*
X60380952Y-91871428D02*
X59619047Y-91871428D01*
X60000000Y-92252380D02*
X60000000Y-91490476D01*
X59619047Y-88271428D02*
X60380952Y-88271428D01*
X52419047Y-98147619D02*
X53180952Y-98147619D01*
X52419047Y-95571428D02*
X53180952Y-95571428D01*
X52800000Y-95952380D02*
X52800000Y-95190476D01*
X52464285Y-93404761D02*
X52607142Y-93452380D01*
X52845238Y-93452380D01*
X52940476Y-93404761D01*
X52988095Y-93357142D01*
X53035714Y-93261904D01*
X53035714Y-93166666D01*
X52988095Y-93071428D01*
X52940476Y-93023809D01*
X52845238Y-92976190D01*
X52654761Y-92928571D01*
X52559523Y-92880952D01*
X52511904Y-92833333D01*
X52464285Y-92738095D01*
X52464285Y-92642857D01*
X52511904Y-92547619D01*
X52559523Y-92500000D01*
X52654761Y-92452380D01*
X52892857Y-92452380D01*
X53035714Y-92500000D01*
X49638095Y-91004761D02*
X49780952Y-91052380D01*
X50019047Y-91052380D01*
X50114285Y-91004761D01*
X50161904Y-90957142D01*
X50209523Y-90861904D01*
X50209523Y-90766666D01*
X50161904Y-90671428D01*
X50114285Y-90623809D01*
X50019047Y-90576190D01*
X49828571Y-90528571D01*
X49733333Y-90480952D01*
X49685714Y-90433333D01*
X49638095Y-90338095D01*
X49638095Y-90242857D01*
X49685714Y-90147619D01*
X49733333Y-90100000D01*
X49828571Y-90052380D01*
X50066666Y-90052380D01*
X50209523Y-90100000D01*
X50542857Y-90052380D02*
X51209523Y-90052380D01*
X50542857Y-91052380D01*
X51209523Y-91052380D01*
X46085714Y-91004761D02*
X46228571Y-91052380D01*
X46466666Y-91052380D01*
X46561904Y-91004761D01*
X46609523Y-90957142D01*
X46657142Y-90861904D01*
X46657142Y-90766666D01*
X46609523Y-90671428D01*
X46561904Y-90623809D01*
X46466666Y-90576190D01*
X46276190Y-90528571D01*
X46180952Y-90480952D01*
X46133333Y-90433333D01*
X46085714Y-90338095D01*
X46085714Y-90242857D01*
X46133333Y-90147619D01*
X46180952Y-90100000D01*
X46276190Y-90052380D01*
X46514285Y-90052380D01*
X46657142Y-90100000D01*
X47276190Y-90576190D02*
X47276190Y-91052380D01*
X46942857Y-90052380D02*
X47276190Y-90576190D01*
X47609523Y-90052380D01*
X42361904Y-91052380D02*
X42361904Y-90052380D01*
X42742857Y-90052380D01*
X42838095Y-90100000D01*
X42885714Y-90147619D01*
X42933333Y-90242857D01*
X42933333Y-90385714D01*
X42885714Y-90480952D01*
X42838095Y-90528571D01*
X42742857Y-90576190D01*
X42361904Y-90576190D01*
X43266666Y-90052380D02*
X43933333Y-90052380D01*
X43266666Y-91052380D01*
X43933333Y-91052380D01*
X38709523Y-91052380D02*
X38709523Y-90052380D01*
X39090476Y-90052380D01*
X39185714Y-90100000D01*
X39233333Y-90147619D01*
X39280952Y-90242857D01*
X39280952Y-90385714D01*
X39233333Y-90480952D01*
X39185714Y-90528571D01*
X39090476Y-90576190D01*
X38709523Y-90576190D01*
X39900000Y-90576190D02*
X39900000Y-91052380D01*
X39566666Y-90052380D02*
X39900000Y-90576190D01*
X40233333Y-90052380D01*
X33038095Y-89652380D02*
X32419047Y-89652380D01*
X32752380Y-90033333D01*
X32609523Y-90033333D01*
X32514285Y-90080952D01*
X32466666Y-90128571D01*
X32419047Y-90223809D01*
X32419047Y-90461904D01*
X32466666Y-90557142D01*
X32514285Y-90604761D01*
X32609523Y-90652380D01*
X32895238Y-90652380D01*
X32990476Y-90604761D01*
X33038095Y-90557142D01*
X32133333Y-89652380D02*
X31800000Y-90652380D01*
X31466666Y-89652380D01*
X31228571Y-89652380D02*
X30609523Y-89652380D01*
X30942857Y-90033333D01*
X30800000Y-90033333D01*
X30704761Y-90080952D01*
X30657142Y-90128571D01*
X30609523Y-90223809D01*
X30609523Y-90461904D01*
X30657142Y-90557142D01*
X30704761Y-90604761D01*
X30800000Y-90652380D01*
X31085714Y-90652380D01*
X31180952Y-90604761D01*
X31228571Y-90557142D01*
X29619047Y-91952380D02*
X30380952Y-91952380D01*
X30380952Y-88321428D02*
X29619047Y-88321428D01*
X30000000Y-88702380D02*
X30000000Y-87940476D01*
X30438095Y-81702380D02*
X30438095Y-80702380D01*
X30819047Y-80702380D01*
X30914285Y-80750000D01*
X30961904Y-80797619D01*
X31009523Y-80892857D01*
X31009523Y-81035714D01*
X30961904Y-81130952D01*
X30914285Y-81178571D01*
X30819047Y-81226190D01*
X30438095Y-81226190D01*
X31342857Y-80702380D02*
X31580952Y-81702380D01*
X31771428Y-80988095D01*
X31961904Y-81702380D01*
X32200000Y-80702380D01*
X33152380Y-81702380D02*
X32819047Y-81226190D01*
X32580952Y-81702380D02*
X32580952Y-80702380D01*
X32961904Y-80702380D01*
X33057142Y-80750000D01*
X33104761Y-80797619D01*
X33152380Y-80892857D01*
X33152380Y-81035714D01*
X33104761Y-81130952D01*
X33057142Y-81178571D01*
X32961904Y-81226190D01*
X32580952Y-81226190D01*
X34295238Y-81654761D02*
X34438095Y-81702380D01*
X34676190Y-81702380D01*
X34771428Y-81654761D01*
X34819047Y-81607142D01*
X34866666Y-81511904D01*
X34866666Y-81416666D01*
X34819047Y-81321428D01*
X34771428Y-81273809D01*
X34676190Y-81226190D01*
X34485714Y-81178571D01*
X34390476Y-81130952D01*
X34342857Y-81083333D01*
X34295238Y-80988095D01*
X34295238Y-80892857D01*
X34342857Y-80797619D01*
X34390476Y-80750000D01*
X34485714Y-80702380D01*
X34723809Y-80702380D01*
X34866666Y-80750000D01*
X35200000Y-80702380D02*
X35438095Y-81702380D01*
X35628571Y-80988095D01*
X35819047Y-81702380D01*
X36057142Y-80702380D01*
X29619047Y-82852380D02*
X30380952Y-82852380D01*
X30380952Y-79321428D02*
X29619047Y-79321428D01*
X30000000Y-79702380D02*
X30000000Y-78940476D01*
X31028571Y-71652380D02*
X30552380Y-71652380D01*
X30504761Y-72128571D01*
X30552380Y-72080952D01*
X30647619Y-72033333D01*
X30885714Y-72033333D01*
X30980952Y-72080952D01*
X31028571Y-72128571D01*
X31076190Y-72223809D01*
X31076190Y-72461904D01*
X31028571Y-72557142D01*
X30980952Y-72604761D01*
X30885714Y-72652380D01*
X30647619Y-72652380D01*
X30552380Y-72604761D01*
X30504761Y-72557142D01*
X31361904Y-71652380D02*
X31695238Y-72652380D01*
X32028571Y-71652380D01*
X30380952Y-73797619D02*
X29619047Y-73797619D01*
X30380952Y-70321428D02*
X29619047Y-70321428D01*
X30000000Y-70702380D02*
X30000000Y-69940476D01*
D11*
G04 #@! TO.C,G\u002A\u002A\u002A*
G36*
X55320897Y-22493802D02*
G01*
X55681294Y-22503701D01*
X56001392Y-22520551D01*
X56252099Y-22544044D01*
X56404326Y-22573870D01*
X56429216Y-22585945D01*
X56533325Y-22696105D01*
X56607380Y-22857468D01*
X56655527Y-23091053D01*
X56681915Y-23417878D01*
X56690692Y-23858964D01*
X56690761Y-23911287D01*
X56690761Y-24769565D01*
X56000544Y-24769565D01*
X56000544Y-23113043D01*
X54344022Y-23113043D01*
X54344022Y-24687527D01*
X55446206Y-26009361D01*
X55862976Y-26516962D01*
X56190831Y-26933309D01*
X56428053Y-27256094D01*
X56572923Y-27483004D01*
X56619191Y-27586114D01*
X56651555Y-27780077D01*
X56673785Y-28068334D01*
X56685897Y-28414798D01*
X56687906Y-28783385D01*
X56679827Y-29138010D01*
X56661674Y-29442586D01*
X56633463Y-29661028D01*
X56618304Y-29719317D01*
X56512725Y-29893554D01*
X56373480Y-30005704D01*
X56253057Y-30029538D01*
X56024891Y-30049317D01*
X55719235Y-30064636D01*
X55366341Y-30075093D01*
X54996462Y-30080286D01*
X54639849Y-30079810D01*
X54326755Y-30073263D01*
X54087434Y-30060243D01*
X53952136Y-30040345D01*
X53945695Y-30038043D01*
X53837653Y-29961789D01*
X53757929Y-29821343D01*
X53703192Y-29600337D01*
X53670112Y-29282401D01*
X53655357Y-28851166D01*
X53653804Y-28603699D01*
X53653804Y-27599456D01*
X54344022Y-27599456D01*
X54344022Y-29463043D01*
X56000544Y-29463043D01*
X56000544Y-27697893D01*
X54923300Y-26396985D01*
X54617403Y-26022989D01*
X54337206Y-25671733D01*
X54096320Y-25360979D01*
X53908357Y-25108485D01*
X53786928Y-24932012D01*
X53749930Y-24866017D01*
X53706130Y-24683674D01*
X53675262Y-24402233D01*
X53657704Y-24060069D01*
X53653831Y-23695555D01*
X53664022Y-23347065D01*
X53688652Y-23052973D01*
X53728100Y-22851652D01*
X53730086Y-22845799D01*
X53819743Y-22673256D01*
X53930140Y-22560770D01*
X53932614Y-22559412D01*
X54058141Y-22529913D01*
X54288823Y-22508912D01*
X54595571Y-22496099D01*
X54949293Y-22491165D01*
X55320897Y-22493802D01*
G37*
X55320897Y-22493802D02*
X55681294Y-22503701D01*
X56001392Y-22520551D01*
X56252099Y-22544044D01*
X56404326Y-22573870D01*
X56429216Y-22585945D01*
X56533325Y-22696105D01*
X56607380Y-22857468D01*
X56655527Y-23091053D01*
X56681915Y-23417878D01*
X56690692Y-23858964D01*
X56690761Y-23911287D01*
X56690761Y-24769565D01*
X56000544Y-24769565D01*
X56000544Y-23113043D01*
X54344022Y-23113043D01*
X54344022Y-24687527D01*
X55446206Y-26009361D01*
X55862976Y-26516962D01*
X56190831Y-26933309D01*
X56428053Y-27256094D01*
X56572923Y-27483004D01*
X56619191Y-27586114D01*
X56651555Y-27780077D01*
X56673785Y-28068334D01*
X56685897Y-28414798D01*
X56687906Y-28783385D01*
X56679827Y-29138010D01*
X56661674Y-29442586D01*
X56633463Y-29661028D01*
X56618304Y-29719317D01*
X56512725Y-29893554D01*
X56373480Y-30005704D01*
X56253057Y-30029538D01*
X56024891Y-30049317D01*
X55719235Y-30064636D01*
X55366341Y-30075093D01*
X54996462Y-30080286D01*
X54639849Y-30079810D01*
X54326755Y-30073263D01*
X54087434Y-30060243D01*
X53952136Y-30040345D01*
X53945695Y-30038043D01*
X53837653Y-29961789D01*
X53757929Y-29821343D01*
X53703192Y-29600337D01*
X53670112Y-29282401D01*
X53655357Y-28851166D01*
X53653804Y-28603699D01*
X53653804Y-27599456D01*
X54344022Y-27599456D01*
X54344022Y-29463043D01*
X56000544Y-29463043D01*
X56000544Y-27697893D01*
X54923300Y-26396985D01*
X54617403Y-26022989D01*
X54337206Y-25671733D01*
X54096320Y-25360979D01*
X53908357Y-25108485D01*
X53786928Y-24932012D01*
X53749930Y-24866017D01*
X53706130Y-24683674D01*
X53675262Y-24402233D01*
X53657704Y-24060069D01*
X53653831Y-23695555D01*
X53664022Y-23347065D01*
X53688652Y-23052973D01*
X53728100Y-22851652D01*
X53730086Y-22845799D01*
X53819743Y-22673256D01*
X53930140Y-22560770D01*
X53932614Y-22559412D01*
X54058141Y-22529913D01*
X54288823Y-22508912D01*
X54595571Y-22496099D01*
X54949293Y-22491165D01*
X55320897Y-22493802D01*
G36*
X52618478Y-23113043D02*
G01*
X50823913Y-23113043D01*
X50823913Y-25942935D01*
X52480435Y-25942935D01*
X52480435Y-26564130D01*
X50823913Y-26564130D01*
X50823913Y-29463043D01*
X52618478Y-29463043D01*
X52618478Y-30084239D01*
X50133696Y-30084239D01*
X50133696Y-22491848D01*
X52618478Y-22491848D01*
X52618478Y-23113043D01*
G37*
X52618478Y-23113043D02*
X50823913Y-23113043D01*
X50823913Y-25942935D01*
X52480435Y-25942935D01*
X52480435Y-26564130D01*
X50823913Y-26564130D01*
X50823913Y-29463043D01*
X52618478Y-29463043D01*
X52618478Y-30084239D01*
X50133696Y-30084239D01*
X50133696Y-22491848D01*
X52618478Y-22491848D01*
X52618478Y-23113043D01*
G36*
X47050817Y-27495924D02*
G01*
X47676764Y-24993886D01*
X48302710Y-22491848D01*
X48960326Y-22491848D01*
X48960326Y-30084239D01*
X48272817Y-30084239D01*
X48336979Y-24942119D01*
X47935285Y-26394377D01*
X47801091Y-26881878D01*
X47664855Y-27380950D01*
X47536123Y-27856330D01*
X47424440Y-28272752D01*
X47339352Y-28594953D01*
X47332753Y-28620328D01*
X47248144Y-28924611D01*
X47168488Y-29172587D01*
X47103029Y-29337792D01*
X47062561Y-29393966D01*
X47028889Y-29329724D01*
X46965364Y-29147442D01*
X46876623Y-28862748D01*
X46767302Y-28491267D01*
X46642037Y-28048626D01*
X46505464Y-27550452D01*
X46412364Y-27202526D01*
X46272803Y-26676298D01*
X46144935Y-26194750D01*
X46032941Y-25773580D01*
X45941001Y-25428484D01*
X45873296Y-25175161D01*
X45834007Y-25029306D01*
X45825679Y-24999552D01*
X45824907Y-25063344D01*
X45825258Y-25250059D01*
X45826641Y-25544582D01*
X45828966Y-25931796D01*
X45832140Y-26396586D01*
X45836074Y-26923836D01*
X45840674Y-27498432D01*
X45840986Y-27536101D01*
X45862136Y-30084239D01*
X45164131Y-30084239D01*
X45164131Y-22491848D01*
X45820703Y-22491848D01*
X47050817Y-27495924D01*
G37*
X47050817Y-27495924D02*
X47676764Y-24993886D01*
X48302710Y-22491848D01*
X48960326Y-22491848D01*
X48960326Y-30084239D01*
X48272817Y-30084239D01*
X48336979Y-24942119D01*
X47935285Y-26394377D01*
X47801091Y-26881878D01*
X47664855Y-27380950D01*
X47536123Y-27856330D01*
X47424440Y-28272752D01*
X47339352Y-28594953D01*
X47332753Y-28620328D01*
X47248144Y-28924611D01*
X47168488Y-29172587D01*
X47103029Y-29337792D01*
X47062561Y-29393966D01*
X47028889Y-29329724D01*
X46965364Y-29147442D01*
X46876623Y-28862748D01*
X46767302Y-28491267D01*
X46642037Y-28048626D01*
X46505464Y-27550452D01*
X46412364Y-27202526D01*
X46272803Y-26676298D01*
X46144935Y-26194750D01*
X46032941Y-25773580D01*
X45941001Y-25428484D01*
X45873296Y-25175161D01*
X45834007Y-25029306D01*
X45825679Y-24999552D01*
X45824907Y-25063344D01*
X45825258Y-25250059D01*
X45826641Y-25544582D01*
X45828966Y-25931796D01*
X45832140Y-26396586D01*
X45836074Y-26923836D01*
X45840674Y-27498432D01*
X45840986Y-27536101D01*
X45862136Y-30084239D01*
X45164131Y-30084239D01*
X45164131Y-22491848D01*
X45820703Y-22491848D01*
X47050817Y-27495924D01*
G36*
X42778836Y-22494667D02*
G01*
X43168166Y-22504833D01*
X43455955Y-22524906D01*
X43660411Y-22557449D01*
X43799745Y-22605022D01*
X43892165Y-22670188D01*
X43937938Y-22726501D01*
X43952112Y-22814214D01*
X43964846Y-23020051D01*
X43975550Y-23324097D01*
X43983637Y-23706434D01*
X43988515Y-24147147D01*
X43989704Y-24476223D01*
X43989571Y-25045193D01*
X43984836Y-25491110D01*
X43970203Y-25828963D01*
X43940373Y-26073741D01*
X43890049Y-26240433D01*
X43813933Y-26344027D01*
X43706727Y-26399513D01*
X43563135Y-26421879D01*
X43377857Y-26426114D01*
X43300544Y-26426087D01*
X43082084Y-26429617D01*
X42932019Y-26438793D01*
X42886413Y-26449395D01*
X42908749Y-26517846D01*
X42971801Y-26699440D01*
X43069638Y-26977395D01*
X43196330Y-27334931D01*
X43345945Y-27755266D01*
X43512553Y-28221621D01*
X43532901Y-28278471D01*
X44179390Y-30084239D01*
X43464411Y-30084239D01*
X42756761Y-28048822D01*
X42583739Y-27545170D01*
X42428761Y-27082441D01*
X42296969Y-26676922D01*
X42193504Y-26344898D01*
X42123506Y-26102655D01*
X42092116Y-25966478D01*
X42092216Y-25943659D01*
X42176471Y-25912440D01*
X42365366Y-25888500D01*
X42625546Y-25875363D01*
X42752443Y-25873913D01*
X43369565Y-25873913D01*
X43369565Y-23113043D01*
X41644022Y-23113043D01*
X41644022Y-30084239D01*
X40953804Y-30084239D01*
X40953804Y-22491848D01*
X42269755Y-22491848D01*
X42778836Y-22494667D01*
G37*
X42778836Y-22494667D02*
X43168166Y-22504833D01*
X43455955Y-22524906D01*
X43660411Y-22557449D01*
X43799745Y-22605022D01*
X43892165Y-22670188D01*
X43937938Y-22726501D01*
X43952112Y-22814214D01*
X43964846Y-23020051D01*
X43975550Y-23324097D01*
X43983637Y-23706434D01*
X43988515Y-24147147D01*
X43989704Y-24476223D01*
X43989571Y-25045193D01*
X43984836Y-25491110D01*
X43970203Y-25828963D01*
X43940373Y-26073741D01*
X43890049Y-26240433D01*
X43813933Y-26344027D01*
X43706727Y-26399513D01*
X43563135Y-26421879D01*
X43377857Y-26426114D01*
X43300544Y-26426087D01*
X43082084Y-26429617D01*
X42932019Y-26438793D01*
X42886413Y-26449395D01*
X42908749Y-26517846D01*
X42971801Y-26699440D01*
X43069638Y-26977395D01*
X43196330Y-27334931D01*
X43345945Y-27755266D01*
X43512553Y-28221621D01*
X43532901Y-28278471D01*
X44179390Y-30084239D01*
X43464411Y-30084239D01*
X42756761Y-28048822D01*
X42583739Y-27545170D01*
X42428761Y-27082441D01*
X42296969Y-26676922D01*
X42193504Y-26344898D01*
X42123506Y-26102655D01*
X42092116Y-25966478D01*
X42092216Y-25943659D01*
X42176471Y-25912440D01*
X42365366Y-25888500D01*
X42625546Y-25875363D01*
X42752443Y-25873913D01*
X43369565Y-25873913D01*
X43369565Y-23113043D01*
X41644022Y-23113043D01*
X41644022Y-30084239D01*
X40953804Y-30084239D01*
X40953804Y-22491848D01*
X42269755Y-22491848D01*
X42778836Y-22494667D01*
G36*
X39849457Y-23113043D02*
G01*
X38052033Y-23113043D01*
X38070718Y-24510734D01*
X38089402Y-25908424D01*
X38900408Y-25927870D01*
X39711413Y-25947316D01*
X39711413Y-26564130D01*
X38054891Y-26564130D01*
X38054891Y-29463043D01*
X39918478Y-29463043D01*
X39918478Y-30084239D01*
X37364674Y-30084239D01*
X37364674Y-22491848D01*
X39849457Y-22491848D01*
X39849457Y-23113043D01*
G37*
X39849457Y-23113043D02*
X38052033Y-23113043D01*
X38070718Y-24510734D01*
X38089402Y-25908424D01*
X38900408Y-25927870D01*
X39711413Y-25947316D01*
X39711413Y-26564130D01*
X38054891Y-26564130D01*
X38054891Y-29463043D01*
X39918478Y-29463043D01*
X39918478Y-30084239D01*
X37364674Y-30084239D01*
X37364674Y-22491848D01*
X39849457Y-22491848D01*
X39849457Y-23113043D01*
G36*
X33706522Y-25804891D02*
G01*
X35501087Y-25804891D01*
X35501087Y-22491848D01*
X36191304Y-22491848D01*
X36191304Y-30084239D01*
X35501087Y-30084239D01*
X35501087Y-26426087D01*
X33706522Y-26426087D01*
X33706522Y-30084239D01*
X33016304Y-30084239D01*
X33016304Y-22491848D01*
X33706522Y-22491848D01*
X33706522Y-25804891D01*
G37*
X33706522Y-25804891D02*
X35501087Y-25804891D01*
X35501087Y-22491848D01*
X36191304Y-22491848D01*
X36191304Y-30084239D01*
X35501087Y-30084239D01*
X35501087Y-26426087D01*
X33706522Y-26426087D01*
X33706522Y-30084239D01*
X33016304Y-30084239D01*
X33016304Y-22491848D01*
X33706522Y-22491848D01*
X33706522Y-25804891D01*
D12*
G36*
X48583533Y-33548253D02*
G01*
X48651612Y-33613313D01*
X48668811Y-33632403D01*
X48836258Y-33790323D01*
X49036521Y-33914341D01*
X49281647Y-34007778D01*
X49583683Y-34073956D01*
X49954675Y-34116196D01*
X50406670Y-34137818D01*
X50510079Y-34139999D01*
X50781236Y-34145871D01*
X51016884Y-34153186D01*
X51200675Y-34161256D01*
X51316259Y-34169397D01*
X51348410Y-34175191D01*
X51315328Y-34185723D01*
X51203888Y-34192906D01*
X51032616Y-34196933D01*
X50820035Y-34198000D01*
X50584669Y-34196300D01*
X50345044Y-34192029D01*
X50119683Y-34185380D01*
X49927112Y-34176548D01*
X49785853Y-34165726D01*
X49732841Y-34158241D01*
X49336068Y-34063819D01*
X49030691Y-33958544D01*
X48811558Y-33840348D01*
X48703405Y-33745078D01*
X48614910Y-33637152D01*
X48561971Y-33558774D01*
X48555158Y-33539821D01*
X48583533Y-33548253D01*
G37*
X48583533Y-33548253D02*
X48651612Y-33613313D01*
X48668811Y-33632403D01*
X48836258Y-33790323D01*
X49036521Y-33914341D01*
X49281647Y-34007778D01*
X49583683Y-34073956D01*
X49954675Y-34116196D01*
X50406670Y-34137818D01*
X50510079Y-34139999D01*
X50781236Y-34145871D01*
X51016884Y-34153186D01*
X51200675Y-34161256D01*
X51316259Y-34169397D01*
X51348410Y-34175191D01*
X51315328Y-34185723D01*
X51203888Y-34192906D01*
X51032616Y-34196933D01*
X50820035Y-34198000D01*
X50584669Y-34196300D01*
X50345044Y-34192029D01*
X50119683Y-34185380D01*
X49927112Y-34176548D01*
X49785853Y-34165726D01*
X49732841Y-34158241D01*
X49336068Y-34063819D01*
X49030691Y-33958544D01*
X48811558Y-33840348D01*
X48703405Y-33745078D01*
X48614910Y-33637152D01*
X48561971Y-33558774D01*
X48555158Y-33539821D01*
X48583533Y-33548253D01*
G36*
X51312465Y-34302404D02*
G01*
X51319500Y-34337382D01*
X51243345Y-34375067D01*
X51097624Y-34413175D01*
X50895965Y-34449422D01*
X50651995Y-34481526D01*
X50379339Y-34507203D01*
X50091625Y-34524169D01*
X49964711Y-34528263D01*
X49720316Y-34532120D01*
X49517506Y-34531673D01*
X49372407Y-34527252D01*
X49301146Y-34519183D01*
X49297217Y-34514678D01*
X49354140Y-34503114D01*
X49489457Y-34492202D01*
X49684616Y-34482989D01*
X49921066Y-34476524D01*
X49994720Y-34475312D01*
X50372229Y-34461547D01*
X50695821Y-34432635D01*
X50953570Y-34390309D01*
X51133550Y-34336300D01*
X51197046Y-34300739D01*
X51277044Y-34288262D01*
X51312465Y-34302404D01*
G37*
X51312465Y-34302404D02*
X51319500Y-34337382D01*
X51243345Y-34375067D01*
X51097624Y-34413175D01*
X50895965Y-34449422D01*
X50651995Y-34481526D01*
X50379339Y-34507203D01*
X50091625Y-34524169D01*
X49964711Y-34528263D01*
X49720316Y-34532120D01*
X49517506Y-34531673D01*
X49372407Y-34527252D01*
X49301146Y-34519183D01*
X49297217Y-34514678D01*
X49354140Y-34503114D01*
X49489457Y-34492202D01*
X49684616Y-34482989D01*
X49921066Y-34476524D01*
X49994720Y-34475312D01*
X50372229Y-34461547D01*
X50695821Y-34432635D01*
X50953570Y-34390309D01*
X51133550Y-34336300D01*
X51197046Y-34300739D01*
X51277044Y-34288262D01*
X51312465Y-34302404D01*
G36*
X49407618Y-34659163D02*
G01*
X49422543Y-34666649D01*
X49602099Y-34733182D01*
X49856239Y-34791897D01*
X50162767Y-34840691D01*
X50499490Y-34877464D01*
X50844212Y-34900114D01*
X51174740Y-34906539D01*
X51468878Y-34894638D01*
X51631679Y-34875821D01*
X51730857Y-34862313D01*
X51757018Y-34863696D01*
X51740744Y-34869444D01*
X51668960Y-34905298D01*
X51655696Y-34926551D01*
X51611039Y-34940243D01*
X51492893Y-34951739D01*
X51324703Y-34960470D01*
X51129913Y-34965867D01*
X50931967Y-34967359D01*
X50754309Y-34964377D01*
X50620385Y-34956351D01*
X50589504Y-34952455D01*
X50196673Y-34889926D01*
X49889671Y-34838542D01*
X49658338Y-34795841D01*
X49492516Y-34759360D01*
X49382046Y-34726637D01*
X49316770Y-34695210D01*
X49286529Y-34662618D01*
X49280725Y-34635249D01*
X49317526Y-34626170D01*
X49407618Y-34659163D01*
G37*
X49407618Y-34659163D02*
X49422543Y-34666649D01*
X49602099Y-34733182D01*
X49856239Y-34791897D01*
X50162767Y-34840691D01*
X50499490Y-34877464D01*
X50844212Y-34900114D01*
X51174740Y-34906539D01*
X51468878Y-34894638D01*
X51631679Y-34875821D01*
X51730857Y-34862313D01*
X51757018Y-34863696D01*
X51740744Y-34869444D01*
X51668960Y-34905298D01*
X51655696Y-34926551D01*
X51611039Y-34940243D01*
X51492893Y-34951739D01*
X51324703Y-34960470D01*
X51129913Y-34965867D01*
X50931967Y-34967359D01*
X50754309Y-34964377D01*
X50620385Y-34956351D01*
X50589504Y-34952455D01*
X50196673Y-34889926D01*
X49889671Y-34838542D01*
X49658338Y-34795841D01*
X49492516Y-34759360D01*
X49382046Y-34726637D01*
X49316770Y-34695210D01*
X49286529Y-34662618D01*
X49280725Y-34635249D01*
X49317526Y-34626170D01*
X49407618Y-34659163D01*
D11*
G36*
X54176527Y-35153244D02*
G01*
X54152290Y-35177481D01*
X54128053Y-35153244D01*
X54152290Y-35129008D01*
X54176527Y-35153244D01*
G37*
X54176527Y-35153244D02*
X54152290Y-35177481D01*
X54128053Y-35153244D01*
X54152290Y-35129008D01*
X54176527Y-35153244D01*
D12*
G36*
X51800030Y-34964507D02*
G01*
X51801336Y-34996553D01*
X51755655Y-35057756D01*
X51629761Y-35116962D01*
X51440378Y-35170796D01*
X51204230Y-35215882D01*
X50938040Y-35248846D01*
X50658534Y-35266313D01*
X50459035Y-35267412D01*
X50325730Y-35263698D01*
X50268159Y-35258922D01*
X50291388Y-35251819D01*
X50400481Y-35241129D01*
X50600505Y-35225587D01*
X50637977Y-35222810D01*
X51050954Y-35182956D01*
X51368594Y-35131345D01*
X51591816Y-35067787D01*
X51715725Y-34997566D01*
X51779798Y-34946756D01*
X51800030Y-34964507D01*
G37*
X51800030Y-34964507D02*
X51801336Y-34996553D01*
X51755655Y-35057756D01*
X51629761Y-35116962D01*
X51440378Y-35170796D01*
X51204230Y-35215882D01*
X50938040Y-35248846D01*
X50658534Y-35266313D01*
X50459035Y-35267412D01*
X50325730Y-35263698D01*
X50268159Y-35258922D01*
X50291388Y-35251819D01*
X50400481Y-35241129D01*
X50600505Y-35225587D01*
X50637977Y-35222810D01*
X51050954Y-35182956D01*
X51368594Y-35131345D01*
X51591816Y-35067787D01*
X51715725Y-34997566D01*
X51779798Y-34946756D01*
X51800030Y-34964507D01*
G36*
X48884431Y-33426897D02*
G01*
X48996430Y-33464311D01*
X49185322Y-33504480D01*
X49431228Y-33544300D01*
X49714272Y-33580667D01*
X50014576Y-33610478D01*
X50107037Y-33617826D01*
X50299039Y-33626127D01*
X50564743Y-33629183D01*
X50881057Y-33627170D01*
X51224889Y-33620267D01*
X51573146Y-33608649D01*
X51633945Y-33606096D01*
X52188989Y-33583542D01*
X52653235Y-33568208D01*
X53032568Y-33560126D01*
X53332869Y-33559330D01*
X53560023Y-33565850D01*
X53719910Y-33579720D01*
X53818416Y-33600972D01*
X53851768Y-33618300D01*
X53892176Y-33660548D01*
X53908861Y-33714791D01*
X53899555Y-33800536D01*
X53861990Y-33937289D01*
X53793897Y-34144556D01*
X53788831Y-34159542D01*
X53712519Y-34477445D01*
X53716625Y-34747754D01*
X53801522Y-34977572D01*
X53834582Y-35028365D01*
X54007786Y-35199471D01*
X54231142Y-35319432D01*
X54348936Y-35351795D01*
X54451675Y-35345945D01*
X54500081Y-35299714D01*
X54477116Y-35237663D01*
X54444466Y-35214102D01*
X54285757Y-35091705D01*
X54192933Y-34948269D01*
X54176527Y-34862405D01*
X54198004Y-34764623D01*
X54249602Y-34745245D01*
X54302339Y-34797184D01*
X54308052Y-34830354D01*
X54280963Y-34818560D01*
X54235596Y-34825498D01*
X54225000Y-34884848D01*
X54271810Y-34986488D01*
X54409331Y-35102215D01*
X54434298Y-35118456D01*
X54554702Y-35199138D01*
X54604144Y-35252025D01*
X54595446Y-35298085D01*
X54565665Y-35333272D01*
X54467766Y-35395166D01*
X54335208Y-35397791D01*
X54149529Y-35340596D01*
X54098273Y-35319310D01*
X53878146Y-35178190D01*
X53733144Y-34979408D01*
X53664856Y-34728480D01*
X53674873Y-34430922D01*
X53753566Y-34123734D01*
X53818806Y-33922231D01*
X53844091Y-33780570D01*
X53818816Y-33688392D01*
X53732376Y-33635337D01*
X53574167Y-33611047D01*
X53333582Y-33605162D01*
X53223103Y-33605565D01*
X53010049Y-33608857D01*
X52724789Y-33615998D01*
X52391954Y-33626222D01*
X52036173Y-33638765D01*
X51682079Y-33652863D01*
X51636180Y-33654824D01*
X50994280Y-33674371D01*
X50437869Y-33673418D01*
X49957596Y-33651553D01*
X49544107Y-33608365D01*
X49208015Y-33547970D01*
X49015138Y-33509477D01*
X48839735Y-33482441D01*
X48723282Y-33472866D01*
X48628241Y-33471053D01*
X48623358Y-33457971D01*
X48690538Y-33429056D01*
X48817559Y-33409761D01*
X48884431Y-33426897D01*
G37*
X48884431Y-33426897D02*
X48996430Y-33464311D01*
X49185322Y-33504480D01*
X49431228Y-33544300D01*
X49714272Y-33580667D01*
X50014576Y-33610478D01*
X50107037Y-33617826D01*
X50299039Y-33626127D01*
X50564743Y-33629183D01*
X50881057Y-33627170D01*
X51224889Y-33620267D01*
X51573146Y-33608649D01*
X51633945Y-33606096D01*
X52188989Y-33583542D01*
X52653235Y-33568208D01*
X53032568Y-33560126D01*
X53332869Y-33559330D01*
X53560023Y-33565850D01*
X53719910Y-33579720D01*
X53818416Y-33600972D01*
X53851768Y-33618300D01*
X53892176Y-33660548D01*
X53908861Y-33714791D01*
X53899555Y-33800536D01*
X53861990Y-33937289D01*
X53793897Y-34144556D01*
X53788831Y-34159542D01*
X53712519Y-34477445D01*
X53716625Y-34747754D01*
X53801522Y-34977572D01*
X53834582Y-35028365D01*
X54007786Y-35199471D01*
X54231142Y-35319432D01*
X54348936Y-35351795D01*
X54451675Y-35345945D01*
X54500081Y-35299714D01*
X54477116Y-35237663D01*
X54444466Y-35214102D01*
X54285757Y-35091705D01*
X54192933Y-34948269D01*
X54176527Y-34862405D01*
X54198004Y-34764623D01*
X54249602Y-34745245D01*
X54302339Y-34797184D01*
X54308052Y-34830354D01*
X54280963Y-34818560D01*
X54235596Y-34825498D01*
X54225000Y-34884848D01*
X54271810Y-34986488D01*
X54409331Y-35102215D01*
X54434298Y-35118456D01*
X54554702Y-35199138D01*
X54604144Y-35252025D01*
X54595446Y-35298085D01*
X54565665Y-35333272D01*
X54467766Y-35395166D01*
X54335208Y-35397791D01*
X54149529Y-35340596D01*
X54098273Y-35319310D01*
X53878146Y-35178190D01*
X53733144Y-34979408D01*
X53664856Y-34728480D01*
X53674873Y-34430922D01*
X53753566Y-34123734D01*
X53818806Y-33922231D01*
X53844091Y-33780570D01*
X53818816Y-33688392D01*
X53732376Y-33635337D01*
X53574167Y-33611047D01*
X53333582Y-33605162D01*
X53223103Y-33605565D01*
X53010049Y-33608857D01*
X52724789Y-33615998D01*
X52391954Y-33626222D01*
X52036173Y-33638765D01*
X51682079Y-33652863D01*
X51636180Y-33654824D01*
X50994280Y-33674371D01*
X50437869Y-33673418D01*
X49957596Y-33651553D01*
X49544107Y-33608365D01*
X49208015Y-33547970D01*
X49015138Y-33509477D01*
X48839735Y-33482441D01*
X48723282Y-33472866D01*
X48628241Y-33471053D01*
X48623358Y-33457971D01*
X48690538Y-33429056D01*
X48817559Y-33409761D01*
X48884431Y-33426897D01*
G36*
X54475927Y-34785433D02*
G01*
X54666265Y-34872356D01*
X54877675Y-34935085D01*
X55136086Y-34979674D01*
X55436832Y-35009817D01*
X55880963Y-35067608D01*
X56303393Y-35166050D01*
X56685415Y-35298696D01*
X57008326Y-35459100D01*
X57245190Y-35633073D01*
X57331773Y-35738777D01*
X57345558Y-35817683D01*
X57285255Y-35854431D01*
X57263838Y-35855365D01*
X57236468Y-35841088D01*
X57269236Y-35814580D01*
X57280602Y-35764294D01*
X57216464Y-35687740D01*
X57091828Y-35593399D01*
X56921694Y-35489752D01*
X56721067Y-35385280D01*
X56504948Y-35288464D01*
X56288342Y-35207785D01*
X56103340Y-35155514D01*
X55896732Y-35116485D01*
X55647596Y-35080818D01*
X55412595Y-35056480D01*
X55053457Y-35013661D01*
X54752478Y-34947021D01*
X54523612Y-34860299D01*
X54412544Y-34788582D01*
X54297710Y-34689878D01*
X54475927Y-34785433D01*
G37*
X54475927Y-34785433D02*
X54666265Y-34872356D01*
X54877675Y-34935085D01*
X55136086Y-34979674D01*
X55436832Y-35009817D01*
X55880963Y-35067608D01*
X56303393Y-35166050D01*
X56685415Y-35298696D01*
X57008326Y-35459100D01*
X57245190Y-35633073D01*
X57331773Y-35738777D01*
X57345558Y-35817683D01*
X57285255Y-35854431D01*
X57263838Y-35855365D01*
X57236468Y-35841088D01*
X57269236Y-35814580D01*
X57280602Y-35764294D01*
X57216464Y-35687740D01*
X57091828Y-35593399D01*
X56921694Y-35489752D01*
X56721067Y-35385280D01*
X56504948Y-35288464D01*
X56288342Y-35207785D01*
X56103340Y-35155514D01*
X55896732Y-35116485D01*
X55647596Y-35080818D01*
X55412595Y-35056480D01*
X55053457Y-35013661D01*
X54752478Y-34947021D01*
X54523612Y-34860299D01*
X54412544Y-34788582D01*
X54297710Y-34689878D01*
X54475927Y-34785433D01*
G36*
X50076572Y-35368085D02*
G01*
X50213773Y-35440815D01*
X50433280Y-35505994D01*
X50720585Y-35561213D01*
X51061183Y-35604062D01*
X51440569Y-35632131D01*
X51723615Y-35641732D01*
X52038631Y-35649555D01*
X52267092Y-35660983D01*
X52419354Y-35677004D01*
X52505774Y-35698605D01*
X52533524Y-35718921D01*
X52549921Y-35791558D01*
X52538535Y-35812756D01*
X52449340Y-35853706D01*
X52287025Y-35895069D01*
X52075300Y-35932525D01*
X51837875Y-35961754D01*
X51639107Y-35976630D01*
X51243893Y-35996449D01*
X51607443Y-35954881D01*
X51874533Y-35918809D01*
X52109853Y-35876631D01*
X52297731Y-35832134D01*
X52422491Y-35789103D01*
X52468458Y-35751326D01*
X52467848Y-35747055D01*
X52416837Y-35730939D01*
X52285817Y-35715616D01*
X52091722Y-35702371D01*
X51851488Y-35692493D01*
X51703043Y-35688910D01*
X51301615Y-35675552D01*
X50973329Y-35650282D01*
X50694867Y-35610879D01*
X50533757Y-35577622D01*
X50301046Y-35521358D01*
X50147770Y-35477544D01*
X50058268Y-35439776D01*
X50016881Y-35401651D01*
X50007824Y-35362578D01*
X50034073Y-35340635D01*
X50076572Y-35368085D01*
G37*
X50076572Y-35368085D02*
X50213773Y-35440815D01*
X50433280Y-35505994D01*
X50720585Y-35561213D01*
X51061183Y-35604062D01*
X51440569Y-35632131D01*
X51723615Y-35641732D01*
X52038631Y-35649555D01*
X52267092Y-35660983D01*
X52419354Y-35677004D01*
X52505774Y-35698605D01*
X52533524Y-35718921D01*
X52549921Y-35791558D01*
X52538535Y-35812756D01*
X52449340Y-35853706D01*
X52287025Y-35895069D01*
X52075300Y-35932525D01*
X51837875Y-35961754D01*
X51639107Y-35976630D01*
X51243893Y-35996449D01*
X51607443Y-35954881D01*
X51874533Y-35918809D01*
X52109853Y-35876631D01*
X52297731Y-35832134D01*
X52422491Y-35789103D01*
X52468458Y-35751326D01*
X52467848Y-35747055D01*
X52416837Y-35730939D01*
X52285817Y-35715616D01*
X52091722Y-35702371D01*
X51851488Y-35692493D01*
X51703043Y-35688910D01*
X51301615Y-35675552D01*
X50973329Y-35650282D01*
X50694867Y-35610879D01*
X50533757Y-35577622D01*
X50301046Y-35521358D01*
X50147770Y-35477544D01*
X50058268Y-35439776D01*
X50016881Y-35401651D01*
X50007824Y-35362578D01*
X50034073Y-35340635D01*
X50076572Y-35368085D01*
G36*
X51199674Y-35978913D02*
G01*
X51154161Y-36024116D01*
X51105224Y-36069438D01*
X51120545Y-36100052D01*
X51213478Y-36132064D01*
X51252512Y-36142741D01*
X51736048Y-36249579D01*
X52248010Y-36322166D01*
X52687103Y-36351249D01*
X52887508Y-36358314D01*
X53045530Y-36368559D01*
X53140377Y-36380371D01*
X53158337Y-36387821D01*
X53111896Y-36408008D01*
X52980722Y-36416122D01*
X52776270Y-36412190D01*
X52509998Y-36396239D01*
X52383015Y-36386007D01*
X52109210Y-36356332D01*
X51828412Y-36315411D01*
X51563589Y-36267609D01*
X51337709Y-36217292D01*
X51173741Y-36168823D01*
X51121413Y-36146252D01*
X51053067Y-36092784D01*
X51067881Y-36034009D01*
X51077042Y-36022383D01*
X51152693Y-35963825D01*
X51189237Y-35954595D01*
X51199674Y-35978913D01*
G37*
X51199674Y-35978913D02*
X51154161Y-36024116D01*
X51105224Y-36069438D01*
X51120545Y-36100052D01*
X51213478Y-36132064D01*
X51252512Y-36142741D01*
X51736048Y-36249579D01*
X52248010Y-36322166D01*
X52687103Y-36351249D01*
X52887508Y-36358314D01*
X53045530Y-36368559D01*
X53140377Y-36380371D01*
X53158337Y-36387821D01*
X53111896Y-36408008D01*
X52980722Y-36416122D01*
X52776270Y-36412190D01*
X52509998Y-36396239D01*
X52383015Y-36386007D01*
X52109210Y-36356332D01*
X51828412Y-36315411D01*
X51563589Y-36267609D01*
X51337709Y-36217292D01*
X51173741Y-36168823D01*
X51121413Y-36146252D01*
X51053067Y-36092784D01*
X51067881Y-36034009D01*
X51077042Y-36022383D01*
X51152693Y-35963825D01*
X51189237Y-35954595D01*
X51199674Y-35978913D01*
G36*
X53311137Y-36498141D02*
G01*
X53283475Y-36535146D01*
X53177746Y-36605609D01*
X53134351Y-36631679D01*
X52965384Y-36727215D01*
X52865011Y-36771236D01*
X52822495Y-36767951D01*
X52819275Y-36755137D01*
X52858502Y-36722517D01*
X52955997Y-36668714D01*
X52988931Y-36652667D01*
X53097565Y-36591093D01*
X53155585Y-36538676D01*
X53158588Y-36529210D01*
X53199681Y-36495994D01*
X53267653Y-36487086D01*
X53311137Y-36498141D01*
G37*
X53311137Y-36498141D02*
X53283475Y-36535146D01*
X53177746Y-36605609D01*
X53134351Y-36631679D01*
X52965384Y-36727215D01*
X52865011Y-36771236D01*
X52822495Y-36767951D01*
X52819275Y-36755137D01*
X52858502Y-36722517D01*
X52955997Y-36668714D01*
X52988931Y-36652667D01*
X53097565Y-36591093D01*
X53155585Y-36538676D01*
X53158588Y-36529210D01*
X53199681Y-36495994D01*
X53267653Y-36487086D01*
X53311137Y-36498141D01*
G36*
X56838433Y-36398400D02*
G01*
X57069848Y-36434432D01*
X57222010Y-36509020D01*
X57308161Y-36631677D01*
X57336917Y-36756522D01*
X57322857Y-36913929D01*
X57233736Y-37031789D01*
X57062030Y-37117231D01*
X56915267Y-37156108D01*
X56743466Y-37192600D01*
X56523680Y-37239263D01*
X56302761Y-37286148D01*
X56297591Y-37287245D01*
X56117541Y-37330028D01*
X55976912Y-37372012D01*
X55900689Y-37405499D01*
X55894825Y-37411302D01*
X55829628Y-37454744D01*
X55818897Y-37455725D01*
X55792255Y-37426032D01*
X55799603Y-37408511D01*
X55867909Y-37363120D01*
X56009297Y-37309591D01*
X56201025Y-37254502D01*
X56420351Y-37204429D01*
X56632396Y-37167664D01*
X56826647Y-37130206D01*
X57010196Y-37079071D01*
X57105010Y-37042423D01*
X57219980Y-36975811D01*
X57269029Y-36898204D01*
X57278817Y-36782027D01*
X57262136Y-36646555D01*
X57195857Y-36559517D01*
X57138036Y-36520947D01*
X56932563Y-36450788D01*
X56661962Y-36438420D01*
X56336440Y-36480619D01*
X55966208Y-36574161D01*
X55561476Y-36715824D01*
X55132453Y-36902384D01*
X54689348Y-37130617D01*
X54242371Y-37397300D01*
X54129197Y-37470939D01*
X53945420Y-37589958D01*
X53801930Y-37677675D01*
X53711237Y-37726860D01*
X53685847Y-37730286D01*
X53689565Y-37725014D01*
X53788214Y-37634437D01*
X53953179Y-37512890D01*
X54164296Y-37373214D01*
X54401398Y-37228250D01*
X54644321Y-37090839D01*
X54858076Y-36980940D01*
X55360896Y-36751287D01*
X55798239Y-36580733D01*
X56179314Y-36466570D01*
X56513332Y-36406087D01*
X56809503Y-36396577D01*
X56838433Y-36398400D01*
G37*
X56838433Y-36398400D02*
X57069848Y-36434432D01*
X57222010Y-36509020D01*
X57308161Y-36631677D01*
X57336917Y-36756522D01*
X57322857Y-36913929D01*
X57233736Y-37031789D01*
X57062030Y-37117231D01*
X56915267Y-37156108D01*
X56743466Y-37192600D01*
X56523680Y-37239263D01*
X56302761Y-37286148D01*
X56297591Y-37287245D01*
X56117541Y-37330028D01*
X55976912Y-37372012D01*
X55900689Y-37405499D01*
X55894825Y-37411302D01*
X55829628Y-37454744D01*
X55818897Y-37455725D01*
X55792255Y-37426032D01*
X55799603Y-37408511D01*
X55867909Y-37363120D01*
X56009297Y-37309591D01*
X56201025Y-37254502D01*
X56420351Y-37204429D01*
X56632396Y-37167664D01*
X56826647Y-37130206D01*
X57010196Y-37079071D01*
X57105010Y-37042423D01*
X57219980Y-36975811D01*
X57269029Y-36898204D01*
X57278817Y-36782027D01*
X57262136Y-36646555D01*
X57195857Y-36559517D01*
X57138036Y-36520947D01*
X56932563Y-36450788D01*
X56661962Y-36438420D01*
X56336440Y-36480619D01*
X55966208Y-36574161D01*
X55561476Y-36715824D01*
X55132453Y-36902384D01*
X54689348Y-37130617D01*
X54242371Y-37397300D01*
X54129197Y-37470939D01*
X53945420Y-37589958D01*
X53801930Y-37677675D01*
X53711237Y-37726860D01*
X53685847Y-37730286D01*
X53689565Y-37725014D01*
X53788214Y-37634437D01*
X53953179Y-37512890D01*
X54164296Y-37373214D01*
X54401398Y-37228250D01*
X54644321Y-37090839D01*
X54858076Y-36980940D01*
X55360896Y-36751287D01*
X55798239Y-36580733D01*
X56179314Y-36466570D01*
X56513332Y-36406087D01*
X56809503Y-36396577D01*
X56838433Y-36398400D01*
G36*
X56943251Y-35780819D02*
G01*
X57004746Y-35792171D01*
X57068029Y-35810335D01*
X57057866Y-35822501D01*
X56967383Y-35829549D01*
X56789704Y-35832358D01*
X56689670Y-35832489D01*
X56442747Y-35835783D01*
X56250492Y-35850833D01*
X56073585Y-35884325D01*
X55872703Y-35942944D01*
X55703435Y-36000192D01*
X55061671Y-36257781D01*
X54380928Y-36597653D01*
X53667686Y-37016462D01*
X53393260Y-37193120D01*
X53074390Y-37426001D01*
X52772901Y-37688660D01*
X52508439Y-37961533D01*
X52300649Y-38225054D01*
X52211756Y-38369779D01*
X52144619Y-38481066D01*
X52093871Y-38539789D01*
X52079801Y-38542079D01*
X52085694Y-38484199D01*
X52144948Y-38371062D01*
X52245022Y-38218507D01*
X52373372Y-38042375D01*
X52517453Y-37858508D01*
X52664723Y-37682745D01*
X52802638Y-37530928D01*
X52918655Y-37418897D01*
X53000230Y-37362493D01*
X53016795Y-37358779D01*
X53076168Y-37331294D01*
X53185158Y-37260029D01*
X53291470Y-37182063D01*
X53444980Y-37071846D01*
X53592643Y-36977705D01*
X53667557Y-36937125D01*
X53788017Y-36874402D01*
X53950037Y-36782315D01*
X54079580Y-36704587D01*
X54526682Y-36450396D01*
X54984138Y-36229766D01*
X55438135Y-36047004D01*
X55874859Y-35906419D01*
X56280495Y-35812321D01*
X56641231Y-35769018D01*
X56943251Y-35780819D01*
G37*
X56943251Y-35780819D02*
X57004746Y-35792171D01*
X57068029Y-35810335D01*
X57057866Y-35822501D01*
X56967383Y-35829549D01*
X56789704Y-35832358D01*
X56689670Y-35832489D01*
X56442747Y-35835783D01*
X56250492Y-35850833D01*
X56073585Y-35884325D01*
X55872703Y-35942944D01*
X55703435Y-36000192D01*
X55061671Y-36257781D01*
X54380928Y-36597653D01*
X53667686Y-37016462D01*
X53393260Y-37193120D01*
X53074390Y-37426001D01*
X52772901Y-37688660D01*
X52508439Y-37961533D01*
X52300649Y-38225054D01*
X52211756Y-38369779D01*
X52144619Y-38481066D01*
X52093871Y-38539789D01*
X52079801Y-38542079D01*
X52085694Y-38484199D01*
X52144948Y-38371062D01*
X52245022Y-38218507D01*
X52373372Y-38042375D01*
X52517453Y-37858508D01*
X52664723Y-37682745D01*
X52802638Y-37530928D01*
X52918655Y-37418897D01*
X53000230Y-37362493D01*
X53016795Y-37358779D01*
X53076168Y-37331294D01*
X53185158Y-37260029D01*
X53291470Y-37182063D01*
X53444980Y-37071846D01*
X53592643Y-36977705D01*
X53667557Y-36937125D01*
X53788017Y-36874402D01*
X53950037Y-36782315D01*
X54079580Y-36704587D01*
X54526682Y-36450396D01*
X54984138Y-36229766D01*
X55438135Y-36047004D01*
X55874859Y-35906419D01*
X56280495Y-35812321D01*
X56641231Y-35769018D01*
X56943251Y-35780819D01*
G36*
X52753961Y-36813606D02*
G01*
X52687355Y-36859978D01*
X52571062Y-36899532D01*
X52564945Y-36900910D01*
X52388016Y-36957612D01*
X52261740Y-37049957D01*
X52166016Y-37198989D01*
X52089461Y-37398712D01*
X52024993Y-37643721D01*
X51991950Y-37904608D01*
X51984233Y-38170706D01*
X51982559Y-38365731D01*
X51977631Y-38517878D01*
X51970327Y-38605810D01*
X51965759Y-38619084D01*
X51948343Y-38577832D01*
X51939989Y-38510019D01*
X51934945Y-38125346D01*
X51965265Y-37759728D01*
X52027834Y-37446657D01*
X52043729Y-37393961D01*
X52149690Y-37136754D01*
X52276137Y-36966756D01*
X52430313Y-36875138D01*
X52479962Y-36862223D01*
X52614404Y-36827257D01*
X52693925Y-36799332D01*
X52758491Y-36784251D01*
X52753961Y-36813606D01*
G37*
X52753961Y-36813606D02*
X52687355Y-36859978D01*
X52571062Y-36899532D01*
X52564945Y-36900910D01*
X52388016Y-36957612D01*
X52261740Y-37049957D01*
X52166016Y-37198989D01*
X52089461Y-37398712D01*
X52024993Y-37643721D01*
X51991950Y-37904608D01*
X51984233Y-38170706D01*
X51982559Y-38365731D01*
X51977631Y-38517878D01*
X51970327Y-38605810D01*
X51965759Y-38619084D01*
X51948343Y-38577832D01*
X51939989Y-38510019D01*
X51934945Y-38125346D01*
X51965265Y-37759728D01*
X52027834Y-37446657D01*
X52043729Y-37393961D01*
X52149690Y-37136754D01*
X52276137Y-36966756D01*
X52430313Y-36875138D01*
X52479962Y-36862223D01*
X52614404Y-36827257D01*
X52693925Y-36799332D01*
X52758491Y-36784251D01*
X52753961Y-36813606D01*
G36*
X47857130Y-32669834D02*
G01*
X47863003Y-32903092D01*
X47930879Y-33202604D01*
X48058748Y-33561813D01*
X48244601Y-33974162D01*
X48276436Y-34038359D01*
X48449169Y-34363131D01*
X48625498Y-34647776D01*
X48823224Y-34916188D01*
X49060149Y-35192260D01*
X49354074Y-35499886D01*
X49398817Y-35544861D01*
X49755705Y-35882065D01*
X50092444Y-36152878D01*
X50436083Y-36375589D01*
X50813669Y-36568488D01*
X51082946Y-36683663D01*
X51262372Y-36762848D01*
X51405031Y-36838637D01*
X51487970Y-36898341D01*
X51498836Y-36913576D01*
X51503993Y-36999176D01*
X51487441Y-37141964D01*
X51464559Y-37257836D01*
X51391355Y-37644833D01*
X51353131Y-38009714D01*
X51351913Y-38326761D01*
X51368580Y-38476369D01*
X51454252Y-38800000D01*
X51588644Y-39080699D01*
X51761132Y-39301793D01*
X51961090Y-39446606D01*
X51996847Y-39462358D01*
X52166488Y-39509082D01*
X52289550Y-39484571D01*
X52382334Y-39379914D01*
X52452249Y-39213343D01*
X52561571Y-38954110D01*
X52715650Y-38678121D01*
X52898715Y-38406827D01*
X53094997Y-38161682D01*
X53288727Y-37964137D01*
X53464133Y-37835645D01*
X53465594Y-37834860D01*
X53551396Y-37797969D01*
X53564624Y-37815086D01*
X53508708Y-37880039D01*
X53387080Y-37986656D01*
X53376356Y-37995389D01*
X53165325Y-38191197D01*
X52940081Y-38442498D01*
X52782576Y-38643796D01*
X52723397Y-38743565D01*
X52645112Y-38899329D01*
X52563537Y-39076646D01*
X52494489Y-39241072D01*
X52453783Y-39358165D01*
X52452855Y-39361837D01*
X52381772Y-39488979D01*
X52301008Y-39543611D01*
X52210014Y-39575836D01*
X52173848Y-39584862D01*
X52127646Y-39566659D01*
X52027653Y-39527474D01*
X52019466Y-39524270D01*
X51837490Y-39442268D01*
X51710240Y-39349046D01*
X51607164Y-39216078D01*
X51519101Y-39057084D01*
X51385567Y-38730906D01*
X51313833Y-38385519D01*
X51303001Y-38005047D01*
X51352171Y-37573618D01*
X51416968Y-37253630D01*
X51448018Y-37097368D01*
X51447826Y-36985112D01*
X51403527Y-36900751D01*
X51302256Y-36828175D01*
X51131149Y-36751274D01*
X50964306Y-36686762D01*
X50439653Y-36440337D01*
X49930302Y-36109144D01*
X49447808Y-35705291D01*
X49003727Y-35240883D01*
X48609613Y-34728027D01*
X48277021Y-34178831D01*
X48017505Y-33605400D01*
X48013703Y-33595273D01*
X47907048Y-33277082D01*
X47840415Y-33003989D01*
X47816504Y-32789796D01*
X47831687Y-32664645D01*
X47874612Y-32535687D01*
X47857130Y-32669834D01*
G37*
X47857130Y-32669834D02*
X47863003Y-32903092D01*
X47930879Y-33202604D01*
X48058748Y-33561813D01*
X48244601Y-33974162D01*
X48276436Y-34038359D01*
X48449169Y-34363131D01*
X48625498Y-34647776D01*
X48823224Y-34916188D01*
X49060149Y-35192260D01*
X49354074Y-35499886D01*
X49398817Y-35544861D01*
X49755705Y-35882065D01*
X50092444Y-36152878D01*
X50436083Y-36375589D01*
X50813669Y-36568488D01*
X51082946Y-36683663D01*
X51262372Y-36762848D01*
X51405031Y-36838637D01*
X51487970Y-36898341D01*
X51498836Y-36913576D01*
X51503993Y-36999176D01*
X51487441Y-37141964D01*
X51464559Y-37257836D01*
X51391355Y-37644833D01*
X51353131Y-38009714D01*
X51351913Y-38326761D01*
X51368580Y-38476369D01*
X51454252Y-38800000D01*
X51588644Y-39080699D01*
X51761132Y-39301793D01*
X51961090Y-39446606D01*
X51996847Y-39462358D01*
X52166488Y-39509082D01*
X52289550Y-39484571D01*
X52382334Y-39379914D01*
X52452249Y-39213343D01*
X52561571Y-38954110D01*
X52715650Y-38678121D01*
X52898715Y-38406827D01*
X53094997Y-38161682D01*
X53288727Y-37964137D01*
X53464133Y-37835645D01*
X53465594Y-37834860D01*
X53551396Y-37797969D01*
X53564624Y-37815086D01*
X53508708Y-37880039D01*
X53387080Y-37986656D01*
X53376356Y-37995389D01*
X53165325Y-38191197D01*
X52940081Y-38442498D01*
X52782576Y-38643796D01*
X52723397Y-38743565D01*
X52645112Y-38899329D01*
X52563537Y-39076646D01*
X52494489Y-39241072D01*
X52453783Y-39358165D01*
X52452855Y-39361837D01*
X52381772Y-39488979D01*
X52301008Y-39543611D01*
X52210014Y-39575836D01*
X52173848Y-39584862D01*
X52127646Y-39566659D01*
X52027653Y-39527474D01*
X52019466Y-39524270D01*
X51837490Y-39442268D01*
X51710240Y-39349046D01*
X51607164Y-39216078D01*
X51519101Y-39057084D01*
X51385567Y-38730906D01*
X51313833Y-38385519D01*
X51303001Y-38005047D01*
X51352171Y-37573618D01*
X51416968Y-37253630D01*
X51448018Y-37097368D01*
X51447826Y-36985112D01*
X51403527Y-36900751D01*
X51302256Y-36828175D01*
X51131149Y-36751274D01*
X50964306Y-36686762D01*
X50439653Y-36440337D01*
X49930302Y-36109144D01*
X49447808Y-35705291D01*
X49003727Y-35240883D01*
X48609613Y-34728027D01*
X48277021Y-34178831D01*
X48017505Y-33605400D01*
X48013703Y-33595273D01*
X47907048Y-33277082D01*
X47840415Y-33003989D01*
X47816504Y-32789796D01*
X47831687Y-32664645D01*
X47874612Y-32535687D01*
X47857130Y-32669834D01*
G36*
X55710129Y-37470498D02*
G01*
X55690078Y-37507199D01*
X55606672Y-37563817D01*
X55583861Y-37576076D01*
X55380596Y-37709766D01*
X55180046Y-37889226D01*
X55015451Y-38082294D01*
X54947568Y-38191706D01*
X54828505Y-38485562D01*
X54751649Y-38802163D01*
X54725029Y-39102575D01*
X54732866Y-39232955D01*
X54757306Y-39371274D01*
X54786244Y-39455103D01*
X54805729Y-39467954D01*
X54827723Y-39485367D01*
X54820742Y-39540010D01*
X54790807Y-39622634D01*
X54762202Y-39615291D01*
X54727358Y-39515136D01*
X54724260Y-39503721D01*
X54683330Y-39203287D01*
X54701874Y-38865783D01*
X54773084Y-38522010D01*
X54890154Y-38202770D01*
X55046275Y-37938864D01*
X55079068Y-37898364D01*
X55193121Y-37783353D01*
X55332821Y-37667764D01*
X55476476Y-37566301D01*
X55602395Y-37493671D01*
X55688889Y-37464582D01*
X55710129Y-37470498D01*
G37*
X55710129Y-37470498D02*
X55690078Y-37507199D01*
X55606672Y-37563817D01*
X55583861Y-37576076D01*
X55380596Y-37709766D01*
X55180046Y-37889226D01*
X55015451Y-38082294D01*
X54947568Y-38191706D01*
X54828505Y-38485562D01*
X54751649Y-38802163D01*
X54725029Y-39102575D01*
X54732866Y-39232955D01*
X54757306Y-39371274D01*
X54786244Y-39455103D01*
X54805729Y-39467954D01*
X54827723Y-39485367D01*
X54820742Y-39540010D01*
X54790807Y-39622634D01*
X54762202Y-39615291D01*
X54727358Y-39515136D01*
X54724260Y-39503721D01*
X54683330Y-39203287D01*
X54701874Y-38865783D01*
X54773084Y-38522010D01*
X54890154Y-38202770D01*
X55046275Y-37938864D01*
X55079068Y-37898364D01*
X55193121Y-37783353D01*
X55332821Y-37667764D01*
X55476476Y-37566301D01*
X55602395Y-37493671D01*
X55688889Y-37464582D01*
X55710129Y-37470498D01*
G36*
X57653045Y-37421742D02*
G01*
X57734225Y-37475539D01*
X57833320Y-37584138D01*
X57938294Y-37721790D01*
X58079145Y-37927638D01*
X58154522Y-38078877D01*
X58167483Y-38189468D01*
X58121088Y-38273370D01*
X58068342Y-38315203D01*
X57937150Y-38444721D01*
X57843222Y-38617520D01*
X57812023Y-38770398D01*
X57780006Y-38893176D01*
X57735405Y-38962715D01*
X57698653Y-39027907D01*
X57673816Y-39138588D01*
X57658582Y-39311550D01*
X57650641Y-39563584D01*
X57650360Y-39580744D01*
X57644011Y-39799410D01*
X57633297Y-39981256D01*
X57619818Y-40105010D01*
X57607723Y-40148320D01*
X57546411Y-40165160D01*
X57413323Y-40179931D01*
X57233627Y-40190115D01*
X57171681Y-40191964D01*
X56842624Y-40221700D01*
X56581858Y-40298524D01*
X56369189Y-40429916D01*
X56266033Y-40527480D01*
X56169892Y-40692949D01*
X56124795Y-40908055D01*
X56134655Y-41137714D01*
X56180116Y-41297558D01*
X56218068Y-41415767D01*
X56221422Y-41492135D01*
X56214297Y-41502075D01*
X56181543Y-41474110D01*
X56140858Y-41375329D01*
X56114439Y-41280866D01*
X56074987Y-40961972D01*
X56118767Y-40690884D01*
X56243005Y-40470663D01*
X56444929Y-40304371D01*
X56721766Y-40195069D01*
X57070745Y-40145817D01*
X57144465Y-40143509D01*
X57327583Y-40136545D01*
X57471560Y-40123461D01*
X57550211Y-40106825D01*
X57555933Y-40103164D01*
X57570822Y-40043434D01*
X57584762Y-39907959D01*
X57596037Y-39717937D01*
X57602191Y-39531771D01*
X57613251Y-39254452D01*
X57633040Y-39063539D01*
X57662898Y-38948771D01*
X57682650Y-38916005D01*
X57736033Y-38817545D01*
X57779662Y-38675828D01*
X57785399Y-38647145D01*
X57864650Y-38444694D01*
X57961195Y-38324739D01*
X58051905Y-38224180D01*
X58100355Y-38139641D01*
X58102863Y-38124602D01*
X58073954Y-38042782D01*
X57999251Y-37918389D01*
X57896794Y-37774722D01*
X57784617Y-37635078D01*
X57680760Y-37522758D01*
X57603259Y-37461059D01*
X57585036Y-37455725D01*
X57482375Y-37485941D01*
X57428053Y-37521604D01*
X57318360Y-37579894D01*
X57137211Y-37637605D01*
X56909915Y-37688230D01*
X56661781Y-37725261D01*
X56618036Y-37729866D01*
X56201599Y-37815986D01*
X55827619Y-37989023D01*
X55493766Y-38250134D01*
X55420092Y-38325244D01*
X55196156Y-38608101D01*
X55053700Y-38900325D01*
X54979227Y-39230707D01*
X54973952Y-39276822D01*
X54949969Y-39439328D01*
X54918656Y-39563583D01*
X54894183Y-39612786D01*
X54862798Y-39623886D01*
X54872575Y-39564313D01*
X54896320Y-39455294D01*
X54920611Y-39303065D01*
X54926531Y-39257538D01*
X54995651Y-38902679D01*
X55115713Y-38609597D01*
X55300557Y-38350500D01*
X55457674Y-38191129D01*
X55795445Y-37939725D01*
X56176333Y-37771347D01*
X56609251Y-37682107D01*
X56629518Y-37679949D01*
X56882924Y-37644275D01*
X57106510Y-37594814D01*
X57278423Y-37537547D01*
X57376811Y-37478449D01*
X57380233Y-37474576D01*
X57467512Y-37424336D01*
X57571725Y-37407252D01*
X57653045Y-37421742D01*
G37*
X57653045Y-37421742D02*
X57734225Y-37475539D01*
X57833320Y-37584138D01*
X57938294Y-37721790D01*
X58079145Y-37927638D01*
X58154522Y-38078877D01*
X58167483Y-38189468D01*
X58121088Y-38273370D01*
X58068342Y-38315203D01*
X57937150Y-38444721D01*
X57843222Y-38617520D01*
X57812023Y-38770398D01*
X57780006Y-38893176D01*
X57735405Y-38962715D01*
X57698653Y-39027907D01*
X57673816Y-39138588D01*
X57658582Y-39311550D01*
X57650641Y-39563584D01*
X57650360Y-39580744D01*
X57644011Y-39799410D01*
X57633297Y-39981256D01*
X57619818Y-40105010D01*
X57607723Y-40148320D01*
X57546411Y-40165160D01*
X57413323Y-40179931D01*
X57233627Y-40190115D01*
X57171681Y-40191964D01*
X56842624Y-40221700D01*
X56581858Y-40298524D01*
X56369189Y-40429916D01*
X56266033Y-40527480D01*
X56169892Y-40692949D01*
X56124795Y-40908055D01*
X56134655Y-41137714D01*
X56180116Y-41297558D01*
X56218068Y-41415767D01*
X56221422Y-41492135D01*
X56214297Y-41502075D01*
X56181543Y-41474110D01*
X56140858Y-41375329D01*
X56114439Y-41280866D01*
X56074987Y-40961972D01*
X56118767Y-40690884D01*
X56243005Y-40470663D01*
X56444929Y-40304371D01*
X56721766Y-40195069D01*
X57070745Y-40145817D01*
X57144465Y-40143509D01*
X57327583Y-40136545D01*
X57471560Y-40123461D01*
X57550211Y-40106825D01*
X57555933Y-40103164D01*
X57570822Y-40043434D01*
X57584762Y-39907959D01*
X57596037Y-39717937D01*
X57602191Y-39531771D01*
X57613251Y-39254452D01*
X57633040Y-39063539D01*
X57662898Y-38948771D01*
X57682650Y-38916005D01*
X57736033Y-38817545D01*
X57779662Y-38675828D01*
X57785399Y-38647145D01*
X57864650Y-38444694D01*
X57961195Y-38324739D01*
X58051905Y-38224180D01*
X58100355Y-38139641D01*
X58102863Y-38124602D01*
X58073954Y-38042782D01*
X57999251Y-37918389D01*
X57896794Y-37774722D01*
X57784617Y-37635078D01*
X57680760Y-37522758D01*
X57603259Y-37461059D01*
X57585036Y-37455725D01*
X57482375Y-37485941D01*
X57428053Y-37521604D01*
X57318360Y-37579894D01*
X57137211Y-37637605D01*
X56909915Y-37688230D01*
X56661781Y-37725261D01*
X56618036Y-37729866D01*
X56201599Y-37815986D01*
X55827619Y-37989023D01*
X55493766Y-38250134D01*
X55420092Y-38325244D01*
X55196156Y-38608101D01*
X55053700Y-38900325D01*
X54979227Y-39230707D01*
X54973952Y-39276822D01*
X54949969Y-39439328D01*
X54918656Y-39563583D01*
X54894183Y-39612786D01*
X54862798Y-39623886D01*
X54872575Y-39564313D01*
X54896320Y-39455294D01*
X54920611Y-39303065D01*
X54926531Y-39257538D01*
X54995651Y-38902679D01*
X55115713Y-38609597D01*
X55300557Y-38350500D01*
X55457674Y-38191129D01*
X55795445Y-37939725D01*
X56176333Y-37771347D01*
X56609251Y-37682107D01*
X56629518Y-37679949D01*
X56882924Y-37644275D01*
X57106510Y-37594814D01*
X57278423Y-37537547D01*
X57376811Y-37478449D01*
X57380233Y-37474576D01*
X57467512Y-37424336D01*
X57571725Y-37407252D01*
X57653045Y-37421742D01*
G36*
X48066448Y-32582136D02*
G01*
X48113327Y-32604509D01*
X48301498Y-32680606D01*
X48560050Y-32760274D01*
X48862954Y-32836885D01*
X49184182Y-32903808D01*
X49474618Y-32951272D01*
X49706782Y-32974121D01*
X50015788Y-32990917D01*
X50381718Y-33001649D01*
X50784658Y-33006309D01*
X51204691Y-33004887D01*
X51621900Y-32997374D01*
X52016370Y-32983762D01*
X52368184Y-32964040D01*
X52512898Y-32952678D01*
X53040267Y-32922240D01*
X53493697Y-32929406D01*
X53869402Y-32973656D01*
X54163594Y-33054467D01*
X54372488Y-33171320D01*
X54419686Y-33215157D01*
X54485550Y-33302565D01*
X54525426Y-33410717D01*
X54547890Y-33569456D01*
X54555938Y-33689288D01*
X54584964Y-33933278D01*
X54650701Y-34110910D01*
X54766458Y-34233819D01*
X54945546Y-34313639D01*
X55201275Y-34362002D01*
X55342018Y-34376359D01*
X55985589Y-34458919D01*
X56546756Y-34590534D01*
X57027252Y-34772101D01*
X57428814Y-35004517D01*
X57753177Y-35288682D01*
X58002076Y-35625493D01*
X58092271Y-35799583D01*
X58176309Y-36043827D01*
X58215343Y-36294369D01*
X58208086Y-36523251D01*
X58153251Y-36702514D01*
X58135178Y-36731802D01*
X58076944Y-36839486D01*
X58060601Y-36951431D01*
X58090782Y-37083494D01*
X58172121Y-37251535D01*
X58309249Y-37471413D01*
X58383287Y-37581125D01*
X58554246Y-37839986D01*
X58666291Y-38039180D01*
X58721637Y-38194287D01*
X58722502Y-38320884D01*
X58671102Y-38434548D01*
X58569654Y-38550858D01*
X58527005Y-38591159D01*
X58407103Y-38708916D01*
X58337865Y-38809545D01*
X58300224Y-38931841D01*
X58276701Y-39100477D01*
X58247597Y-39280041D01*
X58207511Y-39432020D01*
X58172172Y-39511167D01*
X58127845Y-39636177D01*
X58105525Y-39850351D01*
X58102863Y-39983393D01*
X58100079Y-40176739D01*
X58086393Y-40302079D01*
X58053804Y-40388308D01*
X57994310Y-40464321D01*
X57959927Y-40499600D01*
X57888568Y-40565792D01*
X57818800Y-40608095D01*
X57726773Y-40632407D01*
X57588640Y-40644628D01*
X57380550Y-40650658D01*
X57346665Y-40651303D01*
X57033467Y-40669250D01*
X56800851Y-40716295D01*
X56634381Y-40802285D01*
X56519623Y-40937064D01*
X56442144Y-41130478D01*
X56404645Y-41293831D01*
X56370758Y-41448931D01*
X56339980Y-41550221D01*
X56317712Y-41583869D01*
X56309351Y-41537946D01*
X56324316Y-41410026D01*
X56362195Y-41237419D01*
X56412460Y-41059141D01*
X56464587Y-40914210D01*
X56492387Y-40859475D01*
X56566464Y-40768195D01*
X56661537Y-40703293D01*
X56796002Y-40658995D01*
X56988257Y-40629523D01*
X57256701Y-40609103D01*
X57297007Y-40606874D01*
X57529878Y-40593215D01*
X57686727Y-40578379D01*
X57788377Y-40556791D01*
X57855653Y-40522874D01*
X57909380Y-40471055D01*
X57939037Y-40434980D01*
X58001475Y-40341369D01*
X58036599Y-40235930D01*
X58051660Y-40087382D01*
X58054149Y-39938276D01*
X58065414Y-39706188D01*
X58096835Y-39537788D01*
X58122804Y-39477779D01*
X58164735Y-39375944D01*
X58208128Y-39213525D01*
X58242555Y-39031797D01*
X58275112Y-38846581D01*
X58314509Y-38724820D01*
X58377016Y-38633479D01*
X58478899Y-38539526D01*
X58489217Y-38530925D01*
X58629642Y-38387762D01*
X58684052Y-38265249D01*
X58684542Y-38254106D01*
X58658423Y-38171085D01*
X58587210Y-38028430D01*
X58481614Y-37845781D01*
X58352350Y-37642776D01*
X58345229Y-37632102D01*
X58176097Y-37367001D01*
X58066254Y-37160226D01*
X58011648Y-36996715D01*
X58008224Y-36861404D01*
X58051930Y-36739227D01*
X58089026Y-36680015D01*
X58151995Y-36519247D01*
X58167950Y-36306189D01*
X58138034Y-36072693D01*
X58063391Y-35850607D01*
X58058899Y-35841187D01*
X57847034Y-35507640D01*
X57553445Y-35202161D01*
X57191930Y-34936243D01*
X56776287Y-34721384D01*
X56658438Y-34674317D01*
X56380117Y-34583399D01*
X56079071Y-34514438D01*
X55729392Y-34462464D01*
X55373403Y-34427838D01*
X55100997Y-34398232D01*
X54902128Y-34355675D01*
X54753557Y-34292979D01*
X54632048Y-34202957D01*
X54624905Y-34196337D01*
X54565209Y-34125735D01*
X54531950Y-34035859D01*
X54517976Y-33897998D01*
X54515840Y-33758459D01*
X54512421Y-33576352D01*
X54495094Y-33458335D01*
X54453251Y-33371606D01*
X54376283Y-33283366D01*
X54355374Y-33262282D01*
X54182285Y-33134436D01*
X53950925Y-33042958D01*
X53654014Y-32986792D01*
X53284269Y-32964885D01*
X52834409Y-32976182D01*
X52529724Y-32997887D01*
X51734073Y-33050048D01*
X50982465Y-33068554D01*
X50283610Y-33053927D01*
X49646217Y-33006688D01*
X49078997Y-32927358D01*
X48590660Y-32816458D01*
X48379762Y-32749675D01*
X48216043Y-32695008D01*
X48081599Y-32655831D01*
X48016380Y-32642213D01*
X47949213Y-32606222D01*
X47939631Y-32576910D01*
X47969927Y-32551229D01*
X48066448Y-32582136D01*
G37*
X48066448Y-32582136D02*
X48113327Y-32604509D01*
X48301498Y-32680606D01*
X48560050Y-32760274D01*
X48862954Y-32836885D01*
X49184182Y-32903808D01*
X49474618Y-32951272D01*
X49706782Y-32974121D01*
X50015788Y-32990917D01*
X50381718Y-33001649D01*
X50784658Y-33006309D01*
X51204691Y-33004887D01*
X51621900Y-32997374D01*
X52016370Y-32983762D01*
X52368184Y-32964040D01*
X52512898Y-32952678D01*
X53040267Y-32922240D01*
X53493697Y-32929406D01*
X53869402Y-32973656D01*
X54163594Y-33054467D01*
X54372488Y-33171320D01*
X54419686Y-33215157D01*
X54485550Y-33302565D01*
X54525426Y-33410717D01*
X54547890Y-33569456D01*
X54555938Y-33689288D01*
X54584964Y-33933278D01*
X54650701Y-34110910D01*
X54766458Y-34233819D01*
X54945546Y-34313639D01*
X55201275Y-34362002D01*
X55342018Y-34376359D01*
X55985589Y-34458919D01*
X56546756Y-34590534D01*
X57027252Y-34772101D01*
X57428814Y-35004517D01*
X57753177Y-35288682D01*
X58002076Y-35625493D01*
X58092271Y-35799583D01*
X58176309Y-36043827D01*
X58215343Y-36294369D01*
X58208086Y-36523251D01*
X58153251Y-36702514D01*
X58135178Y-36731802D01*
X58076944Y-36839486D01*
X58060601Y-36951431D01*
X58090782Y-37083494D01*
X58172121Y-37251535D01*
X58309249Y-37471413D01*
X58383287Y-37581125D01*
X58554246Y-37839986D01*
X58666291Y-38039180D01*
X58721637Y-38194287D01*
X58722502Y-38320884D01*
X58671102Y-38434548D01*
X58569654Y-38550858D01*
X58527005Y-38591159D01*
X58407103Y-38708916D01*
X58337865Y-38809545D01*
X58300224Y-38931841D01*
X58276701Y-39100477D01*
X58247597Y-39280041D01*
X58207511Y-39432020D01*
X58172172Y-39511167D01*
X58127845Y-39636177D01*
X58105525Y-39850351D01*
X58102863Y-39983393D01*
X58100079Y-40176739D01*
X58086393Y-40302079D01*
X58053804Y-40388308D01*
X57994310Y-40464321D01*
X57959927Y-40499600D01*
X57888568Y-40565792D01*
X57818800Y-40608095D01*
X57726773Y-40632407D01*
X57588640Y-40644628D01*
X57380550Y-40650658D01*
X57346665Y-40651303D01*
X57033467Y-40669250D01*
X56800851Y-40716295D01*
X56634381Y-40802285D01*
X56519623Y-40937064D01*
X56442144Y-41130478D01*
X56404645Y-41293831D01*
X56370758Y-41448931D01*
X56339980Y-41550221D01*
X56317712Y-41583869D01*
X56309351Y-41537946D01*
X56324316Y-41410026D01*
X56362195Y-41237419D01*
X56412460Y-41059141D01*
X56464587Y-40914210D01*
X56492387Y-40859475D01*
X56566464Y-40768195D01*
X56661537Y-40703293D01*
X56796002Y-40658995D01*
X56988257Y-40629523D01*
X57256701Y-40609103D01*
X57297007Y-40606874D01*
X57529878Y-40593215D01*
X57686727Y-40578379D01*
X57788377Y-40556791D01*
X57855653Y-40522874D01*
X57909380Y-40471055D01*
X57939037Y-40434980D01*
X58001475Y-40341369D01*
X58036599Y-40235930D01*
X58051660Y-40087382D01*
X58054149Y-39938276D01*
X58065414Y-39706188D01*
X58096835Y-39537788D01*
X58122804Y-39477779D01*
X58164735Y-39375944D01*
X58208128Y-39213525D01*
X58242555Y-39031797D01*
X58275112Y-38846581D01*
X58314509Y-38724820D01*
X58377016Y-38633479D01*
X58478899Y-38539526D01*
X58489217Y-38530925D01*
X58629642Y-38387762D01*
X58684052Y-38265249D01*
X58684542Y-38254106D01*
X58658423Y-38171085D01*
X58587210Y-38028430D01*
X58481614Y-37845781D01*
X58352350Y-37642776D01*
X58345229Y-37632102D01*
X58176097Y-37367001D01*
X58066254Y-37160226D01*
X58011648Y-36996715D01*
X58008224Y-36861404D01*
X58051930Y-36739227D01*
X58089026Y-36680015D01*
X58151995Y-36519247D01*
X58167950Y-36306189D01*
X58138034Y-36072693D01*
X58063391Y-35850607D01*
X58058899Y-35841187D01*
X57847034Y-35507640D01*
X57553445Y-35202161D01*
X57191930Y-34936243D01*
X56776287Y-34721384D01*
X56658438Y-34674317D01*
X56380117Y-34583399D01*
X56079071Y-34514438D01*
X55729392Y-34462464D01*
X55373403Y-34427838D01*
X55100997Y-34398232D01*
X54902128Y-34355675D01*
X54753557Y-34292979D01*
X54632048Y-34202957D01*
X54624905Y-34196337D01*
X54565209Y-34125735D01*
X54531950Y-34035859D01*
X54517976Y-33897998D01*
X54515840Y-33758459D01*
X54512421Y-33576352D01*
X54495094Y-33458335D01*
X54453251Y-33371606D01*
X54376283Y-33283366D01*
X54355374Y-33262282D01*
X54182285Y-33134436D01*
X53950925Y-33042958D01*
X53654014Y-32986792D01*
X53284269Y-32964885D01*
X52834409Y-32976182D01*
X52529724Y-32997887D01*
X51734073Y-33050048D01*
X50982465Y-33068554D01*
X50283610Y-33053927D01*
X49646217Y-33006688D01*
X49078997Y-32927358D01*
X48590660Y-32816458D01*
X48379762Y-32749675D01*
X48216043Y-32695008D01*
X48081599Y-32655831D01*
X48016380Y-32642213D01*
X47949213Y-32606222D01*
X47939631Y-32576910D01*
X47969927Y-32551229D01*
X48066448Y-32582136D01*
D13*
G04 #@! TO.C,IC1*
X49851134Y-50749651D02*
X50100785Y-50500000D01*
X50100785Y-50500000D02*
X49851134Y-50250349D01*
D14*
G04 #@! TO.C,S2*
X41032000Y-62386000D02*
X41032000Y-62386000D01*
X41032000Y-62458000D02*
X41032000Y-62458000D01*
X41032000Y-62386000D02*
G75*
G02*
X41032000Y-62458000I0J-36000D01*
G01*
X41032000Y-62458000D02*
G75*
G02*
X41032000Y-62386000I0J36000D01*
G01*
D15*
G04 #@! TO.C,U2*
X43085000Y-81500000D02*
X42750000Y-81500000D01*
X42750000Y-81500000D02*
X42750000Y-80500000D01*
X42750000Y-80500000D02*
X42750000Y-80500000D01*
X47000000Y-81500000D02*
X47250000Y-81500000D01*
X47250000Y-81500000D02*
X47250000Y-80500000D01*
X42750000Y-79500000D02*
X42750000Y-78500000D01*
X42750000Y-78500000D02*
X43085000Y-78500000D01*
X46915000Y-78500000D02*
X47250000Y-78500000D01*
X47250000Y-78500000D02*
X47250000Y-79500000D01*
X43500000Y-77900000D02*
X43500000Y-77900000D01*
X43500000Y-77800000D02*
X43500000Y-77800000D01*
X43500000Y-77900000D02*
G75*
G03*
X43500000Y-77800000I0J50000D01*
G01*
X43500000Y-77800000D02*
G75*
G03*
X43500000Y-77900000I0J-50000D01*
G01*
G04 #@! TO.C,U3*
X40350000Y-78900000D02*
X40350000Y-79200000D01*
X40350000Y-78900000D02*
X40050000Y-78900000D01*
X37650000Y-81100000D02*
X37650000Y-80800000D01*
X37650000Y-81100000D02*
X37950000Y-81100000D01*
X37650000Y-78900000D02*
X37950000Y-78900000D01*
X37650000Y-78900000D02*
X37650000Y-79250000D01*
X40200000Y-80950000D02*
X40200000Y-81050000D01*
X40350000Y-80800000D02*
X40200000Y-80950000D01*
X40350000Y-80650000D02*
X40350000Y-80800000D01*
G04 #@! TO.C,S1*
X21700000Y-63450000D02*
X21700000Y-58950000D01*
X26200000Y-63450000D02*
X26200000Y-58950000D01*
X22950000Y-63450000D02*
X24950000Y-63450000D01*
X22950000Y-58950000D02*
X24950000Y-58950000D01*
D16*
X22450000Y-65200000D02*
X22450000Y-65200000D01*
X22450000Y-65300000D02*
X22450000Y-65300000D01*
X22450000Y-65200000D02*
G75*
G02*
X22450000Y-65300000I0J-50000D01*
G01*
X22450000Y-65300000D02*
G75*
G02*
X22450000Y-65200000I0J50000D01*
G01*
D17*
G04 #@! TO.C,J17*
X61100000Y-85700000D02*
X61100000Y-87700000D01*
X63340000Y-85700000D02*
X61100000Y-85700000D01*
X65311000Y-93150000D02*
X65250000Y-93150000D01*
X69000000Y-93150000D02*
X66689000Y-93150000D01*
X65311000Y-90350000D02*
X65250000Y-90350000D01*
X69000000Y-90350000D02*
X66689000Y-90350000D01*
X65250000Y-93150000D02*
X65250000Y-93150000D01*
X65250000Y-90350000D02*
X65250000Y-90351000D01*
X69000000Y-90350000D02*
X69000000Y-93150000D01*
X69000000Y-89650000D02*
X67540000Y-89650000D01*
X69000000Y-86850000D02*
X67540000Y-86850000D01*
X69000000Y-86850000D02*
X69000000Y-89650000D01*
X69760000Y-94060000D02*
X61340000Y-94060000D01*
X69760000Y-85940000D02*
X61340000Y-85940000D01*
X61340000Y-85940000D02*
X61340000Y-94060000D01*
X69760000Y-85940000D02*
X69760000Y-94060000D01*
X64899000Y-92884000D02*
X64899000Y-94060000D01*
X64899000Y-89790000D02*
X64899000Y-90617000D01*
X64899000Y-85940000D02*
X64899000Y-86710000D01*
X67257767Y-90810085D02*
G75*
G02*
X67258000Y-92690000I342233J-939915D01*
G01*
X67529434Y-87252110D02*
G75*
G02*
X67531000Y-89248000I70566J-997890D01*
G01*
G04 #@! TO.C,J16*
X61100000Y-76700000D02*
X61100000Y-78700000D01*
X63340000Y-76700000D02*
X61100000Y-76700000D01*
X65311000Y-84150000D02*
X65250000Y-84150000D01*
X69000000Y-84150000D02*
X66689000Y-84150000D01*
X65311000Y-81350000D02*
X65250000Y-81350000D01*
X69000000Y-81350000D02*
X66689000Y-81350000D01*
X65250000Y-84150000D02*
X65250000Y-84150000D01*
X65250000Y-81350000D02*
X65250000Y-81351000D01*
X69000000Y-81350000D02*
X69000000Y-84150000D01*
X69000000Y-80650000D02*
X67540000Y-80650000D01*
X69000000Y-77850000D02*
X67540000Y-77850000D01*
X69000000Y-77850000D02*
X69000000Y-80650000D01*
X69760000Y-85060000D02*
X61340000Y-85060000D01*
X69760000Y-76940000D02*
X61340000Y-76940000D01*
X61340000Y-76940000D02*
X61340000Y-85060000D01*
X69760000Y-76940000D02*
X69760000Y-85060000D01*
X64899000Y-83884000D02*
X64899000Y-85060000D01*
X64899000Y-80790000D02*
X64899000Y-81617000D01*
X64899000Y-76940000D02*
X64899000Y-77710000D01*
X67257767Y-81810085D02*
G75*
G02*
X67258000Y-83690000I342233J-939915D01*
G01*
X67529434Y-78252110D02*
G75*
G02*
X67531000Y-80248000I70566J-997890D01*
G01*
G04 #@! TO.C,J15*
X61100000Y-67700000D02*
X61100000Y-69700000D01*
X63340000Y-67700000D02*
X61100000Y-67700000D01*
X65311000Y-75150000D02*
X65250000Y-75150000D01*
X69000000Y-75150000D02*
X66689000Y-75150000D01*
X65311000Y-72350000D02*
X65250000Y-72350000D01*
X69000000Y-72350000D02*
X66689000Y-72350000D01*
X65250000Y-75150000D02*
X65250000Y-75150000D01*
X65250000Y-72350000D02*
X65250000Y-72351000D01*
X69000000Y-72350000D02*
X69000000Y-75150000D01*
X69000000Y-71650000D02*
X67540000Y-71650000D01*
X69000000Y-68850000D02*
X67540000Y-68850000D01*
X69000000Y-68850000D02*
X69000000Y-71650000D01*
X69760000Y-76060000D02*
X61340000Y-76060000D01*
X69760000Y-67940000D02*
X61340000Y-67940000D01*
X61340000Y-67940000D02*
X61340000Y-76060000D01*
X69760000Y-67940000D02*
X69760000Y-76060000D01*
X64899000Y-74884000D02*
X64899000Y-76060000D01*
X64899000Y-71790000D02*
X64899000Y-72617000D01*
X64899000Y-67940000D02*
X64899000Y-68710000D01*
X67257767Y-72810085D02*
G75*
G02*
X67258000Y-74690000I342233J-939915D01*
G01*
X67529434Y-69252110D02*
G75*
G02*
X67531000Y-71248000I70566J-997890D01*
G01*
G04 #@! TO.C,J12*
X28900000Y-85300000D02*
X28900000Y-83300000D01*
X26660000Y-85300000D02*
X28900000Y-85300000D01*
X24689000Y-77850000D02*
X24750000Y-77850000D01*
X21000000Y-77850000D02*
X23311000Y-77850000D01*
X24689000Y-80650000D02*
X24750000Y-80650000D01*
X21000000Y-80650000D02*
X23311000Y-80650000D01*
X24750000Y-77850000D02*
X24750000Y-77850000D01*
X24750000Y-80650000D02*
X24750000Y-80649000D01*
X21000000Y-80650000D02*
X21000000Y-77850000D01*
X21000000Y-81350000D02*
X22460000Y-81350000D01*
X21000000Y-84150000D02*
X22460000Y-84150000D01*
X21000000Y-84150000D02*
X21000000Y-81350000D01*
X20240000Y-76940000D02*
X28660000Y-76940000D01*
X20240000Y-85060000D02*
X28660000Y-85060000D01*
X28660000Y-85060000D02*
X28660000Y-76940000D01*
X20240000Y-85060000D02*
X20240000Y-76940000D01*
X25101000Y-78116000D02*
X25101000Y-76940000D01*
X25101000Y-81210000D02*
X25101000Y-80383000D01*
X25101000Y-85060000D02*
X25101000Y-84290000D01*
X22742233Y-80189915D02*
G75*
G02*
X22742000Y-78310000I-342233J939915D01*
G01*
X22470566Y-83747890D02*
G75*
G02*
X22469000Y-81752000I-70566J997890D01*
G01*
G04 #@! TO.C,J11*
X61100000Y-58700000D02*
X61100000Y-60700000D01*
X63340000Y-58700000D02*
X61100000Y-58700000D01*
X65311000Y-66150000D02*
X65250000Y-66150000D01*
X69000000Y-66150000D02*
X66689000Y-66150000D01*
X65311000Y-63350000D02*
X65250000Y-63350000D01*
X69000000Y-63350000D02*
X66689000Y-63350000D01*
X65250000Y-66150000D02*
X65250000Y-66150000D01*
X65250000Y-63350000D02*
X65250000Y-63351000D01*
X69000000Y-63350000D02*
X69000000Y-66150000D01*
X69000000Y-62650000D02*
X67540000Y-62650000D01*
X69000000Y-59850000D02*
X67540000Y-59850000D01*
X69000000Y-59850000D02*
X69000000Y-62650000D01*
X69760000Y-67060000D02*
X61340000Y-67060000D01*
X69760000Y-58940000D02*
X61340000Y-58940000D01*
X61340000Y-58940000D02*
X61340000Y-67060000D01*
X69760000Y-58940000D02*
X69760000Y-67060000D01*
X64899000Y-65884000D02*
X64899000Y-67060000D01*
X64899000Y-62790000D02*
X64899000Y-63617000D01*
X64899000Y-58940000D02*
X64899000Y-59710000D01*
X67257767Y-63810085D02*
G75*
G02*
X67258000Y-65690000I342233J-939915D01*
G01*
X67529434Y-60252110D02*
G75*
G02*
X67531000Y-62248000I70566J-997890D01*
G01*
G04 #@! TO.C,J9*
X28900000Y-94300000D02*
X28900000Y-92300000D01*
X26660000Y-94300000D02*
X28900000Y-94300000D01*
X24689000Y-86850000D02*
X24750000Y-86850000D01*
X21000000Y-86850000D02*
X23311000Y-86850000D01*
X24689000Y-89650000D02*
X24750000Y-89650000D01*
X21000000Y-89650000D02*
X23311000Y-89650000D01*
X24750000Y-86850000D02*
X24750000Y-86850000D01*
X24750000Y-89650000D02*
X24750000Y-89649000D01*
X21000000Y-89650000D02*
X21000000Y-86850000D01*
X21000000Y-90350000D02*
X22460000Y-90350000D01*
X21000000Y-93150000D02*
X22460000Y-93150000D01*
X21000000Y-93150000D02*
X21000000Y-90350000D01*
X20240000Y-85940000D02*
X28660000Y-85940000D01*
X20240000Y-94060000D02*
X28660000Y-94060000D01*
X28660000Y-94060000D02*
X28660000Y-85940000D01*
X20240000Y-94060000D02*
X20240000Y-85940000D01*
X25101000Y-87116000D02*
X25101000Y-85940000D01*
X25101000Y-90210000D02*
X25101000Y-89383000D01*
X25101000Y-94060000D02*
X25101000Y-93290000D01*
X22742233Y-89189915D02*
G75*
G02*
X22742000Y-87310000I-342233J939915D01*
G01*
X22470566Y-92747890D02*
G75*
G02*
X22469000Y-90752000I-70566J997890D01*
G01*
G04 #@! TO.C,J8*
X28900000Y-76300000D02*
X28900000Y-74300000D01*
X26660000Y-76300000D02*
X28900000Y-76300000D01*
X24689000Y-68850000D02*
X24750000Y-68850000D01*
X21000000Y-68850000D02*
X23311000Y-68850000D01*
X24689000Y-71650000D02*
X24750000Y-71650000D01*
X21000000Y-71650000D02*
X23311000Y-71650000D01*
X24750000Y-68850000D02*
X24750000Y-68850000D01*
X24750000Y-71650000D02*
X24750000Y-71649000D01*
X21000000Y-71650000D02*
X21000000Y-68850000D01*
X21000000Y-72350000D02*
X22460000Y-72350000D01*
X21000000Y-75150000D02*
X22460000Y-75150000D01*
X21000000Y-75150000D02*
X21000000Y-72350000D01*
X20240000Y-67940000D02*
X28660000Y-67940000D01*
X20240000Y-76060000D02*
X28660000Y-76060000D01*
X28660000Y-76060000D02*
X28660000Y-67940000D01*
X20240000Y-76060000D02*
X20240000Y-67940000D01*
X25101000Y-69116000D02*
X25101000Y-67940000D01*
X25101000Y-72210000D02*
X25101000Y-71383000D01*
X25101000Y-76060000D02*
X25101000Y-75290000D01*
X22742233Y-71189915D02*
G75*
G02*
X22742000Y-69310000I-342233J939915D01*
G01*
X22470566Y-74747890D02*
G75*
G02*
X22469000Y-72752000I-70566J997890D01*
G01*
D15*
G04 #@! TO.C,J6*
X21900000Y-54875000D02*
X21900000Y-45125000D01*
X21900000Y-45125000D02*
X21900000Y-45125000D01*
X21900000Y-45125000D02*
X21900000Y-54875000D01*
X21900000Y-54875000D02*
X21900000Y-54875000D01*
X26100000Y-45125000D02*
X26100000Y-47000000D01*
X26100000Y-47000000D02*
X26100000Y-47000000D01*
X26100000Y-47000000D02*
X26100000Y-45125000D01*
X26100000Y-45125000D02*
X26100000Y-45125000D01*
X26100000Y-53000000D02*
X26100000Y-54875000D01*
X26100000Y-54875000D02*
X26100000Y-54875000D01*
X26100000Y-54875000D02*
X26100000Y-53000000D01*
X26100000Y-53000000D02*
X26100000Y-53000000D01*
D16*
X27100000Y-47000000D02*
X27100000Y-47000000D01*
X27100000Y-46900000D02*
X27100000Y-46900000D01*
X27100000Y-47000000D02*
X27100000Y-47000000D01*
X27100000Y-46900000D02*
G75*
G02*
X27100000Y-47000000I0J-50000D01*
G01*
X27100000Y-47000000D02*
G75*
G02*
X27100000Y-46900000I0J50000D01*
G01*
X27100000Y-46900000D02*
G75*
G02*
X27100000Y-47000000I0J-50000D01*
G01*
G04 #@! TO.C,J5*
X63000000Y-51350000D02*
G75*
G03*
X63000000Y-51350000I-100000J0D01*
G01*
D18*
X68450000Y-53700000D02*
X68450000Y-46300000D01*
X68180000Y-46300000D02*
X68450000Y-46300000D01*
X68450000Y-53700000D02*
X68180000Y-53700000D01*
X64150000Y-46300000D02*
X64150000Y-46480000D01*
X64150000Y-53700000D02*
X64150000Y-53520000D01*
X64150000Y-46300000D02*
X65905000Y-46300000D01*
X64150000Y-53700000D02*
X65905000Y-53700000D01*
D17*
G04 #@! TO.C,FB1*
X60837221Y-53510000D02*
X61162779Y-53510000D01*
X60837221Y-52490000D02*
X61162779Y-52490000D01*
G04 #@! TO.C,F1*
X57458578Y-49690000D02*
X56941422Y-49690000D01*
X57458578Y-51110000D02*
X56941422Y-51110000D01*
D13*
G04 #@! TO.C,D4*
X42218000Y-35900000D02*
G75*
G03*
X42218000Y-35900000I-101600J0D01*
G01*
X47005000Y-35313259D02*
X47005000Y-34972000D01*
X43195000Y-38186741D02*
X43195000Y-38528000D01*
X43195000Y-34972000D02*
X43195000Y-35313259D01*
X47005000Y-34972000D02*
X43195000Y-34972000D01*
X47005000Y-38528000D02*
X47005000Y-38186741D01*
X43195000Y-38528000D02*
X47005000Y-38528000D01*
D17*
G04 #@! TO.C,D3*
X64640000Y-41110000D02*
X67500000Y-41110000D01*
X64640000Y-39190000D02*
X64640000Y-41110000D01*
X67500000Y-39190000D02*
X64640000Y-39190000D01*
D15*
G04 #@! TO.C,D1*
X60000000Y-48750000D02*
X60300000Y-48750000D01*
X60000000Y-49100000D02*
X60000000Y-48750000D01*
X62000000Y-48750000D02*
X62000000Y-49050000D01*
X61675000Y-48750000D02*
X62000000Y-48750000D01*
X60000000Y-52050000D02*
X60350000Y-52050000D01*
X60000000Y-51700000D02*
X60000000Y-52050000D01*
X61825000Y-51725000D02*
X62525000Y-51725000D01*
X61500000Y-52050000D02*
X61825000Y-51725000D01*
D17*
G04 #@! TO.C,C1*
X61261252Y-54065000D02*
X60738748Y-54065000D01*
X61261252Y-55535000D02*
X60738748Y-55535000D01*
G04 #@! TO.C,J1*
X48080000Y-91640000D02*
X45420000Y-91640000D01*
X48080000Y-96780000D02*
X48080000Y-91640000D01*
X45420000Y-96780000D02*
X45420000Y-91640000D01*
X48080000Y-96780000D02*
X45420000Y-96780000D01*
X48080000Y-98050000D02*
X48080000Y-99380000D01*
X48080000Y-99380000D02*
X46750000Y-99380000D01*
G04 #@! TO.C,J2*
X51680000Y-99380000D02*
X50350000Y-99380000D01*
X51680000Y-98050000D02*
X51680000Y-99380000D01*
X51680000Y-96780000D02*
X49020000Y-96780000D01*
X49020000Y-96780000D02*
X49020000Y-91640000D01*
X51680000Y-96780000D02*
X51680000Y-91640000D01*
X51680000Y-91640000D02*
X49020000Y-91640000D01*
G04 #@! TO.C,J3*
X44480000Y-91640000D02*
X41820000Y-91640000D01*
X44480000Y-96780000D02*
X44480000Y-91640000D01*
X41820000Y-96780000D02*
X41820000Y-91640000D01*
X44480000Y-96780000D02*
X41820000Y-96780000D01*
X44480000Y-98050000D02*
X44480000Y-99380000D01*
X44480000Y-99380000D02*
X43150000Y-99380000D01*
G04 #@! TO.C,J4*
X40880000Y-99380000D02*
X39550000Y-99380000D01*
X40880000Y-98050000D02*
X40880000Y-99380000D01*
X40880000Y-96780000D02*
X38220000Y-96780000D01*
X38220000Y-96780000D02*
X38220000Y-91640000D01*
X40880000Y-96780000D02*
X40880000Y-91640000D01*
X40880000Y-91640000D02*
X38220000Y-91640000D01*
D16*
G04 #@! TO.C,J7*
X27100000Y-34000000D02*
X27100000Y-34000000D01*
X27100000Y-33900000D02*
X27100000Y-33900000D01*
X27100000Y-34000000D02*
X27100000Y-34000000D01*
D15*
X26100000Y-40000000D02*
X26100000Y-40000000D01*
X26100000Y-41875000D02*
X26100000Y-40000000D01*
X26100000Y-41875000D02*
X26100000Y-41875000D01*
X26100000Y-40000000D02*
X26100000Y-41875000D01*
X26100000Y-32125000D02*
X26100000Y-32125000D01*
X26100000Y-34000000D02*
X26100000Y-32125000D01*
X26100000Y-34000000D02*
X26100000Y-34000000D01*
X26100000Y-32125000D02*
X26100000Y-34000000D01*
X21900000Y-41875000D02*
X21900000Y-41875000D01*
X21900000Y-32125000D02*
X21900000Y-41875000D01*
X21900000Y-32125000D02*
X21900000Y-32125000D01*
X21900000Y-41875000D02*
X21900000Y-32125000D01*
D16*
X27100000Y-33900000D02*
G75*
G02*
X27100000Y-34000000I0J-50000D01*
G01*
X27100000Y-34000000D02*
G75*
G02*
X27100000Y-33900000I0J50000D01*
G01*
X27100000Y-33900000D02*
G75*
G02*
X27100000Y-34000000I0J-50000D01*
G01*
G04 #@! TD*
M02*
